<?xml version="1.0" encoding="UTF-8" standalone="no"?><svg xmlns="http://www.w3.org/2000/svg" xmlns:xlink="http://www.w3.org/1999/xlink" contentStyleType="text/css" height="1051px" preserveAspectRatio="none" style="width:1552px;height:1051px;background:#FFFFFF;" version="1.1" viewBox="0 0 1552 1051" width="1552px" zoomAndPan="magnify"><defs/><g><rect fill="none" height="754.6641" rx="3.5" ry="3.5" style="stroke:#696969;stroke-width:1.0;" width="1535.5" x="10" y="198.6953"/><rect fill="none" height="491.7969" rx="3.5" ry="3.5" style="stroke:#696969;stroke-width:1.0;" width="1515.5" x="20" y="454.5625"/><line style="stroke:#696969;stroke-width:0.5;stroke-dasharray:5.0,5.0;" x1="47" x2="47" y1="81.2969" y2="970.3594"/><line style="stroke:#696969;stroke-width:0.5;stroke-dasharray:5.0,5.0;" x1="110" x2="110" y1="81.2969" y2="970.3594"/><line style="stroke:#696969;stroke-width:0.5;stroke-dasharray:5.0,5.0;" x1="238.5" x2="238.5" y1="81.2969" y2="970.3594"/><line style="stroke:#696969;stroke-width:0.5;stroke-dasharray:5.0,5.0;" x1="496.5" x2="496.5" y1="81.2969" y2="970.3594"/><line style="stroke:#696969;stroke-width:0.5;stroke-dasharray:5.0,5.0;" x1="721" x2="721" y1="81.2969" y2="970.3594"/><line style="stroke:#696969;stroke-width:0.5;stroke-dasharray:5.0,5.0;" x1="1037" x2="1037" y1="81.2969" y2="970.3594"/><line style="stroke:#696969;stroke-width:0.5;stroke-dasharray:5.0,5.0;" x1="1133" x2="1133" y1="81.2969" y2="970.3594"/><line style="stroke:#696969;stroke-width:0.5;stroke-dasharray:5.0,5.0;" x1="1358.5" x2="1358.5" y1="81.2969" y2="970.3594"/><line style="stroke:#696969;stroke-width:0.5;stroke-dasharray:5.0,5.0;" x1="1465.5" x2="1465.5" y1="81.2969" y2="970.3594"/><text fill="#454645" font-family="sans-serif" font-size="14" lengthAdjust="spacing" textLength="29" x="30" y="77.9951">Bob</text><ellipse cx="47.5" cy="13.5" fill="#454645" rx="8" ry="8" style="stroke:#454645;stroke-width:0.5;"/><path d="M47.5,21.5 L47.5,48.5 M34.5,29.5 L60.5,29.5 M47.5,48.5 L34.5,63.5 M47.5,48.5 L60.5,63.5 " fill="none" style="stroke:#454645;stroke-width:0.5;"/><text fill="#454645" font-family="sans-serif" font-size="14" lengthAdjust="spacing" textLength="29" x="30" y="982.3545">Bob</text><ellipse cx="47.5" cy="994.1563" fill="#454645" rx="8" ry="8" style="stroke:#454645;stroke-width:0.5;"/><path d="M47.5,1002.1563 L47.5,1029.1563 M34.5,1010.1563 L60.5,1010.1563 M47.5,1029.1563 L34.5,1044.1563 M47.5,1029.1563 L60.5,1044.1563 " fill="none" style="stroke:#454645;stroke-width:0.5;"/><text fill="#454645" font-family="sans-serif" font-size="14" lengthAdjust="spacing" textLength="64" x="75" y="77.9951">ClientDB</text><path d="M92,29 C92,19 110,19 110,19 C110,19 128,19 128,29 L128,55 C128,65 110,65 110,65 C110,65 92,65 92,55 L92,29 " fill="#00FFFF" style="stroke:#454645;stroke-width:1.5;"/><path d="M92,29 C92,39 110,39 110,39 C110,39 128,39 128,29 " fill="none" style="stroke:#454645;stroke-width:1.5;"/><text fill="#454645" font-family="sans-serif" font-size="14" lengthAdjust="spacing" textLength="64" x="75" y="982.3545">ClientDB</text><path d="M92,995.6563 C92,985.6563 110,985.6563 110,985.6563 C110,985.6563 128,985.6563 128,995.6563 L128,1021.6563 C128,1031.6563 110,1031.6563 110,1031.6563 C110,1031.6563 92,1031.6563 92,1021.6563 L92,995.6563 " fill="#00FFFF" style="stroke:#454645;stroke-width:1.5;"/><path d="M92,995.6563 C92,1005.6563 110,1005.6563 110,1005.6563 C110,1005.6563 128,1005.6563 128,995.6563 " fill="none" style="stroke:#454645;stroke-width:1.5;"/><rect fill="#FF6347" height="30.2969" rx="3.5" ry="3.5" style="stroke:#454645;stroke-width:1.5;" width="57" x="210.5" y="50"/><text fill="#FFFFFF" font-family="sans-serif" font-size="14" lengthAdjust="spacing" textLength="43" x="217.5" y="69.9951">Client</text><rect fill="#FF6347" height="30.2969" rx="3.5" ry="3.5" style="stroke:#454645;stroke-width:1.5;" width="57" x="210.5" y="969.3594"/><text fill="#FFFFFF" font-family="sans-serif" font-size="14" lengthAdjust="spacing" textLength="43" x="217.5" y="989.3545">Client</text><path d="M442.5,55 L551.5,55 C556.5,55 556.5,68.1484 556.5,68.1484 C556.5,68.1484 556.5,81.2969 551.5,81.2969 L442.5,81.2969 C437.5,81.2969 437.5,68.1484 437.5,68.1484 C437.5,68.1484 437.5,55 442.5,55 " fill="#FF6347" style="stroke:#454645;stroke-width:1.5;"/><path d="M551.5,55 C546.5,55 546.5,68.1484 546.5,68.1484 C546.5,81.2969 551.5,81.2969 551.5,81.2969 " fill="none" style="stroke:#454645;stroke-width:1.5;"/><text fill="#FFFFFF" font-family="sans-serif" font-size="14" lengthAdjust="spacing" textLength="99" x="442.5" y="72.9951">SessionQueue</text><path d="M442.5,969.3594 L551.5,969.3594 C556.5,969.3594 556.5,982.5078 556.5,982.5078 C556.5,982.5078 556.5,995.6563 551.5,995.6563 L442.5,995.6563 C437.5,995.6563 437.5,982.5078 437.5,982.5078 C437.5,982.5078 437.5,969.3594 442.5,969.3594 " fill="#FF6347" style="stroke:#454645;stroke-width:1.5;"/><path d="M551.5,969.3594 C546.5,969.3594 546.5,982.5078 546.5,982.5078 C546.5,995.6563 551.5,995.6563 551.5,995.6563 " fill="none" style="stroke:#454645;stroke-width:1.5;"/><text fill="#FFFFFF" font-family="sans-serif" font-size="14" lengthAdjust="spacing" textLength="99" x="442.5" y="987.3545">SessionQueue</text><rect fill="#FF6347" height="30.2969" rx="3.5" ry="3.5" style="stroke:#454645;stroke-width:1.5;" width="68" x="687" y="50"/><text fill="#FFFFFF" font-family="sans-serif" font-size="14" lengthAdjust="spacing" textLength="54" x="694" y="69.9951">Session</text><rect fill="#FF6347" height="30.2969" rx="3.5" ry="3.5" style="stroke:#454645;stroke-width:1.5;" width="68" x="687" y="969.3594"/><text fill="#FFFFFF" font-family="sans-serif" font-size="14" lengthAdjust="spacing" textLength="54" x="694" y="989.3545">Session</text><path d="M986,55 L1088,55 C1093,55 1093,68.1484 1093,68.1484 C1093,68.1484 1093,81.2969 1088,81.2969 L986,81.2969 C981,81.2969 981,68.1484 981,68.1484 C981,68.1484 981,55 986,55 " fill="#FF6347" style="stroke:#454645;stroke-width:1.5;"/><path d="M1088,55 C1083,55 1083,68.1484 1083,68.1484 C1083,81.2969 1088,81.2969 1088,81.2969 " fill="none" style="stroke:#454645;stroke-width:1.5;"/><text fill="#FFFFFF" font-family="sans-serif" font-size="14" lengthAdjust="spacing" textLength="92" x="986" y="72.9951">ServerQueue</text><path d="M986,969.3594 L1088,969.3594 C1093,969.3594 1093,982.5078 1093,982.5078 C1093,982.5078 1093,995.6563 1088,995.6563 L986,995.6563 C981,995.6563 981,982.5078 981,982.5078 C981,982.5078 981,969.3594 986,969.3594 " fill="#FF6347" style="stroke:#454645;stroke-width:1.5;"/><path d="M1088,969.3594 C1083,969.3594 1083,982.5078 1083,982.5078 C1083,995.6563 1088,995.6563 1088,995.6563 " fill="none" style="stroke:#454645;stroke-width:1.5;"/><text fill="#FFFFFF" font-family="sans-serif" font-size="14" lengthAdjust="spacing" textLength="92" x="986" y="987.3545">ServerQueue</text><rect fill="#FF6347" height="30.2969" rx="3.5" ry="3.5" style="stroke:#454645;stroke-width:1.5;" width="61" x="1103" y="50"/><text fill="#FFFFFF" font-family="sans-serif" font-size="14" lengthAdjust="spacing" textLength="47" x="1110" y="69.9951">Server</text><rect fill="#FF6347" height="30.2969" rx="3.5" ry="3.5" style="stroke:#454645;stroke-width:1.5;" width="61" x="1103" y="969.3594"/><text fill="#FFFFFF" font-family="sans-serif" font-size="14" lengthAdjust="spacing" textLength="47" x="1110" y="989.3545">Server</text><text fill="#454645" font-family="sans-serif" font-size="14" lengthAdjust="spacing" textLength="68" x="1321.5" y="77.9951">ServerDB</text><path d="M1340.5,29 C1340.5,19 1358.5,19 1358.5,19 C1358.5,19 1376.5,19 1376.5,29 L1376.5,55 C1376.5,65 1358.5,65 1358.5,65 C1358.5,65 1340.5,65 1340.5,55 L1340.5,29 " fill="#00FFFF" style="stroke:#454645;stroke-width:1.5;"/><path d="M1340.5,29 C1340.5,39 1358.5,39 1358.5,39 C1358.5,39 1376.5,39 1376.5,29 " fill="none" style="stroke:#454645;stroke-width:1.5;"/><text fill="#454645" font-family="sans-serif" font-size="14" lengthAdjust="spacing" textLength="68" x="1321.5" y="982.3545">ServerDB</text><path d="M1340.5,995.6563 C1340.5,985.6563 1358.5,985.6563 1358.5,985.6563 C1358.5,985.6563 1376.5,985.6563 1376.5,995.6563 L1376.5,1021.6563 C1376.5,1031.6563 1358.5,1031.6563 1358.5,1031.6563 C1358.5,1031.6563 1340.5,1031.6563 1340.5,1021.6563 L1340.5,995.6563 " fill="#00FFFF" style="stroke:#454645;stroke-width:1.5;"/><path d="M1340.5,995.6563 C1340.5,1005.6563 1358.5,1005.6563 1358.5,1005.6563 C1358.5,1005.6563 1376.5,1005.6563 1376.5,995.6563 " fill="none" style="stroke:#454645;stroke-width:1.5;"/><rect fill="#FF6347" height="30.2969" rx="3.5" ry="3.5" style="stroke:#454645;stroke-width:1.5;" width="120" x="1405.5" y="50"/><text fill="#FFFFFF" font-family="sans-serif" font-size="14" lengthAdjust="spacing" textLength="106" x="1412.5" y="69.9951">SesssionQueue</text><rect fill="#FF6347" height="30.2969" rx="3.5" ry="3.5" style="stroke:#454645;stroke-width:1.5;" width="120" x="1405.5" y="969.3594"/><text fill="#FFFFFF" font-family="sans-serif" font-size="14" lengthAdjust="spacing" textLength="106" x="1412.5" y="989.3545">SesssionQueue</text><polygon fill="#454645" points="227,108.4297,237,112.4297,227,116.4297,231,112.4297" style="stroke:#454645;stroke-width:1.0;"/><line style="stroke:#454645;stroke-width:1.0;" x1="47.5" x2="233" y1="112.4297" y2="112.4297"/><text fill="#000000" font-family="sans-serif" font-size="13" font-weight="bold" lengthAdjust="spacing" textLength="9" x="54.5" y="107.3638">1</text><text fill="#000000" font-family="sans-serif" font-size="13" lengthAdjust="spacing" textLength="103" x="67.5" y="107.3638">addFriend(Alice)</text><polygon fill="#454645" points="121,137.5625,111,141.5625,121,145.5625,117,141.5625" style="stroke:#454645;stroke-width:1.0;"/><line style="stroke:#454645;stroke-width:1.0;" x1="115" x2="238" y1="141.5625" y2="141.5625"/><text fill="#000000" font-family="sans-serif" font-size="13" font-weight="bold" lengthAdjust="spacing" textLength="9" x="127" y="136.4966">2</text><text fill="#000000" font-family="sans-serif" font-size="13" lengthAdjust="spacing" textLength="92" x="140" y="136.4966">getFriendList()</text><line style="stroke:#454645;stroke-width:1.0;" x1="239" x2="281" y1="170.6953" y2="170.6953"/><line style="stroke:#454645;stroke-width:1.0;" x1="281" x2="281" y1="170.6953" y2="183.6953"/><line style="stroke:#454645;stroke-width:1.0;" x1="240" x2="281" y1="183.6953" y2="183.6953"/><polygon fill="#454645" points="250,179.6953,240,183.6953,250,187.6953,246,183.6953" style="stroke:#454645;stroke-width:1.0;"/><text fill="#000000" font-family="sans-serif" font-size="13" font-weight="bold" lengthAdjust="spacing" textLength="8" x="246" y="165.6294">3</text><text fill="#000000" font-family="sans-serif" font-size="13" lengthAdjust="spacing" textLength="138" x="258" y="165.6294">checkFriendList(Alice)</text><path d="M13.5,198.6953 L76,198.6953 L76,205.8281 L66,215.8281 L10,215.8281 L10,202.1953 A3.5,3.5 0 0 1 13.5,198.6953 " fill="#EEEEEE" style="stroke:#696969;stroke-width:1.5;"/><rect fill="none" height="754.6641" rx="3.5" ry="3.5" style="stroke:#696969;stroke-width:1.0;" width="1535.5" x="10" y="198.6953"/><text fill="#454645" font-family="sans-serif" font-size="13" font-weight="bold" lengthAdjust="spacing" textLength="21" x="25" y="211.7622">alt</text><text fill="#696969" font-family="sans-serif" font-size="11" font-weight="bold" lengthAdjust="spacing" textLength="105" x="91" y="210.9058">[Already friend]</text><line style="stroke:#454645;stroke-width:1.0;" x1="239" x2="281" y1="236.9609" y2="236.9609"/><line style="stroke:#454645;stroke-width:1.0;" x1="281" x2="281" y1="236.9609" y2="249.9609"/><line style="stroke:#454645;stroke-width:1.0;" x1="240" x2="281" y1="249.9609" y2="249.9609"/><polygon fill="#454645" points="250,245.9609,240,249.9609,250,253.9609,246,249.9609" style="stroke:#454645;stroke-width:1.0;"/><text fill="#000000" font-family="sans-serif" font-size="13" font-weight="bold" lengthAdjust="spacing" textLength="9" x="246" y="231.895">4</text><text fill="#000000" font-family="sans-serif" font-size="13" lengthAdjust="spacing" textLength="143" x="259" y="231.895">displayAlreadyFriend()</text><line style="stroke:#696969;stroke-width:1.0;stroke-dasharray:2.0,2.0;" x1="10" x2="1545.5" y1="258.9609" y2="258.9609"/><text fill="#696969" font-family="sans-serif" font-size="11" font-weight="bold" lengthAdjust="spacing" textLength="80" x="15" y="269.1714">[Not friend]</text><polygon fill="#454645" points="485,289.8984,495,293.8984,485,297.8984,489,293.8984" style="stroke:#454645;stroke-width:1.0;"/><line style="stroke:#454645;stroke-width:1.0;" x1="239" x2="491" y1="293.8984" y2="293.8984"/><text fill="#000000" font-family="sans-serif" font-size="13" font-weight="bold" lengthAdjust="spacing" textLength="9" x="246" y="288.8325">5</text><text fill="#000000" font-family="sans-serif" font-size="13" lengthAdjust="spacing" textLength="221" x="259" y="288.8325">msgsnd(addFriendRequest(Alice) )</text><polygon fill="#454645" points="709,319.0313,719,323.0313,709,327.0313,713,323.0313" style="stroke:#454645;stroke-width:1.0;"/><line style="stroke:#454645;stroke-width:1.0;" x1="497" x2="715" y1="323.0313" y2="323.0313"/><text fill="#000000" font-family="sans-serif" font-size="13" font-weight="bold" lengthAdjust="spacing" textLength="9" x="504" y="317.9653">6</text><text fill="#000000" font-family="sans-serif" font-size="13" lengthAdjust="spacing" textLength="58" x="517" y="317.9653">msgrcv()</text><polygon fill="#454645" points="1025,348.1641,1035,352.1641,1025,356.1641,1029,352.1641" style="stroke:#454645;stroke-width:1.0;"/><line style="stroke:#454645;stroke-width:1.0;" x1="721" x2="1031" y1="352.1641" y2="352.1641"/><text fill="#000000" font-family="sans-serif" font-size="13" font-weight="bold" lengthAdjust="spacing" textLength="9" x="728" y="347.0981">7</text><text fill="#000000" font-family="sans-serif" font-size="13" lengthAdjust="spacing" textLength="279" x="741" y="347.0981">msgsnd(addFriendRequest(Alice),ClientID) )</text><polygon fill="#454645" points="1121.5,377.2969,1131.5,381.2969,1121.5,385.2969,1125.5,381.2969" style="stroke:#454645;stroke-width:1.0;"/><line style="stroke:#454645;stroke-width:1.0;" x1="1037" x2="1127.5" y1="381.2969" y2="381.2969"/><text fill="#000000" font-family="sans-serif" font-size="13" font-weight="bold" lengthAdjust="spacing" textLength="9" x="1044" y="376.231">8</text><text fill="#000000" font-family="sans-serif" font-size="13" lengthAdjust="spacing" textLength="58" x="1057" y="376.231">msgrcv()</text><polygon fill="#454645" points="1144.5,406.4297,1134.5,410.4297,1144.5,414.4297,1140.5,410.4297" style="stroke:#454645;stroke-width:1.0;"/><polygon fill="#454645" points="1346.5,406.4297,1356.5,410.4297,1346.5,414.4297,1350.5,410.4297" style="stroke:#454645;stroke-width:1.0;"/><line style="stroke:#454645;stroke-width:1.0;" x1="1138.5" x2="1352.5" y1="410.4297" y2="410.4297"/><text fill="#000000" font-family="sans-serif" font-size="13" font-weight="bold" lengthAdjust="spacing" textLength="9" x="1150.5" y="405.3638">9</text><text fill="#000000" font-family="sans-serif" font-size="13" lengthAdjust="spacing" textLength="103" x="1163.5" y="405.3638">getUserID(Alice)</text><polygon fill="#454645" points="1346.5,435.5625,1356.5,439.5625,1346.5,443.5625,1350.5,439.5625" style="stroke:#454645;stroke-width:1.0;"/><line style="stroke:#454645;stroke-width:1.0;" x1="1133.5" x2="1352.5" y1="439.5625" y2="439.5625"/><text fill="#000000" font-family="sans-serif" font-size="13" font-weight="bold" lengthAdjust="spacing" textLength="19" x="1140.5" y="434.4966">10</text><text fill="#000000" font-family="sans-serif" font-size="13" lengthAdjust="spacing" textLength="178" x="1163.5" y="434.4966">addFriend(ClientID,FriendID)</text><path d="M23.5,454.5625 L86,454.5625 L86,461.6953 L76,471.6953 L20,471.6953 L20,458.0625 A3.5,3.5 0 0 1 23.5,454.5625 " fill="#EEEEEE" style="stroke:#696969;stroke-width:1.5;"/><rect fill="none" height="491.7969" rx="3.5" ry="3.5" style="stroke:#696969;stroke-width:1.0;" width="1515.5" x="20" y="454.5625"/><text fill="#454645" font-family="sans-serif" font-size="13" font-weight="bold" lengthAdjust="spacing" textLength="21" x="35" y="467.6294">alt</text><text fill="#696969" font-family="sans-serif" font-size="11" font-weight="bold" lengthAdjust="spacing" textLength="217" x="101" y="466.7729">[On failure (FriendID not found)]</text><polygon fill="#454645" points="508,488.8281,498,492.8281,508,496.8281,504,492.8281" style="stroke:#454645;stroke-width:1.0;"/><line style="stroke:#454645;stroke-width:1.0;" x1="502" x2="1132.5" y1="492.8281" y2="492.8281"/><text fill="#000000" font-family="sans-serif" font-size="13" font-weight="bold" lengthAdjust="spacing" textLength="18" x="514" y="487.7622">11</text><text fill="#000000" font-family="sans-serif" font-size="13" lengthAdjust="spacing" textLength="92" x="536" y="487.7622">msgsnd(Error)</text><polygon fill="#454645" points="709,517.9609,719,521.9609,709,525.9609,713,521.9609" style="stroke:#454645;stroke-width:1.0;"/><line style="stroke:#454645;stroke-width:1.0;" x1="497" x2="715" y1="521.9609" y2="521.9609"/><text fill="#000000" font-family="sans-serif" font-size="13" font-weight="bold" lengthAdjust="spacing" textLength="18" x="504" y="516.895">12</text><text fill="#000000" font-family="sans-serif" font-size="13" lengthAdjust="spacing" textLength="58" x="526" y="516.895">msgrcv()</text><line style="stroke:#454645;stroke-width:1.0;" x1="721" x2="763" y1="551.0938" y2="551.0938"/><line style="stroke:#454645;stroke-width:1.0;" x1="763" x2="763" y1="551.0938" y2="564.0938"/><line style="stroke:#454645;stroke-width:1.0;" x1="722" x2="763" y1="564.0938" y2="564.0938"/><polygon fill="#454645" points="732,560.0938,722,564.0938,732,568.0938,728,564.0938" style="stroke:#454645;stroke-width:1.0;"/><text fill="#000000" font-family="sans-serif" font-size="13" font-weight="bold" lengthAdjust="spacing" textLength="17" x="728" y="546.0278">13</text><text fill="#000000" font-family="sans-serif" font-size="13" lengthAdjust="spacing" textLength="169" x="749" y="546.0278">Change msg access rights</text><polygon fill="#454645" points="508,589.2266,498,593.2266,508,597.2266,504,593.2266" style="stroke:#454645;stroke-width:1.0;"/><line style="stroke:#454645;stroke-width:1.0;" x1="502" x2="720" y1="593.2266" y2="593.2266"/><text fill="#000000" font-family="sans-serif" font-size="13" font-weight="bold" lengthAdjust="spacing" textLength="18" x="514" y="588.1606">14</text><text fill="#000000" font-family="sans-serif" font-size="13" lengthAdjust="spacing" textLength="92" x="536" y="588.1606">msgsnd(Error)</text><polygon fill="#454645" points="250,618.3594,240,622.3594,250,626.3594,246,622.3594" style="stroke:#454645;stroke-width:1.0;"/><line style="stroke:#454645;stroke-width:1.0;" x1="244" x2="496" y1="622.3594" y2="622.3594"/><text fill="#000000" font-family="sans-serif" font-size="13" font-weight="bold" lengthAdjust="spacing" textLength="18" x="256" y="617.2935">15</text><text fill="#000000" font-family="sans-serif" font-size="13" lengthAdjust="spacing" textLength="58" x="278" y="617.2935">msgrcv()</text><line style="stroke:#454645;stroke-width:1.0;" x1="239" x2="281" y1="651.4922" y2="651.4922"/><line style="stroke:#454645;stroke-width:1.0;" x1="281" x2="281" y1="651.4922" y2="664.4922"/><line style="stroke:#454645;stroke-width:1.0;" x1="240" x2="281" y1="664.4922" y2="664.4922"/><polygon fill="#454645" points="250,660.4922,240,664.4922,250,668.4922,246,664.4922" style="stroke:#454645;stroke-width:1.0;"/><text fill="#000000" font-family="sans-serif" font-size="13" font-weight="bold" lengthAdjust="spacing" textLength="18" x="246" y="646.4263">16</text><text fill="#000000" font-family="sans-serif" font-size="13" lengthAdjust="spacing" textLength="86" x="268" y="646.4263">displayError()</text><polygon fill="#454645" points="58.5,689.625,48.5,693.625,58.5,697.625,54.5,693.625" style="stroke:#454645;stroke-width:1.0;"/><line style="stroke:#454645;stroke-width:1.0;" x1="52.5" x2="238" y1="693.625" y2="693.625"/><text fill="#000000" font-family="sans-serif" font-size="13" font-weight="bold" lengthAdjust="spacing" textLength="18" x="64.5" y="688.5591">17</text><text fill="#000000" font-family="sans-serif" font-size="13" lengthAdjust="spacing" textLength="86" x="86.5" y="688.5591">display(Error)</text><line style="stroke:#696969;stroke-width:1.0;stroke-dasharray:2.0,2.0;" x1="20" x2="1535.5" y1="702.625" y2="702.625"/><text fill="#696969" font-family="sans-serif" font-size="11" font-weight="bold" lengthAdjust="spacing" textLength="83" x="25" y="712.8354">[On success]</text><polygon fill="#454645" points="1144.5,733.5625,1134.5,737.5625,1144.5,741.5625,1140.5,737.5625" style="stroke:#454645;stroke-width:1.0;"/><line style="stroke:#454645;stroke-width:1.0;" x1="1138.5" x2="1357.5" y1="737.5625" y2="737.5625"/><text fill="#000000" font-family="sans-serif" font-size="13" font-weight="bold" lengthAdjust="spacing" textLength="18" x="1150.5" y="732.4966">18</text><text fill="#000000" font-family="sans-serif" font-size="13" lengthAdjust="spacing" textLength="155" x="1172.5" y="732.4966">return ClientID.friendList</text><polygon fill="#454645" points="508,762.6953,498,766.6953,508,770.6953,504,766.6953" style="stroke:#454645;stroke-width:1.0;"/><line style="stroke:#454645;stroke-width:1.0;" x1="502" x2="1132.5" y1="766.6953" y2="766.6953"/><text fill="#000000" font-family="sans-serif" font-size="13" font-weight="bold" lengthAdjust="spacing" textLength="18" x="514" y="761.6294">19</text><text fill="#000000" font-family="sans-serif" font-size="13" lengthAdjust="spacing" textLength="178" x="536" y="761.6294">msgsnd(ClientID.friendList))</text><polygon fill="#454645" points="732,791.8281,722,795.8281,732,799.8281,728,795.8281" style="stroke:#454645;stroke-width:1.0;"/><line style="stroke:#454645;stroke-width:1.0;" x1="726" x2="1464.5" y1="795.8281" y2="795.8281"/><text fill="#000000" font-family="sans-serif" font-size="13" font-weight="bold" lengthAdjust="spacing" textLength="19" x="738" y="790.7622">20</text><text fill="#000000" font-family="sans-serif" font-size="13" lengthAdjust="spacing" textLength="58" x="761" y="790.7622">msgrcv()</text><line style="stroke:#454645;stroke-width:1.0;" x1="721" x2="763" y1="824.9609" y2="824.9609"/><line style="stroke:#454645;stroke-width:1.0;" x1="763" x2="763" y1="824.9609" y2="837.9609"/><line style="stroke:#454645;stroke-width:1.0;" x1="722" x2="763" y1="837.9609" y2="837.9609"/><polygon fill="#454645" points="732,833.9609,722,837.9609,732,841.9609,728,837.9609" style="stroke:#454645;stroke-width:1.0;"/><text fill="#000000" font-family="sans-serif" font-size="13" font-weight="bold" lengthAdjust="spacing" textLength="18" x="728" y="819.895">21</text><text fill="#000000" font-family="sans-serif" font-size="13" lengthAdjust="spacing" textLength="169" x="750" y="819.895">Change msg access rights</text><polygon fill="#454645" points="508,863.0938,498,867.0938,508,871.0938,504,867.0938" style="stroke:#454645;stroke-width:1.0;"/><line style="stroke:#454645;stroke-width:1.0;" x1="502" x2="720" y1="867.0938" y2="867.0938"/><text fill="#000000" font-family="sans-serif" font-size="13" font-weight="bold" lengthAdjust="spacing" textLength="18" x="514" y="862.0278">22</text><text fill="#000000" font-family="sans-serif" font-size="13" lengthAdjust="spacing" textLength="178" x="536" y="862.0278">msgsnd(ClientID.friendList))</text><polygon fill="#454645" points="250,892.2266,240,896.2266,250,900.2266,246,896.2266" style="stroke:#454645;stroke-width:1.0;"/><line style="stroke:#454645;stroke-width:1.0;" x1="244" x2="496" y1="896.2266" y2="896.2266"/><text fill="#000000" font-family="sans-serif" font-size="13" font-weight="bold" lengthAdjust="spacing" textLength="17" x="256" y="891.1606">23</text><text fill="#000000" font-family="sans-serif" font-size="13" lengthAdjust="spacing" textLength="58" x="277" y="891.1606">msgrcv()</text><line style="stroke:#454645;stroke-width:1.0;" x1="239" x2="281" y1="925.3594" y2="925.3594"/><line style="stroke:#454645;stroke-width:1.0;" x1="281" x2="281" y1="925.3594" y2="938.3594"/><line style="stroke:#454645;stroke-width:1.0;" x1="240" x2="281" y1="938.3594" y2="938.3594"/><polygon fill="#454645" points="250,934.3594,240,938.3594,250,942.3594,246,938.3594" style="stroke:#454645;stroke-width:1.0;"/><text fill="#000000" font-family="sans-serif" font-size="13" font-weight="bold" lengthAdjust="spacing" textLength="18" x="246" y="920.2935">24</text><text fill="#000000" font-family="sans-serif" font-size="13" lengthAdjust="spacing" textLength="116" x="268" y="920.2935">displayFriendList()</text><!--SRC=[nPJTRjGm48Nl_HJ3tQvKTkzN2AdRBL8b10B40pZER68riPUnlQXlpyHEdAG9j8WB8aNoptTcncUSlF4rjWXNNP0q7ivaMwYzlxZ3Va_ovwxIlWv5S4ZA6e_6xvHjzvU6uT0suw2LpYFjOpGdX93AMuAZBK0w-CvoKKel2-aGxXhDSKv7SP7ajTANBd5Q53y21eHlw9osvaitcL73JkReYhJ4qlgOCSqvev31MnFQWdT5LnMyVT-dXWF8iln0F2utjurMk1NzJcPEHwOgz8dwg9tVB256L8tgSGBruOHiFDmsXB9yOgUxRG7yh4GejMDhdtguhsehiE7JVB9-NJsrZMEqhdAiogVwYknQhWQsKJtJZ36IdDHrCyCIaKr_CSbDAkxXDAORnJdMCbbSVPU1mVUkOm-dmSu9EYV7FWxfRzASwuYghW-V3PobRW8XR8PTC9srDfWoSSyphDbxJsHfYh_ApuMdSNY0krgQ2ZiMf5Ay2gIhshi_YFwkddp35kNy_XR6aAja_8GoDyqTRofxx48ynZCxkKtJxXFwG0Q6RktE-TDvTHjMjDkv2_-tBI_NzwzTclsKOWlu1y7lBm00]--></g></svg>