<?xml version="1.0" encoding="UTF-8" standalone="no"?><svg xmlns="http://www.w3.org/2000/svg" xmlns:xlink="http://www.w3.org/1999/xlink" contentStyleType="text/css" height="752px" preserveAspectRatio="none" style="width:488px;height:752px;background:#FFFFFF;" version="1.1" viewBox="0 0 488 752" width="488px" zoomAndPan="magnify"><defs/><g><rect fill="#F1F1F1" height="81.1875" rx="5" ry="5" style="stroke:#F1F1F1;stroke-width:1.5;" width="183" x="10" y="439"/><text fill="#000000" font-family="sans-serif" font-size="14" font-weight="bold" lengthAdjust="spacing" textLength="86" x="15" y="453.9951">PrivateKey</text><text fill="#000000" font-family="sans-serif" font-size="14" lengthAdjust="spacing" textLength="77" x="111" y="453.9951">char[1000]</text><line style="stroke:#000000;stroke-width:1.0;" x1="106" x2="106" y1="439" y2="459.2969"/><line style="stroke:#000000;stroke-width:1.0;" x1="10" x2="193" y1="459.2969" y2="459.2969"/><text fill="#000000" font-family="sans-serif" font-size="14" font-weight="bold" lengthAdjust="spacing" textLength="79" x="15" y="474.292">Messages</text><text fill="#000000" font-family="sans-serif" font-size="14" lengthAdjust="spacing" textLength="12" x="111" y="474.292">   </text><line style="stroke:#000000;stroke-width:1.0;" x1="106" x2="106" y1="459.2969" y2="479.5938"/><line style="stroke:#000000;stroke-width:1.0;" x1="10" x2="193" y1="479.5938" y2="479.5938"/><text fill="#000000" font-family="sans-serif" font-size="14" font-weight="bold" lengthAdjust="spacing" textLength="59" x="15" y="494.5889">Friends</text><text fill="#000000" font-family="sans-serif" font-size="14" lengthAdjust="spacing" textLength="12" x="111" y="494.5889">   </text><line style="stroke:#000000;stroke-width:1.0;" x1="106" x2="106" y1="479.5938" y2="499.8906"/><line style="stroke:#000000;stroke-width:1.0;" x1="10" x2="193" y1="499.8906" y2="499.8906"/><text fill="#000000" font-family="sans-serif" font-size="14" font-weight="bold" lengthAdjust="spacing" textLength="58" x="15" y="514.8857">Groups</text><text fill="#000000" font-family="sans-serif" font-size="14" lengthAdjust="spacing" textLength="12" x="111" y="514.8857">   </text><line style="stroke:#000000;stroke-width:1.0;" x1="106" x2="106" y1="499.8906" y2="520.1875"/><rect fill="none" height="81.1875" rx="5" ry="5" style="stroke:#000000;stroke-width:1.5;" width="183" x="10" y="439"/><rect fill="#F1F1F1" height="121.7813" rx="5" ry="5" style="stroke:#F1F1F1;stroke-width:1.5;" width="22" x="230" y="186.5"/><text fill="#000000" font-family="sans-serif" font-size="14" lengthAdjust="spacing" textLength="12" x="235" y="201.4951">   </text><line style="stroke:#000000;stroke-width:1.0;" x1="230" x2="252" y1="206.7969" y2="206.7969"/><text fill="#000000" font-family="sans-serif" font-size="14" lengthAdjust="spacing" textLength="12" x="235" y="221.792">   </text><line style="stroke:#000000;stroke-width:1.0;" x1="230" x2="252" y1="227.0938" y2="227.0938"/><text fill="#000000" font-family="sans-serif" font-size="14" lengthAdjust="spacing" textLength="12" x="235" y="242.0889">   </text><line style="stroke:#000000;stroke-width:1.0;" x1="230" x2="252" y1="247.3906" y2="247.3906"/><text fill="#000000" font-family="sans-serif" font-size="14" lengthAdjust="spacing" textLength="12" x="235" y="262.3857">   </text><line style="stroke:#000000;stroke-width:1.0;" x1="230" x2="252" y1="267.6875" y2="267.6875"/><text fill="#000000" font-family="sans-serif" font-size="14" lengthAdjust="spacing" textLength="12" x="235" y="282.6826">   </text><line style="stroke:#000000;stroke-width:1.0;" x1="230" x2="252" y1="287.9844" y2="287.9844"/><text fill="#000000" font-family="sans-serif" font-size="14" lengthAdjust="spacing" textLength="12" x="235" y="302.9795">   </text><rect fill="none" height="121.7813" rx="5" ry="5" style="stroke:#000000;stroke-width:1.5;" width="22" x="230" y="186.5"/><rect fill="#F1F1F1" height="60.8906" rx="5" ry="5" style="stroke:#F1F1F1;stroke-width:1.5;" width="111" x="328" y="10"/><text fill="#000000" font-family="sans-serif" font-size="14" font-weight="bold" lengthAdjust="spacing" textLength="44" x="333" y="24.9951">name</text><text fill="#000000" font-family="sans-serif" font-size="14" lengthAdjust="spacing" textLength="13" x="387" y="24.9951">id</text><line style="stroke:#000000;stroke-width:1.0;" x1="382" x2="382" y1="10" y2="30.2969"/><line style="stroke:#000000;stroke-width:1.0;" x1="328" x2="439" y1="30.2969" y2="30.2969"/><text fill="#000000" font-family="sans-serif" font-size="14" font-weight="bold" lengthAdjust="spacing" textLength="36" x="333" y="45.292">type</text><text fill="#000000" font-family="sans-serif" font-size="14" lengthAdjust="spacing" textLength="20" x="387" y="45.292">int</text><line style="stroke:#000000;stroke-width:1.0;" x1="382" x2="382" y1="30.2969" y2="50.5938"/><line style="stroke:#000000;stroke-width:1.0;" x1="328" x2="439" y1="50.5938" y2="50.5938"/><text fill="#000000" font-family="sans-serif" font-size="14" font-weight="bold" lengthAdjust="spacing" textLength="19" x="333" y="65.5889">pk</text><text fill="#000000" font-family="sans-serif" font-size="14" lengthAdjust="spacing" textLength="47" x="387" y="65.5889">☑ true</text><line style="stroke:#000000;stroke-width:1.0;" x1="382" x2="382" y1="50.5938" y2="70.8906"/><rect fill="none" height="60.8906" rx="5" ry="5" style="stroke:#000000;stroke-width:1.5;" width="111" x="328" y="10"/><rect fill="#F1F1F1" height="40.5938" rx="5" ry="5" style="stroke:#F1F1F1;stroke-width:1.5;" width="98" x="334.5" y="89"/><text fill="#000000" font-family="sans-serif" font-size="14" font-weight="bold" lengthAdjust="spacing" textLength="44" x="339.5" y="103.9951">name</text><text fill="#000000" font-family="sans-serif" font-size="14" lengthAdjust="spacing" textLength="34" x="393.5" y="103.9951">type</text><line style="stroke:#000000;stroke-width:1.0;" x1="388.5" x2="388.5" y1="89" y2="109.2969"/><line style="stroke:#000000;stroke-width:1.0;" x1="334.5" x2="432.5" y1="109.2969" y2="109.2969"/><text fill="#000000" font-family="sans-serif" font-size="14" font-weight="bold" lengthAdjust="spacing" textLength="36" x="339.5" y="124.292">type</text><text fill="#000000" font-family="sans-serif" font-size="14" lengthAdjust="spacing" textLength="20" x="393.5" y="124.292">int</text><line style="stroke:#000000;stroke-width:1.0;" x1="388.5" x2="388.5" y1="109.2969" y2="129.5938"/><rect fill="none" height="40.5938" rx="5" ry="5" style="stroke:#000000;stroke-width:1.5;" width="98" x="334.5" y="89"/><rect fill="#F1F1F1" height="60.8906" rx="5" ry="5" style="stroke:#F1F1F1;stroke-width:1.5;" width="165" x="301" y="148"/><text fill="#000000" font-family="sans-serif" font-size="14" font-weight="bold" lengthAdjust="spacing" textLength="44" x="306" y="162.9951">name</text><text fill="#000000" font-family="sans-serif" font-size="14" lengthAdjust="spacing" textLength="49" x="360" y="162.9951">sender</text><line style="stroke:#000000;stroke-width:1.0;" x1="355" x2="355" y1="148" y2="168.2969"/><line style="stroke:#000000;stroke-width:1.0;" x1="301" x2="466" y1="168.2969" y2="168.2969"/><text fill="#000000" font-family="sans-serif" font-size="14" font-weight="bold" lengthAdjust="spacing" textLength="36" x="306" y="183.292">type</text><text fill="#000000" font-family="sans-serif" font-size="14" lengthAdjust="spacing" textLength="20" x="360" y="183.292">int</text><line style="stroke:#000000;stroke-width:1.0;" x1="355" x2="355" y1="168.2969" y2="188.5938"/><line style="stroke:#000000;stroke-width:1.0;" x1="301" x2="466" y1="188.5938" y2="188.5938"/><text fill="#000000" font-family="sans-serif" font-size="14" font-weight="bold" lengthAdjust="spacing" textLength="16" x="306" y="203.5889">fk</text><text fill="#000000" font-family="sans-serif" font-size="14" lengthAdjust="spacing" textLength="101" x="360" y="203.5889">Server.User.id</text><line style="stroke:#000000;stroke-width:1.0;" x1="355" x2="355" y1="188.5938" y2="208.8906"/><rect fill="none" height="60.8906" rx="5" ry="5" style="stroke:#000000;stroke-width:1.5;" width="165" x="301" y="148"/><rect fill="#F1F1F1" height="60.8906" rx="5" ry="5" style="stroke:#F1F1F1;stroke-width:1.5;" width="165" x="301" y="227"/><text fill="#000000" font-family="sans-serif" font-size="14" font-weight="bold" lengthAdjust="spacing" textLength="44" x="306" y="241.9951">name</text><text fill="#000000" font-family="sans-serif" font-size="14" lengthAdjust="spacing" textLength="59" x="360" y="241.9951">receiver</text><line style="stroke:#000000;stroke-width:1.0;" x1="355" x2="355" y1="227" y2="247.2969"/><line style="stroke:#000000;stroke-width:1.0;" x1="301" x2="466" y1="247.2969" y2="247.2969"/><text fill="#000000" font-family="sans-serif" font-size="14" font-weight="bold" lengthAdjust="spacing" textLength="36" x="306" y="262.292">type</text><text fill="#000000" font-family="sans-serif" font-size="14" lengthAdjust="spacing" textLength="20" x="360" y="262.292">int</text><line style="stroke:#000000;stroke-width:1.0;" x1="355" x2="355" y1="247.2969" y2="267.5938"/><line style="stroke:#000000;stroke-width:1.0;" x1="301" x2="466" y1="267.5938" y2="267.5938"/><text fill="#000000" font-family="sans-serif" font-size="14" font-weight="bold" lengthAdjust="spacing" textLength="16" x="306" y="282.5889">fk</text><text fill="#000000" font-family="sans-serif" font-size="14" lengthAdjust="spacing" textLength="101" x="360" y="282.5889">Server.User.id</text><line style="stroke:#000000;stroke-width:1.0;" x1="355" x2="355" y1="267.5938" y2="287.8906"/><rect fill="none" height="60.8906" rx="5" ry="5" style="stroke:#000000;stroke-width:1.5;" width="165" x="301" y="227"/><rect fill="#F1F1F1" height="40.5938" rx="5" ry="5" style="stroke:#F1F1F1;stroke-width:1.5;" width="141" x="313" y="306"/><text fill="#000000" font-family="sans-serif" font-size="14" font-weight="bold" lengthAdjust="spacing" textLength="44" x="318" y="320.9951">name</text><text fill="#000000" font-family="sans-serif" font-size="14" lengthAdjust="spacing" textLength="63" x="372" y="320.9951">message</text><line style="stroke:#000000;stroke-width:1.0;" x1="367" x2="367" y1="306" y2="326.2969"/><line style="stroke:#000000;stroke-width:1.0;" x1="313" x2="454" y1="326.2969" y2="326.2969"/><text fill="#000000" font-family="sans-serif" font-size="14" font-weight="bold" lengthAdjust="spacing" textLength="36" x="318" y="341.292">type</text><text fill="#000000" font-family="sans-serif" font-size="14" lengthAdjust="spacing" textLength="77" x="372" y="341.292">char[1000]</text><line style="stroke:#000000;stroke-width:1.0;" x1="367" x2="367" y1="326.2969" y2="346.5938"/><rect fill="none" height="40.5938" rx="5" ry="5" style="stroke:#000000;stroke-width:1.5;" width="141" x="313" y="306"/><rect fill="#F1F1F1" height="40.5938" rx="5" ry="5" style="stroke:#F1F1F1;stroke-width:1.5;" width="122" x="322.5" y="365"/><text fill="#000000" font-family="sans-serif" font-size="14" font-weight="bold" lengthAdjust="spacing" textLength="44" x="327.5" y="379.9951">name</text><text fill="#000000" font-family="sans-serif" font-size="14" lengthAdjust="spacing" textLength="34" x="381.5" y="379.9951">time</text><line style="stroke:#000000;stroke-width:1.0;" x1="376.5" x2="376.5" y1="365" y2="385.2969"/><line style="stroke:#000000;stroke-width:1.0;" x1="322.5" x2="444.5" y1="385.2969" y2="385.2969"/><text fill="#000000" font-family="sans-serif" font-size="14" font-weight="bold" lengthAdjust="spacing" textLength="36" x="327.5" y="400.292">type</text><text fill="#000000" font-family="sans-serif" font-size="14" lengthAdjust="spacing" textLength="58" x="381.5" y="400.292">char[20]</text><line style="stroke:#000000;stroke-width:1.0;" x1="376.5" x2="376.5" y1="385.2969" y2="405.5938"/><rect fill="none" height="40.5938" rx="5" ry="5" style="stroke:#000000;stroke-width:1.5;" width="122" x="322.5" y="365"/><rect fill="#F1F1F1" height="40.5938" rx="5" ry="5" style="stroke:#F1F1F1;stroke-width:1.5;" width="22" x="230" y="469"/><text fill="#000000" font-family="sans-serif" font-size="14" lengthAdjust="spacing" textLength="12" x="235" y="483.9951">   </text><line style="stroke:#000000;stroke-width:1.0;" x1="230" x2="252" y1="489.2969" y2="489.2969"/><text fill="#000000" font-family="sans-serif" font-size="14" lengthAdjust="spacing" textLength="12" x="235" y="504.292">   </text><rect fill="none" height="40.5938" rx="5" ry="5" style="stroke:#000000;stroke-width:1.5;" width="22" x="230" y="469"/><rect fill="#F1F1F1" height="60.8906" rx="5" ry="5" style="stroke:#F1F1F1;stroke-width:1.5;" width="172" x="297.5" y="424"/><text fill="#000000" font-family="sans-serif" font-size="14" font-weight="bold" lengthAdjust="spacing" textLength="44" x="302.5" y="438.9951">name</text><text fill="#000000" font-family="sans-serif" font-size="14" lengthAdjust="spacing" textLength="13" x="356.5" y="438.9951">id</text><line style="stroke:#000000;stroke-width:1.0;" x1="351.5" x2="351.5" y1="424" y2="444.2969"/><line style="stroke:#000000;stroke-width:1.0;" x1="297.5" x2="469.5" y1="444.2969" y2="444.2969"/><text fill="#000000" font-family="sans-serif" font-size="14" font-weight="bold" lengthAdjust="spacing" textLength="36" x="302.5" y="459.292">type</text><text fill="#000000" font-family="sans-serif" font-size="14" lengthAdjust="spacing" textLength="20" x="356.5" y="459.292">int</text><line style="stroke:#000000;stroke-width:1.0;" x1="351.5" x2="351.5" y1="444.2969" y2="464.5938"/><line style="stroke:#000000;stroke-width:1.0;" x1="297.5" x2="469.5" y1="464.5938" y2="464.5938"/><text fill="#000000" font-family="sans-serif" font-size="14" font-weight="bold" lengthAdjust="spacing" textLength="16" x="302.5" y="479.5889">fk</text><text fill="#000000" font-family="sans-serif" font-size="14" lengthAdjust="spacing" textLength="108" x="356.5" y="479.5889">Server.Users.id</text><line style="stroke:#000000;stroke-width:1.0;" x1="351.5" x2="351.5" y1="464.5938" y2="484.8906"/><rect fill="none" height="60.8906" rx="5" ry="5" style="stroke:#000000;stroke-width:1.5;" width="172" x="297.5" y="424"/><rect fill="#F1F1F1" height="40.5938" rx="5" ry="5" style="stroke:#F1F1F1;stroke-width:1.5;" width="141" x="313" y="503"/><text fill="#000000" font-family="sans-serif" font-size="14" font-weight="bold" lengthAdjust="spacing" textLength="44" x="318" y="517.9951">name</text><text fill="#000000" font-family="sans-serif" font-size="14" lengthAdjust="spacing" textLength="71" x="372" y="517.9951">publicKey</text><line style="stroke:#000000;stroke-width:1.0;" x1="367" x2="367" y1="503" y2="523.2969"/><line style="stroke:#000000;stroke-width:1.0;" x1="313" x2="454" y1="523.2969" y2="523.2969"/><text fill="#000000" font-family="sans-serif" font-size="14" font-weight="bold" lengthAdjust="spacing" textLength="36" x="318" y="538.292">type</text><text fill="#000000" font-family="sans-serif" font-size="14" lengthAdjust="spacing" textLength="77" x="372" y="538.292">char[1000]</text><line style="stroke:#000000;stroke-width:1.0;" x1="367" x2="367" y1="523.2969" y2="543.5938"/><rect fill="none" height="40.5938" rx="5" ry="5" style="stroke:#000000;stroke-width:1.5;" width="141" x="313" y="503"/><rect fill="#F1F1F1" height="60.8906" rx="5" ry="5" style="stroke:#F1F1F1;stroke-width:1.5;" width="22" x="230" y="607"/><text fill="#000000" font-family="sans-serif" font-size="14" lengthAdjust="spacing" textLength="12" x="235" y="621.9951">   </text><line style="stroke:#000000;stroke-width:1.0;" x1="230" x2="252" y1="627.2969" y2="627.2969"/><text fill="#000000" font-family="sans-serif" font-size="14" lengthAdjust="spacing" textLength="12" x="235" y="642.292">   </text><line style="stroke:#000000;stroke-width:1.0;" x1="230" x2="252" y1="647.5938" y2="647.5938"/><text fill="#000000" font-family="sans-serif" font-size="14" lengthAdjust="spacing" textLength="12" x="235" y="662.5889">   </text><rect fill="none" height="60.8906" rx="5" ry="5" style="stroke:#000000;stroke-width:1.5;" width="22" x="230" y="607"/><rect fill="#F1F1F1" height="60.8906" rx="5" ry="5" style="stroke:#F1F1F1;stroke-width:1.5;" width="185" x="291" y="562"/><text fill="#000000" font-family="sans-serif" font-size="14" font-weight="bold" lengthAdjust="spacing" textLength="44" x="296" y="576.9951">name</text><text fill="#000000" font-family="sans-serif" font-size="14" lengthAdjust="spacing" textLength="13" x="350" y="576.9951">id</text><line style="stroke:#000000;stroke-width:1.0;" x1="345" x2="345" y1="562" y2="582.2969"/><line style="stroke:#000000;stroke-width:1.0;" x1="291" x2="476" y1="582.2969" y2="582.2969"/><text fill="#000000" font-family="sans-serif" font-size="14" font-weight="bold" lengthAdjust="spacing" textLength="36" x="296" y="597.292">type</text><text fill="#000000" font-family="sans-serif" font-size="14" lengthAdjust="spacing" textLength="20" x="350" y="597.292">int</text><line style="stroke:#000000;stroke-width:1.0;" x1="345" x2="345" y1="582.2969" y2="602.5938"/><line style="stroke:#000000;stroke-width:1.0;" x1="291" x2="476" y1="602.5938" y2="602.5938"/><text fill="#000000" font-family="sans-serif" font-size="14" font-weight="bold" lengthAdjust="spacing" textLength="16" x="296" y="617.5889">fk</text><text fill="#000000" font-family="sans-serif" font-size="14" lengthAdjust="spacing" textLength="121" x="350" y="617.5889">Server.Groups.id</text><line style="stroke:#000000;stroke-width:1.0;" x1="345" x2="345" y1="602.5938" y2="622.8906"/><rect fill="none" height="60.8906" rx="5" ry="5" style="stroke:#000000;stroke-width:1.5;" width="185" x="291" y="562"/><rect fill="#F1F1F1" height="40.5938" rx="5" ry="5" style="stroke:#F1F1F1;stroke-width:1.5;" width="141" x="313" y="641"/><text fill="#000000" font-family="sans-serif" font-size="14" font-weight="bold" lengthAdjust="spacing" textLength="44" x="318" y="655.9951">name</text><text fill="#000000" font-family="sans-serif" font-size="14" lengthAdjust="spacing" textLength="71" x="372" y="655.9951">publicKey</text><line style="stroke:#000000;stroke-width:1.0;" x1="367" x2="367" y1="641" y2="661.2969"/><line style="stroke:#000000;stroke-width:1.0;" x1="313" x2="454" y1="661.2969" y2="661.2969"/><text fill="#000000" font-family="sans-serif" font-size="14" font-weight="bold" lengthAdjust="spacing" textLength="36" x="318" y="676.292">type</text><text fill="#000000" font-family="sans-serif" font-size="14" lengthAdjust="spacing" textLength="77" x="372" y="676.292">char[1000]</text><line style="stroke:#000000;stroke-width:1.0;" x1="367" x2="367" y1="661.2969" y2="681.5938"/><rect fill="none" height="40.5938" rx="5" ry="5" style="stroke:#000000;stroke-width:1.5;" width="141" x="313" y="641"/><rect fill="#F1F1F1" height="40.5938" rx="5" ry="5" style="stroke:#F1F1F1;stroke-width:1.5;" width="143" x="312" y="700"/><text fill="#000000" font-family="sans-serif" font-size="14" font-weight="bold" lengthAdjust="spacing" textLength="44" x="317" y="714.9951">name</text><text fill="#000000" font-family="sans-serif" font-size="14" lengthAdjust="spacing" textLength="79" x="371" y="714.9951">privateKey</text><line style="stroke:#000000;stroke-width:1.0;" x1="366" x2="366" y1="700" y2="720.2969"/><line style="stroke:#000000;stroke-width:1.0;" x1="312" x2="455" y1="720.2969" y2="720.2969"/><text fill="#000000" font-family="sans-serif" font-size="14" font-weight="bold" lengthAdjust="spacing" textLength="36" x="317" y="735.292">type</text><text fill="#000000" font-family="sans-serif" font-size="14" lengthAdjust="spacing" textLength="77" x="371" y="735.292">char[1000]</text><line style="stroke:#000000;stroke-width:1.0;" x1="366" x2="366" y1="720.2969" y2="740.5938"/><rect fill="none" height="40.5938" rx="5" ry="5" style="stroke:#000000;stroke-width:1.5;" width="143" x="312" y="700"/><path d="M242,196.5 L255,196.5 C309.4059,196.5 254.5495,119.8901 291,79.5 C299.2776,70.3278 310.0698,63.2406 321.3369,57.7881 " fill="none" style="stroke:#000000;stroke-width:1.0;stroke-dasharray:3.0,3.0;"/><path d="M322.612,60.6115 L323.4545,56.8318 L320.0619,54.9647 L328.3954,54.6005 L322.612,60.6115 " fill="#000000" style="stroke:#000000;stroke-width:1.0;"/><ellipse cx="242" cy="196.5" fill="#000000" rx="3" ry="3" style="stroke:#000000;stroke-width:1.0;"/><path d="M242,216.5 L255,216.5 C293.1809,216.5 262.3426,163.7296 291,138.5 C301.2875,129.443 314.4005,123.213 327.4807,118.9281 " fill="none" style="stroke:#000000;stroke-width:1.0;stroke-dasharray:3.0,3.0;"/><path d="M328.3551,121.8262 L329.6543,118.2723 L326.6063,116.03 L334.726,116.7421 L328.3551,121.8262 " fill="#000000" style="stroke:#000000;stroke-width:1.0;"/><ellipse cx="242" cy="216.5" fill="#000000" rx="3" ry="3" style="stroke:#000000;stroke-width:1.0;"/><path d="M242,236.5 L255,236.5 C273.0917,236.5 274.6569,225.2597 291,217.5 C294.7219,215.7328 298.5451,213.9579 302.4187,212.1918 " fill="none" style="stroke:#000000;stroke-width:1.0;stroke-dasharray:3.0,3.0;"/><path d="M303.685,214.9982 L304.5235,211.2421 L301.1524,209.3854 L309.4347,209.026 L303.685,214.9982 " fill="#000000" style="stroke:#000000;stroke-width:1.0;"/><ellipse cx="242" cy="236.5" fill="#000000" rx="3" ry="3" style="stroke:#000000;stroke-width:1.0;"/><path d="M242,257.5 L255,257.5 C267.5391,257.5 280.7691,257.5 293.7763,257.5 " fill="none" style="stroke:#000000;stroke-width:1.0;stroke-dasharray:3.0,3.0;"/><path d="M293.7763,260.5503 L296.064,257.5 L293.7763,254.4497 L301.402,257.5 L293.7763,260.5503 " fill="#000000" style="stroke:#000000;stroke-width:1.0;"/><ellipse cx="242" cy="257.5" fill="#000000" rx="3" ry="3" style="stroke:#000000;stroke-width:1.0;"/><path d="M242,277.5 L255,277.5 C273.0917,277.5 274.3394,289.4478 291,296.5 C296.439,298.8023 302.1193,301.038 307.8718,303.182 " fill="none" style="stroke:#000000;stroke-width:1.0;stroke-dasharray:3.0,3.0;"/><path d="M306.8059,306.107 L310.0656,303.9814 L308.9378,300.257 L315.1844,305.8468 L306.8059,306.107 " fill="#000000" style="stroke:#000000;stroke-width:1.0;"/><ellipse cx="242" cy="277.5" fill="#000000" rx="3" ry="3" style="stroke:#000000;stroke-width:1.0;"/><path d="M242,298.5 L255,298.5 C284.9629,298.5 267.3543,337.0973 291,355.5 C298.3229,361.1992 306.7687,365.8357 315.5118,369.6026 " fill="none" style="stroke:#000000;stroke-width:1.0;stroke-dasharray:3.0,3.0;"/><path d="M314.3765,372.4266 L317.6298,370.4541 L316.6472,366.7787 L322.5717,372.441 L314.3765,372.4266 " fill="#000000" style="stroke:#000000;stroke-width:1.0;"/><ellipse cx="242" cy="298.5" fill="#000000" rx="3" ry="3" style="stroke:#000000;stroke-width:1.0;"/><path d="M181,468.5 L194,468.5 C225.5361,468.5 236.1968,381.3966 239.7638,316.5569 " fill="none" style="stroke:#000000;stroke-width:1.0;stroke-dasharray:3.0,3.0;"/><path d="M242.8796,316.7172 L239.884,314.22 L236.648,316.3966 L240.1646,308.7673 L242.8796,316.7172 " fill="#000000" style="stroke:#000000;stroke-width:1.0;"/><ellipse cx="181" cy="468.5" fill="#000000" rx="3" ry="3" style="stroke:#000000;stroke-width:1.0;"/><path d="M242,478.5 L255,478.5 C266.4063,478.5 278.2879,477.5679 290.0146,476.0712 " fill="none" style="stroke:#000000;stroke-width:1.0;stroke-dasharray:3.0,3.0;"/><path d="M290.439,479.1421 L292.3177,475.7529 L289.5902,473.0003 L297.6917,475.0102 L290.439,479.1421 " fill="#000000" style="stroke:#000000;stroke-width:1.0;"/><ellipse cx="242" cy="478.5" fill="#000000" rx="3" ry="3" style="stroke:#000000;stroke-width:1.0;"/><path d="M242,499.5 L255,499.5 C271.5676,499.5 289.1381,501.4664 305.7798,504.2735 " fill="none" style="stroke:#000000;stroke-width:1.0;stroke-dasharray:3.0,3.0;"/><path d="M305.2419,507.303 L308.052,504.6769 L306.3177,501.2439 L313.3537,505.6183 L305.2419,507.303 " fill="#000000" style="stroke:#000000;stroke-width:1.0;"/><ellipse cx="242" cy="499.5" fill="#000000" rx="3" ry="3" style="stroke:#000000;stroke-width:1.0;"/><path d="M181,489.5 L194,489.5 C203.374,489.5 213.7885,489.5 222.4714,489.5 " fill="none" style="stroke:#000000;stroke-width:1.0;stroke-dasharray:3.0,3.0;"/><path d="M222.4714,492.5815 L224.7825,489.5 L222.4714,486.4185 L230.1751,489.5 L222.4714,492.5815 " fill="#000000" style="stroke:#000000;stroke-width:1.0;"/><ellipse cx="181" cy="489.5" fill="#000000" rx="3" ry="3" style="stroke:#000000;stroke-width:1.0;"/><path d="M242,616.5 L255,616.5 C264.4589,616.5 274.2446,615.859 283.9978,614.7866 " fill="none" style="stroke:#000000;stroke-width:1.0;stroke-dasharray:3.0,3.0;"/><path d="M284.3581,617.765 L286.2316,614.5164 L283.6375,611.8082 L291.4438,613.8859 L284.3581,617.765 " fill="#000000" style="stroke:#000000;stroke-width:1.0;"/><ellipse cx="242" cy="616.5" fill="#000000" rx="3" ry="3" style="stroke:#000000;stroke-width:1.0;"/><path d="M242,636.5 L255,636.5 C271.5915,636.5 289.1722,638.5483 305.8163,641.4724 " fill="none" style="stroke:#000000;stroke-width:1.0;stroke-dasharray:3.0,3.0;"/><path d="M305.256,644.5022 L308.0887,641.8926 L306.3767,638.4426 L313.3908,642.8732 L305.256,644.5022 " fill="#000000" style="stroke:#000000;stroke-width:1.0;"/><ellipse cx="242" cy="636.5" fill="#000000" rx="3" ry="3" style="stroke:#000000;stroke-width:1.0;"/><path d="M242,657.5 L255,657.5 C277.0079,657.5 272.0237,680.3535 291,691.5 C295.4629,694.1215 300.1891,696.5326 305.05,698.7461 " fill="none" style="stroke:#000000;stroke-width:1.0;stroke-dasharray:3.0,3.0;"/><path d="M303.8088,701.6274 L307.211,699.677 L306.2912,695.8648 L312.2532,701.8491 L303.8088,701.6274 " fill="#000000" style="stroke:#000000;stroke-width:1.0;"/><ellipse cx="242" cy="657.5" fill="#000000" rx="3" ry="3" style="stroke:#000000;stroke-width:1.0;"/><path d="M181,509.5 L194,509.5 C213.3075,509.5 227.2776,561.3366 234.8845,599.0348 " fill="none" style="stroke:#000000;stroke-width:1.0;stroke-dasharray:3.0,3.0;"/><path d="M231.7621,599.6453 L235.3424,601.3766 L238.0069,598.4243 L236.4108,606.8408 L231.7621,599.6453 " fill="#000000" style="stroke:#000000;stroke-width:1.0;"/><ellipse cx="181" cy="509.5" fill="#000000" rx="3" ry="3" style="stroke:#000000;stroke-width:1.0;"/><!--SRC=[xLVFRzem5Bxxh_0ujL8Bb0QwSUeefTK6KbLABrKF9dc0Hs9djXE4glxlUqvOII51OLrl1165vy_V- -cNnwKsJ9bVMWhg-Xo4wNR85pE306ZCnue9GoTA1dHcJAZRjPfYY-gKcraqZZGeLmg3Uwgk36gXZ-0eyDSF0TC6L2rXquIy48fNvKxnc1du2SjAcrRS6LDFP_Lw_RboaguFG6is1LrfFoK2UxsyFLK42y1kvDvgGo8rop2L2fCLXtCK6XN1c-ZrP1TfGbD0Mv92W_10bR1jOcsh3475eAeZ36OLNIgfH84BFFvqDK6QYZmjcRoLZIqFYfaQxtYIf-TLFVGKbgM7vK0tws6x5dA2i1q0lJi2RwnXDFQvQ-jqWppNztSstoWPXNacxr_2xynFUVV8uAOF7ynXk3wxPVdIk91NSebPj7s6aCkSdgFdN8HCiO1sc3kVef_2kvA-LBINN1c0dZ5FBhYOqWdpDMHMxjDTIe2Y5ndvTwNa8cLpcaxBQMRMUjZ22fQ6y3i2uKAVJ_0he2CL7kqKtFfcFpdW94Mtm11PWZf1ht6xMSlhJv4FC-xE1PvXUaQoyLiXkppcY5hbEKk-CdSjpZ9PwPPdhra5U3VSvQ5zUQp8jtBQEdSkTkbTQrZbFzUOwePcZnasPXeArDRh6rGxrEOvXgNApRBGf-jci_7lv4AQ8hilqEgkinTrgN0nrqXLe7EBPqztnfQAgS-AbfqybFG_ZTttmJLS2bseeTbpFg01Zs04_-TqxChrOUOwp5o7cUimSv4x-wTiDEXJT4bZNyC6qQWtpgjdOp3CEHg9kP0BdCTa478Vg2sSOt9qSzUdMaRA1UfnRHGVHxOf7fCVB6RqFX8MrwRsrz73u9WEh_yAwRM8kP8Ym7Sc-V4uI47qLffXA4q2RZcd7Mve6cRwE21TcB38DxZLbHxETsqwUkYTVYLz9gOHdeasle395VP9evQuDlm3]--></g></svg>