<?xml version="1.0" encoding="UTF-8" standalone="no"?><svg xmlns="http://www.w3.org/2000/svg" xmlns:xlink="http://www.w3.org/1999/xlink" contentStyleType="text/css" height="500px" preserveAspectRatio="none" style="width:1146px;height:500px;background:#FFFFFF;" version="1.1" viewBox="0 0 1146 500" width="1146px" zoomAndPan="magnify"><defs/><g><rect fill="none" height="203.6016" rx="3.5" ry="3.5" style="stroke:#696969;stroke-width:1.0;" width="763.5" x="175.5" y="198.6953"/><line style="stroke:#696969;stroke-width:0.5;stroke-dasharray:5.0,5.0;" x1="22" x2="22" y1="81.2969" y2="419.2969"/><line style="stroke:#696969;stroke-width:0.5;stroke-dasharray:5.0,5.0;" x1="85" x2="85" y1="81.2969" y2="419.2969"/><line style="stroke:#696969;stroke-width:0.5;stroke-dasharray:5.0,5.0;" x1="213.5" x2="213.5" y1="81.2969" y2="419.2969"/><line style="stroke:#696969;stroke-width:0.5;stroke-dasharray:5.0,5.0;" x1="471.5" x2="471.5" y1="81.2969" y2="419.2969"/><line style="stroke:#696969;stroke-width:0.5;stroke-dasharray:5.0,5.0;" x1="730" x2="730" y1="81.2969" y2="419.2969"/><line style="stroke:#696969;stroke-width:0.5;stroke-dasharray:5.0,5.0;" x1="934" x2="934" y1="81.2969" y2="419.2969"/><line style="stroke:#696969;stroke-width:0.5;stroke-dasharray:5.0,5.0;" x1="1030" x2="1030" y1="81.2969" y2="419.2969"/><line style="stroke:#696969;stroke-width:0.5;stroke-dasharray:5.0,5.0;" x1="1108" x2="1108" y1="81.2969" y2="419.2969"/><text fill="#454645" font-family="sans-serif" font-size="14" lengthAdjust="spacing" textLength="29" x="5" y="77.9951">Bob</text><ellipse cx="22.5" cy="13.5" fill="#454645" rx="8" ry="8" style="stroke:#454645;stroke-width:0.5;"/><path d="M22.5,21.5 L22.5,48.5 M9.5,29.5 L35.5,29.5 M22.5,48.5 L9.5,63.5 M22.5,48.5 L35.5,63.5 " fill="none" style="stroke:#454645;stroke-width:0.5;"/><text fill="#454645" font-family="sans-serif" font-size="14" lengthAdjust="spacing" textLength="29" x="5" y="431.292">Bob</text><ellipse cx="22.5" cy="443.0938" fill="#454645" rx="8" ry="8" style="stroke:#454645;stroke-width:0.5;"/><path d="M22.5,451.0938 L22.5,478.0938 M9.5,459.0938 L35.5,459.0938 M22.5,478.0938 L9.5,493.0938 M22.5,478.0938 L35.5,493.0938 " fill="none" style="stroke:#454645;stroke-width:0.5;"/><text fill="#454645" font-family="sans-serif" font-size="14" lengthAdjust="spacing" textLength="64" x="50" y="77.9951">ClientDB</text><path d="M67,29 C67,19 85,19 85,19 C85,19 103,19 103,29 L103,55 C103,65 85,65 85,65 C85,65 67,65 67,55 L67,29 " fill="#00FFFF" style="stroke:#454645;stroke-width:1.5;"/><path d="M67,29 C67,39 85,39 85,39 C85,39 103,39 103,29 " fill="none" style="stroke:#454645;stroke-width:1.5;"/><text fill="#454645" font-family="sans-serif" font-size="14" lengthAdjust="spacing" textLength="64" x="50" y="431.292">ClientDB</text><path d="M67,444.5938 C67,434.5938 85,434.5938 85,434.5938 C85,434.5938 103,434.5938 103,444.5938 L103,470.5938 C103,480.5938 85,480.5938 85,480.5938 C85,480.5938 67,480.5938 67,470.5938 L67,444.5938 " fill="#00FFFF" style="stroke:#454645;stroke-width:1.5;"/><path d="M67,444.5938 C67,454.5938 85,454.5938 85,454.5938 C85,454.5938 103,454.5938 103,444.5938 " fill="none" style="stroke:#454645;stroke-width:1.5;"/><rect fill="#FF6347" height="30.2969" rx="3.5" ry="3.5" style="stroke:#454645;stroke-width:1.5;" width="57" x="185.5" y="50"/><text fill="#FFFFFF" font-family="sans-serif" font-size="14" lengthAdjust="spacing" textLength="43" x="192.5" y="69.9951">Client</text><rect fill="#FF6347" height="30.2969" rx="3.5" ry="3.5" style="stroke:#454645;stroke-width:1.5;" width="57" x="185.5" y="418.2969"/><text fill="#FFFFFF" font-family="sans-serif" font-size="14" lengthAdjust="spacing" textLength="43" x="192.5" y="438.292">Client</text><path d="M417.5,55 L526.5,55 C531.5,55 531.5,68.1484 531.5,68.1484 C531.5,68.1484 531.5,81.2969 526.5,81.2969 L417.5,81.2969 C412.5,81.2969 412.5,68.1484 412.5,68.1484 C412.5,68.1484 412.5,55 417.5,55 " fill="#FF6347" style="stroke:#454645;stroke-width:1.5;"/><path d="M526.5,55 C521.5,55 521.5,68.1484 521.5,68.1484 C521.5,81.2969 526.5,81.2969 526.5,81.2969 " fill="none" style="stroke:#454645;stroke-width:1.5;"/><text fill="#FFFFFF" font-family="sans-serif" font-size="14" lengthAdjust="spacing" textLength="99" x="417.5" y="72.9951">SessionQueue</text><path d="M417.5,418.2969 L526.5,418.2969 C531.5,418.2969 531.5,431.4453 531.5,431.4453 C531.5,431.4453 531.5,444.5938 526.5,444.5938 L417.5,444.5938 C412.5,444.5938 412.5,431.4453 412.5,431.4453 C412.5,431.4453 412.5,418.2969 417.5,418.2969 " fill="#FF6347" style="stroke:#454645;stroke-width:1.5;"/><path d="M526.5,418.2969 C521.5,418.2969 521.5,431.4453 521.5,431.4453 C521.5,444.5938 526.5,444.5938 526.5,444.5938 " fill="none" style="stroke:#454645;stroke-width:1.5;"/><text fill="#FFFFFF" font-family="sans-serif" font-size="14" lengthAdjust="spacing" textLength="99" x="417.5" y="436.292">SessionQueue</text><rect fill="#FF6347" height="30.2969" rx="3.5" ry="3.5" style="stroke:#454645;stroke-width:1.5;" width="68" x="696" y="50"/><text fill="#FFFFFF" font-family="sans-serif" font-size="14" lengthAdjust="spacing" textLength="54" x="703" y="69.9951">Session</text><rect fill="#FF6347" height="30.2969" rx="3.5" ry="3.5" style="stroke:#454645;stroke-width:1.5;" width="68" x="696" y="418.2969"/><text fill="#FFFFFF" font-family="sans-serif" font-size="14" lengthAdjust="spacing" textLength="54" x="703" y="438.292">Session</text><path d="M883,55 L985,55 C990,55 990,68.1484 990,68.1484 C990,68.1484 990,81.2969 985,81.2969 L883,81.2969 C878,81.2969 878,68.1484 878,68.1484 C878,68.1484 878,55 883,55 " fill="#FF6347" style="stroke:#454645;stroke-width:1.5;"/><path d="M985,55 C980,55 980,68.1484 980,68.1484 C980,81.2969 985,81.2969 985,81.2969 " fill="none" style="stroke:#454645;stroke-width:1.5;"/><text fill="#FFFFFF" font-family="sans-serif" font-size="14" lengthAdjust="spacing" textLength="92" x="883" y="72.9951">ServerQueue</text><path d="M883,418.2969 L985,418.2969 C990,418.2969 990,431.4453 990,431.4453 C990,431.4453 990,444.5938 985,444.5938 L883,444.5938 C878,444.5938 878,431.4453 878,431.4453 C878,431.4453 878,418.2969 883,418.2969 " fill="#FF6347" style="stroke:#454645;stroke-width:1.5;"/><path d="M985,418.2969 C980,418.2969 980,431.4453 980,431.4453 C980,444.5938 985,444.5938 985,444.5938 " fill="none" style="stroke:#454645;stroke-width:1.5;"/><text fill="#FFFFFF" font-family="sans-serif" font-size="14" lengthAdjust="spacing" textLength="92" x="883" y="436.292">ServerQueue</text><rect fill="#FF6347" height="30.2969" rx="3.5" ry="3.5" style="stroke:#454645;stroke-width:1.5;" width="61" x="1000" y="50"/><text fill="#FFFFFF" font-family="sans-serif" font-size="14" lengthAdjust="spacing" textLength="47" x="1007" y="69.9951">Server</text><rect fill="#FF6347" height="30.2969" rx="3.5" ry="3.5" style="stroke:#454645;stroke-width:1.5;" width="61" x="1000" y="418.2969"/><text fill="#FFFFFF" font-family="sans-serif" font-size="14" lengthAdjust="spacing" textLength="47" x="1007" y="438.292">Server</text><text fill="#454645" font-family="sans-serif" font-size="14" lengthAdjust="spacing" textLength="68" x="1071" y="77.9951">ServerDB</text><path d="M1090,29 C1090,19 1108,19 1108,19 C1108,19 1126,19 1126,29 L1126,55 C1126,65 1108,65 1108,65 C1108,65 1090,65 1090,55 L1090,29 " fill="#00FFFF" style="stroke:#454645;stroke-width:1.5;"/><path d="M1090,29 C1090,39 1108,39 1108,39 C1108,39 1126,39 1126,29 " fill="none" style="stroke:#454645;stroke-width:1.5;"/><text fill="#454645" font-family="sans-serif" font-size="14" lengthAdjust="spacing" textLength="68" x="1071" y="431.292">ServerDB</text><path d="M1090,444.5938 C1090,434.5938 1108,434.5938 1108,434.5938 C1108,434.5938 1126,434.5938 1126,444.5938 L1126,470.5938 C1126,480.5938 1108,480.5938 1108,480.5938 C1108,480.5938 1090,480.5938 1090,470.5938 L1090,444.5938 " fill="#00FFFF" style="stroke:#454645;stroke-width:1.5;"/><path d="M1090,444.5938 C1090,454.5938 1108,454.5938 1108,454.5938 C1108,454.5938 1126,454.5938 1126,444.5938 " fill="none" style="stroke:#454645;stroke-width:1.5;"/><polygon fill="#454645" points="202,108.4297,212,112.4297,202,116.4297,206,112.4297" style="stroke:#454645;stroke-width:1.0;"/><line style="stroke:#454645;stroke-width:1.0;" x1="22.5" x2="208" y1="112.4297" y2="112.4297"/><text fill="#000000" font-family="sans-serif" font-size="13" font-weight="bold" lengthAdjust="spacing" textLength="9" x="29.5" y="107.3638">1</text><text fill="#000000" font-family="sans-serif" font-size="13" lengthAdjust="spacing" textLength="103" x="42.5" y="107.3638">addFriend(Alice)</text><polygon fill="#454645" points="96,137.5625,86,141.5625,96,145.5625,92,141.5625" style="stroke:#454645;stroke-width:1.0;"/><line style="stroke:#454645;stroke-width:1.0;" x1="90" x2="213" y1="141.5625" y2="141.5625"/><text fill="#000000" font-family="sans-serif" font-size="13" font-weight="bold" lengthAdjust="spacing" textLength="9" x="102" y="136.4966">2</text><text fill="#000000" font-family="sans-serif" font-size="13" lengthAdjust="spacing" textLength="92" x="115" y="136.4966">getFriendList()</text><line style="stroke:#454645;stroke-width:1.0;" x1="214" x2="256" y1="170.6953" y2="170.6953"/><line style="stroke:#454645;stroke-width:1.0;" x1="256" x2="256" y1="170.6953" y2="183.6953"/><line style="stroke:#454645;stroke-width:1.0;" x1="215" x2="256" y1="183.6953" y2="183.6953"/><polygon fill="#454645" points="225,179.6953,215,183.6953,225,187.6953,221,183.6953" style="stroke:#454645;stroke-width:1.0;"/><text fill="#000000" font-family="sans-serif" font-size="13" font-weight="bold" lengthAdjust="spacing" textLength="8" x="221" y="165.6294">3</text><text fill="#000000" font-family="sans-serif" font-size="13" lengthAdjust="spacing" textLength="138" x="233" y="165.6294">checkFriendList(Alice)</text><path d="M179,198.6953 L241.5,198.6953 L241.5,205.8281 L231.5,215.8281 L175.5,215.8281 L175.5,202.1953 A3.5,3.5 0 0 1 179,198.6953 " fill="#EEEEEE" style="stroke:#696969;stroke-width:1.5;"/><rect fill="none" height="203.6016" rx="3.5" ry="3.5" style="stroke:#696969;stroke-width:1.0;" width="763.5" x="175.5" y="198.6953"/><text fill="#454645" font-family="sans-serif" font-size="13" font-weight="bold" lengthAdjust="spacing" textLength="21" x="190.5" y="211.7622">alt</text><text fill="#696969" font-family="sans-serif" font-size="11" font-weight="bold" lengthAdjust="spacing" textLength="105" x="256.5" y="210.9058">[Already friend]</text><line style="stroke:#454645;stroke-width:1.0;" x1="214" x2="256" y1="236.9609" y2="236.9609"/><line style="stroke:#454645;stroke-width:1.0;" x1="256" x2="256" y1="236.9609" y2="249.9609"/><line style="stroke:#454645;stroke-width:1.0;" x1="215" x2="256" y1="249.9609" y2="249.9609"/><polygon fill="#454645" points="225,245.9609,215,249.9609,225,253.9609,221,249.9609" style="stroke:#454645;stroke-width:1.0;"/><text fill="#000000" font-family="sans-serif" font-size="13" font-weight="bold" lengthAdjust="spacing" textLength="9" x="221" y="231.895">4</text><text fill="#000000" font-family="sans-serif" font-size="13" lengthAdjust="spacing" textLength="143" x="234" y="231.895">displayAlreadyFriend()</text><line style="stroke:#696969;stroke-width:1.0;stroke-dasharray:2.0,2.0;" x1="175.5" x2="939" y1="258.9609" y2="258.9609"/><text fill="#696969" font-family="sans-serif" font-size="11" font-weight="bold" lengthAdjust="spacing" textLength="80" x="180.5" y="269.1714">[Not friend]</text><polygon fill="#454645" points="460,289.8984,470,293.8984,460,297.8984,464,293.8984" style="stroke:#454645;stroke-width:1.0;"/><line style="stroke:#454645;stroke-width:1.0;" x1="214" x2="466" y1="293.8984" y2="293.8984"/><text fill="#000000" font-family="sans-serif" font-size="13" font-weight="bold" lengthAdjust="spacing" textLength="9" x="221" y="288.8325">5</text><text fill="#000000" font-family="sans-serif" font-size="13" lengthAdjust="spacing" textLength="221" x="234" y="288.8325">msgsnd(addFriendRequest(Alice) )</text><polygon fill="#454645" points="718,319.0313,728,323.0313,718,327.0313,722,323.0313" style="stroke:#454645;stroke-width:1.0;"/><line style="stroke:#454645;stroke-width:1.0;" x1="472" x2="724" y1="323.0313" y2="323.0313"/><text fill="#000000" font-family="sans-serif" font-size="13" font-weight="bold" lengthAdjust="spacing" textLength="9" x="479" y="317.9653">6</text><text fill="#000000" font-family="sans-serif" font-size="13" lengthAdjust="spacing" textLength="58" x="492" y="317.9653">msgrcv()</text><line style="stroke:#454645;stroke-width:1.0;" x1="730" x2="772" y1="352.1641" y2="352.1641"/><line style="stroke:#454645;stroke-width:1.0;" x1="772" x2="772" y1="352.1641" y2="365.1641"/><line style="stroke:#454645;stroke-width:1.0;" x1="731" x2="772" y1="365.1641" y2="365.1641"/><polygon fill="#454645" points="741,361.1641,731,365.1641,741,369.1641,737,365.1641" style="stroke:#454645;stroke-width:1.0;"/><text fill="#000000" font-family="sans-serif" font-size="13" font-weight="bold" lengthAdjust="spacing" textLength="9" x="737" y="347.0981">7</text><text fill="#000000" font-family="sans-serif" font-size="13" lengthAdjust="spacing" textLength="177" x="750" y="347.0981">change msg access rights()</text><polygon fill="#454645" points="483,390.2969,473,394.2969,483,398.2969,479,394.2969" style="stroke:#454645;stroke-width:1.0;"/><line style="stroke:#454645;stroke-width:1.0;" x1="477" x2="729" y1="394.2969" y2="394.2969"/><text fill="#000000" font-family="sans-serif" font-size="13" font-weight="bold" lengthAdjust="spacing" textLength="9" x="489" y="389.231">8</text><text fill="#000000" font-family="sans-serif" font-size="13" lengthAdjust="spacing" textLength="221" x="502" y="389.231">msgsnd(addFriendRequest(Alice) )</text><!--SRC=[ZP31JiCm38RlUGfpsmwiznsGDYPE4n8W7i1DJHkHDCLnXlRsk6lfLcr8v9JOt__xZ- -aeK1mS2LZA_31CK0ZqgLrKJ1-hsedJIvp8hQn5MfbPMCeEgzm3lvy2PY4k3Yv9ODPOfj3IMoCGIkHOHjBm0JlwcGg52mn4JnwfvQxhUcGnLdNzHc6eldAb0dUA2KNsvV-CQD-EnF71-9hRAYV9mvldMZw973_C8w3DM1LFR7UgyN6EqjBCtOcPhTLgYOPgBrBihY65B4DsSyBQBH3Bx3nJ5WTTSzzru2U6mQLIxhOumYFePQ6l7xWESfjzUMcr2EaEgbg-jGhwQAcCB0ygMUQiySWPtjOpB0vOHjiQ-f1G6kr3EpgHjAVcdydqwFb7m00]--></g></svg>