<?xml version="1.0" encoding="UTF-8" standalone="no"?><svg xmlns="http://www.w3.org/2000/svg" xmlns:xlink="http://www.w3.org/1999/xlink" contentStyleType="text/css" height="1041px" preserveAspectRatio="none" style="width:1555px;height:1041px;background:#FFFFFF;" version="1.1" viewBox="0 0 1555 1041" width="1555px" zoomAndPan="magnify"><defs/><g><rect fill="none" height="787.3203" rx="3.5" ry="3.5" style="stroke:#696969;stroke-width:1.0;" width="1538" x="10" y="156.5625"/><rect fill="none" height="537.2578" rx="3.5" ry="3.5" style="stroke:#696969;stroke-width:1.0;" width="1518" x="20" y="399.625"/><line style="stroke:#696969;stroke-width:0.5;stroke-dasharray:5.0,5.0;" x1="47" x2="47" y1="81.2969" y2="960.8828"/><line style="stroke:#696969;stroke-width:0.5;stroke-dasharray:5.0,5.0;" x1="110" x2="110" y1="81.2969" y2="960.8828"/><line style="stroke:#696969;stroke-width:0.5;stroke-dasharray:5.0,5.0;" x1="348.5" x2="348.5" y1="81.2969" y2="960.8828"/><line style="stroke:#696969;stroke-width:0.5;stroke-dasharray:5.0,5.0;" x1="567.5" x2="567.5" y1="81.2969" y2="960.8828"/><line style="stroke:#696969;stroke-width:0.5;stroke-dasharray:5.0,5.0;" x1="791" x2="791" y1="81.2969" y2="960.8828"/><line style="stroke:#696969;stroke-width:0.5;stroke-dasharray:5.0,5.0;" x1="1014" x2="1014" y1="81.2969" y2="960.8828"/><line style="stroke:#696969;stroke-width:0.5;stroke-dasharray:5.0,5.0;" x1="1236.5" x2="1236.5" y1="81.2969" y2="960.8828"/><line style="stroke:#696969;stroke-width:0.5;stroke-dasharray:5.0,5.0;" x1="1491" x2="1491" y1="81.2969" y2="960.8828"/><text fill="#454645" font-family="sans-serif" font-size="14" lengthAdjust="spacing" textLength="29" x="30" y="77.9951">Bob</text><ellipse cx="47.5" cy="13.5" fill="#454645" rx="8" ry="8" style="stroke:#454645;stroke-width:0.5;"/><path d="M47.5,21.5 L47.5,48.5 M34.5,29.5 L60.5,29.5 M47.5,48.5 L34.5,63.5 M47.5,48.5 L60.5,63.5 " fill="none" style="stroke:#454645;stroke-width:0.5;"/><text fill="#454645" font-family="sans-serif" font-size="14" lengthAdjust="spacing" textLength="29" x="30" y="972.8779">Bob</text><ellipse cx="47.5" cy="984.6797" fill="#454645" rx="8" ry="8" style="stroke:#454645;stroke-width:0.5;"/><path d="M47.5,992.6797 L47.5,1019.6797 M34.5,1000.6797 L60.5,1000.6797 M47.5,1019.6797 L34.5,1034.6797 M47.5,1019.6797 L60.5,1034.6797 " fill="none" style="stroke:#454645;stroke-width:0.5;"/><text fill="#454645" font-family="sans-serif" font-size="14" lengthAdjust="spacing" textLength="64" x="75" y="77.9951">ClientDB</text><path d="M92,29 C92,19 110,19 110,19 C110,19 128,19 128,29 L128,55 C128,65 110,65 110,65 C110,65 92,65 92,55 L92,29 " fill="#00FFFF" style="stroke:#454645;stroke-width:1.5;"/><path d="M92,29 C92,39 110,39 110,39 C110,39 128,39 128,29 " fill="none" style="stroke:#454645;stroke-width:1.5;"/><text fill="#454645" font-family="sans-serif" font-size="14" lengthAdjust="spacing" textLength="64" x="75" y="972.8779">ClientDB</text><path d="M92,986.1797 C92,976.1797 110,976.1797 110,976.1797 C110,976.1797 128,976.1797 128,986.1797 L128,1012.1797 C128,1022.1797 110,1022.1797 110,1022.1797 C110,1022.1797 92,1022.1797 92,1012.1797 L92,986.1797 " fill="#00FFFF" style="stroke:#454645;stroke-width:1.5;"/><path d="M92,986.1797 C92,996.1797 110,996.1797 110,996.1797 C110,996.1797 128,996.1797 128,986.1797 " fill="none" style="stroke:#454645;stroke-width:1.5;"/><rect fill="#FF6347" height="30.2969" rx="3.5" ry="3.5" style="stroke:#454645;stroke-width:1.5;" width="57" x="320.5" y="50"/><text fill="#FFFFFF" font-family="sans-serif" font-size="14" lengthAdjust="spacing" textLength="43" x="327.5" y="69.9951">Client</text><rect fill="#FF6347" height="30.2969" rx="3.5" ry="3.5" style="stroke:#454645;stroke-width:1.5;" width="57" x="320.5" y="959.8828"/><text fill="#FFFFFF" font-family="sans-serif" font-size="14" lengthAdjust="spacing" textLength="43" x="327.5" y="979.8779">Client</text><path d="M513.5,55 L622.5,55 C627.5,55 627.5,68.1484 627.5,68.1484 C627.5,68.1484 627.5,81.2969 622.5,81.2969 L513.5,81.2969 C508.5,81.2969 508.5,68.1484 508.5,68.1484 C508.5,68.1484 508.5,55 513.5,55 " fill="#FF6347" style="stroke:#454645;stroke-width:1.5;"/><path d="M622.5,55 C617.5,55 617.5,68.1484 617.5,68.1484 C617.5,81.2969 622.5,81.2969 622.5,81.2969 " fill="none" style="stroke:#454645;stroke-width:1.5;"/><text fill="#FFFFFF" font-family="sans-serif" font-size="14" lengthAdjust="spacing" textLength="99" x="513.5" y="72.9951">SessionQueue</text><path d="M513.5,959.8828 L622.5,959.8828 C627.5,959.8828 627.5,973.0313 627.5,973.0313 C627.5,973.0313 627.5,986.1797 622.5,986.1797 L513.5,986.1797 C508.5,986.1797 508.5,973.0313 508.5,973.0313 C508.5,973.0313 508.5,959.8828 513.5,959.8828 " fill="#FF6347" style="stroke:#454645;stroke-width:1.5;"/><path d="M622.5,959.8828 C617.5,959.8828 617.5,973.0313 617.5,973.0313 C617.5,986.1797 622.5,986.1797 622.5,986.1797 " fill="none" style="stroke:#454645;stroke-width:1.5;"/><text fill="#FFFFFF" font-family="sans-serif" font-size="14" lengthAdjust="spacing" textLength="99" x="513.5" y="977.8779">SessionQueue</text><rect fill="#FF6347" height="30.2969" rx="3.5" ry="3.5" style="stroke:#454645;stroke-width:1.5;" width="68" x="757" y="50"/><text fill="#FFFFFF" font-family="sans-serif" font-size="14" lengthAdjust="spacing" textLength="54" x="764" y="69.9951">Session</text><rect fill="#FF6347" height="30.2969" rx="3.5" ry="3.5" style="stroke:#454645;stroke-width:1.5;" width="68" x="757" y="959.8828"/><text fill="#FFFFFF" font-family="sans-serif" font-size="14" lengthAdjust="spacing" textLength="54" x="764" y="979.8779">Session</text><path d="M963,55 L1065,55 C1070,55 1070,68.1484 1070,68.1484 C1070,68.1484 1070,81.2969 1065,81.2969 L963,81.2969 C958,81.2969 958,68.1484 958,68.1484 C958,68.1484 958,55 963,55 " fill="#FF6347" style="stroke:#454645;stroke-width:1.5;"/><path d="M1065,55 C1060,55 1060,68.1484 1060,68.1484 C1060,81.2969 1065,81.2969 1065,81.2969 " fill="none" style="stroke:#454645;stroke-width:1.5;"/><text fill="#FFFFFF" font-family="sans-serif" font-size="14" lengthAdjust="spacing" textLength="92" x="963" y="72.9951">ServerQueue</text><path d="M963,959.8828 L1065,959.8828 C1070,959.8828 1070,973.0313 1070,973.0313 C1070,973.0313 1070,986.1797 1065,986.1797 L963,986.1797 C958,986.1797 958,973.0313 958,973.0313 C958,973.0313 958,959.8828 963,959.8828 " fill="#FF6347" style="stroke:#454645;stroke-width:1.5;"/><path d="M1065,959.8828 C1060,959.8828 1060,973.0313 1060,973.0313 C1060,986.1797 1065,986.1797 1065,986.1797 " fill="none" style="stroke:#454645;stroke-width:1.5;"/><text fill="#FFFFFF" font-family="sans-serif" font-size="14" lengthAdjust="spacing" textLength="92" x="963" y="977.8779">ServerQueue</text><rect fill="#FF6347" height="30.2969" rx="3.5" ry="3.5" style="stroke:#454645;stroke-width:1.5;" width="61" x="1206.5" y="50"/><text fill="#FFFFFF" font-family="sans-serif" font-size="14" lengthAdjust="spacing" textLength="47" x="1213.5" y="69.9951">Server</text><rect fill="#FF6347" height="30.2969" rx="3.5" ry="3.5" style="stroke:#454645;stroke-width:1.5;" width="61" x="1206.5" y="959.8828"/><text fill="#FFFFFF" font-family="sans-serif" font-size="14" lengthAdjust="spacing" textLength="47" x="1213.5" y="979.8779">Server</text><text fill="#454645" font-family="sans-serif" font-size="14" lengthAdjust="spacing" textLength="68" x="1454" y="77.9951">ServerDB</text><path d="M1473,29 C1473,19 1491,19 1491,19 C1491,19 1509,19 1509,29 L1509,55 C1509,65 1491,65 1491,65 C1491,65 1473,65 1473,55 L1473,29 " fill="#00FFFF" style="stroke:#454645;stroke-width:1.5;"/><path d="M1473,29 C1473,39 1491,39 1491,39 C1491,39 1509,39 1509,29 " fill="none" style="stroke:#454645;stroke-width:1.5;"/><text fill="#454645" font-family="sans-serif" font-size="14" lengthAdjust="spacing" textLength="68" x="1454" y="972.8779">ServerDB</text><path d="M1473,986.1797 C1473,976.1797 1491,976.1797 1491,976.1797 C1491,976.1797 1509,976.1797 1509,986.1797 L1509,1012.1797 C1509,1022.1797 1491,1022.1797 1491,1022.1797 C1491,1022.1797 1473,1022.1797 1473,1012.1797 L1473,986.1797 " fill="#00FFFF" style="stroke:#454645;stroke-width:1.5;"/><path d="M1473,986.1797 C1473,996.1797 1491,996.1797 1491,996.1797 C1491,996.1797 1509,996.1797 1509,986.1797 " fill="none" style="stroke:#454645;stroke-width:1.5;"/><polygon fill="#454645" points="337,108.4297,347,112.4297,337,116.4297,341,112.4297" style="stroke:#454645;stroke-width:1.0;"/><line style="stroke:#454645;stroke-width:1.0;" x1="47.5" x2="343" y1="112.4297" y2="112.4297"/><text fill="#000000" font-family="sans-serif" font-size="13" font-weight="bold" lengthAdjust="spacing" textLength="9" x="54.5" y="107.3638">1</text><text fill="#000000" font-family="sans-serif" font-size="13" lengthAdjust="spacing" textLength="243" x="67.5" y="107.3638">add to group (groupname, username)</text><polygon fill="#454645" points="121,137.5625,111,141.5625,121,145.5625,117,141.5625" style="stroke:#454645;stroke-width:1.0;"/><polygon fill="#454645" points="337,137.5625,347,141.5625,337,145.5625,341,141.5625" style="stroke:#454645;stroke-width:1.0;"/><line style="stroke:#454645;stroke-width:1.0;" x1="115" x2="343" y1="141.5625" y2="141.5625"/><text fill="#000000" font-family="sans-serif" font-size="13" font-weight="bold" lengthAdjust="spacing" textLength="9" x="127" y="136.4966">2</text><text fill="#000000" font-family="sans-serif" font-size="13" lengthAdjust="spacing" textLength="202" x="140" y="136.4966">validate groupname, username</text><path d="M13.5,156.5625 L76,156.5625 L76,163.6953 L66,173.6953 L10,173.6953 L10,160.0625 A3.5,3.5 0 0 1 13.5,156.5625 " fill="#EEEEEE" style="stroke:#696969;stroke-width:1.5;"/><rect fill="none" height="787.3203" rx="3.5" ry="3.5" style="stroke:#696969;stroke-width:1.0;" width="1538" x="10" y="156.5625"/><text fill="#454645" font-family="sans-serif" font-size="13" font-weight="bold" lengthAdjust="spacing" textLength="21" x="25" y="169.6294">alt</text><text fill="#696969" font-family="sans-serif" font-size="11" font-weight="bold" lengthAdjust="spacing" textLength="329" x="91" y="168.7729">[groupname exists or username already in group]</text><polygon fill="#454645" points="58.5,190.8281,48.5,194.8281,58.5,198.8281,54.5,194.8281" style="stroke:#454645;stroke-width:1.0;"/><line style="stroke:#454645;stroke-width:1.0;" x1="52.5" x2="348" y1="194.8281" y2="194.8281"/><text fill="#000000" font-family="sans-serif" font-size="13" font-weight="bold" lengthAdjust="spacing" textLength="8" x="64.5" y="189.7622">3</text><text fill="#000000" font-family="sans-serif" font-size="13" lengthAdjust="spacing" textLength="185" x="76.5" y="189.7622">groupname/username exists</text><line style="stroke:#696969;stroke-width:1.0;stroke-dasharray:2.0,2.0;" x1="10" x2="1548" y1="203.8281" y2="203.8281"/><polygon fill="#454645" points="556,221.9609,566,225.9609,556,229.9609,560,225.9609" style="stroke:#454645;stroke-width:1.0;"/><line style="stroke:#454645;stroke-width:1.0;" x1="349" x2="562" y1="225.9609" y2="225.9609"/><text fill="#000000" font-family="sans-serif" font-size="13" font-weight="bold" lengthAdjust="spacing" textLength="9" x="356" y="220.895">4</text><text fill="#000000" font-family="sans-serif" font-size="13" lengthAdjust="spacing" textLength="182" x="369" y="220.895">Add(groupname, username)</text><polygon fill="#454645" points="779,251.0938,789,255.0938,779,259.0938,783,255.0938" style="stroke:#454645;stroke-width:1.0;"/><line style="stroke:#454645;stroke-width:1.0;" x1="568" x2="785" y1="255.0938" y2="255.0938"/><text fill="#000000" font-family="sans-serif" font-size="13" font-weight="bold" lengthAdjust="spacing" textLength="9" x="575" y="250.0278">5</text><text fill="#000000" font-family="sans-serif" font-size="13" lengthAdjust="spacing" textLength="186" x="588" y="250.0278">Add (groupname, username)</text><polygon fill="#454645" points="1002,280.2266,1012,284.2266,1002,288.2266,1006,284.2266" style="stroke:#454645;stroke-width:1.0;"/><line style="stroke:#454645;stroke-width:1.0;" x1="791" x2="1008" y1="284.2266" y2="284.2266"/><text fill="#000000" font-family="sans-serif" font-size="13" font-weight="bold" lengthAdjust="spacing" textLength="9" x="798" y="279.1606">6</text><text fill="#000000" font-family="sans-serif" font-size="13" lengthAdjust="spacing" textLength="186" x="811" y="279.1606">Add (groupname, username)</text><polygon fill="#454645" points="1225,309.3594,1235,313.3594,1225,317.3594,1229,313.3594" style="stroke:#454645;stroke-width:1.0;"/><line style="stroke:#454645;stroke-width:1.0;" x1="1014" x2="1231" y1="313.3594" y2="313.3594"/><text fill="#000000" font-family="sans-serif" font-size="13" font-weight="bold" lengthAdjust="spacing" textLength="9" x="1021" y="308.2935">7</text><text fill="#000000" font-family="sans-serif" font-size="13" lengthAdjust="spacing" textLength="186" x="1034" y="308.2935">Add (groupname, username)</text><line style="stroke:#454645;stroke-width:1.0;" x1="1237" x2="1279" y1="342.4922" y2="342.4922"/><line style="stroke:#454645;stroke-width:1.0;" x1="1279" x2="1279" y1="342.4922" y2="355.4922"/><line style="stroke:#454645;stroke-width:1.0;" x1="1238" x2="1279" y1="355.4922" y2="355.4922"/><polygon fill="#454645" points="1248,351.4922,1238,355.4922,1248,359.4922,1244,355.4922" style="stroke:#454645;stroke-width:1.0;"/><text fill="#000000" font-family="sans-serif" font-size="13" font-weight="bold" lengthAdjust="spacing" textLength="9" x="1244" y="337.4263">8</text><text fill="#000000" font-family="sans-serif" font-size="13" lengthAdjust="spacing" textLength="227" x="1257" y="337.4263">nameToID (groupname, username)</text><polygon fill="#454645" points="1248,380.625,1238,384.625,1248,388.625,1244,384.625" style="stroke:#454645;stroke-width:1.0;"/><polygon fill="#454645" points="1479,380.625,1489,384.625,1479,388.625,1483,384.625" style="stroke:#454645;stroke-width:1.0;"/><line style="stroke:#454645;stroke-width:1.0;" x1="1242" x2="1485" y1="384.625" y2="384.625"/><text fill="#000000" font-family="sans-serif" font-size="13" font-weight="bold" lengthAdjust="spacing" textLength="9" x="1254" y="379.5591">9</text><text fill="#000000" font-family="sans-serif" font-size="13" lengthAdjust="spacing" textLength="155" x="1267" y="379.5591">validate groupID, UserID</text><path d="M23.5,399.625 L86,399.625 L86,406.7578 L76,416.7578 L20,416.7578 L20,403.125 A3.5,3.5 0 0 1 23.5,399.625 " fill="#EEEEEE" style="stroke:#696969;stroke-width:1.5;"/><rect fill="none" height="537.2578" rx="3.5" ry="3.5" style="stroke:#696969;stroke-width:1.0;" width="1518" x="20" y="399.625"/><text fill="#454645" font-family="sans-serif" font-size="13" font-weight="bold" lengthAdjust="spacing" textLength="21" x="35" y="412.6919">alt</text><text fill="#696969" font-family="sans-serif" font-size="11" font-weight="bold" lengthAdjust="spacing" textLength="257" x="101" y="411.8354">[group exists or user already in group]</text><line style="stroke:#454645;stroke-width:1.0;" x1="1237" x2="1279" y1="437.8906" y2="437.8906"/><line style="stroke:#454645;stroke-width:1.0;" x1="1279" x2="1279" y1="437.8906" y2="450.8906"/><line style="stroke:#454645;stroke-width:1.0;" x1="1238" x2="1279" y1="450.8906" y2="450.8906"/><polygon fill="#454645" points="1248,446.8906,1238,450.8906,1248,454.8906,1244,450.8906" style="stroke:#454645;stroke-width:1.0;"/><text fill="#000000" font-family="sans-serif" font-size="13" font-weight="bold" lengthAdjust="spacing" textLength="19" x="1244" y="432.8247">10</text><text fill="#000000" font-family="sans-serif" font-size="13" lengthAdjust="spacing" textLength="31" x="1267" y="432.8247">error</text><polygon fill="#454645" points="579,476.0234,569,480.0234,579,484.0234,575,480.0234" style="stroke:#454645;stroke-width:1.0;"/><line style="stroke:#454645;stroke-width:1.0;" x1="573" x2="1236" y1="480.0234" y2="480.0234"/><text fill="#000000" font-family="sans-serif" font-size="13" font-weight="bold" lengthAdjust="spacing" textLength="18" x="585" y="474.9575">11</text><text fill="#000000" font-family="sans-serif" font-size="13" lengthAdjust="spacing" textLength="31" x="607" y="474.9575">error</text><polygon fill="#454645" points="779,505.1563,789,509.1563,779,513.1563,783,509.1563" style="stroke:#454645;stroke-width:1.0;"/><line style="stroke:#454645;stroke-width:1.0;" x1="568" x2="785" y1="509.1563" y2="509.1563"/><text fill="#000000" font-family="sans-serif" font-size="13" font-weight="bold" lengthAdjust="spacing" textLength="18" x="575" y="504.0903">12</text><text fill="#000000" font-family="sans-serif" font-size="13" lengthAdjust="spacing" textLength="31" x="597" y="504.0903">error</text><line style="stroke:#454645;stroke-width:1.0;" x1="791" x2="833" y1="538.2891" y2="538.2891"/><line style="stroke:#454645;stroke-width:1.0;" x1="833" x2="833" y1="538.2891" y2="551.2891"/><line style="stroke:#454645;stroke-width:1.0;" x1="792" x2="833" y1="551.2891" y2="551.2891"/><polygon fill="#454645" points="802,547.2891,792,551.2891,802,555.2891,798,551.2891" style="stroke:#454645;stroke-width:1.0;"/><text fill="#000000" font-family="sans-serif" font-size="13" font-weight="bold" lengthAdjust="spacing" textLength="17" x="798" y="533.2231">13</text><text fill="#000000" font-family="sans-serif" font-size="13" lengthAdjust="spacing" textLength="163" x="819" y="533.2231">Change msg access level</text><polygon fill="#454645" points="579,576.4219,569,580.4219,579,584.4219,575,580.4219" style="stroke:#454645;stroke-width:1.0;"/><line style="stroke:#454645;stroke-width:1.0;" x1="573" x2="790" y1="580.4219" y2="580.4219"/><text fill="#000000" font-family="sans-serif" font-size="13" font-weight="bold" lengthAdjust="spacing" textLength="18" x="585" y="575.356">14</text><text fill="#000000" font-family="sans-serif" font-size="13" lengthAdjust="spacing" textLength="31" x="607" y="575.356">error</text><polygon fill="#454645" points="360,605.5547,350,609.5547,360,613.5547,356,609.5547" style="stroke:#454645;stroke-width:1.0;"/><line style="stroke:#454645;stroke-width:1.0;" x1="354" x2="567" y1="609.5547" y2="609.5547"/><text fill="#000000" font-family="sans-serif" font-size="13" font-weight="bold" lengthAdjust="spacing" textLength="18" x="366" y="604.4888">15</text><text fill="#000000" font-family="sans-serif" font-size="13" lengthAdjust="spacing" textLength="31" x="388" y="604.4888">error</text><polygon fill="#454645" points="58.5,634.6875,48.5,638.6875,58.5,642.6875,54.5,638.6875" style="stroke:#454645;stroke-width:1.0;"/><line style="stroke:#454645;stroke-width:1.0;" x1="52.5" x2="348" y1="638.6875" y2="638.6875"/><text fill="#000000" font-family="sans-serif" font-size="13" font-weight="bold" lengthAdjust="spacing" textLength="18" x="64.5" y="633.6216">16</text><text fill="#000000" font-family="sans-serif" font-size="13" lengthAdjust="spacing" textLength="31" x="86.5" y="633.6216">error</text><line style="stroke:#696969;stroke-width:1.0;stroke-dasharray:2.0,2.0;" x1="20" x2="1538" y1="647.6875" y2="647.6875"/><polygon fill="#454645" points="1479,665.8203,1489,669.8203,1479,673.8203,1483,669.8203" style="stroke:#454645;stroke-width:1.0;"/><line style="stroke:#454645;stroke-width:1.0;" x1="1237" x2="1485" y1="669.8203" y2="669.8203"/><text fill="#000000" font-family="sans-serif" font-size="13" font-weight="bold" lengthAdjust="spacing" textLength="18" x="1244" y="664.7544">17</text><text fill="#000000" font-family="sans-serif" font-size="13" lengthAdjust="spacing" textLength="114" x="1266" y="664.7544">add user to group</text><line style="stroke:#454645;stroke-width:1.0;" x1="1237" x2="1279" y1="698.9531" y2="698.9531"/><line style="stroke:#454645;stroke-width:1.0;" x1="1279" x2="1279" y1="698.9531" y2="711.9531"/><line style="stroke:#454645;stroke-width:1.0;" x1="1238" x2="1279" y1="711.9531" y2="711.9531"/><polygon fill="#454645" points="1248,707.9531,1238,711.9531,1248,715.9531,1244,711.9531" style="stroke:#454645;stroke-width:1.0;"/><text fill="#000000" font-family="sans-serif" font-size="13" font-weight="bold" lengthAdjust="spacing" textLength="18" x="1244" y="693.8872">18</text><text fill="#000000" font-family="sans-serif" font-size="13" lengthAdjust="spacing" textLength="196" x="1266" y="693.8872">propagate to all users in group</text><polygon fill="#454645" points="579,737.0859,569,741.0859,579,745.0859,575,741.0859" style="stroke:#454645;stroke-width:1.0;"/><line style="stroke:#454645;stroke-width:1.0;" x1="573" x2="1236" y1="741.0859" y2="741.0859"/><text fill="#000000" font-family="sans-serif" font-size="13" font-weight="bold" lengthAdjust="spacing" textLength="18" x="585" y="736.02">19</text><text fill="#000000" font-family="sans-serif" font-size="13" lengthAdjust="spacing" textLength="51" x="607" y="736.02">success</text><polygon fill="#454645" points="779,766.2188,789,770.2188,779,774.2188,783,770.2188" style="stroke:#454645;stroke-width:1.0;"/><line style="stroke:#454645;stroke-width:1.0;" x1="568" x2="785" y1="770.2188" y2="770.2188"/><text fill="#000000" font-family="sans-serif" font-size="13" font-weight="bold" lengthAdjust="spacing" textLength="19" x="575" y="765.1528">20</text><text fill="#000000" font-family="sans-serif" font-size="13" lengthAdjust="spacing" textLength="51" x="598" y="765.1528">success</text><line style="stroke:#454645;stroke-width:1.0;" x1="791" x2="833" y1="799.3516" y2="799.3516"/><line style="stroke:#454645;stroke-width:1.0;" x1="833" x2="833" y1="799.3516" y2="812.3516"/><line style="stroke:#454645;stroke-width:1.0;" x1="792" x2="833" y1="812.3516" y2="812.3516"/><polygon fill="#454645" points="802,808.3516,792,812.3516,802,816.3516,798,812.3516" style="stroke:#454645;stroke-width:1.0;"/><text fill="#000000" font-family="sans-serif" font-size="13" font-weight="bold" lengthAdjust="spacing" textLength="18" x="798" y="794.2856">21</text><text fill="#000000" font-family="sans-serif" font-size="13" lengthAdjust="spacing" textLength="163" x="820" y="794.2856">Change msg access level</text><polygon fill="#454645" points="579,837.4844,569,841.4844,579,845.4844,575,841.4844" style="stroke:#454645;stroke-width:1.0;"/><line style="stroke:#454645;stroke-width:1.0;" x1="573" x2="790" y1="841.4844" y2="841.4844"/><text fill="#000000" font-family="sans-serif" font-size="13" font-weight="bold" lengthAdjust="spacing" textLength="18" x="585" y="836.4185">22</text><text fill="#000000" font-family="sans-serif" font-size="13" lengthAdjust="spacing" textLength="51" x="607" y="836.4185">success</text><polygon fill="#454645" points="360,866.6172,350,870.6172,360,874.6172,356,870.6172" style="stroke:#454645;stroke-width:1.0;"/><line style="stroke:#454645;stroke-width:1.0;" x1="354" x2="567" y1="870.6172" y2="870.6172"/><text fill="#000000" font-family="sans-serif" font-size="13" font-weight="bold" lengthAdjust="spacing" textLength="17" x="366" y="865.5513">23</text><text fill="#000000" font-family="sans-serif" font-size="13" lengthAdjust="spacing" textLength="51" x="387" y="865.5513">success</text><polygon fill="#454645" points="121,895.75,111,899.75,121,903.75,117,899.75" style="stroke:#454645;stroke-width:1.0;"/><line style="stroke:#454645;stroke-width:1.0;" x1="115" x2="348" y1="899.75" y2="899.75"/><text fill="#000000" font-family="sans-serif" font-size="13" font-weight="bold" lengthAdjust="spacing" textLength="18" x="127" y="894.6841">24</text><text fill="#000000" font-family="sans-serif" font-size="13" lengthAdjust="spacing" textLength="114" x="149" y="894.6841">add user to group</text><polygon fill="#454645" points="58.5,924.8828,48.5,928.8828,58.5,932.8828,54.5,928.8828" style="stroke:#454645;stroke-width:1.0;"/><line style="stroke:#454645;stroke-width:1.0;" x1="52.5" x2="348" y1="928.8828" y2="928.8828"/><text fill="#000000" font-family="sans-serif" font-size="13" font-weight="bold" lengthAdjust="spacing" textLength="18" x="64.5" y="923.8169">25</text><text fill="#000000" font-family="sans-serif" font-size="13" lengthAdjust="spacing" textLength="51" x="86.5" y="923.8169">success</text><!--SRC=[hPHDReCm48NtFiLqrLPAmnv5bPgmoR9gUu01fiIIiQb_Q7lxsf2Oa42IHID50VjzCyDxE7TsHpL1otEDqiAdLZNih6rCcYGQlvSLjpkNEqEwKDAIjCj2rKaZlDZLOhYeqLZIILVDCCQmi4h3MkM01ZuypagqcACXs0ZkwsHhrg2slE1DQDmliYz7Zk2DZE5AleQRaUgm4tMw9NqkwzU7ZlszxyZGMILTdVjTTez24vQ_W4A0Tb9oMR4mAZmzx-U15B0imIgej78DF7G_4cjQGF0aN3solNOLiMpjmHO5znCGJ30CXHtMWNwuiGQyOGS176RZijSny9zz8z-d6pCTIYGHx6in4ePEc6DNFVjIbjEF4wYHTc1x3AvoFHB3kG4Rj16zaHe1OVDTRRFhr2fY4sbjiqLdyJRha9ZMILBJASsCHbehFIaOnN8gcyjXKdSaIM6pGraHrAO2B0g_2e9Q4XUOssQ8HsCiEtivX-tuCavPqzaVJbddwE6epSfJQBHgi0fPUN4ukm4qbpCOFPvndHqtc3oZ_2URhyqHZJuL3bOV_T_CMtYMp74zaYNptpy0]--></g></svg>