<?xml version="1.0" encoding="UTF-8" standalone="no"?><svg xmlns="http://www.w3.org/2000/svg" xmlns:xlink="http://www.w3.org/1999/xlink" contentStyleType="text/css" height="449px" preserveAspectRatio="none" style="width:557px;height:449px;background:#FFFFFF;" version="1.1" viewBox="0 0 557 449" width="557px" zoomAndPan="magnify"><defs/><g><rect fill="#F1F1F1" height="60.8906" rx="5" ry="5" style="stroke:#F1F1F1;stroke-width:1.5;" width="111" x="10" y="299"/><text fill="#000000" font-family="sans-serif" font-size="14" font-weight="bold" lengthAdjust="spacing" textLength="79" x="15" y="313.9951">Messages</text><text fill="#000000" font-family="sans-serif" font-size="14" lengthAdjust="spacing" textLength="12" x="104" y="313.9951">   </text><line style="stroke:#000000;stroke-width:1.0;" x1="99" x2="99" y1="299" y2="319.2969"/><line style="stroke:#000000;stroke-width:1.0;" x1="10" x2="121" y1="319.2969" y2="319.2969"/><text fill="#000000" font-family="sans-serif" font-size="14" font-weight="bold" lengthAdjust="spacing" textLength="59" x="15" y="334.292">Friends</text><text fill="#000000" font-family="sans-serif" font-size="14" lengthAdjust="spacing" textLength="12" x="104" y="334.292">   </text><line style="stroke:#000000;stroke-width:1.0;" x1="99" x2="99" y1="319.2969" y2="339.5938"/><line style="stroke:#000000;stroke-width:1.0;" x1="10" x2="121" y1="339.5938" y2="339.5938"/><text fill="#000000" font-family="sans-serif" font-size="14" font-weight="bold" lengthAdjust="spacing" textLength="58" x="15" y="354.5889">Groups</text><text fill="#000000" font-family="sans-serif" font-size="14" lengthAdjust="spacing" textLength="12" x="104" y="354.5889">   </text><line style="stroke:#000000;stroke-width:1.0;" x1="99" x2="99" y1="339.5938" y2="359.8906"/><rect fill="none" height="60.8906" rx="5" ry="5" style="stroke:#000000;stroke-width:1.5;" width="111" x="10" y="299"/><rect fill="#F1F1F1" height="121.7813" rx="5" ry="5" style="stroke:#F1F1F1;stroke-width:1.5;" width="22" x="238.5" y="157.5"/><text fill="#000000" font-family="sans-serif" font-size="14" lengthAdjust="spacing" textLength="12" x="243.5" y="172.4951">   </text><line style="stroke:#000000;stroke-width:1.0;" x1="238.5" x2="260.5" y1="177.7969" y2="177.7969"/><text fill="#000000" font-family="sans-serif" font-size="14" lengthAdjust="spacing" textLength="12" x="243.5" y="192.792">   </text><line style="stroke:#000000;stroke-width:1.0;" x1="238.5" x2="260.5" y1="198.0938" y2="198.0938"/><text fill="#000000" font-family="sans-serif" font-size="14" lengthAdjust="spacing" textLength="12" x="243.5" y="213.0889">   </text><line style="stroke:#000000;stroke-width:1.0;" x1="238.5" x2="260.5" y1="218.3906" y2="218.3906"/><text fill="#000000" font-family="sans-serif" font-size="14" lengthAdjust="spacing" textLength="12" x="243.5" y="233.3857">   </text><line style="stroke:#000000;stroke-width:1.0;" x1="238.5" x2="260.5" y1="238.6875" y2="238.6875"/><text fill="#000000" font-family="sans-serif" font-size="14" lengthAdjust="spacing" textLength="12" x="243.5" y="253.6826">   </text><line style="stroke:#000000;stroke-width:1.0;" x1="238.5" x2="260.5" y1="258.9844" y2="258.9844"/><text fill="#000000" font-family="sans-serif" font-size="14" lengthAdjust="spacing" textLength="12" x="243.5" y="273.9795">   </text><rect fill="none" height="121.7813" rx="5" ry="5" style="stroke:#000000;stroke-width:1.5;" width="22" x="238.5" y="157.5"/><rect fill="#F1F1F1" height="60.8906" rx="5" ry="5" style="stroke:#F1F1F1;stroke-width:1.5;" width="111" x="407" y="10"/><text fill="#000000" font-family="sans-serif" font-size="14" font-weight="bold" lengthAdjust="spacing" textLength="44" x="412" y="24.9951">name</text><text fill="#000000" font-family="sans-serif" font-size="14" lengthAdjust="spacing" textLength="13" x="466" y="24.9951">id</text><line style="stroke:#000000;stroke-width:1.0;" x1="461" x2="461" y1="10" y2="30.2969"/><line style="stroke:#000000;stroke-width:1.0;" x1="407" x2="518" y1="30.2969" y2="30.2969"/><text fill="#000000" font-family="sans-serif" font-size="14" font-weight="bold" lengthAdjust="spacing" textLength="36" x="412" y="45.292">type</text><text fill="#000000" font-family="sans-serif" font-size="14" lengthAdjust="spacing" textLength="20" x="466" y="45.292">int</text><line style="stroke:#000000;stroke-width:1.0;" x1="461" x2="461" y1="30.2969" y2="50.5938"/><line style="stroke:#000000;stroke-width:1.0;" x1="407" x2="518" y1="50.5938" y2="50.5938"/><text fill="#000000" font-family="sans-serif" font-size="14" font-weight="bold" lengthAdjust="spacing" textLength="19" x="412" y="65.5889">pk</text><text fill="#000000" font-family="sans-serif" font-size="14" lengthAdjust="spacing" textLength="47" x="466" y="65.5889">☑ true</text><line style="stroke:#000000;stroke-width:1.0;" x1="461" x2="461" y1="50.5938" y2="70.8906"/><rect fill="none" height="60.8906" rx="5" ry="5" style="stroke:#000000;stroke-width:1.5;" width="111" x="407" y="10"/><rect fill="#F1F1F1" height="40.5938" rx="5" ry="5" style="stroke:#F1F1F1;stroke-width:1.5;" width="98" x="413.5" y="89"/><text fill="#000000" font-family="sans-serif" font-size="14" font-weight="bold" lengthAdjust="spacing" textLength="44" x="418.5" y="103.9951">name</text><text fill="#000000" font-family="sans-serif" font-size="14" lengthAdjust="spacing" textLength="34" x="472.5" y="103.9951">type</text><line style="stroke:#000000;stroke-width:1.0;" x1="467.5" x2="467.5" y1="89" y2="109.2969"/><line style="stroke:#000000;stroke-width:1.0;" x1="413.5" x2="511.5" y1="109.2969" y2="109.2969"/><text fill="#000000" font-family="sans-serif" font-size="14" font-weight="bold" lengthAdjust="spacing" textLength="36" x="418.5" y="124.292">type</text><text fill="#000000" font-family="sans-serif" font-size="14" lengthAdjust="spacing" textLength="20" x="472.5" y="124.292">int</text><line style="stroke:#000000;stroke-width:1.0;" x1="467.5" x2="467.5" y1="109.2969" y2="129.5938"/><rect fill="none" height="40.5938" rx="5" ry="5" style="stroke:#000000;stroke-width:1.5;" width="98" x="413.5" y="89"/><rect fill="#F1F1F1" height="60.8906" rx="5" ry="5" style="stroke:#F1F1F1;stroke-width:1.5;" width="165" x="380" y="148"/><text fill="#000000" font-family="sans-serif" font-size="14" font-weight="bold" lengthAdjust="spacing" textLength="44" x="385" y="162.9951">name</text><text fill="#000000" font-family="sans-serif" font-size="14" lengthAdjust="spacing" textLength="49" x="439" y="162.9951">sender</text><line style="stroke:#000000;stroke-width:1.0;" x1="434" x2="434" y1="148" y2="168.2969"/><line style="stroke:#000000;stroke-width:1.0;" x1="380" x2="545" y1="168.2969" y2="168.2969"/><text fill="#000000" font-family="sans-serif" font-size="14" font-weight="bold" lengthAdjust="spacing" textLength="36" x="385" y="183.292">type</text><text fill="#000000" font-family="sans-serif" font-size="14" lengthAdjust="spacing" textLength="20" x="439" y="183.292">int</text><line style="stroke:#000000;stroke-width:1.0;" x1="434" x2="434" y1="168.2969" y2="188.5938"/><line style="stroke:#000000;stroke-width:1.0;" x1="380" x2="545" y1="188.5938" y2="188.5938"/><text fill="#000000" font-family="sans-serif" font-size="14" font-weight="bold" lengthAdjust="spacing" textLength="16" x="385" y="203.5889">fk</text><text fill="#000000" font-family="sans-serif" font-size="14" lengthAdjust="spacing" textLength="101" x="439" y="203.5889">Server.User.id</text><line style="stroke:#000000;stroke-width:1.0;" x1="434" x2="434" y1="188.5938" y2="208.8906"/><rect fill="none" height="60.8906" rx="5" ry="5" style="stroke:#000000;stroke-width:1.5;" width="165" x="380" y="148"/><rect fill="#F1F1F1" height="60.8906" rx="5" ry="5" style="stroke:#F1F1F1;stroke-width:1.5;" width="165" x="380" y="227"/><text fill="#000000" font-family="sans-serif" font-size="14" font-weight="bold" lengthAdjust="spacing" textLength="44" x="385" y="241.9951">name</text><text fill="#000000" font-family="sans-serif" font-size="14" lengthAdjust="spacing" textLength="59" x="439" y="241.9951">receiver</text><line style="stroke:#000000;stroke-width:1.0;" x1="434" x2="434" y1="227" y2="247.2969"/><line style="stroke:#000000;stroke-width:1.0;" x1="380" x2="545" y1="247.2969" y2="247.2969"/><text fill="#000000" font-family="sans-serif" font-size="14" font-weight="bold" lengthAdjust="spacing" textLength="36" x="385" y="262.292">type</text><text fill="#000000" font-family="sans-serif" font-size="14" lengthAdjust="spacing" textLength="20" x="439" y="262.292">int</text><line style="stroke:#000000;stroke-width:1.0;" x1="434" x2="434" y1="247.2969" y2="267.5938"/><line style="stroke:#000000;stroke-width:1.0;" x1="380" x2="545" y1="267.5938" y2="267.5938"/><text fill="#000000" font-family="sans-serif" font-size="14" font-weight="bold" lengthAdjust="spacing" textLength="16" x="385" y="282.5889">fk</text><text fill="#000000" font-family="sans-serif" font-size="14" lengthAdjust="spacing" textLength="101" x="439" y="282.5889">Server.User.id</text><line style="stroke:#000000;stroke-width:1.0;" x1="434" x2="434" y1="267.5938" y2="287.8906"/><rect fill="none" height="60.8906" rx="5" ry="5" style="stroke:#000000;stroke-width:1.5;" width="165" x="380" y="227"/><rect fill="#F1F1F1" height="40.5938" rx="5" ry="5" style="stroke:#F1F1F1;stroke-width:1.5;" width="141" x="392" y="306"/><text fill="#000000" font-family="sans-serif" font-size="14" font-weight="bold" lengthAdjust="spacing" textLength="44" x="397" y="320.9951">name</text><text fill="#000000" font-family="sans-serif" font-size="14" lengthAdjust="spacing" textLength="63" x="451" y="320.9951">message</text><line style="stroke:#000000;stroke-width:1.0;" x1="446" x2="446" y1="306" y2="326.2969"/><line style="stroke:#000000;stroke-width:1.0;" x1="392" x2="533" y1="326.2969" y2="326.2969"/><text fill="#000000" font-family="sans-serif" font-size="14" font-weight="bold" lengthAdjust="spacing" textLength="36" x="397" y="341.292">type</text><text fill="#000000" font-family="sans-serif" font-size="14" lengthAdjust="spacing" textLength="77" x="451" y="341.292">char[1000]</text><line style="stroke:#000000;stroke-width:1.0;" x1="446" x2="446" y1="326.2969" y2="346.5938"/><rect fill="none" height="40.5938" rx="5" ry="5" style="stroke:#000000;stroke-width:1.5;" width="141" x="392" y="306"/><rect fill="#F1F1F1" height="40.5938" rx="5" ry="5" style="stroke:#F1F1F1;stroke-width:1.5;" width="122" x="401.5" y="365"/><text fill="#000000" font-family="sans-serif" font-size="14" font-weight="bold" lengthAdjust="spacing" textLength="44" x="406.5" y="379.9951">name</text><text fill="#000000" font-family="sans-serif" font-size="14" lengthAdjust="spacing" textLength="34" x="460.5" y="379.9951">time</text><line style="stroke:#000000;stroke-width:1.0;" x1="455.5" x2="455.5" y1="365" y2="385.2969"/><line style="stroke:#000000;stroke-width:1.0;" x1="401.5" x2="523.5" y1="385.2969" y2="385.2969"/><text fill="#000000" font-family="sans-serif" font-size="14" font-weight="bold" lengthAdjust="spacing" textLength="36" x="406.5" y="400.292">type</text><text fill="#000000" font-family="sans-serif" font-size="14" lengthAdjust="spacing" textLength="58" x="460.5" y="400.292">char[20]</text><line style="stroke:#000000;stroke-width:1.0;" x1="455.5" x2="455.5" y1="385.2969" y2="405.5938"/><rect fill="none" height="40.5938" rx="5" ry="5" style="stroke:#000000;stroke-width:1.5;" width="122" x="401.5" y="365"/><rect fill="#F1F1F1" height="60.8906" rx="5" ry="5" style="stroke:#F1F1F1;stroke-width:1.5;" width="172" x="164.5" y="298"/><text fill="#000000" font-family="sans-serif" font-size="14" font-weight="bold" lengthAdjust="spacing" textLength="44" x="169.5" y="312.9951">name</text><text fill="#000000" font-family="sans-serif" font-size="14" lengthAdjust="spacing" textLength="13" x="223.5" y="312.9951">id</text><line style="stroke:#000000;stroke-width:1.0;" x1="218.5" x2="218.5" y1="298" y2="318.2969"/><line style="stroke:#000000;stroke-width:1.0;" x1="164.5" x2="336.5" y1="318.2969" y2="318.2969"/><text fill="#000000" font-family="sans-serif" font-size="14" font-weight="bold" lengthAdjust="spacing" textLength="36" x="169.5" y="333.292">type</text><text fill="#000000" font-family="sans-serif" font-size="14" lengthAdjust="spacing" textLength="30" x="223.5" y="333.292">int[]</text><line style="stroke:#000000;stroke-width:1.0;" x1="218.5" x2="218.5" y1="318.2969" y2="338.5938"/><line style="stroke:#000000;stroke-width:1.0;" x1="164.5" x2="336.5" y1="338.5938" y2="338.5938"/><text fill="#000000" font-family="sans-serif" font-size="14" font-weight="bold" lengthAdjust="spacing" textLength="16" x="169.5" y="353.5889">fk</text><text fill="#000000" font-family="sans-serif" font-size="14" lengthAdjust="spacing" textLength="108" x="223.5" y="353.5889">Server.Users.id</text><line style="stroke:#000000;stroke-width:1.0;" x1="218.5" x2="218.5" y1="338.5938" y2="358.8906"/><rect fill="none" height="60.8906" rx="5" ry="5" style="stroke:#000000;stroke-width:1.5;" width="172" x="164.5" y="298"/><rect fill="#F1F1F1" height="60.8906" rx="5" ry="5" style="stroke:#F1F1F1;stroke-width:1.5;" width="185" x="158" y="377"/><text fill="#000000" font-family="sans-serif" font-size="14" font-weight="bold" lengthAdjust="spacing" textLength="44" x="163" y="391.9951">name</text><text fill="#000000" font-family="sans-serif" font-size="14" lengthAdjust="spacing" textLength="13" x="217" y="391.9951">id</text><line style="stroke:#000000;stroke-width:1.0;" x1="212" x2="212" y1="377" y2="397.2969"/><line style="stroke:#000000;stroke-width:1.0;" x1="158" x2="343" y1="397.2969" y2="397.2969"/><text fill="#000000" font-family="sans-serif" font-size="14" font-weight="bold" lengthAdjust="spacing" textLength="36" x="163" y="412.292">type</text><text fill="#000000" font-family="sans-serif" font-size="14" lengthAdjust="spacing" textLength="30" x="217" y="412.292">int[]</text><line style="stroke:#000000;stroke-width:1.0;" x1="212" x2="212" y1="397.2969" y2="417.5938"/><line style="stroke:#000000;stroke-width:1.0;" x1="158" x2="343" y1="417.5938" y2="417.5938"/><text fill="#000000" font-family="sans-serif" font-size="14" font-weight="bold" lengthAdjust="spacing" textLength="16" x="163" y="432.5889">fk</text><text fill="#000000" font-family="sans-serif" font-size="14" lengthAdjust="spacing" textLength="121" x="217" y="432.5889">Server.Groups.id</text><line style="stroke:#000000;stroke-width:1.0;" x1="212" x2="212" y1="417.5938" y2="437.8906"/><rect fill="none" height="60.8906" rx="5" ry="5" style="stroke:#000000;stroke-width:1.5;" width="185" x="158" y="377"/><path d="M251,167.5 L264,167.5 C328.7121,167.5 324.7123,113.1293 380,79.5 C386.4648,75.5677 393.3882,71.7389 400.3708,68.1131 " fill="none" style="stroke:#000000;stroke-width:1.0;stroke-dasharray:3.0,3.0;"/><path d="M401.7926,70.9081 L402.4671,67.0467 L398.949,65.3181 L407.3584,64.5586 L401.7926,70.9081 " fill="#000000" style="stroke:#000000;stroke-width:1.0;"/><ellipse cx="251" cy="167.5" fill="#000000" rx="3" ry="3" style="stroke:#000000;stroke-width:1.0;"/><path d="M251,187.5 L264,187.5 C319.9665,187.5 327.817,158.7281 380,138.5 C388.5543,135.184 397.6671,131.8085 406.5913,128.5886 " fill="none" style="stroke:#000000;stroke-width:1.0;stroke-dasharray:3.0,3.0;"/><path d="M407.6093,131.4295 L408.722,127.8251 L405.5733,125.7476 L413.6937,126.0436 L407.6093,131.4295 " fill="#000000" style="stroke:#000000;stroke-width:1.0;"/><ellipse cx="251" cy="187.5" fill="#000000" rx="3" ry="3" style="stroke:#000000;stroke-width:1.0;"/><path d="M251,207.5 L264,207.5 C299.6904,207.5 338.6211,202.83 372.4442,197.2381 " fill="none" style="stroke:#000000;stroke-width:1.0;stroke-dasharray:3.0,3.0;"/><path d="M372.9573,200.2712 L374.719,196.8532 L371.931,194.2049 L380.027,195.9551 L372.9573,200.2712 " fill="#000000" style="stroke:#000000;stroke-width:1.0;"/><ellipse cx="251" cy="207.5" fill="#000000" rx="3" ry="3" style="stroke:#000000;stroke-width:1.0;"/><path d="M251,228.5 L264,228.5 C299.6904,228.5 338.6211,233.17 372.4442,238.7619 " fill="none" style="stroke:#000000;stroke-width:1.0;stroke-dasharray:3.0,3.0;"/><path d="M371.931,241.7951 L374.719,239.1468 L372.9573,235.7288 L380.027,240.0449 L371.931,241.7951 " fill="#000000" style="stroke:#000000;stroke-width:1.0;"/><ellipse cx="251" cy="228.5" fill="#000000" rx="3" ry="3" style="stroke:#000000;stroke-width:1.0;"/><path d="M251,248.5 L264,248.5 C319.9665,248.5 327.817,277.2719 380,297.5 C384.9366,299.4136 390.0591,301.347 395.2241,303.259 " fill="none" style="stroke:#000000;stroke-width:1.0;stroke-dasharray:3.0,3.0;"/><path d="M394.1881,306.0813 L397.3409,304.0359 L396.2601,300.4366 L402.2801,305.8489 L394.1881,306.0813 " fill="#000000" style="stroke:#000000;stroke-width:1.0;"/><ellipse cx="251" cy="248.5" fill="#000000" rx="3" ry="3" style="stroke:#000000;stroke-width:1.0;"/><path d="M251,269.5 L264,269.5 C300.6498,269.5 315.0776,266.99 344,289.5 C370.6767,310.2622 354.3387,334.4952 380,356.5 C384.5135,360.3704 389.5784,363.7362 394.9184,366.6611 " fill="none" style="stroke:#000000;stroke-width:1.0;stroke-dasharray:3.0,3.0;"/><path d="M393.5289,369.4172 L396.9855,367.7033 L396.308,363.905 L401.8087,370.135 L393.5289,369.4172 " fill="#000000" style="stroke:#000000;stroke-width:1.0;"/><ellipse cx="251" cy="269.5" fill="#000000" rx="3" ry="3" style="stroke:#000000;stroke-width:1.0;"/><path d="M109,308.5 L122,308.5 C135.0612,308.5 200.7384,257.7059 232.6044,232.436 " fill="none" style="stroke:#000000;stroke-width:1.0;stroke-dasharray:3.0,3.0;"/><path d="M234.5954,234.9383 L234.4811,230.9428 L230.6134,229.9338 L238.86,227.4586 L234.5954,234.9383 " fill="#000000" style="stroke:#000000;stroke-width:1.0;"/><ellipse cx="109" cy="308.5" fill="#000000" rx="3" ry="3" style="stroke:#000000;stroke-width:1.0;"/><path d="M109,328.5 L122,328.5 C133.3932,328.5 145.3569,328.5 157.2055,328.5 " fill="none" style="stroke:#000000;stroke-width:1.0;stroke-dasharray:3.0,3.0;"/><path d="M157.2055,331.605 L159.5343,328.5 L157.2055,325.395 L164.968,328.5 L157.2055,331.605 " fill="#000000" style="stroke:#000000;stroke-width:1.0;"/><ellipse cx="109" cy="328.5" fill="#000000" rx="3" ry="3" style="stroke:#000000;stroke-width:1.0;"/><path d="M109,349.5 L122,349.5 C140.0917,349.5 141.6569,360.7403 158,368.5 C161.7219,370.2672 165.5451,372.0421 169.4187,373.8082 " fill="none" style="stroke:#000000;stroke-width:1.0;stroke-dasharray:3.0,3.0;"/><path d="M168.1524,376.6146 L171.5235,374.7579 L170.685,371.0018 L176.4347,376.974 L168.1524,376.6146 " fill="#000000" style="stroke:#000000;stroke-width:1.0;"/><ellipse cx="109" cy="349.5" fill="#000000" rx="3" ry="3" style="stroke:#000000;stroke-width:1.0;"/><!--SRC=[xLRVJo8n47xlNz7R9qqK41Uyuyb3H7E1n8ZuOdmekmFqs6ttfbs8CVxlD_j3sHEMhEVvSh44KgPVls-cCxFRKsC5sfz6A-u54fJjTTaNEuSG-59EK2ZBfwX3FhSsCfrw7SMgDfDs7azY0-XfPMbFpTDXFGe878V1UX8AOm7hAPjXx95n6iuGZ14pC4xdBZKau_5bvYWHWjFXZlITWxNLFaIPLTcYELgGqM8CBwQdWrsaAKq9RKKA0ye7hE3RDF7D6G4k0MjZEgmQXLHH1C43kVnmcJ1BnJOLRoxmxgZHQDnN9RCoB6Tg_i6JpkuphDD7AZkVoY4dtQo0OkXtzy_6ZS3DI-Iveyu5wZXw9tF6iQPcJ-oK_4qwXh7JBTrZ5b950aN8ky9Rp6Yxyizqe97tqr40cBdmzKgg6P-Am41XvJhRXGgGdnJitn7rAcDpMsxRRHNM-jIC9KiZ-1M3yc0Wf_HLqDL8HPo1sz-IpnPm6lab249Me4xHQznkrkhw6V9cBhs5echbHwnuVZco9vUIK7cQY-IvksjpaIcnRaJsL1IWNoiz6IMFmPny8wVjO_Tab-vQ8S__LcTghvHzOSL462YHRJHUKUsGtHOObQgq3wKndRTQpRydLzgM-Nr2NlVSDr5NEYxXMOqbcXiyRmndab09_AZJIjwXg8CFOmy2yApKofGgjFhkEnIe1MFuDzsnAzUVjuVFsyD_TdkuIYxAu-604z9GXrAfDnlDuzhH1AnmzyPgeVIARXOwZ6G0F3cYVRPtSJNWHiVe0VUbiIWdSTBU- -o7M0f-7Qi4r-79lxsRuJuVdJyR-RbQIjGgfAS_-t4xp43yKjjHf6qARhk7NMbvvZs_7R8UJ4KSMDhgQPzkAXq-lkaVVcK3eMOnPRz3hn9sHXrlyO7MHhy1]--></g></svg>