<?xml version="1.0" encoding="UTF-8" standalone="no"?><svg xmlns="http://www.w3.org/2000/svg" xmlns:xlink="http://www.w3.org/1999/xlink" contentStyleType="text/css" height="1128px" preserveAspectRatio="none" style="width:1287px;height:1128px;background:#FFFFFF;" version="1.1" viewBox="0 0 1287 1128" width="1287px" zoomAndPan="magnify"><defs/><g><rect fill="none" height="874.3281" rx="3.5" ry="3.5" style="stroke:#696969;stroke-width:1.0;" width="1270" x="10" y="156.5625"/><rect fill="none" height="624.4609" rx="3.5" ry="3.5" style="stroke:#696969;stroke-width:1.0;" width="1250" x="20" y="399.4297"/><line style="stroke:#696969;stroke-width:0.5;stroke-dasharray:5.0,5.0;" x1="47" x2="47" y1="81.2969" y2="1047.8906"/><line style="stroke:#696969;stroke-width:0.5;stroke-dasharray:5.0,5.0;" x1="110" x2="110" y1="81.2969" y2="1047.8906"/><line style="stroke:#696969;stroke-width:0.5;stroke-dasharray:5.0,5.0;" x1="255.5" x2="255.5" y1="81.2969" y2="1047.8906"/><line style="stroke:#696969;stroke-width:0.5;stroke-dasharray:5.0,5.0;" x1="454.5" x2="454.5" y1="81.2969" y2="1047.8906"/><line style="stroke:#696969;stroke-width:0.5;stroke-dasharray:5.0,5.0;" x1="654" x2="654" y1="81.2969" y2="1047.8906"/><line style="stroke:#696969;stroke-width:0.5;stroke-dasharray:5.0,5.0;" x1="853" x2="853" y1="81.2969" y2="1047.8906"/><line style="stroke:#696969;stroke-width:0.5;stroke-dasharray:5.0,5.0;" x1="1051.5" x2="1051.5" y1="81.2969" y2="1047.8906"/><line style="stroke:#696969;stroke-width:0.5;stroke-dasharray:5.0,5.0;" x1="1223" x2="1223" y1="81.2969" y2="1047.8906"/><text fill="#454645" font-family="sans-serif" font-size="14" lengthAdjust="spacing" textLength="29" x="30" y="77.9951">Bob</text><ellipse cx="47.5" cy="13.5" fill="#454645" rx="8" ry="8" style="stroke:#454645;stroke-width:0.5;"/><path d="M47.5,21.5 L47.5,48.5 M34.5,29.5 L60.5,29.5 M47.5,48.5 L34.5,63.5 M47.5,48.5 L60.5,63.5 " fill="none" style="stroke:#454645;stroke-width:0.5;"/><text fill="#454645" font-family="sans-serif" font-size="14" lengthAdjust="spacing" textLength="29" x="30" y="1059.8857">Bob</text><ellipse cx="47.5" cy="1071.6875" fill="#454645" rx="8" ry="8" style="stroke:#454645;stroke-width:0.5;"/><path d="M47.5,1079.6875 L47.5,1106.6875 M34.5,1087.6875 L60.5,1087.6875 M47.5,1106.6875 L34.5,1121.6875 M47.5,1106.6875 L60.5,1121.6875 " fill="none" style="stroke:#454645;stroke-width:0.5;"/><text fill="#454645" font-family="sans-serif" font-size="14" lengthAdjust="spacing" textLength="64" x="75" y="77.9951">ClientDB</text><path d="M92,29 C92,19 110,19 110,19 C110,19 128,19 128,29 L128,55 C128,65 110,65 110,65 C110,65 92,65 92,55 L92,29 " fill="#00FFFF" style="stroke:#454645;stroke-width:1.5;"/><path d="M92,29 C92,39 110,39 110,39 C110,39 128,39 128,29 " fill="none" style="stroke:#454645;stroke-width:1.5;"/><text fill="#454645" font-family="sans-serif" font-size="14" lengthAdjust="spacing" textLength="64" x="75" y="1059.8857">ClientDB</text><path d="M92,1073.1875 C92,1063.1875 110,1063.1875 110,1063.1875 C110,1063.1875 128,1063.1875 128,1073.1875 L128,1099.1875 C128,1109.1875 110,1109.1875 110,1109.1875 C110,1109.1875 92,1109.1875 92,1099.1875 L92,1073.1875 " fill="#00FFFF" style="stroke:#454645;stroke-width:1.5;"/><path d="M92,1073.1875 C92,1083.1875 110,1083.1875 110,1083.1875 C110,1083.1875 128,1083.1875 128,1073.1875 " fill="none" style="stroke:#454645;stroke-width:1.5;"/><rect fill="#FF6347" height="30.2969" rx="3.5" ry="3.5" style="stroke:#454645;stroke-width:1.5;" width="57" x="227.5" y="50"/><text fill="#FFFFFF" font-family="sans-serif" font-size="14" lengthAdjust="spacing" textLength="43" x="234.5" y="69.9951">Client</text><rect fill="#FF6347" height="30.2969" rx="3.5" ry="3.5" style="stroke:#454645;stroke-width:1.5;" width="57" x="227.5" y="1046.8906"/><text fill="#FFFFFF" font-family="sans-serif" font-size="14" lengthAdjust="spacing" textLength="43" x="234.5" y="1066.8857">Client</text><path d="M400.5,55 L509.5,55 C514.5,55 514.5,68.1484 514.5,68.1484 C514.5,68.1484 514.5,81.2969 509.5,81.2969 L400.5,81.2969 C395.5,81.2969 395.5,68.1484 395.5,68.1484 C395.5,68.1484 395.5,55 400.5,55 " fill="#FF6347" style="stroke:#454645;stroke-width:1.5;"/><path d="M509.5,55 C504.5,55 504.5,68.1484 504.5,68.1484 C504.5,81.2969 509.5,81.2969 509.5,81.2969 " fill="none" style="stroke:#454645;stroke-width:1.5;"/><text fill="#FFFFFF" font-family="sans-serif" font-size="14" lengthAdjust="spacing" textLength="99" x="400.5" y="72.9951">SessionQueue</text><path d="M400.5,1046.8906 L509.5,1046.8906 C514.5,1046.8906 514.5,1060.0391 514.5,1060.0391 C514.5,1060.0391 514.5,1073.1875 509.5,1073.1875 L400.5,1073.1875 C395.5,1073.1875 395.5,1060.0391 395.5,1060.0391 C395.5,1060.0391 395.5,1046.8906 400.5,1046.8906 " fill="#FF6347" style="stroke:#454645;stroke-width:1.5;"/><path d="M509.5,1046.8906 C504.5,1046.8906 504.5,1060.0391 504.5,1060.0391 C504.5,1073.1875 509.5,1073.1875 509.5,1073.1875 " fill="none" style="stroke:#454645;stroke-width:1.5;"/><text fill="#FFFFFF" font-family="sans-serif" font-size="14" lengthAdjust="spacing" textLength="99" x="400.5" y="1064.8857">SessionQueue</text><rect fill="#FF6347" height="30.2969" rx="3.5" ry="3.5" style="stroke:#454645;stroke-width:1.5;" width="68" x="620" y="50"/><text fill="#FFFFFF" font-family="sans-serif" font-size="14" lengthAdjust="spacing" textLength="54" x="627" y="69.9951">Session</text><rect fill="#FF6347" height="30.2969" rx="3.5" ry="3.5" style="stroke:#454645;stroke-width:1.5;" width="68" x="620" y="1046.8906"/><text fill="#FFFFFF" font-family="sans-serif" font-size="14" lengthAdjust="spacing" textLength="54" x="627" y="1066.8857">Session</text><path d="M802,55 L904,55 C909,55 909,68.1484 909,68.1484 C909,68.1484 909,81.2969 904,81.2969 L802,81.2969 C797,81.2969 797,68.1484 797,68.1484 C797,68.1484 797,55 802,55 " fill="#FF6347" style="stroke:#454645;stroke-width:1.5;"/><path d="M904,55 C899,55 899,68.1484 899,68.1484 C899,81.2969 904,81.2969 904,81.2969 " fill="none" style="stroke:#454645;stroke-width:1.5;"/><text fill="#FFFFFF" font-family="sans-serif" font-size="14" lengthAdjust="spacing" textLength="92" x="802" y="72.9951">ServerQueue</text><path d="M802,1046.8906 L904,1046.8906 C909,1046.8906 909,1060.0391 909,1060.0391 C909,1060.0391 909,1073.1875 904,1073.1875 L802,1073.1875 C797,1073.1875 797,1060.0391 797,1060.0391 C797,1060.0391 797,1046.8906 802,1046.8906 " fill="#FF6347" style="stroke:#454645;stroke-width:1.5;"/><path d="M904,1046.8906 C899,1046.8906 899,1060.0391 899,1060.0391 C899,1073.1875 904,1073.1875 904,1073.1875 " fill="none" style="stroke:#454645;stroke-width:1.5;"/><text fill="#FFFFFF" font-family="sans-serif" font-size="14" lengthAdjust="spacing" textLength="92" x="802" y="1064.8857">ServerQueue</text><rect fill="#FF6347" height="30.2969" rx="3.5" ry="3.5" style="stroke:#454645;stroke-width:1.5;" width="61" x="1021.5" y="50"/><text fill="#FFFFFF" font-family="sans-serif" font-size="14" lengthAdjust="spacing" textLength="47" x="1028.5" y="69.9951">Server</text><rect fill="#FF6347" height="30.2969" rx="3.5" ry="3.5" style="stroke:#454645;stroke-width:1.5;" width="61" x="1021.5" y="1046.8906"/><text fill="#FFFFFF" font-family="sans-serif" font-size="14" lengthAdjust="spacing" textLength="47" x="1028.5" y="1066.8857">Server</text><text fill="#454645" font-family="sans-serif" font-size="14" lengthAdjust="spacing" textLength="68" x="1186" y="77.9951">ServerDB</text><path d="M1205,29 C1205,19 1223,19 1223,19 C1223,19 1241,19 1241,29 L1241,55 C1241,65 1223,65 1223,65 C1223,65 1205,65 1205,55 L1205,29 " fill="#00FFFF" style="stroke:#454645;stroke-width:1.5;"/><path d="M1205,29 C1205,39 1223,39 1223,39 C1223,39 1241,39 1241,29 " fill="none" style="stroke:#454645;stroke-width:1.5;"/><text fill="#454645" font-family="sans-serif" font-size="14" lengthAdjust="spacing" textLength="68" x="1186" y="1059.8857">ServerDB</text><path d="M1205,1073.1875 C1205,1063.1875 1223,1063.1875 1223,1063.1875 C1223,1063.1875 1241,1063.1875 1241,1073.1875 L1241,1099.1875 C1241,1109.1875 1223,1109.1875 1223,1109.1875 C1223,1109.1875 1205,1109.1875 1205,1099.1875 L1205,1073.1875 " fill="#00FFFF" style="stroke:#454645;stroke-width:1.5;"/><path d="M1205,1073.1875 C1205,1083.1875 1223,1083.1875 1223,1083.1875 C1223,1083.1875 1241,1083.1875 1241,1073.1875 " fill="none" style="stroke:#454645;stroke-width:1.5;"/><polygon fill="#454645" points="244,108.4297,254,112.4297,244,116.4297,248,112.4297" style="stroke:#454645;stroke-width:1.0;"/><line style="stroke:#454645;stroke-width:1.0;" x1="47.5" x2="250" y1="112.4297" y2="112.4297"/><text fill="#000000" font-family="sans-serif" font-size="13" font-weight="bold" lengthAdjust="spacing" textLength="9" x="54.5" y="107.3638">1</text><text fill="#000000" font-family="sans-serif" font-size="13" lengthAdjust="spacing" textLength="143" x="67.5" y="107.3638">Create Group Request</text><polygon fill="#454645" points="121,137.5625,111,141.5625,121,145.5625,117,141.5625" style="stroke:#454645;stroke-width:1.0;"/><line style="stroke:#454645;stroke-width:1.0;" x1="115" x2="255" y1="141.5625" y2="141.5625"/><text fill="#000000" font-family="sans-serif" font-size="13" font-weight="bold" lengthAdjust="spacing" textLength="9" x="127" y="136.4966">2</text><text fill="#000000" font-family="sans-serif" font-size="13" lengthAdjust="spacing" textLength="109" x="140" y="136.4966">Validate Request</text><path d="M13.5,156.5625 L76,156.5625 L76,163.6953 L66,173.6953 L10,173.6953 L10,160.0625 A3.5,3.5 0 0 1 13.5,156.5625 " fill="#EEEEEE" style="stroke:#696969;stroke-width:1.5;"/><rect fill="none" height="874.3281" rx="3.5" ry="3.5" style="stroke:#696969;stroke-width:1.0;" width="1270" x="10" y="156.5625"/><text fill="#454645" font-family="sans-serif" font-size="13" font-weight="bold" lengthAdjust="spacing" textLength="21" x="25" y="169.6294">alt</text><text fill="#696969" font-family="sans-serif" font-size="11" font-weight="bold" lengthAdjust="spacing" textLength="149" x="91" y="168.7729">[Already in this group]</text><polygon fill="#454645" points="244,190.8281,254,194.8281,244,198.8281,248,194.8281" style="stroke:#454645;stroke-width:1.0;"/><line style="stroke:#454645;stroke-width:1.0;stroke-dasharray:2.0,2.0;" x1="110" x2="250" y1="194.8281" y2="194.8281"/><text fill="#000000" font-family="sans-serif" font-size="13" font-weight="bold" lengthAdjust="spacing" textLength="8" x="117" y="189.7622">3</text><text fill="#000000" font-family="sans-serif" font-size="13" lengthAdjust="spacing" textLength="31" x="129" y="189.7622">Error</text><line style="stroke:#696969;stroke-width:1.0;stroke-dasharray:2.0,2.0;" x1="10" x2="1280" y1="203.8281" y2="203.8281"/><text fill="#696969" font-family="sans-serif" font-size="11" font-weight="bold" lengthAdjust="spacing" textLength="124" x="15" y="214.0386">[Not in this group]</text><polygon fill="#454645" points="244,234.7656,254,238.7656,244,242.7656,248,238.7656" style="stroke:#454645;stroke-width:1.0;"/><line style="stroke:#454645;stroke-width:1.0;stroke-dasharray:2.0,2.0;" x1="110" x2="250" y1="238.7656" y2="238.7656"/><text fill="#000000" font-family="sans-serif" font-size="13" font-weight="bold" lengthAdjust="spacing" textLength="9" x="117" y="233.6997">4</text><text fill="#000000" font-family="sans-serif" font-size="13" lengthAdjust="spacing" textLength="52" x="130" y="233.6997">Success</text><polygon fill="#454645" points="443,263.8984,453,267.8984,443,271.8984,447,267.8984" style="stroke:#454645;stroke-width:1.0;"/><line style="stroke:#454645;stroke-width:1.0;" x1="256" x2="449" y1="267.8984" y2="267.8984"/><text fill="#000000" font-family="sans-serif" font-size="13" font-weight="bold" lengthAdjust="spacing" textLength="9" x="263" y="262.8325">5</text><text fill="#000000" font-family="sans-serif" font-size="13" lengthAdjust="spacing" textLength="143" x="276" y="262.8325">Create Group Request</text><polygon fill="#454645" points="642,293.0313,652,297.0313,642,301.0313,646,297.0313" style="stroke:#454645;stroke-width:1.0;"/><line style="stroke:#454645;stroke-width:1.0;" x1="455" x2="648" y1="297.0313" y2="297.0313"/><text fill="#000000" font-family="sans-serif" font-size="13" font-weight="bold" lengthAdjust="spacing" textLength="9" x="462" y="291.9653">6</text><text fill="#000000" font-family="sans-serif" font-size="13" lengthAdjust="spacing" textLength="143" x="475" y="291.9653">Create Group Request</text><polygon fill="#454645" points="841,322.1641,851,326.1641,841,330.1641,845,326.1641" style="stroke:#454645;stroke-width:1.0;"/><line style="stroke:#454645;stroke-width:1.0;" x1="654" x2="847" y1="326.1641" y2="326.1641"/><text fill="#000000" font-family="sans-serif" font-size="13" font-weight="bold" lengthAdjust="spacing" textLength="9" x="661" y="321.0981">7</text><text fill="#000000" font-family="sans-serif" font-size="13" lengthAdjust="spacing" textLength="143" x="674" y="321.0981">Create Group Request</text><polygon fill="#454645" points="1040,351.2969,1050,355.2969,1040,359.2969,1044,355.2969" style="stroke:#454645;stroke-width:1.0;"/><line style="stroke:#454645;stroke-width:1.0;" x1="853" x2="1046" y1="355.2969" y2="355.2969"/><text fill="#000000" font-family="sans-serif" font-size="13" font-weight="bold" lengthAdjust="spacing" textLength="9" x="860" y="350.231">8</text><text fill="#000000" font-family="sans-serif" font-size="13" lengthAdjust="spacing" textLength="143" x="873" y="350.231">Create Group Request</text><polygon fill="#454645" points="1063,380.4297,1053,384.4297,1063,388.4297,1059,384.4297" style="stroke:#454645;stroke-width:1.0;"/><polygon fill="#454645" points="1211,380.4297,1221,384.4297,1211,388.4297,1215,384.4297" style="stroke:#454645;stroke-width:1.0;"/><line style="stroke:#454645;stroke-width:1.0;" x1="1057" x2="1217" y1="384.4297" y2="384.4297"/><text fill="#000000" font-family="sans-serif" font-size="13" font-weight="bold" lengthAdjust="spacing" textLength="9" x="1069" y="379.3638">9</text><text fill="#000000" font-family="sans-serif" font-size="13" lengthAdjust="spacing" textLength="134" x="1082" y="379.3638">Check if group exists</text><path d="M23.5,399.4297 L86,399.4297 L86,406.5625 L76,416.5625 L20,416.5625 L20,402.9297 A3.5,3.5 0 0 1 23.5,399.4297 " fill="#EEEEEE" style="stroke:#696969;stroke-width:1.5;"/><rect fill="none" height="624.4609" rx="3.5" ry="3.5" style="stroke:#696969;stroke-width:1.0;" width="1250" x="20" y="399.4297"/><text fill="#454645" font-family="sans-serif" font-size="13" font-weight="bold" lengthAdjust="spacing" textLength="21" x="35" y="412.4966">alt</text><text fill="#696969" font-family="sans-serif" font-size="11" font-weight="bold" lengthAdjust="spacing" textLength="95" x="101" y="411.6401">[Group exists]</text><polygon fill="#454645" points="1063,433.6953,1053,437.6953,1063,441.6953,1059,437.6953" style="stroke:#454645;stroke-width:1.0;"/><line style="stroke:#454645;stroke-width:1.0;stroke-dasharray:2.0,2.0;" x1="1057" x2="1222" y1="437.6953" y2="437.6953"/><text fill="#000000" font-family="sans-serif" font-size="13" font-weight="bold" lengthAdjust="spacing" textLength="19" x="1069" y="432.6294">10</text><text fill="#000000" font-family="sans-serif" font-size="13" lengthAdjust="spacing" textLength="31" x="1092" y="432.6294">Error</text><polygon fill="#454645" points="466,462.8281,456,466.8281,466,470.8281,462,466.8281" style="stroke:#454645;stroke-width:1.0;"/><line style="stroke:#454645;stroke-width:1.0;" x1="460" x2="1051" y1="466.8281" y2="466.8281"/><text fill="#000000" font-family="sans-serif" font-size="13" font-weight="bold" lengthAdjust="spacing" textLength="18" x="472" y="461.7622">11</text><text fill="#000000" font-family="sans-serif" font-size="13" lengthAdjust="spacing" textLength="153" x="494" y="461.7622">Create Group Response</text><polygon fill="#454645" points="642,491.9609,652,495.9609,642,499.9609,646,495.9609" style="stroke:#454645;stroke-width:1.0;"/><line style="stroke:#454645;stroke-width:1.0;stroke-dasharray:2.0,2.0;" x1="455" x2="648" y1="495.9609" y2="495.9609"/><text fill="#000000" font-family="sans-serif" font-size="13" font-weight="bold" lengthAdjust="spacing" textLength="18" x="462" y="490.895">12</text><text fill="#000000" font-family="sans-serif" font-size="13" lengthAdjust="spacing" textLength="153" x="484" y="490.895">Create Group Response</text><line style="stroke:#454645;stroke-width:1.0;" x1="654" x2="696" y1="525.0938" y2="525.0938"/><line style="stroke:#454645;stroke-width:1.0;" x1="696" x2="696" y1="525.0938" y2="538.0938"/><line style="stroke:#454645;stroke-width:1.0;" x1="655" x2="696" y1="538.0938" y2="538.0938"/><polygon fill="#454645" points="665,534.0938,655,538.0938,665,542.0938,661,538.0938" style="stroke:#454645;stroke-width:1.0;"/><text fill="#000000" font-family="sans-serif" font-size="13" font-weight="bold" lengthAdjust="spacing" textLength="17" x="661" y="520.0278">13</text><text fill="#000000" font-family="sans-serif" font-size="13" lengthAdjust="spacing" textLength="131" x="682" y="520.0278">Change access level</text><polygon fill="#454645" points="466,563.2266,456,567.2266,466,571.2266,462,567.2266" style="stroke:#454645;stroke-width:1.0;"/><line style="stroke:#454645;stroke-width:1.0;" x1="460" x2="653" y1="567.2266" y2="567.2266"/><text fill="#000000" font-family="sans-serif" font-size="13" font-weight="bold" lengthAdjust="spacing" textLength="18" x="472" y="562.1606">14</text><text fill="#000000" font-family="sans-serif" font-size="13" lengthAdjust="spacing" textLength="153" x="494" y="562.1606">Create Group Response</text><polygon fill="#454645" points="267,592.3594,257,596.3594,267,600.3594,263,596.3594" style="stroke:#454645;stroke-width:1.0;"/><line style="stroke:#454645;stroke-width:1.0;stroke-dasharray:2.0,2.0;" x1="261" x2="454" y1="596.3594" y2="596.3594"/><text fill="#000000" font-family="sans-serif" font-size="13" font-weight="bold" lengthAdjust="spacing" textLength="18" x="273" y="591.2935">15</text><text fill="#000000" font-family="sans-serif" font-size="13" lengthAdjust="spacing" textLength="63" x="295" y="591.2935">Response</text><line style="stroke:#454645;stroke-width:1.0;" x1="256" x2="298" y1="625.4922" y2="625.4922"/><line style="stroke:#454645;stroke-width:1.0;" x1="298" x2="298" y1="625.4922" y2="638.4922"/><line style="stroke:#454645;stroke-width:1.0;" x1="257" x2="298" y1="638.4922" y2="638.4922"/><polygon fill="#454645" points="267,634.4922,257,638.4922,267,642.4922,263,638.4922" style="stroke:#454645;stroke-width:1.0;"/><text fill="#000000" font-family="sans-serif" font-size="13" font-weight="bold" lengthAdjust="spacing" textLength="18" x="263" y="620.4263">16</text><text fill="#000000" font-family="sans-serif" font-size="13" lengthAdjust="spacing" textLength="75" x="285" y="620.4263">show(Error)</text><polygon fill="#454645" points="58.5,663.625,48.5,667.625,58.5,671.625,54.5,667.625" style="stroke:#454645;stroke-width:1.0;"/><line style="stroke:#454645;stroke-width:1.0;" x1="52.5" x2="255" y1="667.625" y2="667.625"/><text fill="#000000" font-family="sans-serif" font-size="13" font-weight="bold" lengthAdjust="spacing" textLength="18" x="64.5" y="662.5591">17</text><text fill="#000000" font-family="sans-serif" font-size="13" lengthAdjust="spacing" textLength="75" x="86.5" y="662.5591">show(Error)</text><line style="stroke:#696969;stroke-width:1.0;stroke-dasharray:2.0,2.0;" x1="20" x2="1270" y1="676.625" y2="676.625"/><text fill="#696969" font-family="sans-serif" font-size="11" font-weight="bold" lengthAdjust="spacing" textLength="152" x="25" y="686.8354">[Group does not exist]</text><polygon fill="#454645" points="1063,707.5625,1053,711.5625,1063,715.5625,1059,711.5625" style="stroke:#454645;stroke-width:1.0;"/><line style="stroke:#454645;stroke-width:1.0;stroke-dasharray:2.0,2.0;" x1="1057" x2="1222" y1="711.5625" y2="711.5625"/><text fill="#000000" font-family="sans-serif" font-size="13" font-weight="bold" lengthAdjust="spacing" textLength="18" x="1069" y="706.4966">18</text><text fill="#000000" font-family="sans-serif" font-size="13" lengthAdjust="spacing" textLength="52" x="1091" y="706.4966">Success</text><polygon fill="#454645" points="1211,736.6953,1221,740.6953,1211,744.6953,1215,740.6953" style="stroke:#454645;stroke-width:1.0;"/><line style="stroke:#454645;stroke-width:1.0;" x1="1052" x2="1217" y1="740.6953" y2="740.6953"/><text fill="#000000" font-family="sans-serif" font-size="13" font-weight="bold" lengthAdjust="spacing" textLength="18" x="1059" y="735.6294">19</text><text fill="#000000" font-family="sans-serif" font-size="13" lengthAdjust="spacing" textLength="86" x="1081" y="735.6294">Create Group</text><polygon fill="#454645" points="1063,765.8281,1053,769.8281,1063,773.8281,1059,769.8281" style="stroke:#454645;stroke-width:1.0;"/><line style="stroke:#454645;stroke-width:1.0;stroke-dasharray:2.0,2.0;" x1="1057" x2="1222" y1="769.8281" y2="769.8281"/><text fill="#000000" font-family="sans-serif" font-size="13" font-weight="bold" lengthAdjust="spacing" textLength="19" x="1069" y="764.7622">20</text><text fill="#000000" font-family="sans-serif" font-size="13" lengthAdjust="spacing" textLength="52" x="1092" y="764.7622">Success</text><polygon fill="#454645" points="864,794.9609,854,798.9609,864,802.9609,860,798.9609" style="stroke:#454645;stroke-width:1.0;"/><line style="stroke:#454645;stroke-width:1.0;" x1="858" x2="1051" y1="798.9609" y2="798.9609"/><text fill="#000000" font-family="sans-serif" font-size="13" font-weight="bold" lengthAdjust="spacing" textLength="18" x="870" y="793.895">21</text><text fill="#000000" font-family="sans-serif" font-size="13" lengthAdjust="spacing" textLength="153" x="892" y="793.895">Create Group Response</text><polygon fill="#454645" points="665,824.0938,655,828.0938,665,832.0938,661,828.0938" style="stroke:#454645;stroke-width:1.0;"/><line style="stroke:#454645;stroke-width:1.0;stroke-dasharray:2.0,2.0;" x1="659" x2="852" y1="828.0938" y2="828.0938"/><text fill="#000000" font-family="sans-serif" font-size="13" font-weight="bold" lengthAdjust="spacing" textLength="18" x="671" y="823.0278">22</text><text fill="#000000" font-family="sans-serif" font-size="13" lengthAdjust="spacing" textLength="153" x="693" y="823.0278">Create Group Response</text><polygon fill="#454645" points="466,853.2266,456,857.2266,466,861.2266,462,857.2266" style="stroke:#454645;stroke-width:1.0;"/><line style="stroke:#454645;stroke-width:1.0;" x1="460" x2="653" y1="857.2266" y2="857.2266"/><text fill="#000000" font-family="sans-serif" font-size="13" font-weight="bold" lengthAdjust="spacing" textLength="17" x="472" y="852.1606">23</text><text fill="#000000" font-family="sans-serif" font-size="13" lengthAdjust="spacing" textLength="153" x="493" y="852.1606">Create Group Response</text><polygon fill="#454645" points="267,882.3594,257,886.3594,267,890.3594,263,886.3594" style="stroke:#454645;stroke-width:1.0;"/><line style="stroke:#454645;stroke-width:1.0;stroke-dasharray:2.0,2.0;" x1="261" x2="454" y1="886.3594" y2="886.3594"/><text fill="#000000" font-family="sans-serif" font-size="13" font-weight="bold" lengthAdjust="spacing" textLength="18" x="273" y="881.2935">24</text><text fill="#000000" font-family="sans-serif" font-size="13" lengthAdjust="spacing" textLength="153" x="295" y="881.2935">Create Group Response</text><polygon fill="#454645" points="121,911.4922,111,915.4922,121,919.4922,117,915.4922" style="stroke:#454645;stroke-width:1.0;"/><line style="stroke:#454645;stroke-width:1.0;" x1="115" x2="255" y1="915.4922" y2="915.4922"/><text fill="#000000" font-family="sans-serif" font-size="13" font-weight="bold" lengthAdjust="spacing" textLength="18" x="127" y="910.4263">25</text><text fill="#000000" font-family="sans-serif" font-size="13" lengthAdjust="spacing" textLength="86" x="149" y="910.4263">Create Group</text><polygon fill="#454645" points="244,940.625,254,944.625,244,948.625,248,944.625" style="stroke:#454645;stroke-width:1.0;"/><line style="stroke:#454645;stroke-width:1.0;stroke-dasharray:2.0,2.0;" x1="110" x2="250" y1="944.625" y2="944.625"/><text fill="#000000" font-family="sans-serif" font-size="13" font-weight="bold" lengthAdjust="spacing" textLength="18" x="117" y="939.5591">26</text><text fill="#000000" font-family="sans-serif" font-size="13" lengthAdjust="spacing" textLength="52" x="139" y="939.5591">Success</text><line style="stroke:#454645;stroke-width:1.0;" x1="256" x2="298" y1="973.7578" y2="973.7578"/><line style="stroke:#454645;stroke-width:1.0;" x1="298" x2="298" y1="973.7578" y2="986.7578"/><line style="stroke:#454645;stroke-width:1.0;" x1="257" x2="298" y1="986.7578" y2="986.7578"/><polygon fill="#454645" points="267,982.7578,257,986.7578,267,990.7578,263,986.7578" style="stroke:#454645;stroke-width:1.0;"/><text fill="#000000" font-family="sans-serif" font-size="13" font-weight="bold" lengthAdjust="spacing" textLength="18" x="263" y="968.6919">27</text><text fill="#000000" font-family="sans-serif" font-size="13" lengthAdjust="spacing" textLength="96" x="285" y="968.6919">show(Success)</text><polygon fill="#454645" points="58.5,1011.8906,48.5,1015.8906,58.5,1019.8906,54.5,1015.8906" style="stroke:#454645;stroke-width:1.0;"/><line style="stroke:#454645;stroke-width:1.0;" x1="52.5" x2="255" y1="1015.8906" y2="1015.8906"/><text fill="#000000" font-family="sans-serif" font-size="13" font-weight="bold" lengthAdjust="spacing" textLength="18" x="64.5" y="1010.8247">28</text><text fill="#000000" font-family="sans-serif" font-size="13" lengthAdjust="spacing" textLength="96" x="86.5" y="1010.8247">show(Success)</text><!--SRC=[fPHDKy8m48Rl-HNhJG_8dN6S4N2uEQECtjDseHdJf2ORq7zlqfOs1MmPwO5fq-VTZtUNtb2E1S9E98OhWetH1UH4fPrDfuRlxxU2SfSuYoRLYb3HVQgBQIazx0hPtHJS4fff5SqoxaWhLoHe66Cy9MrWhXFW5jvz99PnuWct20ifVCZbd9NSa4X56Mge3zcNGuUmHck5Lg_XeKSTthISsQ4vnUhpBcFzx3EoK0bC7fjqC8E5GKu8AwDT2M_eurfYpTkMMyuz-S6bo09xeBWaU99Ud_s0K42viB0DSHZugrLEudJFncZ3KFgYNZHTB5kxDFMTHqGeBhRfhrQ2eiTrkWiaDTsQFApei5OrBe275gvSNkIOVeBOr9O0VWjBTT_1xjNnOHUeiQpDMplTPyPDiwLM5YDPxDoGTUU5KSBG6bTR15wD4YJkK0xm_oomNPbJzdYhFMHplR-jdBexWrL_bbEesjwwdaoZ1UKNkHh9o4JY9JwUIJV_gDqhurtgOBItLqtuseaDwyv-aywwDVu96Tg6XXlRXnw6AcFC__m2]--></g></svg>