<?xml version="1.0" encoding="UTF-8" standalone="no"?><svg xmlns="http://www.w3.org/2000/svg" xmlns:xlink="http://www.w3.org/1999/xlink" contentStyleType="text/css" height="1025px" preserveAspectRatio="none" style="width:1512px;height:1025px;background:#FFFFFF;" version="1.1" viewBox="0 0 1512 1025" width="1512px" zoomAndPan="magnify"><defs/><g><rect fill="none" height="770.7969" rx="3.5" ry="3.5" style="stroke:#696969;stroke-width:1.0;" width="1495" x="10" y="156.5625"/><rect fill="none" height="507.9297" rx="3.5" ry="3.5" style="stroke:#696969;stroke-width:1.0;" width="1475" x="20" y="412.4297"/><line style="stroke:#696969;stroke-width:0.5;stroke-dasharray:5.0,5.0;" x1="47" x2="47" y1="81.2969" y2="944.3594"/><line style="stroke:#696969;stroke-width:0.5;stroke-dasharray:5.0,5.0;" x1="110" x2="110" y1="81.2969" y2="944.3594"/><line style="stroke:#696969;stroke-width:0.5;stroke-dasharray:5.0,5.0;" x1="321.5" x2="321.5" y1="81.2969" y2="944.3594"/><line style="stroke:#696969;stroke-width:0.5;stroke-dasharray:5.0,5.0;" x1="559.5" x2="559.5" y1="81.2969" y2="944.3594"/><line style="stroke:#696969;stroke-width:0.5;stroke-dasharray:5.0,5.0;" x1="798" x2="798" y1="81.2969" y2="944.3594"/><line style="stroke:#696969;stroke-width:0.5;stroke-dasharray:5.0,5.0;" x1="1004" x2="1004" y1="81.2969" y2="944.3594"/><line style="stroke:#696969;stroke-width:0.5;stroke-dasharray:5.0,5.0;" x1="1204.5" x2="1204.5" y1="81.2969" y2="944.3594"/><line style="stroke:#696969;stroke-width:0.5;stroke-dasharray:5.0,5.0;" x1="1448" x2="1448" y1="81.2969" y2="944.3594"/><text fill="#454645" font-family="sans-serif" font-size="14" lengthAdjust="spacing" textLength="29" x="30" y="77.9951">Bob</text><ellipse cx="47.5" cy="13.5" fill="#454645" rx="8" ry="8" style="stroke:#454645;stroke-width:0.5;"/><path d="M47.5,21.5 L47.5,48.5 M34.5,29.5 L60.5,29.5 M47.5,48.5 L34.5,63.5 M47.5,48.5 L60.5,63.5 " fill="none" style="stroke:#454645;stroke-width:0.5;"/><text fill="#454645" font-family="sans-serif" font-size="14" lengthAdjust="spacing" textLength="29" x="30" y="956.3545">Bob</text><ellipse cx="47.5" cy="968.1563" fill="#454645" rx="8" ry="8" style="stroke:#454645;stroke-width:0.5;"/><path d="M47.5,976.1563 L47.5,1003.1563 M34.5,984.1563 L60.5,984.1563 M47.5,1003.1563 L34.5,1018.1563 M47.5,1003.1563 L60.5,1018.1563 " fill="none" style="stroke:#454645;stroke-width:0.5;"/><text fill="#454645" font-family="sans-serif" font-size="14" lengthAdjust="spacing" textLength="64" x="75" y="77.9951">ClientDB</text><path d="M92,29 C92,19 110,19 110,19 C110,19 128,19 128,29 L128,55 C128,65 110,65 110,65 C110,65 92,65 92,55 L92,29 " fill="#00FFFF" style="stroke:#454645;stroke-width:1.5;"/><path d="M92,29 C92,39 110,39 110,39 C110,39 128,39 128,29 " fill="none" style="stroke:#454645;stroke-width:1.5;"/><text fill="#454645" font-family="sans-serif" font-size="14" lengthAdjust="spacing" textLength="64" x="75" y="956.3545">ClientDB</text><path d="M92,969.6563 C92,959.6563 110,959.6563 110,959.6563 C110,959.6563 128,959.6563 128,969.6563 L128,995.6563 C128,1005.6563 110,1005.6563 110,1005.6563 C110,1005.6563 92,1005.6563 92,995.6563 L92,969.6563 " fill="#00FFFF" style="stroke:#454645;stroke-width:1.5;"/><path d="M92,969.6563 C92,979.6563 110,979.6563 110,979.6563 C110,979.6563 128,979.6563 128,969.6563 " fill="none" style="stroke:#454645;stroke-width:1.5;"/><rect fill="#FF6347" height="30.2969" rx="3.5" ry="3.5" style="stroke:#454645;stroke-width:1.5;" width="57" x="293.5" y="50"/><text fill="#FFFFFF" font-family="sans-serif" font-size="14" lengthAdjust="spacing" textLength="43" x="300.5" y="69.9951">Client</text><rect fill="#FF6347" height="30.2969" rx="3.5" ry="3.5" style="stroke:#454645;stroke-width:1.5;" width="57" x="293.5" y="943.3594"/><text fill="#FFFFFF" font-family="sans-serif" font-size="14" lengthAdjust="spacing" textLength="43" x="300.5" y="963.3545">Client</text><path d="M505.5,55 L614.5,55 C619.5,55 619.5,68.1484 619.5,68.1484 C619.5,68.1484 619.5,81.2969 614.5,81.2969 L505.5,81.2969 C500.5,81.2969 500.5,68.1484 500.5,68.1484 C500.5,68.1484 500.5,55 505.5,55 " fill="#FF6347" style="stroke:#454645;stroke-width:1.5;"/><path d="M614.5,55 C609.5,55 609.5,68.1484 609.5,68.1484 C609.5,81.2969 614.5,81.2969 614.5,81.2969 " fill="none" style="stroke:#454645;stroke-width:1.5;"/><text fill="#FFFFFF" font-family="sans-serif" font-size="14" lengthAdjust="spacing" textLength="99" x="505.5" y="72.9951">SessionQueue</text><path d="M505.5,943.3594 L614.5,943.3594 C619.5,943.3594 619.5,956.5078 619.5,956.5078 C619.5,956.5078 619.5,969.6563 614.5,969.6563 L505.5,969.6563 C500.5,969.6563 500.5,956.5078 500.5,956.5078 C500.5,956.5078 500.5,943.3594 505.5,943.3594 " fill="#FF6347" style="stroke:#454645;stroke-width:1.5;"/><path d="M614.5,943.3594 C609.5,943.3594 609.5,956.5078 609.5,956.5078 C609.5,969.6563 614.5,969.6563 614.5,969.6563 " fill="none" style="stroke:#454645;stroke-width:1.5;"/><text fill="#FFFFFF" font-family="sans-serif" font-size="14" lengthAdjust="spacing" textLength="99" x="505.5" y="961.3545">SessionQueue</text><rect fill="#FF6347" height="30.2969" rx="3.5" ry="3.5" style="stroke:#454645;stroke-width:1.5;" width="68" x="764" y="50"/><text fill="#FFFFFF" font-family="sans-serif" font-size="14" lengthAdjust="spacing" textLength="54" x="771" y="69.9951">Session</text><rect fill="#FF6347" height="30.2969" rx="3.5" ry="3.5" style="stroke:#454645;stroke-width:1.5;" width="68" x="764" y="943.3594"/><text fill="#FFFFFF" font-family="sans-serif" font-size="14" lengthAdjust="spacing" textLength="54" x="771" y="963.3545">Session</text><path d="M953,55 L1055,55 C1060,55 1060,68.1484 1060,68.1484 C1060,68.1484 1060,81.2969 1055,81.2969 L953,81.2969 C948,81.2969 948,68.1484 948,68.1484 C948,68.1484 948,55 953,55 " fill="#FF6347" style="stroke:#454645;stroke-width:1.5;"/><path d="M1055,55 C1050,55 1050,68.1484 1050,68.1484 C1050,81.2969 1055,81.2969 1055,81.2969 " fill="none" style="stroke:#454645;stroke-width:1.5;"/><text fill="#FFFFFF" font-family="sans-serif" font-size="14" lengthAdjust="spacing" textLength="92" x="953" y="72.9951">ServerQueue</text><path d="M953,943.3594 L1055,943.3594 C1060,943.3594 1060,956.5078 1060,956.5078 C1060,956.5078 1060,969.6563 1055,969.6563 L953,969.6563 C948,969.6563 948,956.5078 948,956.5078 C948,956.5078 948,943.3594 953,943.3594 " fill="#FF6347" style="stroke:#454645;stroke-width:1.5;"/><path d="M1055,943.3594 C1050,943.3594 1050,956.5078 1050,956.5078 C1050,969.6563 1055,969.6563 1055,969.6563 " fill="none" style="stroke:#454645;stroke-width:1.5;"/><text fill="#FFFFFF" font-family="sans-serif" font-size="14" lengthAdjust="spacing" textLength="92" x="953" y="961.3545">ServerQueue</text><rect fill="#FF6347" height="30.2969" rx="3.5" ry="3.5" style="stroke:#454645;stroke-width:1.5;" width="61" x="1174.5" y="50"/><text fill="#FFFFFF" font-family="sans-serif" font-size="14" lengthAdjust="spacing" textLength="47" x="1181.5" y="69.9951">Server</text><rect fill="#FF6347" height="30.2969" rx="3.5" ry="3.5" style="stroke:#454645;stroke-width:1.5;" width="61" x="1174.5" y="943.3594"/><text fill="#FFFFFF" font-family="sans-serif" font-size="14" lengthAdjust="spacing" textLength="47" x="1181.5" y="963.3545">Server</text><text fill="#454645" font-family="sans-serif" font-size="14" lengthAdjust="spacing" textLength="68" x="1411" y="77.9951">ServerDB</text><path d="M1430,29 C1430,19 1448,19 1448,19 C1448,19 1466,19 1466,29 L1466,55 C1466,65 1448,65 1448,65 C1448,65 1430,65 1430,55 L1430,29 " fill="#00FFFF" style="stroke:#454645;stroke-width:1.5;"/><path d="M1430,29 C1430,39 1448,39 1448,39 C1448,39 1466,39 1466,29 " fill="none" style="stroke:#454645;stroke-width:1.5;"/><text fill="#454645" font-family="sans-serif" font-size="14" lengthAdjust="spacing" textLength="68" x="1411" y="956.3545">ServerDB</text><path d="M1430,969.6563 C1430,959.6563 1448,959.6563 1448,959.6563 C1448,959.6563 1466,959.6563 1466,969.6563 L1466,995.6563 C1466,1005.6563 1448,1005.6563 1448,1005.6563 C1448,1005.6563 1430,1005.6563 1430,995.6563 L1430,969.6563 " fill="#00FFFF" style="stroke:#454645;stroke-width:1.5;"/><path d="M1430,969.6563 C1430,979.6563 1448,979.6563 1448,979.6563 C1448,979.6563 1466,979.6563 1466,969.6563 " fill="none" style="stroke:#454645;stroke-width:1.5;"/><polygon fill="#454645" points="310,108.4297,320,112.4297,310,116.4297,314,112.4297" style="stroke:#454645;stroke-width:1.0;"/><line style="stroke:#454645;stroke-width:1.0;" x1="47.5" x2="316" y1="112.4297" y2="112.4297"/><text fill="#000000" font-family="sans-serif" font-size="13" font-weight="bold" lengthAdjust="spacing" textLength="9" x="54.5" y="107.3638">1</text><text fill="#000000" font-family="sans-serif" font-size="13" lengthAdjust="spacing" textLength="164" x="67.5" y="107.3638">deleteGroup(groupName)</text><polygon fill="#454645" points="310,137.5625,320,141.5625,310,145.5625,314,141.5625" style="stroke:#454645;stroke-width:1.0;"/><line style="stroke:#454645;stroke-width:1.0;" x1="110" x2="316" y1="141.5625" y2="141.5625"/><text fill="#000000" font-family="sans-serif" font-size="13" font-weight="bold" lengthAdjust="spacing" textLength="9" x="117" y="136.4966">2</text><text fill="#000000" font-family="sans-serif" font-size="13" lengthAdjust="spacing" textLength="175" x="130" y="136.4966">validateGroup(groupName)</text><path d="M13.5,156.5625 L76,156.5625 L76,163.6953 L66,173.6953 L10,173.6953 L10,160.0625 A3.5,3.5 0 0 1 13.5,156.5625 " fill="#EEEEEE" style="stroke:#696969;stroke-width:1.5;"/><rect fill="none" height="770.7969" rx="3.5" ry="3.5" style="stroke:#696969;stroke-width:1.0;" width="1495" x="10" y="156.5625"/><text fill="#454645" font-family="sans-serif" font-size="13" font-weight="bold" lengthAdjust="spacing" textLength="21" x="25" y="169.6294">alt</text><text fill="#696969" font-family="sans-serif" font-size="11" font-weight="bold" lengthAdjust="spacing" textLength="121" x="91" y="168.7729">[group not found]</text><polygon fill="#454645" points="58.5,190.8281,48.5,194.8281,58.5,198.8281,54.5,194.8281" style="stroke:#454645;stroke-width:1.0;"/><line style="stroke:#454645;stroke-width:1.0;" x1="52.5" x2="321" y1="194.8281" y2="194.8281"/><text fill="#000000" font-family="sans-serif" font-size="13" font-weight="bold" lengthAdjust="spacing" textLength="8" x="64.5" y="189.7622">3</text><text fill="#000000" font-family="sans-serif" font-size="13" lengthAdjust="spacing" textLength="74" x="76.5" y="189.7622">return error</text><line style="stroke:#696969;stroke-width:1.0;stroke-dasharray:2.0,2.0;" x1="10" x2="1505" y1="203.8281" y2="203.8281"/><text fill="#696969" font-family="sans-serif" font-size="11" font-weight="bold" lengthAdjust="spacing" textLength="93" x="15" y="214.0386">[group found]</text><polygon fill="#454645" points="548,234.7656,558,238.7656,548,242.7656,552,238.7656" style="stroke:#454645;stroke-width:1.0;"/><line style="stroke:#454645;stroke-width:1.0;" x1="322" x2="554" y1="238.7656" y2="238.7656"/><text fill="#000000" font-family="sans-serif" font-size="13" font-weight="bold" lengthAdjust="spacing" textLength="9" x="329" y="233.6997">4</text><text fill="#000000" font-family="sans-serif" font-size="13" lengthAdjust="spacing" textLength="164" x="342" y="233.6997">deleteGroup(groupName)</text><polygon fill="#454645" points="786,263.8984,796,267.8984,786,271.8984,790,267.8984" style="stroke:#454645;stroke-width:1.0;"/><line style="stroke:#454645;stroke-width:1.0;" x1="560" x2="792" y1="267.8984" y2="267.8984"/><text fill="#000000" font-family="sans-serif" font-size="13" font-weight="bold" lengthAdjust="spacing" textLength="9" x="567" y="262.8325">5</text><text fill="#000000" font-family="sans-serif" font-size="13" lengthAdjust="spacing" textLength="164" x="580" y="262.8325">deleteGroup(groupName)</text><polygon fill="#454645" points="992,293.0313,1002,297.0313,992,301.0313,996,297.0313" style="stroke:#454645;stroke-width:1.0;"/><line style="stroke:#454645;stroke-width:1.0;" x1="798" x2="998" y1="297.0313" y2="297.0313"/><text fill="#000000" font-family="sans-serif" font-size="13" font-weight="bold" lengthAdjust="spacing" textLength="9" x="805" y="291.9653">6</text><text fill="#000000" font-family="sans-serif" font-size="13" lengthAdjust="spacing" textLength="164" x="818" y="291.9653">deleteGroup(groupName)</text><polygon fill="#454645" points="1193,322.1641,1203,326.1641,1193,330.1641,1197,326.1641" style="stroke:#454645;stroke-width:1.0;"/><line style="stroke:#454645;stroke-width:1.0;" x1="1004" x2="1199" y1="326.1641" y2="326.1641"/><text fill="#000000" font-family="sans-serif" font-size="13" font-weight="bold" lengthAdjust="spacing" textLength="9" x="1011" y="321.0981">7</text><text fill="#000000" font-family="sans-serif" font-size="13" lengthAdjust="spacing" textLength="164" x="1024" y="321.0981">deleteGroup(groupName)</text><line style="stroke:#454645;stroke-width:1.0;" x1="1205" x2="1247" y1="355.2969" y2="355.2969"/><line style="stroke:#454645;stroke-width:1.0;" x1="1247" x2="1247" y1="355.2969" y2="368.2969"/><line style="stroke:#454645;stroke-width:1.0;" x1="1206" x2="1247" y1="368.2969" y2="368.2969"/><polygon fill="#454645" points="1216,364.2969,1206,368.2969,1216,372.2969,1212,368.2969" style="stroke:#454645;stroke-width:1.0;"/><text fill="#000000" font-family="sans-serif" font-size="13" font-weight="bold" lengthAdjust="spacing" textLength="9" x="1212" y="350.231">8</text><text fill="#000000" font-family="sans-serif" font-size="13" lengthAdjust="spacing" textLength="151" x="1225" y="350.231">nameToID(groupName)</text><polygon fill="#454645" points="1216,393.4297,1206,397.4297,1216,401.4297,1212,397.4297" style="stroke:#454645;stroke-width:1.0;"/><polygon fill="#454645" points="1436,393.4297,1446,397.4297,1436,401.4297,1440,397.4297" style="stroke:#454645;stroke-width:1.0;"/><line style="stroke:#454645;stroke-width:1.0;" x1="1210" x2="1442" y1="397.4297" y2="397.4297"/><text fill="#000000" font-family="sans-serif" font-size="13" font-weight="bold" lengthAdjust="spacing" textLength="9" x="1222" y="392.3638">9</text><text fill="#000000" font-family="sans-serif" font-size="13" lengthAdjust="spacing" textLength="123" x="1235" y="392.3638">findGroup(groupID)</text><path d="M23.5,412.4297 L86,412.4297 L86,419.5625 L76,429.5625 L20,429.5625 L20,415.9297 A3.5,3.5 0 0 1 23.5,412.4297 " fill="#EEEEEE" style="stroke:#696969;stroke-width:1.5;"/><rect fill="none" height="507.9297" rx="3.5" ry="3.5" style="stroke:#696969;stroke-width:1.0;" width="1475" x="20" y="412.4297"/><text fill="#454645" font-family="sans-serif" font-size="13" font-weight="bold" lengthAdjust="spacing" textLength="21" x="35" y="425.4966">alt</text><text fill="#696969" font-family="sans-serif" font-size="11" font-weight="bold" lengthAdjust="spacing" textLength="121" x="101" y="424.6401">[group not found]</text><polygon fill="#454645" points="571,446.6953,561,450.6953,571,454.6953,567,450.6953" style="stroke:#454645;stroke-width:1.0;"/><line style="stroke:#454645;stroke-width:1.0;" x1="565" x2="1204" y1="450.6953" y2="450.6953"/><text fill="#000000" font-family="sans-serif" font-size="13" font-weight="bold" lengthAdjust="spacing" textLength="19" x="577" y="445.6294">10</text><text fill="#000000" font-family="sans-serif" font-size="13" lengthAdjust="spacing" textLength="74" x="600" y="445.6294">return error</text><polygon fill="#454645" points="786,475.8281,796,479.8281,786,483.8281,790,479.8281" style="stroke:#454645;stroke-width:1.0;"/><line style="stroke:#454645;stroke-width:1.0;" x1="560" x2="792" y1="479.8281" y2="479.8281"/><text fill="#000000" font-family="sans-serif" font-size="13" font-weight="bold" lengthAdjust="spacing" textLength="18" x="567" y="474.7622">11</text><text fill="#000000" font-family="sans-serif" font-size="13" lengthAdjust="spacing" textLength="74" x="589" y="474.7622">return error</text><line style="stroke:#454645;stroke-width:1.0;" x1="798" x2="840" y1="508.9609" y2="508.9609"/><line style="stroke:#454645;stroke-width:1.0;" x1="840" x2="840" y1="508.9609" y2="521.9609"/><line style="stroke:#454645;stroke-width:1.0;" x1="799" x2="840" y1="521.9609" y2="521.9609"/><polygon fill="#454645" points="809,517.9609,799,521.9609,809,525.9609,805,521.9609" style="stroke:#454645;stroke-width:1.0;"/><text fill="#000000" font-family="sans-serif" font-size="13" font-weight="bold" lengthAdjust="spacing" textLength="18" x="805" y="503.895">12</text><text fill="#000000" font-family="sans-serif" font-size="13" lengthAdjust="spacing" textLength="169" x="827" y="503.895">Change msg access rights</text><polygon fill="#454645" points="571,547.0938,561,551.0938,571,555.0938,567,551.0938" style="stroke:#454645;stroke-width:1.0;"/><line style="stroke:#454645;stroke-width:1.0;" x1="565" x2="797" y1="551.0938" y2="551.0938"/><text fill="#000000" font-family="sans-serif" font-size="13" font-weight="bold" lengthAdjust="spacing" textLength="17" x="577" y="546.0278">13</text><text fill="#000000" font-family="sans-serif" font-size="13" lengthAdjust="spacing" textLength="74" x="598" y="546.0278">return error</text><polygon fill="#454645" points="333,576.2266,323,580.2266,333,584.2266,329,580.2266" style="stroke:#454645;stroke-width:1.0;"/><line style="stroke:#454645;stroke-width:1.0;" x1="327" x2="559" y1="580.2266" y2="580.2266"/><text fill="#000000" font-family="sans-serif" font-size="13" font-weight="bold" lengthAdjust="spacing" textLength="18" x="339" y="575.1606">14</text><text fill="#000000" font-family="sans-serif" font-size="13" lengthAdjust="spacing" textLength="74" x="361" y="575.1606">return error</text><polygon fill="#454645" points="58.5,605.3594,48.5,609.3594,58.5,613.3594,54.5,609.3594" style="stroke:#454645;stroke-width:1.0;"/><line style="stroke:#454645;stroke-width:1.0;" x1="52.5" x2="321" y1="609.3594" y2="609.3594"/><text fill="#000000" font-family="sans-serif" font-size="13" font-weight="bold" lengthAdjust="spacing" textLength="18" x="64.5" y="604.2935">15</text><text fill="#000000" font-family="sans-serif" font-size="13" lengthAdjust="spacing" textLength="74" x="86.5" y="604.2935">return error</text><line style="stroke:#696969;stroke-width:1.0;stroke-dasharray:2.0,2.0;" x1="20" x2="1495" y1="618.3594" y2="618.3594"/><text fill="#696969" font-family="sans-serif" font-size="11" font-weight="bold" lengthAdjust="spacing" textLength="93" x="25" y="628.5698">[group found]</text><polygon fill="#454645" points="1436,649.2969,1446,653.2969,1436,657.2969,1440,653.2969" style="stroke:#454645;stroke-width:1.0;"/><line style="stroke:#454645;stroke-width:1.0;" x1="1205" x2="1442" y1="653.2969" y2="653.2969"/><text fill="#000000" font-family="sans-serif" font-size="13" font-weight="bold" lengthAdjust="spacing" textLength="18" x="1212" y="648.231">16</text><text fill="#000000" font-family="sans-serif" font-size="13" lengthAdjust="spacing" textLength="139" x="1234" y="648.231">deleteGroup(groupID)</text><line style="stroke:#454645;stroke-width:1.0;" x1="1205" x2="1247" y1="682.4297" y2="682.4297"/><line style="stroke:#454645;stroke-width:1.0;" x1="1247" x2="1247" y1="682.4297" y2="695.4297"/><line style="stroke:#454645;stroke-width:1.0;" x1="1206" x2="1247" y1="695.4297" y2="695.4297"/><polygon fill="#454645" points="1216,691.4297,1206,695.4297,1216,699.4297,1212,695.4297" style="stroke:#454645;stroke-width:1.0;"/><text fill="#000000" font-family="sans-serif" font-size="13" font-weight="bold" lengthAdjust="spacing" textLength="18" x="1212" y="677.3638">17</text><text fill="#000000" font-family="sans-serif" font-size="13" lengthAdjust="spacing" textLength="207" x="1234" y="677.3638">propagateDeleteGroup(groupID)</text><polygon fill="#454645" points="571,720.5625,561,724.5625,571,728.5625,567,724.5625" style="stroke:#454645;stroke-width:1.0;"/><line style="stroke:#454645;stroke-width:1.0;" x1="565" x2="1204" y1="724.5625" y2="724.5625"/><text fill="#000000" font-family="sans-serif" font-size="13" font-weight="bold" lengthAdjust="spacing" textLength="18" x="577" y="719.4966">18</text><text fill="#000000" font-family="sans-serif" font-size="13" lengthAdjust="spacing" textLength="192" x="599" y="719.4966">return removeGroup(groupID)</text><polygon fill="#454645" points="786,749.6953,796,753.6953,786,757.6953,790,753.6953" style="stroke:#454645;stroke-width:1.0;"/><line style="stroke:#454645;stroke-width:1.0;" x1="560" x2="792" y1="753.6953" y2="753.6953"/><text fill="#000000" font-family="sans-serif" font-size="13" font-weight="bold" lengthAdjust="spacing" textLength="18" x="567" y="748.6294">19</text><text fill="#000000" font-family="sans-serif" font-size="13" lengthAdjust="spacing" textLength="192" x="589" y="748.6294">return removeGroup(groupID)</text><line style="stroke:#454645;stroke-width:1.0;" x1="798" x2="840" y1="782.8281" y2="782.8281"/><line style="stroke:#454645;stroke-width:1.0;" x1="840" x2="840" y1="782.8281" y2="795.8281"/><line style="stroke:#454645;stroke-width:1.0;" x1="799" x2="840" y1="795.8281" y2="795.8281"/><polygon fill="#454645" points="809,791.8281,799,795.8281,809,799.8281,805,795.8281" style="stroke:#454645;stroke-width:1.0;"/><text fill="#000000" font-family="sans-serif" font-size="13" font-weight="bold" lengthAdjust="spacing" textLength="19" x="805" y="777.7622">20</text><text fill="#000000" font-family="sans-serif" font-size="13" lengthAdjust="spacing" textLength="169" x="828" y="777.7622">Change msg access rights</text><polygon fill="#454645" points="571,820.9609,561,824.9609,571,828.9609,567,824.9609" style="stroke:#454645;stroke-width:1.0;"/><line style="stroke:#454645;stroke-width:1.0;" x1="565" x2="797" y1="824.9609" y2="824.9609"/><text fill="#000000" font-family="sans-serif" font-size="13" font-weight="bold" lengthAdjust="spacing" textLength="18" x="577" y="819.895">21</text><text fill="#000000" font-family="sans-serif" font-size="13" lengthAdjust="spacing" textLength="192" x="599" y="819.895">return removeGroup(groupID)</text><polygon fill="#454645" points="333,850.0938,323,854.0938,333,858.0938,329,854.0938" style="stroke:#454645;stroke-width:1.0;"/><line style="stroke:#454645;stroke-width:1.0;" x1="327" x2="559" y1="854.0938" y2="854.0938"/><text fill="#000000" font-family="sans-serif" font-size="13" font-weight="bold" lengthAdjust="spacing" textLength="18" x="339" y="849.0278">22</text><text fill="#000000" font-family="sans-serif" font-size="13" lengthAdjust="spacing" textLength="192" x="361" y="849.0278">return removeGroup(groupID)</text><polygon fill="#454645" points="121,879.2266,111,883.2266,121,887.2266,117,883.2266" style="stroke:#454645;stroke-width:1.0;"/><line style="stroke:#454645;stroke-width:1.0;" x1="115" x2="321" y1="883.2266" y2="883.2266"/><text fill="#000000" font-family="sans-serif" font-size="13" font-weight="bold" lengthAdjust="spacing" textLength="17" x="127" y="878.1606">23</text><text fill="#000000" font-family="sans-serif" font-size="13" lengthAdjust="spacing" textLength="139" x="148" y="878.1606">deleteGroup(groupID)</text><polygon fill="#454645" points="58.5,908.3594,48.5,912.3594,58.5,916.3594,54.5,912.3594" style="stroke:#454645;stroke-width:1.0;"/><line style="stroke:#454645;stroke-width:1.0;" x1="52.5" x2="321" y1="912.3594" y2="912.3594"/><text fill="#000000" font-family="sans-serif" font-size="13" font-weight="bold" lengthAdjust="spacing" textLength="18" x="64.5" y="907.2935">24</text><text fill="#000000" font-family="sans-serif" font-size="13" lengthAdjust="spacing" textLength="192" x="86.5" y="907.2935">return removeGroup(groupID)</text><!--SRC=[hLJBReCm4BpxAxQtzf1mHrKE2LALIwMgxGSOiW5BsAPhc_v-5qY0D917LIGGjcTsLZCB3xv0ZL2hbAJni2UheV2-Sd4KaVnUvieN8GqEARF6e_7BpEgeAXaST3cyQEayKjHMSq86RqtGAP8GGcRU4gnj2jB19rSIE-bbAXt2fbHSCbcBIf9NcQgQ7hfDyHKm8BoZSygQjsPnWZgUz3YgaSvXtVwWsArPKOYc5LYi3deGmmvBzFX2DbIFUVDybHgVnE7yUT6tozXQbegBdgDbwQ5TWh7ifmrc9u2lGnNMQtLZ8FI1322H9O4bzzRHfYXZ5-ORRJW7PDFj_QHMgVVn6gS1TZhtKNgL60oVVTXjCbjyrGV6fVVAx4Q5jqa7ddFyj-I96oVk3-WHPk1SWO-GCMmAQN84xNAGMSQxG2ellBj0kgkbVbWdqPU7h45C3jfKEAtZPs4UFPzYCBuYMycSFulaLkAK0uJQrlFaAndTmlwloFxKSH_XJUmXqj7Vvs8kSqCmAuCy1dp_0000]--></g></svg>