<?xml version="1.0" encoding="UTF-8" standalone="no"?><svg xmlns="http://www.w3.org/2000/svg" xmlns:xlink="http://www.w3.org/1999/xlink" contentStyleType="text/css" height="1214px" preserveAspectRatio="none" style="width:1500px;height:1214px;background:#FFFFFF;" version="1.1" viewBox="0 0 1500 1214" width="1500px" zoomAndPan="magnify"><defs/><g><rect fill="#FFFFFF" height="838.3906" style="stroke:#696969;stroke-width:1.0;" width="10" x="259.5" y="286.2891"/><rect fill="#FFFFFF" height="781.0938" style="stroke:#696969;stroke-width:1.0;" width="10" x="556.5" y="327.5859"/><rect fill="#FFFFFF" height="395.7266" style="stroke:#696969;stroke-width:1.0;" width="10" x="680" y="728.9531"/><rect fill="#FFFFFF" height="359.4297" style="stroke:#696969;stroke-width:1.0;" width="10" x="937" y="765.25"/><rect fill="#FFFFFF" height="917.8203" style="stroke:#696969;stroke-width:1.0;" width="10" x="1037" y="206.8594"/><rect fill="#FFFFFF" height="959.1172" style="stroke:#696969;stroke-width:1.0;" width="10" x="1319" y="165.5625"/><rect fill="none" height="225.5391" rx="3.5" ry="3.5" style="stroke:#696969;stroke-width:1.0;" width="1108" x="10" y="368.8828"/><rect fill="none" height="46.2656" rx="3.5" ry="3.5" style="stroke:#696969;stroke-width:1.0;" width="882" x="226" y="393.0156"/><rect fill="none" height="90.2031" rx="3.5" ry="3.5" style="stroke:#696969;stroke-width:1.0;" width="1088" x="20" y="453.2813"/><rect fill="none" height="211.2578" rx="3.5" ry="3.5" style="stroke:#696969;stroke-width:1.0;" width="867" x="497.5" y="651.5547"/><rect fill="none" height="181.6016" rx="3.5" ry="3.5" style="stroke:#696969;stroke-width:1.0;" width="754.5" x="10" y="935.0781"/><rect fill="none" height="46.2656" rx="3.5" ry="3.5" style="stroke:#696969;stroke-width:1.0;" width="528.5" x="226" y="959.2109"/><rect fill="none" height="46.2656" rx="3.5" ry="3.5" style="stroke:#696969;stroke-width:1.0;" width="283" x="20" y="1019.4766"/><line style="stroke:#696969;stroke-width:0.5;stroke-dasharray:5.0,5.0;" x1="47" x2="47" y1="81.2969" y2="1133.6797"/><line style="stroke:#696969;stroke-width:0.5;stroke-dasharray:5.0,5.0;" x1="110" x2="110" y1="81.2969" y2="1133.6797"/><line style="stroke:#696969;stroke-width:0.5;stroke-dasharray:5.0,5.0;" x1="264" x2="264" y1="285.8047" y2="1133.6797"/><line style="stroke:#696969;stroke-width:0.5;stroke-dasharray:5.0,5.0;" x1="561.5" x2="561.5" y1="324.6016" y2="1133.6797"/><line style="stroke:#696969;stroke-width:0.5;stroke-dasharray:5.0,5.0;" x1="684.5" x2="684.5" y1="725.9688" y2="1133.6797"/><line style="stroke:#696969;stroke-width:0.5;stroke-dasharray:5.0,5.0;" x1="942" x2="942" y1="764.7656" y2="1133.6797"/><line style="stroke:#696969;stroke-width:0.5;stroke-dasharray:5.0,5.0;" x1="1042" x2="1042" y1="203.875" y2="1133.6797"/><line style="stroke:#696969;stroke-width:0.5;stroke-dasharray:5.0,5.0;" x1="1323.5" x2="1323.5" y1="165.0781" y2="1133.6797"/><line style="stroke:#696969;stroke-width:0.5;stroke-dasharray:5.0,5.0;" x1="1451.5" x2="1451.5" y1="81.2969" y2="1133.6797"/><text fill="#454645" font-family="sans-serif" font-size="14" lengthAdjust="spacing" textLength="29" x="30" y="77.9951">Bob</text><ellipse cx="47.5" cy="13.5" fill="#454645" rx="8" ry="8" style="stroke:#454645;stroke-width:0.5;"/><path d="M47.5,21.5 L47.5,48.5 M34.5,29.5 L60.5,29.5 M47.5,48.5 L34.5,63.5 M47.5,48.5 L60.5,63.5 " fill="none" style="stroke:#454645;stroke-width:0.5;"/><text fill="#454645" font-family="sans-serif" font-size="14" lengthAdjust="spacing" textLength="29" x="30" y="1145.6748">Bob</text><ellipse cx="47.5" cy="1157.4766" fill="#454645" rx="8" ry="8" style="stroke:#454645;stroke-width:0.5;"/><path d="M47.5,1165.4766 L47.5,1192.4766 M34.5,1173.4766 L60.5,1173.4766 M47.5,1192.4766 L34.5,1207.4766 M47.5,1192.4766 L60.5,1207.4766 " fill="none" style="stroke:#454645;stroke-width:0.5;"/><text fill="#454645" font-family="sans-serif" font-size="14" lengthAdjust="spacing" textLength="64" x="75" y="77.9951">ClientDB</text><path d="M92,29 C92,19 110,19 110,19 C110,19 128,19 128,29 L128,55 C128,65 110,65 110,65 C110,65 92,65 92,55 L92,29 " fill="#00FFFF" style="stroke:#454645;stroke-width:1.5;"/><path d="M92,29 C92,39 110,39 110,39 C110,39 128,39 128,29 " fill="none" style="stroke:#454645;stroke-width:1.5;"/><text fill="#454645" font-family="sans-serif" font-size="14" lengthAdjust="spacing" textLength="64" x="75" y="1145.6748">ClientDB</text><path d="M92,1158.9766 C92,1148.9766 110,1148.9766 110,1148.9766 C110,1148.9766 128,1148.9766 128,1158.9766 L128,1184.9766 C128,1194.9766 110,1194.9766 110,1194.9766 C110,1194.9766 92,1194.9766 92,1184.9766 L92,1158.9766 " fill="#00FFFF" style="stroke:#454645;stroke-width:1.5;"/><path d="M92,1158.9766 C92,1168.9766 110,1168.9766 110,1168.9766 C110,1168.9766 128,1168.9766 128,1158.9766 " fill="none" style="stroke:#454645;stroke-width:1.5;"/><rect fill="#FF6347" height="30.2969" rx="3.5" ry="3.5" style="stroke:#454645;stroke-width:1.5;" width="57" x="236" y="1132.6797"/><text fill="#FFFFFF" font-family="sans-serif" font-size="14" lengthAdjust="spacing" textLength="43" x="243" y="1152.6748">Client</text><path d="M512.5,1132.6797 L610.5,1132.6797 C615.5,1132.6797 615.5,1145.8281 615.5,1145.8281 C615.5,1145.8281 615.5,1158.9766 610.5,1158.9766 L512.5,1158.9766 C507.5,1158.9766 507.5,1145.8281 507.5,1145.8281 C507.5,1145.8281 507.5,1132.6797 512.5,1132.6797 " fill="#FF6347" style="stroke:#454645;stroke-width:1.5;"/><path d="M610.5,1132.6797 C605.5,1132.6797 605.5,1145.8281 605.5,1145.8281 C605.5,1158.9766 610.5,1158.9766 610.5,1158.9766 " fill="none" style="stroke:#454645;stroke-width:1.5;"/><text fill="#FFFFFF" font-family="sans-serif" font-size="14" lengthAdjust="spacing" textLength="88" x="512.5" y="1150.6748">ClientQueue</text><path d="M630.5,1132.6797 L739.5,1132.6797 C744.5,1132.6797 744.5,1145.8281 744.5,1145.8281 C744.5,1145.8281 744.5,1158.9766 739.5,1158.9766 L630.5,1158.9766 C625.5,1158.9766 625.5,1145.8281 625.5,1145.8281 C625.5,1145.8281 625.5,1132.6797 630.5,1132.6797 " fill="#FF6347" style="stroke:#454645;stroke-width:1.5;"/><path d="M739.5,1132.6797 C734.5,1132.6797 734.5,1145.8281 734.5,1145.8281 C734.5,1158.9766 739.5,1158.9766 739.5,1158.9766 " fill="none" style="stroke:#454645;stroke-width:1.5;"/><text fill="#FFFFFF" font-family="sans-serif" font-size="14" lengthAdjust="spacing" textLength="99" x="630.5" y="1150.6748">SessionQueue</text><rect fill="#FF6347" height="30.2969" rx="3.5" ry="3.5" style="stroke:#454645;stroke-width:1.5;" width="68" x="908" y="1132.6797"/><text fill="#FFFFFF" font-family="sans-serif" font-size="14" lengthAdjust="spacing" textLength="54" x="915" y="1152.6748">Session</text><path d="M991,1132.6797 L1093,1132.6797 C1098,1132.6797 1098,1145.8281 1098,1145.8281 C1098,1145.8281 1098,1158.9766 1093,1158.9766 L991,1158.9766 C986,1158.9766 986,1145.8281 986,1145.8281 C986,1145.8281 986,1132.6797 991,1132.6797 " fill="#FF6347" style="stroke:#454645;stroke-width:1.5;"/><path d="M1093,1132.6797 C1088,1132.6797 1088,1145.8281 1088,1145.8281 C1088,1158.9766 1093,1158.9766 1093,1158.9766 " fill="none" style="stroke:#454645;stroke-width:1.5;"/><text fill="#FFFFFF" font-family="sans-serif" font-size="14" lengthAdjust="spacing" textLength="92" x="991" y="1150.6748">ServerQueue</text><rect fill="#FF6347" height="30.2969" rx="3.5" ry="3.5" style="stroke:#454645;stroke-width:1.5;" width="61" x="1293.5" y="1132.6797"/><text fill="#FFFFFF" font-family="sans-serif" font-size="14" lengthAdjust="spacing" textLength="47" x="1300.5" y="1152.6748">Server</text><text fill="#454645" font-family="sans-serif" font-size="14" lengthAdjust="spacing" textLength="68" x="1414.5" y="77.9951">ServerDB</text><path d="M1433.5,29 C1433.5,19 1451.5,19 1451.5,19 C1451.5,19 1469.5,19 1469.5,29 L1469.5,55 C1469.5,65 1451.5,65 1451.5,65 C1451.5,65 1433.5,65 1433.5,55 L1433.5,29 " fill="#00FFFF" style="stroke:#454645;stroke-width:1.5;"/><path d="M1433.5,29 C1433.5,39 1451.5,39 1451.5,39 C1451.5,39 1469.5,39 1469.5,29 " fill="none" style="stroke:#454645;stroke-width:1.5;"/><text fill="#454645" font-family="sans-serif" font-size="14" lengthAdjust="spacing" textLength="68" x="1414.5" y="1145.6748">ServerDB</text><path d="M1433.5,1158.9766 C1433.5,1148.9766 1451.5,1148.9766 1451.5,1148.9766 C1451.5,1148.9766 1469.5,1148.9766 1469.5,1158.9766 L1469.5,1184.9766 C1469.5,1194.9766 1451.5,1194.9766 1451.5,1194.9766 C1451.5,1194.9766 1433.5,1194.9766 1433.5,1184.9766 L1433.5,1158.9766 " fill="#00FFFF" style="stroke:#454645;stroke-width:1.5;"/><path d="M1433.5,1158.9766 C1433.5,1168.9766 1451.5,1168.9766 1451.5,1168.9766 C1451.5,1168.9766 1469.5,1168.9766 1469.5,1158.9766 " fill="none" style="stroke:#454645;stroke-width:1.5;"/><rect fill="#FFFFFF" height="838.3906" style="stroke:#696969;stroke-width:1.0;" width="10" x="259.5" y="286.2891"/><rect fill="#FFFFFF" height="781.0938" style="stroke:#696969;stroke-width:1.0;" width="10" x="556.5" y="327.5859"/><rect fill="#FFFFFF" height="395.7266" style="stroke:#696969;stroke-width:1.0;" width="10" x="680" y="728.9531"/><rect fill="#FFFFFF" height="359.4297" style="stroke:#696969;stroke-width:1.0;" width="10" x="937" y="765.25"/><rect fill="#FFFFFF" height="917.8203" style="stroke:#696969;stroke-width:1.0;" width="10" x="1037" y="206.8594"/><rect fill="#FFFFFF" height="959.1172" style="stroke:#696969;stroke-width:1.0;" width="10" x="1319" y="165.5625"/><rect fill="#EEEEEE" height="3" rx="3.5" ry="3.5" style="stroke:#EEEEEE;stroke-width:1.0;" width="1493.5" x="0" y="111.8633"/><line style="stroke:#454645;stroke-width:0.5;" x1="0" x2="1493.5" y1="111.8633" y2="111.8633"/><line style="stroke:#454645;stroke-width:0.5;" x1="0" x2="1493.5" y1="114.8633" y2="114.8633"/><rect fill="#EEEEEE" height="23.1328" rx="3.5" ry="3.5" style="stroke:#454645;stroke-width:1.0;" width="168" x="662.75" y="101.2969"/><text fill="#454645" font-family="sans-serif" font-size="13" font-weight="bold" lengthAdjust="spacing" textLength="149" x="668.75" y="117.3638">Server Initialization</text><ellipse cx="1354" cy="154.8125" fill="none" rx="4" ry="4" style="stroke:#454645;stroke-width:1.5;"/><polygon fill="#454645" points="1371,151.5625,1361,155.5625,1371,159.5625,1367,155.5625" style="stroke:#454645;stroke-width:1.0;"/><polygon fill="#454645" points="1439.5,151.5625,1449.5,155.5625,1439.5,159.5625,1443.5,155.5625" style="stroke:#454645;stroke-width:1.0;"/><line style="stroke:#454645;stroke-width:1.0;" x1="1369" x2="1445.5" y1="155.5625" y2="155.5625"/><text fill="#000000" font-family="sans-serif" font-size="13" font-weight="bold" lengthAdjust="spacing" textLength="9" x="1371.5" y="150.4966">1</text><text fill="#000000" font-family="sans-serif" font-size="13" lengthAdjust="spacing" textLength="60" x="1384.5" y="150.4966">load_db()</text><rect fill="#FF6347" height="30.2969" rx="3.5" ry="3.5" style="stroke:#454645;stroke-width:1.5;" width="61" x="1293.5" y="134.4297"/><text fill="#FFFFFF" font-family="sans-serif" font-size="14" lengthAdjust="spacing" textLength="47" x="1300.5" y="154.4248">Server</text><ellipse cx="1097.5" cy="196.1094" fill="none" rx="4" ry="4" style="stroke:#454645;stroke-width:1.5;"/><polygon fill="#454645" points="1114.5,192.8594,1104.5,196.8594,1114.5,200.8594,1110.5,196.8594" style="stroke:#454645;stroke-width:1.0;"/><line style="stroke:#454645;stroke-width:1.0;" x1="1112.5" x2="1318" y1="196.8594" y2="196.8594"/><text fill="#000000" font-family="sans-serif" font-size="13" font-weight="bold" lengthAdjust="spacing" textLength="9" x="1115" y="191.7935">2</text><text fill="#000000" font-family="sans-serif" font-size="13" lengthAdjust="spacing" textLength="184" x="1128" y="191.7935">msgget('server', IPC_CREAT)</text><path d="M991,175.7266 L1093,175.7266 C1098,175.7266 1098,188.875 1098,188.875 C1098,188.875 1098,202.0234 1093,202.0234 L991,202.0234 C986,202.0234 986,188.875 986,188.875 C986,188.875 986,175.7266 991,175.7266 " fill="#FF6347" style="stroke:#454645;stroke-width:1.5;"/><path d="M1093,175.7266 C1088,175.7266 1088,188.875 1088,188.875 C1088,202.0234 1093,202.0234 1093,202.0234 " fill="none" style="stroke:#454645;stroke-width:1.5;"/><text fill="#FFFFFF" font-family="sans-serif" font-size="14" lengthAdjust="spacing" textLength="92" x="991" y="193.7217">ServerQueue</text><rect fill="#EEEEEE" height="3" rx="3.5" ry="3.5" style="stroke:#EEEEEE;stroke-width:1.0;" width="1493.5" x="0" y="232.5898"/><line style="stroke:#454645;stroke-width:0.5;" x1="0" x2="1493.5" y1="232.5898" y2="232.5898"/><line style="stroke:#454645;stroke-width:0.5;" x1="0" x2="1493.5" y1="235.5898" y2="235.5898"/><rect fill="#EEEEEE" height="23.1328" rx="3.5" ry="3.5" style="stroke:#454645;stroke-width:1.0;" width="163" x="665.25" y="222.0234"/><text fill="#454645" font-family="sans-serif" font-size="13" font-weight="bold" lengthAdjust="spacing" textLength="144" x="671.25" y="238.0903">Client Initialization</text><polygon fill="#454645" points="224,272.2891,234,276.2891,224,280.2891,228,276.2891" style="stroke:#454645;stroke-width:1.0;"/><line style="stroke:#454645;stroke-width:1.0;" x1="47.5" x2="230" y1="276.2891" y2="276.2891"/><text fill="#000000" font-family="sans-serif" font-size="13" font-weight="bold" lengthAdjust="spacing" textLength="8" x="54.5" y="271.2231">3</text><text fill="#000000" font-family="sans-serif" font-size="13" lengthAdjust="spacing" textLength="136" x="66.5" y="271.2231">login(login,password)</text><rect fill="#FF6347" height="30.2969" rx="3.5" ry="3.5" style="stroke:#454645;stroke-width:1.5;" width="57" x="236" y="255.1563"/><text fill="#FFFFFF" font-family="sans-serif" font-size="14" lengthAdjust="spacing" textLength="43" x="243" y="275.1514">Client</text><polygon fill="#454645" points="495.5,313.5859,505.5,317.5859,495.5,321.5859,499.5,317.5859" style="stroke:#454645;stroke-width:1.0;"/><line style="stroke:#454645;stroke-width:1.0;" x1="269.5" x2="501.5" y1="317.5859" y2="317.5859"/><text fill="#000000" font-family="sans-serif" font-size="13" font-weight="bold" lengthAdjust="spacing" textLength="9" x="276.5" y="312.52">4</text><text fill="#000000" font-family="sans-serif" font-size="13" lengthAdjust="spacing" textLength="201" x="289.5" y="312.52">msgget(client_key, IPC_CREAT)</text><path d="M512.5,296.4531 L610.5,296.4531 C615.5,296.4531 615.5,309.6016 615.5,309.6016 C615.5,309.6016 615.5,322.75 610.5,322.75 L512.5,322.75 C507.5,322.75 507.5,309.6016 507.5,309.6016 C507.5,309.6016 507.5,296.4531 512.5,296.4531 " fill="#FF6347" style="stroke:#454645;stroke-width:1.5;"/><path d="M610.5,296.4531 C605.5,296.4531 605.5,309.6016 605.5,309.6016 C605.5,322.75 610.5,322.75 610.5,322.75 " fill="none" style="stroke:#454645;stroke-width:1.5;"/><text fill="#FFFFFF" font-family="sans-serif" font-size="14" lengthAdjust="spacing" textLength="88" x="512.5" y="314.4482">ClientQueue</text><polygon fill="#454645" points="1025,349.8828,1035,353.8828,1025,357.8828,1029,353.8828" style="stroke:#454645;stroke-width:1.0;"/><line style="stroke:#454645;stroke-width:1.0;" x1="269.5" x2="1031" y1="353.8828" y2="353.8828"/><text fill="#000000" font-family="sans-serif" font-size="13" font-weight="bold" lengthAdjust="spacing" textLength="9" x="276.5" y="348.8169">5</text><text fill="#000000" font-family="sans-serif" font-size="13" lengthAdjust="spacing" textLength="106" x="289.5" y="348.8169">msgget('server')</text><path d="M13.5,368.8828 L76,368.8828 L76,376.0156 L66,386.0156 L10,386.0156 L10,372.3828 A3.5,3.5 0 0 1 13.5,368.8828 " fill="#EEEEEE" style="stroke:#696969;stroke-width:1.5;"/><rect fill="none" height="225.5391" rx="3.5" ry="3.5" style="stroke:#696969;stroke-width:1.0;" width="1108" x="10" y="368.8828"/><text fill="#454645" font-family="sans-serif" font-size="13" font-weight="bold" lengthAdjust="spacing" textLength="21" x="25" y="381.9497">alt</text><text fill="#696969" font-family="sans-serif" font-size="11" font-weight="bold" lengthAdjust="spacing" textLength="200" x="91" y="381.0933">[Failure connection to server]</text><path d="M229.5,393.0156 L304,393.0156 L304,400.1484 L294,410.1484 L226,410.1484 L226,396.5156 A3.5,3.5 0 0 1 229.5,393.0156 " fill="#EEEEEE" style="stroke:#696969;stroke-width:1.5;"/><rect fill="none" height="46.2656" rx="3.5" ry="3.5" style="stroke:#696969;stroke-width:1.0;" width="882" x="226" y="393.0156"/><text fill="#454645" font-family="sans-serif" font-size="13" font-weight="bold" lengthAdjust="spacing" textLength="33" x="241" y="406.0825">loop</text><text fill="#696969" font-family="sans-serif" font-size="11" font-weight="bold" lengthAdjust="spacing" textLength="69" x="319" y="405.2261">[10 times]</text><polygon fill="#454645" points="1025,427.2813,1035,431.2813,1025,435.2813,1029,431.2813" style="stroke:#454645;stroke-width:1.0;"/><line style="stroke:#454645;stroke-width:1.0;" x1="269.5" x2="1031" y1="431.2813" y2="431.2813"/><text fill="#000000" font-family="sans-serif" font-size="13" font-weight="bold" lengthAdjust="spacing" textLength="9" x="276.5" y="426.2153">6</text><text fill="#000000" font-family="sans-serif" font-size="13" lengthAdjust="spacing" textLength="106" x="289.5" y="426.2153">msgget('server')</text><path d="M23.5,453.2813 L86,453.2813 L86,460.4141 L76,470.4141 L20,470.4141 L20,456.7813 A3.5,3.5 0 0 1 23.5,453.2813 " fill="#EEEEEE" style="stroke:#696969;stroke-width:1.5;"/><rect fill="none" height="90.2031" rx="3.5" ry="3.5" style="stroke:#696969;stroke-width:1.0;" width="1088" x="20" y="453.2813"/><text fill="#454645" font-family="sans-serif" font-size="13" font-weight="bold" lengthAdjust="spacing" textLength="21" x="35" y="466.3481">alt</text><text fill="#696969" font-family="sans-serif" font-size="11" font-weight="bold" lengthAdjust="spacing" textLength="55" x="101" y="465.4917">[Failure]</text><polygon fill="#454645" points="58.5,487.5469,48.5,491.5469,58.5,495.5469,54.5,491.5469" style="stroke:#454645;stroke-width:1.0;"/><line style="stroke:#454645;stroke-width:1.0;" x1="52.5" x2="258.5" y1="491.5469" y2="491.5469"/><text fill="#000000" font-family="sans-serif" font-size="13" font-weight="bold" lengthAdjust="spacing" textLength="9" x="64.5" y="486.481">7</text><text fill="#000000" font-family="sans-serif" font-size="13" lengthAdjust="spacing" textLength="166" x="77.5" y="486.481">"Server is not responding"</text><line style="stroke:#696969;stroke-width:1.0;stroke-dasharray:2.0,2.0;" x1="20" x2="1108" y1="500.5469" y2="500.5469"/><text fill="#696969" font-family="sans-serif" font-size="11" font-weight="bold" lengthAdjust="spacing" textLength="223" x="25" y="510.7573">[Sucessfull connection to server]</text><polygon fill="#454645" points="1025,531.4844,1035,535.4844,1025,539.4844,1029,535.4844" style="stroke:#454645;stroke-width:1.0;"/><line style="stroke:#454645;stroke-width:1.0;stroke-dasharray:2.0,2.0;" x1="269.5" x2="1031" y1="535.4844" y2="535.4844"/><text fill="#000000" font-family="sans-serif" font-size="13" font-weight="bold" lengthAdjust="spacing" textLength="9" x="276.5" y="530.4185">8</text><text fill="#000000" font-family="sans-serif" font-size="13" lengthAdjust="spacing" textLength="195" x="289.5" y="530.4185">msgsnd(client_id;client_seed;)</text><line style="stroke:#696969;stroke-width:1.0;stroke-dasharray:2.0,2.0;" x1="10" x2="1118" y1="551.4844" y2="551.4844"/><text fill="#696969" font-family="sans-serif" font-size="11" font-weight="bold" lengthAdjust="spacing" textLength="223" x="15" y="561.6948">[Sucessfull connection to server]</text><polygon fill="#454645" points="1025,582.4219,1035,586.4219,1025,590.4219,1029,586.4219" style="stroke:#454645;stroke-width:1.0;"/><line style="stroke:#454645;stroke-width:1.0;stroke-dasharray:2.0,2.0;" x1="269.5" x2="1031" y1="586.4219" y2="586.4219"/><text fill="#000000" font-family="sans-serif" font-size="13" font-weight="bold" lengthAdjust="spacing" textLength="9" x="276.5" y="581.356">9</text><text fill="#000000" font-family="sans-serif" font-size="13" lengthAdjust="spacing" textLength="195" x="289.5" y="581.356">msgsnd(client_id;client_seed;)</text><rect fill="#EEEEEE" height="3" rx="3.5" ry="3.5" style="stroke:#EEEEEE;stroke-width:1.0;" width="1493.5" x="0" y="621.9883"/><line style="stroke:#454645;stroke-width:0.5;" x1="0" x2="1493.5" y1="621.9883" y2="621.9883"/><line style="stroke:#454645;stroke-width:0.5;" x1="0" x2="1493.5" y1="624.9883" y2="624.9883"/><rect fill="#EEEEEE" height="23.1328" rx="3.5" ry="3.5" style="stroke:#454645;stroke-width:1.0;" width="130" x="681.75" y="611.4219"/><text fill="#454645" font-family="sans-serif" font-size="13" font-weight="bold" lengthAdjust="spacing" textLength="111" x="687.75" y="627.4888">Server Session</text><path d="M501,651.5547 L655.5,651.5547 L655.5,658.6875 L645.5,668.6875 L497.5,668.6875 L497.5,655.0547 A3.5,3.5 0 0 1 501,651.5547 " fill="#EEEEEE" style="stroke:#696969;stroke-width:1.5;"/><rect fill="none" height="211.2578" rx="3.5" ry="3.5" style="stroke:#696969;stroke-width:1.0;" width="867" x="497.5" y="651.5547"/><text fill="#454645" font-family="sans-serif" font-size="13" font-weight="bold" lengthAdjust="spacing" textLength="113" x="512.5" y="664.6216">Create session</text><polygon fill="#454645" points="1307,685.8203,1317,689.8203,1307,693.8203,1311,689.8203" style="stroke:#454645;stroke-width:1.0;"/><line style="stroke:#454645;stroke-width:1.0;stroke-dasharray:2.0,2.0;" x1="1047" x2="1313" y1="689.8203" y2="689.8203"/><text fill="#000000" font-family="sans-serif" font-size="13" font-weight="bold" lengthAdjust="spacing" textLength="19" x="1054" y="684.7544">10</text><text fill="#000000" font-family="sans-serif" font-size="13" lengthAdjust="spacing" textLength="192" x="1077" y="684.7544">msgrcv(client_id;client_seed;)</text><polygon fill="#454645" points="755.5,714.9531,745.5,718.9531,755.5,722.9531,751.5,718.9531" style="stroke:#454645;stroke-width:1.0;"/><line style="stroke:#454645;stroke-width:1.0;" x1="749.5" x2="1318" y1="718.9531" y2="718.9531"/><text fill="#000000" font-family="sans-serif" font-size="13" font-weight="bold" lengthAdjust="spacing" textLength="18" x="761.5" y="713.8872">11</text><text fill="#000000" font-family="sans-serif" font-size="13" lengthAdjust="spacing" textLength="280" x="783.5" y="713.8872">msgget(client_id;session_seed, IPC_CREAT)</text><path d="M630.5,697.8203 L739.5,697.8203 C744.5,697.8203 744.5,710.9688 744.5,710.9688 C744.5,710.9688 744.5,724.1172 739.5,724.1172 L630.5,724.1172 C625.5,724.1172 625.5,710.9688 625.5,710.9688 C625.5,710.9688 625.5,697.8203 630.5,697.8203 " fill="#FF6347" style="stroke:#454645;stroke-width:1.5;"/><path d="M739.5,697.8203 C734.5,697.8203 734.5,710.9688 734.5,710.9688 C734.5,724.1172 739.5,724.1172 739.5,724.1172 " fill="none" style="stroke:#454645;stroke-width:1.5;"/><text fill="#FFFFFF" font-family="sans-serif" font-size="14" lengthAdjust="spacing" textLength="99" x="630.5" y="715.8154">SessionQueue</text><polygon fill="#454645" points="987,751.25,977,755.25,987,759.25,983,755.25" style="stroke:#454645;stroke-width:1.0;"/><line style="stroke:#454645;stroke-width:1.0;" x1="981" x2="1318" y1="755.25" y2="755.25"/><text fill="#000000" font-family="sans-serif" font-size="13" font-weight="bold" lengthAdjust="spacing" textLength="18" x="993" y="750.1841">12</text><text fill="#000000" font-family="sans-serif" font-size="13" lengthAdjust="spacing" textLength="35" x="1015" y="750.1841">fork()</text><rect fill="#FF6347" height="30.2969" rx="3.5" ry="3.5" style="stroke:#454645;stroke-width:1.5;" width="68" x="908" y="734.1172"/><text fill="#FFFFFF" font-family="sans-serif" font-size="14" lengthAdjust="spacing" textLength="54" x="915" y="754.1123">Session</text><polygon fill="#454645" points="701,792.5469,691,796.5469,701,800.5469,697,796.5469" style="stroke:#454645;stroke-width:1.0;"/><line style="stroke:#454645;stroke-width:1.0;" x1="695" x2="936" y1="796.5469" y2="796.5469"/><text fill="#000000" font-family="sans-serif" font-size="13" font-weight="bold" lengthAdjust="spacing" textLength="17" x="707" y="791.481">13</text><text fill="#000000" font-family="sans-serif" font-size="13" lengthAdjust="spacing" textLength="202" x="728" y="791.481">msgget(client_id;session_seed)</text><polygon fill="#454645" points="577.5,821.6797,567.5,825.6797,577.5,829.6797,573.5,825.6797" style="stroke:#454645;stroke-width:1.0;"/><line style="stroke:#454645;stroke-width:1.0;" x1="571.5" x2="936" y1="825.6797" y2="825.6797"/><text fill="#000000" font-family="sans-serif" font-size="13" font-weight="bold" lengthAdjust="spacing" textLength="18" x="583.5" y="820.6138">14</text><text fill="#000000" font-family="sans-serif" font-size="13" lengthAdjust="spacing" textLength="193" x="605.5" y="820.6138">msgget(client_id;client_seed;)</text><polygon fill="#454645" points="577.5,850.8125,567.5,854.8125,577.5,858.8125,573.5,854.8125" style="stroke:#454645;stroke-width:1.0;"/><line style="stroke:#454645;stroke-width:1.0;stroke-dasharray:2.0,2.0;" x1="571.5" x2="936" y1="854.8125" y2="854.8125"/><text fill="#000000" font-family="sans-serif" font-size="13" font-weight="bold" lengthAdjust="spacing" textLength="18" x="583.5" y="849.7466">15</text><text fill="#000000" font-family="sans-serif" font-size="13" lengthAdjust="spacing" textLength="204" x="605.5" y="849.7466">msgsnd(client_id;session_seed)</text><polygon fill="#454645" points="280.5,886.9453,270.5,890.9453,280.5,894.9453,276.5,890.9453" style="stroke:#454645;stroke-width:1.0;"/><line style="stroke:#454645;stroke-width:1.0;stroke-dasharray:2.0,2.0;" x1="274.5" x2="555.5" y1="890.9453" y2="890.9453"/><text fill="#000000" font-family="sans-serif" font-size="13" font-weight="bold" lengthAdjust="spacing" textLength="18" x="286.5" y="885.8794">16</text><text fill="#000000" font-family="sans-serif" font-size="13" lengthAdjust="spacing" textLength="201" x="308.5" y="885.8794">msgrcv(client_id;session_seed)</text><polygon fill="#454645" points="668,916.0781,678,920.0781,668,924.0781,672,920.0781" style="stroke:#454645;stroke-width:1.0;"/><line style="stroke:#454645;stroke-width:1.0;" x1="269.5" x2="674" y1="920.0781" y2="920.0781"/><text fill="#000000" font-family="sans-serif" font-size="13" font-weight="bold" lengthAdjust="spacing" textLength="18" x="276.5" y="915.0122">17</text><text fill="#000000" font-family="sans-serif" font-size="13" lengthAdjust="spacing" textLength="202" x="298.5" y="915.0122">msgget(client_id;session_seed)</text><path d="M13.5,935.0781 L76,935.0781 L76,942.2109 L66,952.2109 L10,952.2109 L10,938.5781 A3.5,3.5 0 0 1 13.5,935.0781 " fill="#EEEEEE" style="stroke:#696969;stroke-width:1.5;"/><rect fill="none" height="181.6016" rx="3.5" ry="3.5" style="stroke:#696969;stroke-width:1.0;" width="754.5" x="10" y="935.0781"/><text fill="#454645" font-family="sans-serif" font-size="13" font-weight="bold" lengthAdjust="spacing" textLength="21" x="25" y="948.145">alt</text><text fill="#696969" font-family="sans-serif" font-size="11" font-weight="bold" lengthAdjust="spacing" textLength="208" x="91" y="947.2886">[Failure connection to session]</text><path d="M229.5,959.2109 L304,959.2109 L304,966.3438 L294,976.3438 L226,976.3438 L226,962.7109 A3.5,3.5 0 0 1 229.5,959.2109 " fill="#EEEEEE" style="stroke:#696969;stroke-width:1.5;"/><rect fill="none" height="46.2656" rx="3.5" ry="3.5" style="stroke:#696969;stroke-width:1.0;" width="528.5" x="226" y="959.2109"/><text fill="#454645" font-family="sans-serif" font-size="13" font-weight="bold" lengthAdjust="spacing" textLength="33" x="241" y="972.2778">loop</text><text fill="#696969" font-family="sans-serif" font-size="11" font-weight="bold" lengthAdjust="spacing" textLength="69" x="319" y="971.4214">[10 times]</text><polygon fill="#454645" points="668,993.4766,678,997.4766,668,1001.4766,672,997.4766" style="stroke:#454645;stroke-width:1.0;"/><line style="stroke:#454645;stroke-width:1.0;" x1="269.5" x2="674" y1="997.4766" y2="997.4766"/><text fill="#000000" font-family="sans-serif" font-size="13" font-weight="bold" lengthAdjust="spacing" textLength="18" x="276.5" y="992.4106">18</text><text fill="#000000" font-family="sans-serif" font-size="13" lengthAdjust="spacing" textLength="202" x="298.5" y="992.4106">msgget(client_id;session_seed)</text><path d="M23.5,1019.4766 L86,1019.4766 L86,1026.6094 L76,1036.6094 L20,1036.6094 L20,1022.9766 A3.5,3.5 0 0 1 23.5,1019.4766 " fill="#EEEEEE" style="stroke:#696969;stroke-width:1.5;"/><rect fill="none" height="46.2656" rx="3.5" ry="3.5" style="stroke:#696969;stroke-width:1.0;" width="283" x="20" y="1019.4766"/><text fill="#454645" font-family="sans-serif" font-size="13" font-weight="bold" lengthAdjust="spacing" textLength="21" x="35" y="1032.5435">alt</text><text fill="#696969" font-family="sans-serif" font-size="11" font-weight="bold" lengthAdjust="spacing" textLength="55" x="101" y="1031.687">[Failure]</text><polygon fill="#454645" points="58.5,1053.7422,48.5,1057.7422,58.5,1061.7422,54.5,1057.7422" style="stroke:#454645;stroke-width:1.0;"/><line style="stroke:#454645;stroke-width:1.0;" x1="52.5" x2="258.5" y1="1057.7422" y2="1057.7422"/><text fill="#000000" font-family="sans-serif" font-size="13" font-weight="bold" lengthAdjust="spacing" textLength="18" x="64.5" y="1052.6763">19</text><text fill="#000000" font-family="sans-serif" font-size="13" lengthAdjust="spacing" textLength="166" x="86.5" y="1052.6763">"Server is not responding"</text><line style="stroke:#696969;stroke-width:1.0;stroke-dasharray:2.0,2.0;" x1="10" x2="764.5" y1="1073.7422" y2="1073.7422"/><text fill="#696969" font-family="sans-serif" font-size="11" font-weight="bold" lengthAdjust="spacing" textLength="231" x="15" y="1083.9526">[Sucessfull connection to session]</text><polygon fill="#454645" points="549.5,1104.6797,559.5,1108.6797,549.5,1112.6797,553.5,1108.6797" style="stroke:#454645;stroke-width:1.0;"/><line style="stroke:#454645;stroke-width:1.0;" x1="269.5" x2="555.5" y1="1108.6797" y2="1108.6797"/><text fill="#000000" font-family="sans-serif" font-size="13" font-weight="bold" lengthAdjust="spacing" textLength="19" x="276.5" y="1103.6138">20</text><text fill="#000000" font-family="sans-serif" font-size="13" lengthAdjust="spacing" textLength="184" x="299.5" y="1103.6138">msgctl(client_key, IPC_RMID)</text><line style="stroke:#696969;stroke-width:2.0;" x1="552.5" x2="570.5" y1="1099.6797" y2="1117.6797"/><line style="stroke:#696969;stroke-width:2.0;" x1="552.5" x2="570.5" y1="1117.6797" y2="1099.6797"/><!--SRC=[jLJ1Rjim3BthAxXUaW9jaspT9LqAhEa6v31WQxTpeDYC8rIMN4bErttzP4csvSJBaW7pmHOeyZsIVkGRiy4SOSjMYWe3QoLps1XJwEbefEZBLSRCfboL6bKYXK5XhXAPZmfkdSkSjuUSQeDgvD0q8JGnKi6TN07LyCD6WrIfVKz8IWrTKOqmvyp2tTzL7itPUxrjlHvHRL5vh-RilTwDBKzff2Zp5If2PhFW0Gl13AES_QA6IG6p6HdKLwnpHHA5rDGiDVjxqZ1zkBoLzUqKkAJfCbqDpwlwsBQDh76UIonhspTt3f3N0H9QF7y_XLnd6PhXG3lhu08MN-VB-SEdZz_tQ5o8AzGthBVGSDLVQBWC3IJkprpUrkQgmeo9eNjV55Jh5-iPfU7zkjLwMrpjDGbu3V9EhOapBf_mjR_QA2Y2EjWs6yqDVAQCbmh1QbLWudfY97WN0lRXKXOm6ODXbKmXF4TpLCueKlUD-7g0N6UdS5RBJeEG1XJgGegKYUoiYHdWJsQ05eL7vvNeomIrNfUS_xcIcAulSItIkiyilGadZPZUj6KSJVQlH1L9F9YFbcbt8XKcoBQemOU2LGLGaO8NcRPfk1YIALaMCFVIgurLSd56ROO-EPLi3tPXPsuTQ6Tmnn655qZaiojeIn4ISnmTSJl9jEFSeiHvrFq9v9D-Sikxbkffs0yQOhpdYHcVxmOV6j_UXZQnVS5TgNI9AwaqowlHHF1fHA4DLQOrLoQ5kOpaynnjZLOJpOBRqqGtYtWJdDAsGykd_Ij_tpwd_gh_l8oEs15jTGUMVcButj9_-BAuzqMag8sIhvsrRwb_0m00]--></g></svg>