<?xml version="1.0" encoding="UTF-8" standalone="no"?><svg xmlns="http://www.w3.org/2000/svg" xmlns:xlink="http://www.w3.org/1999/xlink" contentStyleType="text/css" height="182px" preserveAspectRatio="none" style="width:597px;height:182px;background:#FFFFFF;" version="1.1" viewBox="0 0 597 182" width="597px" zoomAndPan="magnify"><defs/><g><line style="stroke:#696969;stroke-width:0.5;stroke-dasharray:5.0,5.0;" x1="22" x2="22" y1="81.2969" y2="101.2969"/><line style="stroke:#696969;stroke-width:0.5;stroke-dasharray:5.0,5.0;" x1="87" x2="87" y1="81.2969" y2="101.2969"/><line style="stroke:#696969;stroke-width:0.5;stroke-dasharray:5.0,5.0;" x1="164" x2="164" y1="81.2969" y2="101.2969"/><line style="stroke:#696969;stroke-width:0.5;stroke-dasharray:5.0,5.0;" x1="261" x2="261" y1="81.2969" y2="101.2969"/><line style="stroke:#696969;stroke-width:0.5;stroke-dasharray:5.0,5.0;" x1="355" x2="355" y1="81.2969" y2="101.2969"/><line style="stroke:#696969;stroke-width:0.5;stroke-dasharray:5.0,5.0;" x1="453" x2="453" y1="81.2969" y2="101.2969"/><line style="stroke:#696969;stroke-width:0.5;stroke-dasharray:5.0,5.0;" x1="557" x2="557" y1="81.2969" y2="101.2969"/><text fill="#454645" font-family="sans-serif" font-size="14" lengthAdjust="spacing" textLength="29" x="5" y="77.9951">Bob</text><ellipse cx="22.5" cy="13.5" fill="#454645" rx="8" ry="8" style="stroke:#454645;stroke-width:0.5;"/><path d="M22.5,21.5 L22.5,48.5 M9.5,29.5 L35.5,29.5 M22.5,48.5 L9.5,63.5 M22.5,48.5 L35.5,63.5 " fill="none" style="stroke:#454645;stroke-width:0.5;"/><text fill="#454645" font-family="sans-serif" font-size="14" lengthAdjust="spacing" textLength="29" x="5" y="113.292">Bob</text><ellipse cx="22.5" cy="125.0938" fill="#454645" rx="8" ry="8" style="stroke:#454645;stroke-width:0.5;"/><path d="M22.5,133.0938 L22.5,160.0938 M9.5,141.0938 L35.5,141.0938 M22.5,160.0938 L9.5,175.0938 M22.5,160.0938 L35.5,175.0938 " fill="none" style="stroke:#454645;stroke-width:0.5;"/><text fill="#454645" font-family="sans-serif" font-size="14" lengthAdjust="spacing" textLength="68" x="50" y="77.9951">ServerDB</text><path d="M69,29 C69,19 87,19 87,19 C87,19 105,19 105,29 L105,55 C105,65 87,65 87,65 C87,65 69,65 69,55 L69,29 " fill="#00FFFF" style="stroke:#454645;stroke-width:1.5;"/><path d="M69,29 C69,39 87,39 87,39 C87,39 105,39 105,29 " fill="none" style="stroke:#454645;stroke-width:1.5;"/><text fill="#454645" font-family="sans-serif" font-size="14" lengthAdjust="spacing" textLength="68" x="50" y="113.292">ServerDB</text><path d="M69,126.5938 C69,116.5938 87,116.5938 87,116.5938 C87,116.5938 105,116.5938 105,126.5938 L105,152.5938 C105,162.5938 87,162.5938 87,162.5938 C87,162.5938 69,162.5938 69,152.5938 L69,126.5938 " fill="#00FFFF" style="stroke:#454645;stroke-width:1.5;"/><path d="M69,126.5938 C69,136.5938 87,136.5938 87,136.5938 C87,136.5938 105,136.5938 105,126.5938 " fill="none" style="stroke:#454645;stroke-width:1.5;"/><rect fill="#FF6347" height="30.2969" rx="3.5" ry="3.5" style="stroke:#454645;stroke-width:1.5;" width="61" x="134" y="50"/><text fill="#FFFFFF" font-family="sans-serif" font-size="14" lengthAdjust="spacing" textLength="47" x="141" y="69.9951">Server</text><rect fill="#FF6347" height="30.2969" rx="3.5" ry="3.5" style="stroke:#454645;stroke-width:1.5;" width="61" x="134" y="100.2969"/><text fill="#FFFFFF" font-family="sans-serif" font-size="14" lengthAdjust="spacing" textLength="47" x="141" y="120.292">Server</text><path d="M210,55 L312,55 C317,55 317,68.1484 317,68.1484 C317,68.1484 317,81.2969 312,81.2969 L210,81.2969 C205,81.2969 205,68.1484 205,68.1484 C205,68.1484 205,55 210,55 " fill="#FF6347" style="stroke:#454645;stroke-width:1.5;"/><path d="M312,55 C307,55 307,68.1484 307,68.1484 C307,81.2969 312,81.2969 312,81.2969 " fill="none" style="stroke:#454645;stroke-width:1.5;"/><text fill="#FFFFFF" font-family="sans-serif" font-size="14" lengthAdjust="spacing" textLength="92" x="210" y="72.9951">ServerQueue</text><path d="M210,100.2969 L312,100.2969 C317,100.2969 317,113.4453 317,113.4453 C317,113.4453 317,126.5938 312,126.5938 L210,126.5938 C205,126.5938 205,113.4453 205,113.4453 C205,113.4453 205,100.2969 210,100.2969 " fill="#FF6347" style="stroke:#454645;stroke-width:1.5;"/><path d="M312,100.2969 C307,100.2969 307,113.4453 307,113.4453 C307,126.5938 312,126.5938 312,126.5938 " fill="none" style="stroke:#454645;stroke-width:1.5;"/><text fill="#FFFFFF" font-family="sans-serif" font-size="14" lengthAdjust="spacing" textLength="92" x="210" y="118.292">ServerQueue</text><rect fill="#FF6347" height="30.2969" rx="3.5" ry="3.5" style="stroke:#454645;stroke-width:1.5;" width="57" x="327" y="50"/><text fill="#FFFFFF" font-family="sans-serif" font-size="14" lengthAdjust="spacing" textLength="43" x="334" y="69.9951">Client</text><rect fill="#FF6347" height="30.2969" rx="3.5" ry="3.5" style="stroke:#454645;stroke-width:1.5;" width="57" x="327" y="100.2969"/><text fill="#FFFFFF" font-family="sans-serif" font-size="14" lengthAdjust="spacing" textLength="43" x="334" y="120.292">Client</text><path d="M399,55 L508,55 C513,55 513,68.1484 513,68.1484 C513,68.1484 513,81.2969 508,81.2969 L399,81.2969 C394,81.2969 394,68.1484 394,68.1484 C394,68.1484 394,55 399,55 " fill="#FF6347" style="stroke:#454645;stroke-width:1.5;"/><path d="M508,55 C503,55 503,68.1484 503,68.1484 C503,81.2969 508,81.2969 508,81.2969 " fill="none" style="stroke:#454645;stroke-width:1.5;"/><text fill="#FFFFFF" font-family="sans-serif" font-size="14" lengthAdjust="spacing" textLength="99" x="399" y="72.9951">SessionQueue</text><path d="M399,100.2969 L508,100.2969 C513,100.2969 513,113.4453 513,113.4453 C513,113.4453 513,126.5938 508,126.5938 L399,126.5938 C394,126.5938 394,113.4453 394,113.4453 C394,113.4453 394,100.2969 399,100.2969 " fill="#FF6347" style="stroke:#454645;stroke-width:1.5;"/><path d="M508,100.2969 C503,100.2969 503,113.4453 503,113.4453 C503,126.5938 508,126.5938 508,126.5938 " fill="none" style="stroke:#454645;stroke-width:1.5;"/><text fill="#FFFFFF" font-family="sans-serif" font-size="14" lengthAdjust="spacing" textLength="99" x="399" y="118.292">SessionQueue</text><rect fill="#FF6347" height="30.2969" rx="3.5" ry="3.5" style="stroke:#454645;stroke-width:1.5;" width="68" x="523" y="50"/><text fill="#FFFFFF" font-family="sans-serif" font-size="14" lengthAdjust="spacing" textLength="54" x="530" y="69.9951">Session</text><rect fill="#FF6347" height="30.2969" rx="3.5" ry="3.5" style="stroke:#454645;stroke-width:1.5;" width="68" x="523" y="100.2969"/><text fill="#FFFFFF" font-family="sans-serif" font-size="14" lengthAdjust="spacing" textLength="54" x="530" y="120.292">Session</text><!--SRC=[PSvB3i8m30JGVKuHBj3iMHOkW107S8AXaPeu-DDUdnPK468tifz6izC12_efHuQg_iPK_A3QP1y2mzpTimuMJP0JLSMgNQ8IshXWA-Ct51153gysSM1ArKf4TWwI4lkUeWVnbwN8NK4XWg0_8q_8nzurOCqfjtN2- -WUXhQ9qvf_q67CovOF4ibK_zNsUG80]--></g></svg>