<?xml version="1.0" encoding="UTF-8" standalone="no"?><svg xmlns="http://www.w3.org/2000/svg" xmlns:xlink="http://www.w3.org/1999/xlink" contentStyleType="text/css" height="713px" preserveAspectRatio="none" style="width:1039px;height:713px;background:#FFFFFF;" version="1.1" viewBox="0 0 1039 713" width="1039px" zoomAndPan="magnify"><defs/><g><rect fill="#FFFFFF" height="523.125" style="stroke:#696969;stroke-width:1.0;" width="10" x="92.5" y="91.2969"/><rect fill="#FFFFFF" height="380.5938" style="stroke:#696969;stroke-width:1.0;" width="10" x="250.5" y="91.2969"/><rect fill="#FFFFFF" height="415.7266" style="stroke:#696969;stroke-width:1.0;" width="10" x="488.5" y="91.2969"/><rect fill="#FFFFFF" height="532.125" style="stroke:#696969;stroke-width:1.0;" width="10" x="618.5" y="91.2969"/><rect fill="#FFFFFF" height="532.125" style="stroke:#696969;stroke-width:1.0;" width="10" x="748.5" y="91.2969"/><line style="stroke:#696969;stroke-width:0.5;stroke-dasharray:5.0,5.0;" x1="22" x2="22" y1="81.2969" y2="632.4219"/><line style="stroke:#696969;stroke-width:0.5;stroke-dasharray:5.0,5.0;" x1="97" x2="97" y1="81.2969" y2="632.4219"/><line style="stroke:#696969;stroke-width:0.5;stroke-dasharray:5.0,5.0;" x1="255" x2="255" y1="81.2969" y2="632.4219"/><line style="stroke:#696969;stroke-width:0.5;stroke-dasharray:5.0,5.0;" x1="493.5" x2="493.5" y1="81.2969" y2="632.4219"/><line style="stroke:#696969;stroke-width:0.5;stroke-dasharray:5.0,5.0;" x1="623.5" x2="623.5" y1="81.2969" y2="632.4219"/><line style="stroke:#696969;stroke-width:0.5;stroke-dasharray:5.0,5.0;" x1="753" x2="753" y1="81.2969" y2="632.4219"/><line style="stroke:#696969;stroke-width:0.5;stroke-dasharray:5.0,5.0;" x1="1001.5" x2="1001.5" y1="81.2969" y2="632.4219"/><text fill="#454645" font-family="sans-serif" font-size="14" lengthAdjust="spacing" textLength="29" x="5" y="77.9951">Bob</text><ellipse cx="22.5" cy="13.5" fill="#454645" rx="8" ry="8" style="stroke:#454645;stroke-width:0.5;"/><path d="M22.5,21.5 L22.5,48.5 M9.5,29.5 L35.5,29.5 M22.5,48.5 L9.5,63.5 M22.5,48.5 L35.5,63.5 " fill="none" style="stroke:#454645;stroke-width:0.5;"/><text fill="#454645" font-family="sans-serif" font-size="14" lengthAdjust="spacing" textLength="29" x="5" y="644.417">Bob</text><ellipse cx="22.5" cy="656.2188" fill="#454645" rx="8" ry="8" style="stroke:#454645;stroke-width:0.5;"/><path d="M22.5,664.2188 L22.5,691.2188 M9.5,672.2188 L35.5,672.2188 M22.5,691.2188 L9.5,706.2188 M22.5,691.2188 L35.5,706.2188 " fill="none" style="stroke:#454645;stroke-width:0.5;"/><rect fill="#FF6347" height="30.2969" rx="3.5" ry="3.5" style="stroke:#454645;stroke-width:1.5;" width="57" x="69" y="50"/><text fill="#FFFFFF" font-family="sans-serif" font-size="14" lengthAdjust="spacing" textLength="43" x="76" y="69.9951">Client</text><rect fill="#FF6347" height="30.2969" rx="3.5" ry="3.5" style="stroke:#454645;stroke-width:1.5;" width="57" x="69" y="631.4219"/><text fill="#FFFFFF" font-family="sans-serif" font-size="14" lengthAdjust="spacing" textLength="43" x="76" y="651.417">Client</text><path d="M201,55 L310,55 C315,55 315,68.1484 315,68.1484 C315,68.1484 315,81.2969 310,81.2969 L201,81.2969 C196,81.2969 196,68.1484 196,68.1484 C196,68.1484 196,55 201,55 " fill="#FF6347" style="stroke:#454645;stroke-width:1.5;"/><path d="M310,55 C305,55 305,68.1484 305,68.1484 C305,81.2969 310,81.2969 310,81.2969 " fill="none" style="stroke:#454645;stroke-width:1.5;"/><text fill="#FFFFFF" font-family="sans-serif" font-size="14" lengthAdjust="spacing" textLength="99" x="201" y="72.9951">SessionQueue</text><path d="M201,631.4219 L310,631.4219 C315,631.4219 315,644.5703 315,644.5703 C315,644.5703 315,657.7188 310,657.7188 L201,657.7188 C196,657.7188 196,644.5703 196,644.5703 C196,644.5703 196,631.4219 201,631.4219 " fill="#FF6347" style="stroke:#454645;stroke-width:1.5;"/><path d="M310,631.4219 C305,631.4219 305,644.5703 305,644.5703 C305,657.7188 310,657.7188 310,657.7188 " fill="none" style="stroke:#454645;stroke-width:1.5;"/><text fill="#FFFFFF" font-family="sans-serif" font-size="14" lengthAdjust="spacing" textLength="99" x="201" y="649.417">SessionQueue</text><rect fill="#FF6347" height="30.2969" rx="3.5" ry="3.5" style="stroke:#454645;stroke-width:1.5;" width="68" x="459.5" y="50"/><text fill="#FFFFFF" font-family="sans-serif" font-size="14" lengthAdjust="spacing" textLength="54" x="466.5" y="69.9951">Session</text><rect fill="#FF6347" height="30.2969" rx="3.5" ry="3.5" style="stroke:#454645;stroke-width:1.5;" width="68" x="459.5" y="631.4219"/><text fill="#FFFFFF" font-family="sans-serif" font-size="14" lengthAdjust="spacing" textLength="54" x="466.5" y="651.417">Session</text><path d="M572.5,55 L674.5,55 C679.5,55 679.5,68.1484 679.5,68.1484 C679.5,68.1484 679.5,81.2969 674.5,81.2969 L572.5,81.2969 C567.5,81.2969 567.5,68.1484 567.5,68.1484 C567.5,68.1484 567.5,55 572.5,55 " fill="#FF6347" style="stroke:#454645;stroke-width:1.5;"/><path d="M674.5,55 C669.5,55 669.5,68.1484 669.5,68.1484 C669.5,81.2969 674.5,81.2969 674.5,81.2969 " fill="none" style="stroke:#454645;stroke-width:1.5;"/><text fill="#FFFFFF" font-family="sans-serif" font-size="14" lengthAdjust="spacing" textLength="92" x="572.5" y="72.9951">ServerQueue</text><path d="M572.5,631.4219 L674.5,631.4219 C679.5,631.4219 679.5,644.5703 679.5,644.5703 C679.5,644.5703 679.5,657.7188 674.5,657.7188 L572.5,657.7188 C567.5,657.7188 567.5,644.5703 567.5,644.5703 C567.5,644.5703 567.5,631.4219 572.5,631.4219 " fill="#FF6347" style="stroke:#454645;stroke-width:1.5;"/><path d="M674.5,631.4219 C669.5,631.4219 669.5,644.5703 669.5,644.5703 C669.5,657.7188 674.5,657.7188 674.5,657.7188 " fill="none" style="stroke:#454645;stroke-width:1.5;"/><text fill="#FFFFFF" font-family="sans-serif" font-size="14" lengthAdjust="spacing" textLength="92" x="572.5" y="649.417">ServerQueue</text><rect fill="#FF6347" height="30.2969" rx="3.5" ry="3.5" style="stroke:#454645;stroke-width:1.5;" width="61" x="723" y="50"/><text fill="#FFFFFF" font-family="sans-serif" font-size="14" lengthAdjust="spacing" textLength="47" x="730" y="69.9951">Server</text><rect fill="#FF6347" height="30.2969" rx="3.5" ry="3.5" style="stroke:#454645;stroke-width:1.5;" width="61" x="723" y="631.4219"/><text fill="#FFFFFF" font-family="sans-serif" font-size="14" lengthAdjust="spacing" textLength="47" x="730" y="651.417">Server</text><text fill="#454645" font-family="sans-serif" font-size="14" lengthAdjust="spacing" textLength="68" x="964.5" y="77.9951">ServerDB</text><path d="M983.5,29 C983.5,19 1001.5,19 1001.5,19 C1001.5,19 1019.5,19 1019.5,29 L1019.5,55 C1019.5,65 1001.5,65 1001.5,65 C1001.5,65 983.5,65 983.5,55 L983.5,29 " fill="#00FFFF" style="stroke:#454645;stroke-width:1.5;"/><path d="M983.5,29 C983.5,39 1001.5,39 1001.5,39 C1001.5,39 1019.5,39 1019.5,29 " fill="none" style="stroke:#454645;stroke-width:1.5;"/><text fill="#454645" font-family="sans-serif" font-size="14" lengthAdjust="spacing" textLength="68" x="964.5" y="644.417">ServerDB</text><path d="M983.5,657.7188 C983.5,647.7188 1001.5,647.7188 1001.5,647.7188 C1001.5,647.7188 1019.5,647.7188 1019.5,657.7188 L1019.5,683.7188 C1019.5,693.7188 1001.5,693.7188 1001.5,693.7188 C1001.5,693.7188 983.5,693.7188 983.5,683.7188 L983.5,657.7188 " fill="#00FFFF" style="stroke:#454645;stroke-width:1.5;"/><path d="M983.5,657.7188 C983.5,667.7188 1001.5,667.7188 1001.5,667.7188 C1001.5,667.7188 1019.5,667.7188 1019.5,657.7188 " fill="none" style="stroke:#454645;stroke-width:1.5;"/><rect fill="#FFFFFF" height="523.125" style="stroke:#696969;stroke-width:1.0;" width="10" x="92.5" y="91.2969"/><rect fill="#FFFFFF" height="380.5938" style="stroke:#696969;stroke-width:1.0;" width="10" x="250.5" y="91.2969"/><rect fill="#FFFFFF" height="415.7266" style="stroke:#696969;stroke-width:1.0;" width="10" x="488.5" y="91.2969"/><rect fill="#FFFFFF" height="532.125" style="stroke:#696969;stroke-width:1.0;" width="10" x="618.5" y="91.2969"/><rect fill="#FFFFFF" height="532.125" style="stroke:#696969;stroke-width:1.0;" width="10" x="748.5" y="91.2969"/><polygon fill="#454645" points="80.5,108.4297,90.5,112.4297,80.5,116.4297,84.5,112.4297" style="stroke:#454645;stroke-width:1.0;"/><line style="stroke:#454645;stroke-width:1.0;" x1="22.5" x2="86.5" y1="112.4297" y2="112.4297"/><text fill="#000000" font-family="sans-serif" font-size="13" font-weight="bold" lengthAdjust="spacing" textLength="9" x="29.5" y="107.3638">1</text><text fill="#000000" font-family="sans-serif" font-size="13" lengthAdjust="spacing" textLength="24" x="42.5" y="107.3638">exit</text><polygon fill="#454645" points="238.5,137.5625,248.5,141.5625,238.5,145.5625,242.5,141.5625" style="stroke:#454645;stroke-width:1.0;"/><line style="stroke:#454645;stroke-width:1.0;" x1="102.5" x2="244.5" y1="141.5625" y2="141.5625"/><text fill="#000000" font-family="sans-serif" font-size="13" font-weight="bold" lengthAdjust="spacing" textLength="9" x="109.5" y="136.4966">2</text><text fill="#000000" font-family="sans-serif" font-size="13" lengthAdjust="spacing" textLength="40" x="122.5" y="136.4966">logout</text><line style="stroke:#454645;stroke-width:1.0;" x1="102.5" x2="144.5" y1="170.6953" y2="170.6953"/><line style="stroke:#454645;stroke-width:1.0;" x1="144.5" x2="144.5" y1="170.6953" y2="183.6953"/><line style="stroke:#454645;stroke-width:1.0;" x1="103.5" x2="144.5" y1="183.6953" y2="183.6953"/><polygon fill="#454645" points="113.5,179.6953,103.5,183.6953,113.5,187.6953,109.5,183.6953" style="stroke:#454645;stroke-width:1.0;"/><text fill="#000000" font-family="sans-serif" font-size="13" font-weight="bold" lengthAdjust="spacing" textLength="8" x="109.5" y="165.6294">3</text><text fill="#000000" font-family="sans-serif" font-size="13" lengthAdjust="spacing" textLength="98" x="121.5" y="165.6294">status = offline</text><polygon fill="#454645" points="476.5,208.8281,486.5,212.8281,476.5,216.8281,480.5,212.8281" style="stroke:#454645;stroke-width:1.0;"/><line style="stroke:#454645;stroke-width:1.0;" x1="260.5" x2="482.5" y1="212.8281" y2="212.8281"/><text fill="#000000" font-family="sans-serif" font-size="13" font-weight="bold" lengthAdjust="spacing" textLength="9" x="267.5" y="207.7622">4</text><text fill="#000000" font-family="sans-serif" font-size="13" lengthAdjust="spacing" textLength="24" x="280.5" y="207.7622">exit</text><polygon fill="#454645" points="606.5,237.9609,616.5,241.9609,606.5,245.9609,610.5,241.9609" style="stroke:#454645;stroke-width:1.0;"/><line style="stroke:#454645;stroke-width:1.0;" x1="498.5" x2="612.5" y1="241.9609" y2="241.9609"/><text fill="#000000" font-family="sans-serif" font-size="13" font-weight="bold" lengthAdjust="spacing" textLength="9" x="505.5" y="236.895">5</text><text fill="#000000" font-family="sans-serif" font-size="13" lengthAdjust="spacing" textLength="83" x="518.5" y="236.895">exit(ClientID)</text><polygon fill="#454645" points="736.5,267.0938,746.5,271.0938,736.5,275.0938,740.5,271.0938" style="stroke:#454645;stroke-width:1.0;"/><line style="stroke:#454645;stroke-width:1.0;" x1="628.5" x2="742.5" y1="271.0938" y2="271.0938"/><text fill="#000000" font-family="sans-serif" font-size="13" font-weight="bold" lengthAdjust="spacing" textLength="9" x="635.5" y="266.0278">6</text><text fill="#000000" font-family="sans-serif" font-size="13" lengthAdjust="spacing" textLength="83" x="648.5" y="266.0278">exit(ClientID)</text><line style="stroke:#454645;stroke-width:1.0;" x1="758.5" x2="800.5" y1="300.2266" y2="300.2266"/><line style="stroke:#454645;stroke-width:1.0;" x1="800.5" x2="800.5" y1="300.2266" y2="313.2266"/><line style="stroke:#454645;stroke-width:1.0;" x1="759.5" x2="800.5" y1="313.2266" y2="313.2266"/><polygon fill="#454645" points="769.5,309.2266,759.5,313.2266,769.5,317.2266,765.5,313.2266" style="stroke:#454645;stroke-width:1.0;"/><text fill="#000000" font-family="sans-serif" font-size="13" font-weight="bold" lengthAdjust="spacing" textLength="9" x="765.5" y="295.1606">7</text><text fill="#000000" font-family="sans-serif" font-size="13" lengthAdjust="spacing" textLength="157" x="778.5" y="295.1606">status(ClientID) = offline</text><polygon fill="#454645" points="989.5,338.3594,999.5,342.3594,989.5,346.3594,993.5,342.3594" style="stroke:#454645;stroke-width:1.0;"/><line style="stroke:#454645;stroke-width:1.0;" x1="758.5" x2="995.5" y1="342.3594" y2="342.3594"/><text fill="#000000" font-family="sans-serif" font-size="13" font-weight="bold" lengthAdjust="spacing" textLength="9" x="765.5" y="337.2935">8</text><text fill="#000000" font-family="sans-serif" font-size="13" lengthAdjust="spacing" textLength="206" x="778.5" y="337.2935">update status(ClientID) = offline</text><polygon fill="#454645" points="271.5,367.4922,261.5,371.4922,271.5,375.4922,267.5,371.4922" style="stroke:#454645;stroke-width:1.0;"/><line style="stroke:#454645;stroke-width:1.0;" x1="265.5" x2="747.5" y1="371.4922" y2="371.4922"/><text fill="#000000" font-family="sans-serif" font-size="13" font-weight="bold" lengthAdjust="spacing" textLength="9" x="277.5" y="366.4263">9</text><text fill="#000000" font-family="sans-serif" font-size="13" lengthAdjust="spacing" textLength="43" x="290.5" y="366.4263">close()</text><line style="stroke:#454645;stroke-width:1.0;" x1="758.5" x2="800.5" y1="400.625" y2="400.625"/><line style="stroke:#454645;stroke-width:1.0;" x1="800.5" x2="800.5" y1="400.625" y2="413.625"/><line style="stroke:#454645;stroke-width:1.0;" x1="759.5" x2="800.5" y1="413.625" y2="413.625"/><polygon fill="#454645" points="769.5,409.625,759.5,413.625,769.5,417.625,765.5,413.625" style="stroke:#454645;stroke-width:1.0;"/><text fill="#000000" font-family="sans-serif" font-size="13" font-weight="bold" lengthAdjust="spacing" textLength="19" x="765.5" y="395.5591">10</text><text fill="#000000" font-family="sans-serif" font-size="13" lengthAdjust="spacing" textLength="170" x="788.5" y="395.5591">update destroy(SessionID)</text><polygon fill="#454645" points="476.5,438.7578,486.5,442.7578,476.5,446.7578,480.5,442.7578" style="stroke:#454645;stroke-width:1.0;"/><line style="stroke:#454645;stroke-width:1.0;" x1="260.5" x2="482.5" y1="442.7578" y2="442.7578"/><text fill="#000000" font-family="sans-serif" font-size="13" font-weight="bold" lengthAdjust="spacing" textLength="18" x="267.5" y="437.6919">11</text><text fill="#000000" font-family="sans-serif" font-size="13" lengthAdjust="spacing" textLength="43" x="289.5" y="437.6919">close()</text><line style="stroke:#454645;stroke-width:2.0;" x1="262.5" x2="272.5" y1="466.8906" y2="476.8906"/><line style="stroke:#454645;stroke-width:2.0;" x1="262.5" x2="272.5" y1="476.8906" y2="466.8906"/><line style="stroke:#454645;stroke-width:1.0;" x1="267.5" x2="487.5" y1="471.8906" y2="471.8906"/><text fill="#000000" font-family="sans-serif" font-size="13" font-weight="bold" lengthAdjust="spacing" textLength="18" x="272.5" y="466.8247">12</text><text fill="#000000" font-family="sans-serif" font-size="13" lengthAdjust="spacing" textLength="182" x="294.5" y="466.8247">msgctl(SessionID, IPC_RMID)</text><line style="stroke:#696969;stroke-width:2.0;" x1="246.5" x2="264.5" y1="462.8906" y2="480.8906"/><line style="stroke:#696969;stroke-width:2.0;" x1="246.5" x2="264.5" y1="480.8906" y2="462.8906"/><line style="stroke:#454645;stroke-width:1.0;" x1="498.5" x2="540.5" y1="501.0234" y2="501.0234"/><line style="stroke:#454645;stroke-width:1.0;" x1="540.5" x2="540.5" y1="501.0234" y2="514.0234"/><line style="stroke:#454645;stroke-width:1.0;" x1="511.5" x2="540.5" y1="514.0234" y2="514.0234"/><line style="stroke:#454645;stroke-width:2.0;" x1="504.5" x2="514.5" y1="509.0234" y2="519.0234"/><line style="stroke:#454645;stroke-width:2.0;" x1="504.5" x2="514.5" y1="519.0234" y2="509.0234"/><text fill="#000000" font-family="sans-serif" font-size="13" font-weight="bold" lengthAdjust="spacing" textLength="17" x="505.5" y="495.9575">13</text><text fill="#000000" font-family="sans-serif" font-size="13" lengthAdjust="spacing" textLength="51" x="526.5" y="495.9575">return 0</text><line style="stroke:#696969;stroke-width:2.0;" x1="484.5" x2="502.5" y1="505.0234" y2="523.0234"/><line style="stroke:#696969;stroke-width:2.0;" x1="484.5" x2="502.5" y1="523.0234" y2="505.0234"/><line style="stroke:#454645;stroke-width:2.0;" x1="237.5" x2="247.5" y1="538.1563" y2="548.1563"/><line style="stroke:#454645;stroke-width:2.0;" x1="237.5" x2="247.5" y1="548.1563" y2="538.1563"/><line style="stroke:#454645;stroke-width:1.0;" x1="102.5" x2="242.5" y1="543.1563" y2="543.1563"/><text fill="#000000" font-family="sans-serif" font-size="13" font-weight="bold" lengthAdjust="spacing" textLength="18" x="109.5" y="538.0903">14</text><text fill="#000000" font-family="sans-serif" font-size="13" lengthAdjust="spacing" textLength="107" x="131.5" y="538.0903">close connection</text><line style="stroke:#454645;stroke-width:1.0;" x1="102.5" x2="144.5" y1="572.2891" y2="572.2891"/><line style="stroke:#454645;stroke-width:1.0;" x1="144.5" x2="144.5" y1="572.2891" y2="585.2891"/><line style="stroke:#454645;stroke-width:1.0;" x1="115.5" x2="144.5" y1="585.2891" y2="585.2891"/><line style="stroke:#454645;stroke-width:2.0;" x1="108.5" x2="118.5" y1="580.2891" y2="590.2891"/><line style="stroke:#454645;stroke-width:2.0;" x1="108.5" x2="118.5" y1="590.2891" y2="580.2891"/><text fill="#000000" font-family="sans-serif" font-size="13" font-weight="bold" lengthAdjust="spacing" textLength="18" x="109.5" y="567.2231">15</text><text fill="#000000" font-family="sans-serif" font-size="13" lengthAdjust="spacing" textLength="71" x="131.5" y="567.2231">close client</text><polygon fill="#454645" points="33.5,610.4219,23.5,614.4219,33.5,618.4219,29.5,614.4219" style="stroke:#454645;stroke-width:1.0;"/><line style="stroke:#454645;stroke-width:1.0;" x1="27.5" x2="96.5" y1="614.4219" y2="614.4219"/><text fill="#000000" font-family="sans-serif" font-size="13" font-weight="bold" lengthAdjust="spacing" textLength="18" x="39.5" y="609.356">16</text><text fill="#000000" font-family="sans-serif" font-size="13" lengthAdjust="spacing" textLength="24" x="61.5" y="609.356">exit</text><line style="stroke:#696969;stroke-width:2.0;" x1="88.5" x2="106.5" y1="605.4219" y2="623.4219"/><line style="stroke:#696969;stroke-width:2.0;" x1="88.5" x2="106.5" y1="623.4219" y2="605.4219"/><!--SRC=[ZLAxRiCm3Dpr5UpK56ZZpW7Q8ScIeK0Vw5p8DfC8a2LNelBu-ygHPDbv01qCYEJnxaZpZhRO8En4QRWYM1lTm9QejREYC7m_tGZQkj9PD9LMX8gcbMwALdgmQsH-DDmIckB4PXbtf9LhIZICyOgqWRakWLluzaIivOP49TfES2659sM_3Xt25rehjFheWX4gLNgSsQ6vX8Kygpdnajk4MyuPkzyZSEC_QP3NH_33AAm8Qo0DtZJOqEhDYXsdtif58eWEikTjsLcVZ3DsiyFJQmnX1dWGn6BayqC5NvLwezsmtlTPukGil81UhwLGo4QTcIb9fF1KwVt5wYJGhfOFR5ZiiRTW8qHmb34ZRsFqSkxnhgsxnVopRRIMIcgBawik8ckDbem-Jc9Zi7nhGPakxUXmhjZOJKKoqpt2wdtny_dM4KUjyNLSuV8q1iaP1S_dFIp_uiFLOTEnTjW1j3-720f7bi_bT6xn0f9agFu1]--></g></svg>