<?xml version="1.0" encoding="UTF-8" standalone="no"?><svg xmlns="http://www.w3.org/2000/svg" xmlns:xlink="http://www.w3.org/1999/xlink" contentStyleType="text/css" height="755px" preserveAspectRatio="none" style="width:1038px;height:755px;background:#FFFFFF;" version="1.1" viewBox="0 0 1038 755" width="1038px" zoomAndPan="magnify"><defs/><g><rect fill="#FFFFFF" height="565.2578" style="stroke:#696969;stroke-width:1.0;" width="10" x="92.5" y="91.2969"/><rect fill="#FFFFFF" height="422.7266" style="stroke:#696969;stroke-width:1.0;" width="10" x="250.5" y="91.2969"/><rect fill="#FFFFFF" height="457.8594" style="stroke:#696969;stroke-width:1.0;" width="10" x="487.5" y="91.2969"/><rect fill="#FFFFFF" height="574.2578" style="stroke:#696969;stroke-width:1.0;" width="10" x="617.5" y="91.2969"/><rect fill="#FFFFFF" height="574.2578" style="stroke:#696969;stroke-width:1.0;" width="10" x="747.5" y="91.2969"/><line style="stroke:#696969;stroke-width:0.5;stroke-dasharray:5.0,5.0;" x1="22" x2="22" y1="81.2969" y2="674.5547"/><line style="stroke:#696969;stroke-width:0.5;stroke-dasharray:5.0,5.0;" x1="97" x2="97" y1="81.2969" y2="674.5547"/><line style="stroke:#696969;stroke-width:0.5;stroke-dasharray:5.0,5.0;" x1="255" x2="255" y1="81.2969" y2="674.5547"/><line style="stroke:#696969;stroke-width:0.5;stroke-dasharray:5.0,5.0;" x1="492.5" x2="492.5" y1="81.2969" y2="674.5547"/><line style="stroke:#696969;stroke-width:0.5;stroke-dasharray:5.0,5.0;" x1="622.5" x2="622.5" y1="81.2969" y2="674.5547"/><line style="stroke:#696969;stroke-width:0.5;stroke-dasharray:5.0,5.0;" x1="752" x2="752" y1="81.2969" y2="674.5547"/><line style="stroke:#696969;stroke-width:0.5;stroke-dasharray:5.0,5.0;" x1="1000.5" x2="1000.5" y1="81.2969" y2="674.5547"/><text fill="#454645" font-family="sans-serif" font-size="14" lengthAdjust="spacing" textLength="29" x="5" y="77.9951">Bob</text><ellipse cx="22.5" cy="13.5" fill="#454645" rx="8" ry="8" style="stroke:#454645;stroke-width:0.5;"/><path d="M22.5,21.5 L22.5,48.5 M9.5,29.5 L35.5,29.5 M22.5,48.5 L9.5,63.5 M22.5,48.5 L35.5,63.5 " fill="none" style="stroke:#454645;stroke-width:0.5;"/><text fill="#454645" font-family="sans-serif" font-size="14" lengthAdjust="spacing" textLength="29" x="5" y="686.5498">Bob</text><ellipse cx="22.5" cy="698.3516" fill="#454645" rx="8" ry="8" style="stroke:#454645;stroke-width:0.5;"/><path d="M22.5,706.3516 L22.5,733.3516 M9.5,714.3516 L35.5,714.3516 M22.5,733.3516 L9.5,748.3516 M22.5,733.3516 L35.5,748.3516 " fill="none" style="stroke:#454645;stroke-width:0.5;"/><rect fill="#FF6347" height="30.2969" rx="3.5" ry="3.5" style="stroke:#454645;stroke-width:1.5;" width="57" x="69" y="50"/><text fill="#FFFFFF" font-family="sans-serif" font-size="14" lengthAdjust="spacing" textLength="43" x="76" y="69.9951">Client</text><rect fill="#FF6347" height="30.2969" rx="3.5" ry="3.5" style="stroke:#454645;stroke-width:1.5;" width="57" x="69" y="673.5547"/><text fill="#FFFFFF" font-family="sans-serif" font-size="14" lengthAdjust="spacing" textLength="43" x="76" y="693.5498">Client</text><path d="M201,55 L310,55 C315,55 315,68.1484 315,68.1484 C315,68.1484 315,81.2969 310,81.2969 L201,81.2969 C196,81.2969 196,68.1484 196,68.1484 C196,68.1484 196,55 201,55 " fill="#FF6347" style="stroke:#454645;stroke-width:1.5;"/><path d="M310,55 C305,55 305,68.1484 305,68.1484 C305,81.2969 310,81.2969 310,81.2969 " fill="none" style="stroke:#454645;stroke-width:1.5;"/><text fill="#FFFFFF" font-family="sans-serif" font-size="14" lengthAdjust="spacing" textLength="99" x="201" y="72.9951">SessionQueue</text><path d="M201,673.5547 L310,673.5547 C315,673.5547 315,686.7031 315,686.7031 C315,686.7031 315,699.8516 310,699.8516 L201,699.8516 C196,699.8516 196,686.7031 196,686.7031 C196,686.7031 196,673.5547 201,673.5547 " fill="#FF6347" style="stroke:#454645;stroke-width:1.5;"/><path d="M310,673.5547 C305,673.5547 305,686.7031 305,686.7031 C305,699.8516 310,699.8516 310,699.8516 " fill="none" style="stroke:#454645;stroke-width:1.5;"/><text fill="#FFFFFF" font-family="sans-serif" font-size="14" lengthAdjust="spacing" textLength="99" x="201" y="691.5498">SessionQueue</text><rect fill="#FF6347" height="30.2969" rx="3.5" ry="3.5" style="stroke:#454645;stroke-width:1.5;" width="68" x="458.5" y="50"/><text fill="#FFFFFF" font-family="sans-serif" font-size="14" lengthAdjust="spacing" textLength="54" x="465.5" y="69.9951">Session</text><rect fill="#FF6347" height="30.2969" rx="3.5" ry="3.5" style="stroke:#454645;stroke-width:1.5;" width="68" x="458.5" y="673.5547"/><text fill="#FFFFFF" font-family="sans-serif" font-size="14" lengthAdjust="spacing" textLength="54" x="465.5" y="693.5498">Session</text><path d="M571.5,55 L673.5,55 C678.5,55 678.5,68.1484 678.5,68.1484 C678.5,68.1484 678.5,81.2969 673.5,81.2969 L571.5,81.2969 C566.5,81.2969 566.5,68.1484 566.5,68.1484 C566.5,68.1484 566.5,55 571.5,55 " fill="#FF6347" style="stroke:#454645;stroke-width:1.5;"/><path d="M673.5,55 C668.5,55 668.5,68.1484 668.5,68.1484 C668.5,81.2969 673.5,81.2969 673.5,81.2969 " fill="none" style="stroke:#454645;stroke-width:1.5;"/><text fill="#FFFFFF" font-family="sans-serif" font-size="14" lengthAdjust="spacing" textLength="92" x="571.5" y="72.9951">ServerQueue</text><path d="M571.5,673.5547 L673.5,673.5547 C678.5,673.5547 678.5,686.7031 678.5,686.7031 C678.5,686.7031 678.5,699.8516 673.5,699.8516 L571.5,699.8516 C566.5,699.8516 566.5,686.7031 566.5,686.7031 C566.5,686.7031 566.5,673.5547 571.5,673.5547 " fill="#FF6347" style="stroke:#454645;stroke-width:1.5;"/><path d="M673.5,673.5547 C668.5,673.5547 668.5,686.7031 668.5,686.7031 C668.5,699.8516 673.5,699.8516 673.5,699.8516 " fill="none" style="stroke:#454645;stroke-width:1.5;"/><text fill="#FFFFFF" font-family="sans-serif" font-size="14" lengthAdjust="spacing" textLength="92" x="571.5" y="691.5498">ServerQueue</text><rect fill="#FF6347" height="30.2969" rx="3.5" ry="3.5" style="stroke:#454645;stroke-width:1.5;" width="61" x="722" y="50"/><text fill="#FFFFFF" font-family="sans-serif" font-size="14" lengthAdjust="spacing" textLength="47" x="729" y="69.9951">Server</text><rect fill="#FF6347" height="30.2969" rx="3.5" ry="3.5" style="stroke:#454645;stroke-width:1.5;" width="61" x="722" y="673.5547"/><text fill="#FFFFFF" font-family="sans-serif" font-size="14" lengthAdjust="spacing" textLength="47" x="729" y="693.5498">Server</text><text fill="#454645" font-family="sans-serif" font-size="14" lengthAdjust="spacing" textLength="68" x="963.5" y="77.9951">ServerDB</text><path d="M982.5,29 C982.5,19 1000.5,19 1000.5,19 C1000.5,19 1018.5,19 1018.5,29 L1018.5,55 C1018.5,65 1000.5,65 1000.5,65 C1000.5,65 982.5,65 982.5,55 L982.5,29 " fill="#00FFFF" style="stroke:#454645;stroke-width:1.5;"/><path d="M982.5,29 C982.5,39 1000.5,39 1000.5,39 C1000.5,39 1018.5,39 1018.5,29 " fill="none" style="stroke:#454645;stroke-width:1.5;"/><text fill="#454645" font-family="sans-serif" font-size="14" lengthAdjust="spacing" textLength="68" x="963.5" y="686.5498">ServerDB</text><path d="M982.5,699.8516 C982.5,689.8516 1000.5,689.8516 1000.5,689.8516 C1000.5,689.8516 1018.5,689.8516 1018.5,699.8516 L1018.5,725.8516 C1018.5,735.8516 1000.5,735.8516 1000.5,735.8516 C1000.5,735.8516 982.5,735.8516 982.5,725.8516 L982.5,699.8516 " fill="#00FFFF" style="stroke:#454645;stroke-width:1.5;"/><path d="M982.5,699.8516 C982.5,709.8516 1000.5,709.8516 1000.5,709.8516 C1000.5,709.8516 1018.5,709.8516 1018.5,699.8516 " fill="none" style="stroke:#454645;stroke-width:1.5;"/><rect fill="#FFFFFF" height="565.2578" style="stroke:#696969;stroke-width:1.0;" width="10" x="92.5" y="91.2969"/><rect fill="#FFFFFF" height="422.7266" style="stroke:#696969;stroke-width:1.0;" width="10" x="250.5" y="91.2969"/><rect fill="#FFFFFF" height="457.8594" style="stroke:#696969;stroke-width:1.0;" width="10" x="487.5" y="91.2969"/><rect fill="#FFFFFF" height="574.2578" style="stroke:#696969;stroke-width:1.0;" width="10" x="617.5" y="91.2969"/><rect fill="#FFFFFF" height="574.2578" style="stroke:#696969;stroke-width:1.0;" width="10" x="747.5" y="91.2969"/><polygon fill="#454645" points="80.5,108.4297,90.5,112.4297,80.5,116.4297,84.5,112.4297" style="stroke:#454645;stroke-width:1.0;"/><line style="stroke:#454645;stroke-width:1.0;" x1="22.5" x2="86.5" y1="112.4297" y2="112.4297"/><text fill="#000000" font-family="sans-serif" font-size="13" font-weight="bold" lengthAdjust="spacing" textLength="9" x="29.5" y="107.3638">1</text><text fill="#000000" font-family="sans-serif" font-size="13" lengthAdjust="spacing" textLength="24" x="42.5" y="107.3638">exit</text><polygon fill="#454645" points="238.5,137.5625,248.5,141.5625,238.5,145.5625,242.5,141.5625" style="stroke:#454645;stroke-width:1.0;"/><line style="stroke:#454645;stroke-width:1.0;" x1="102.5" x2="244.5" y1="141.5625" y2="141.5625"/><text fill="#000000" font-family="sans-serif" font-size="13" font-weight="bold" lengthAdjust="spacing" textLength="9" x="109.5" y="136.4966">2</text><text fill="#000000" font-family="sans-serif" font-size="13" lengthAdjust="spacing" textLength="40" x="122.5" y="136.4966">logout</text><line style="stroke:#454645;stroke-width:1.0;" x1="102.5" x2="144.5" y1="170.6953" y2="170.6953"/><line style="stroke:#454645;stroke-width:1.0;" x1="144.5" x2="144.5" y1="170.6953" y2="183.6953"/><line style="stroke:#454645;stroke-width:1.0;" x1="103.5" x2="144.5" y1="183.6953" y2="183.6953"/><polygon fill="#454645" points="113.5,179.6953,103.5,183.6953,113.5,187.6953,109.5,183.6953" style="stroke:#454645;stroke-width:1.0;"/><text fill="#000000" font-family="sans-serif" font-size="13" font-weight="bold" lengthAdjust="spacing" textLength="8" x="109.5" y="165.6294">3</text><text fill="#000000" font-family="sans-serif" font-size="13" lengthAdjust="spacing" textLength="98" x="121.5" y="165.6294">status = offline</text><polygon fill="#454645" points="475.5,208.8281,485.5,212.8281,475.5,216.8281,479.5,212.8281" style="stroke:#454645;stroke-width:1.0;"/><line style="stroke:#454645;stroke-width:1.0;" x1="260.5" x2="481.5" y1="212.8281" y2="212.8281"/><text fill="#000000" font-family="sans-serif" font-size="13" font-weight="bold" lengthAdjust="spacing" textLength="9" x="267.5" y="207.7622">4</text><text fill="#000000" font-family="sans-serif" font-size="13" lengthAdjust="spacing" textLength="24" x="280.5" y="207.7622">exit</text><polygon fill="#454645" points="605.5,237.9609,615.5,241.9609,605.5,245.9609,609.5,241.9609" style="stroke:#454645;stroke-width:1.0;"/><line style="stroke:#454645;stroke-width:1.0;" x1="497.5" x2="611.5" y1="241.9609" y2="241.9609"/><text fill="#000000" font-family="sans-serif" font-size="13" font-weight="bold" lengthAdjust="spacing" textLength="9" x="504.5" y="236.895">5</text><text fill="#000000" font-family="sans-serif" font-size="13" lengthAdjust="spacing" textLength="83" x="517.5" y="236.895">exit(ClientID)</text><polygon fill="#454645" points="735.5,267.0938,745.5,271.0938,735.5,275.0938,739.5,271.0938" style="stroke:#454645;stroke-width:1.0;"/><line style="stroke:#454645;stroke-width:1.0;" x1="627.5" x2="741.5" y1="271.0938" y2="271.0938"/><text fill="#000000" font-family="sans-serif" font-size="13" font-weight="bold" lengthAdjust="spacing" textLength="9" x="634.5" y="266.0278">6</text><text fill="#000000" font-family="sans-serif" font-size="13" lengthAdjust="spacing" textLength="83" x="647.5" y="266.0278">exit(ClientID)</text><line style="stroke:#454645;stroke-width:1.0;" x1="757.5" x2="799.5" y1="300.2266" y2="300.2266"/><line style="stroke:#454645;stroke-width:1.0;" x1="799.5" x2="799.5" y1="300.2266" y2="313.2266"/><line style="stroke:#454645;stroke-width:1.0;" x1="758.5" x2="799.5" y1="313.2266" y2="313.2266"/><polygon fill="#454645" points="768.5,309.2266,758.5,313.2266,768.5,317.2266,764.5,313.2266" style="stroke:#454645;stroke-width:1.0;"/><text fill="#000000" font-family="sans-serif" font-size="13" font-weight="bold" lengthAdjust="spacing" textLength="9" x="764.5" y="295.1606">7</text><text fill="#000000" font-family="sans-serif" font-size="13" lengthAdjust="spacing" textLength="157" x="777.5" y="295.1606">status(ClientID) = offline</text><polygon fill="#454645" points="988.5,338.3594,998.5,342.3594,988.5,346.3594,992.5,342.3594" style="stroke:#454645;stroke-width:1.0;"/><line style="stroke:#454645;stroke-width:1.0;" x1="757.5" x2="994.5" y1="342.3594" y2="342.3594"/><text fill="#000000" font-family="sans-serif" font-size="13" font-weight="bold" lengthAdjust="spacing" textLength="9" x="764.5" y="337.2935">8</text><text fill="#000000" font-family="sans-serif" font-size="13" lengthAdjust="spacing" textLength="206" x="777.5" y="337.2935">update status(ClientID) = offline</text><line style="stroke:#454645;stroke-width:1.0;" x1="757.5" x2="799.5" y1="371.4922" y2="371.4922"/><line style="stroke:#454645;stroke-width:1.0;" x1="799.5" x2="799.5" y1="371.4922" y2="384.4922"/><line style="stroke:#454645;stroke-width:1.0;" x1="758.5" x2="799.5" y1="384.4922" y2="384.4922"/><polygon fill="#454645" points="768.5,380.4922,758.5,384.4922,768.5,388.4922,764.5,384.4922" style="stroke:#454645;stroke-width:1.0;"/><text fill="#000000" font-family="sans-serif" font-size="13" font-weight="bold" lengthAdjust="spacing" textLength="9" x="764.5" y="366.4263">9</text><text fill="#000000" font-family="sans-serif" font-size="13" lengthAdjust="spacing" textLength="193" x="777.5" y="366.4263">propagate status to all friends</text><polygon fill="#454645" points="271.5,409.625,261.5,413.625,271.5,417.625,267.5,413.625" style="stroke:#454645;stroke-width:1.0;"/><line style="stroke:#454645;stroke-width:1.0;" x1="265.5" x2="746.5" y1="413.625" y2="413.625"/><text fill="#000000" font-family="sans-serif" font-size="13" font-weight="bold" lengthAdjust="spacing" textLength="19" x="277.5" y="408.5591">10</text><text fill="#000000" font-family="sans-serif" font-size="13" lengthAdjust="spacing" textLength="43" x="300.5" y="408.5591">close()</text><line style="stroke:#454645;stroke-width:1.0;" x1="757.5" x2="799.5" y1="442.7578" y2="442.7578"/><line style="stroke:#454645;stroke-width:1.0;" x1="799.5" x2="799.5" y1="442.7578" y2="455.7578"/><line style="stroke:#454645;stroke-width:1.0;" x1="758.5" x2="799.5" y1="455.7578" y2="455.7578"/><polygon fill="#454645" points="768.5,451.7578,758.5,455.7578,768.5,459.7578,764.5,455.7578" style="stroke:#454645;stroke-width:1.0;"/><text fill="#000000" font-family="sans-serif" font-size="13" font-weight="bold" lengthAdjust="spacing" textLength="18" x="764.5" y="437.6919">11</text><text fill="#000000" font-family="sans-serif" font-size="13" lengthAdjust="spacing" textLength="170" x="786.5" y="437.6919">update destroy(SessionID)</text><polygon fill="#454645" points="475.5,480.8906,485.5,484.8906,475.5,488.8906,479.5,484.8906" style="stroke:#454645;stroke-width:1.0;"/><line style="stroke:#454645;stroke-width:1.0;" x1="260.5" x2="481.5" y1="484.8906" y2="484.8906"/><text fill="#000000" font-family="sans-serif" font-size="13" font-weight="bold" lengthAdjust="spacing" textLength="18" x="267.5" y="479.8247">12</text><text fill="#000000" font-family="sans-serif" font-size="13" lengthAdjust="spacing" textLength="43" x="289.5" y="479.8247">close()</text><line style="stroke:#454645;stroke-width:2.0;" x1="262.5" x2="272.5" y1="509.0234" y2="519.0234"/><line style="stroke:#454645;stroke-width:2.0;" x1="262.5" x2="272.5" y1="519.0234" y2="509.0234"/><line style="stroke:#454645;stroke-width:1.0;" x1="267.5" x2="486.5" y1="514.0234" y2="514.0234"/><text fill="#000000" font-family="sans-serif" font-size="13" font-weight="bold" lengthAdjust="spacing" textLength="17" x="272.5" y="508.9575">13</text><text fill="#000000" font-family="sans-serif" font-size="13" lengthAdjust="spacing" textLength="182" x="293.5" y="508.9575">msgctl(SessionID, IPC_RMID)</text><line style="stroke:#696969;stroke-width:2.0;" x1="246.5" x2="264.5" y1="505.0234" y2="523.0234"/><line style="stroke:#696969;stroke-width:2.0;" x1="246.5" x2="264.5" y1="523.0234" y2="505.0234"/><line style="stroke:#454645;stroke-width:1.0;" x1="497.5" x2="539.5" y1="543.1563" y2="543.1563"/><line style="stroke:#454645;stroke-width:1.0;" x1="539.5" x2="539.5" y1="543.1563" y2="556.1563"/><line style="stroke:#454645;stroke-width:1.0;" x1="510.5" x2="539.5" y1="556.1563" y2="556.1563"/><line style="stroke:#454645;stroke-width:2.0;" x1="503.5" x2="513.5" y1="551.1563" y2="561.1563"/><line style="stroke:#454645;stroke-width:2.0;" x1="503.5" x2="513.5" y1="561.1563" y2="551.1563"/><text fill="#000000" font-family="sans-serif" font-size="13" font-weight="bold" lengthAdjust="spacing" textLength="18" x="504.5" y="538.0903">14</text><text fill="#000000" font-family="sans-serif" font-size="13" lengthAdjust="spacing" textLength="51" x="526.5" y="538.0903">return 0</text><line style="stroke:#696969;stroke-width:2.0;" x1="483.5" x2="501.5" y1="547.1563" y2="565.1563"/><line style="stroke:#696969;stroke-width:2.0;" x1="483.5" x2="501.5" y1="565.1563" y2="547.1563"/><line style="stroke:#454645;stroke-width:2.0;" x1="237.5" x2="247.5" y1="580.2891" y2="590.2891"/><line style="stroke:#454645;stroke-width:2.0;" x1="237.5" x2="247.5" y1="590.2891" y2="580.2891"/><line style="stroke:#454645;stroke-width:1.0;" x1="102.5" x2="242.5" y1="585.2891" y2="585.2891"/><text fill="#000000" font-family="sans-serif" font-size="13" font-weight="bold" lengthAdjust="spacing" textLength="18" x="109.5" y="580.2231">15</text><text fill="#000000" font-family="sans-serif" font-size="13" lengthAdjust="spacing" textLength="107" x="131.5" y="580.2231">close connection</text><line style="stroke:#454645;stroke-width:1.0;" x1="102.5" x2="144.5" y1="614.4219" y2="614.4219"/><line style="stroke:#454645;stroke-width:1.0;" x1="144.5" x2="144.5" y1="614.4219" y2="627.4219"/><line style="stroke:#454645;stroke-width:1.0;" x1="115.5" x2="144.5" y1="627.4219" y2="627.4219"/><line style="stroke:#454645;stroke-width:2.0;" x1="108.5" x2="118.5" y1="622.4219" y2="632.4219"/><line style="stroke:#454645;stroke-width:2.0;" x1="108.5" x2="118.5" y1="632.4219" y2="622.4219"/><text fill="#000000" font-family="sans-serif" font-size="13" font-weight="bold" lengthAdjust="spacing" textLength="18" x="109.5" y="609.356">16</text><text fill="#000000" font-family="sans-serif" font-size="13" lengthAdjust="spacing" textLength="71" x="131.5" y="609.356">close client</text><polygon fill="#454645" points="33.5,652.5547,23.5,656.5547,33.5,660.5547,29.5,656.5547" style="stroke:#454645;stroke-width:1.0;"/><line style="stroke:#454645;stroke-width:1.0;" x1="27.5" x2="96.5" y1="656.5547" y2="656.5547"/><text fill="#000000" font-family="sans-serif" font-size="13" font-weight="bold" lengthAdjust="spacing" textLength="18" x="39.5" y="651.4888">17</text><text fill="#000000" font-family="sans-serif" font-size="13" lengthAdjust="spacing" textLength="24" x="61.5" y="651.4888">exit</text><line style="stroke:#696969;stroke-width:2.0;" x1="88.5" x2="106.5" y1="647.5547" y2="665.5547"/><line style="stroke:#696969;stroke-width:2.0;" x1="88.5" x2="106.5" y1="665.5547" y2="647.5547"/><!--SRC=[bLAxRiCm3Dpr5UpK56YJpW7Q8ScIeK0Vw5p8DkC8a2LNelBu-ygHR5bv31q2MEJTySZS7MsnGTY9md15i36wWIrHQ-UpcU7xQIrewmfdqPHQ4IgQbhgPjTA3NIFJHyCjePcTr2nZZ9Ua3Inq0Tp2jwUpbXiIfMYxCKifl1JxTUWGlj1QeTL7zyXGVMV0cHsQIrYeiueJBxZjSQk5D-58AzSKlilkzmZS-9yqoAiZ-7KKbeGLa0Pl6soGySR5ZjDWww8G38ogvxJaSYZ6VRixmDDhVC8Sy228nPUlZoVuhjIrTkF-mBF4oLbu0RtPIA6GPSoar8_edwVEu2zs9q5slNfWu-Q0lGNB4C5HmcJUSlHguV6khRh3_8CsXzRebjU9rlrpN4eVMi-kRCR83bbARN5orNVqKQ4beu-JI0nBtZffakklUZYVsDYw99da7c7zllpvVEk4uwmyJrUql8n1SaR1ypc7fL0ShYxRnxl3Zg13W28en385x1JGc9b-PEZ-0G00]--></g></svg>