<?xml version="1.0" encoding="UTF-8" standalone="no"?><svg xmlns="http://www.w3.org/2000/svg" xmlns:xlink="http://www.w3.org/1999/xlink" contentStyleType="text/css" height="726px" preserveAspectRatio="none" style="width:1192px;height:726px;background:#FFFFFF;" version="1.1" viewBox="0 0 1192 726" width="1192px" zoomAndPan="magnify"><defs/><g><line style="stroke:#696969;stroke-width:0.5;stroke-dasharray:5.0,5.0;" x1="22" x2="22" y1="81.2969" y2="645.4219"/><line style="stroke:#696969;stroke-width:0.5;stroke-dasharray:5.0,5.0;" x1="85" x2="85" y1="81.2969" y2="645.4219"/><line style="stroke:#696969;stroke-width:0.5;stroke-dasharray:5.0,5.0;" x1="231.5" x2="231.5" y1="81.2969" y2="645.4219"/><line style="stroke:#696969;stroke-width:0.5;stroke-dasharray:5.0,5.0;" x1="387.5" x2="387.5" y1="81.2969" y2="645.4219"/><line style="stroke:#696969;stroke-width:0.5;stroke-dasharray:5.0,5.0;" x1="549" x2="549" y1="81.2969" y2="645.4219"/><line style="stroke:#696969;stroke-width:0.5;stroke-dasharray:5.0,5.0;" x1="762" x2="762" y1="81.2969" y2="645.4219"/><line style="stroke:#696969;stroke-width:0.5;stroke-dasharray:5.0,5.0;" x1="979.5" x2="979.5" y1="81.2969" y2="645.4219"/><line style="stroke:#696969;stroke-width:0.5;stroke-dasharray:5.0,5.0;" x1="1154" x2="1154" y1="81.2969" y2="645.4219"/><text fill="#454645" font-family="sans-serif" font-size="14" lengthAdjust="spacing" textLength="29" x="5" y="77.9951">Bob</text><ellipse cx="22.5" cy="13.5" fill="#454645" rx="8" ry="8" style="stroke:#454645;stroke-width:0.5;"/><path d="M22.5,21.5 L22.5,48.5 M9.5,29.5 L35.5,29.5 M22.5,48.5 L9.5,63.5 M22.5,48.5 L35.5,63.5 " fill="none" style="stroke:#454645;stroke-width:0.5;"/><text fill="#454645" font-family="sans-serif" font-size="14" lengthAdjust="spacing" textLength="29" x="5" y="657.417">Bob</text><ellipse cx="22.5" cy="669.2188" fill="#454645" rx="8" ry="8" style="stroke:#454645;stroke-width:0.5;"/><path d="M22.5,677.2188 L22.5,704.2188 M9.5,685.2188 L35.5,685.2188 M22.5,704.2188 L9.5,719.2188 M22.5,704.2188 L35.5,719.2188 " fill="none" style="stroke:#454645;stroke-width:0.5;"/><text fill="#454645" font-family="sans-serif" font-size="14" lengthAdjust="spacing" textLength="64" x="50" y="77.9951">ClientDB</text><path d="M67,29 C67,19 85,19 85,19 C85,19 103,19 103,29 L103,55 C103,65 85,65 85,65 C85,65 67,65 67,55 L67,29 " fill="#00FFFF" style="stroke:#454645;stroke-width:1.5;"/><path d="M67,29 C67,39 85,39 85,39 C85,39 103,39 103,29 " fill="none" style="stroke:#454645;stroke-width:1.5;"/><text fill="#454645" font-family="sans-serif" font-size="14" lengthAdjust="spacing" textLength="64" x="50" y="657.417">ClientDB</text><path d="M67,670.7188 C67,660.7188 85,660.7188 85,660.7188 C85,660.7188 103,660.7188 103,670.7188 L103,696.7188 C103,706.7188 85,706.7188 85,706.7188 C85,706.7188 67,706.7188 67,696.7188 L67,670.7188 " fill="#00FFFF" style="stroke:#454645;stroke-width:1.5;"/><path d="M67,670.7188 C67,680.7188 85,680.7188 85,680.7188 C85,680.7188 103,680.7188 103,670.7188 " fill="none" style="stroke:#454645;stroke-width:1.5;"/><rect fill="#FF6347" height="30.2969" rx="3.5" ry="3.5" style="stroke:#454645;stroke-width:1.5;" width="57" x="203.5" y="50"/><text fill="#FFFFFF" font-family="sans-serif" font-size="14" lengthAdjust="spacing" textLength="43" x="210.5" y="69.9951">Client</text><rect fill="#FF6347" height="30.2969" rx="3.5" ry="3.5" style="stroke:#454645;stroke-width:1.5;" width="57" x="203.5" y="644.4219"/><text fill="#FFFFFF" font-family="sans-serif" font-size="14" lengthAdjust="spacing" textLength="43" x="210.5" y="664.417">Client</text><path d="M333.5,55 L442.5,55 C447.5,55 447.5,68.1484 447.5,68.1484 C447.5,68.1484 447.5,81.2969 442.5,81.2969 L333.5,81.2969 C328.5,81.2969 328.5,68.1484 328.5,68.1484 C328.5,68.1484 328.5,55 333.5,55 " fill="#FF6347" style="stroke:#454645;stroke-width:1.5;"/><path d="M442.5,55 C437.5,55 437.5,68.1484 437.5,68.1484 C437.5,81.2969 442.5,81.2969 442.5,81.2969 " fill="none" style="stroke:#454645;stroke-width:1.5;"/><text fill="#FFFFFF" font-family="sans-serif" font-size="14" lengthAdjust="spacing" textLength="99" x="333.5" y="72.9951">SessionQueue</text><path d="M333.5,644.4219 L442.5,644.4219 C447.5,644.4219 447.5,657.5703 447.5,657.5703 C447.5,657.5703 447.5,670.7188 442.5,670.7188 L333.5,670.7188 C328.5,670.7188 328.5,657.5703 328.5,657.5703 C328.5,657.5703 328.5,644.4219 333.5,644.4219 " fill="#FF6347" style="stroke:#454645;stroke-width:1.5;"/><path d="M442.5,644.4219 C437.5,644.4219 437.5,657.5703 437.5,657.5703 C437.5,670.7188 442.5,670.7188 442.5,670.7188 " fill="none" style="stroke:#454645;stroke-width:1.5;"/><text fill="#FFFFFF" font-family="sans-serif" font-size="14" lengthAdjust="spacing" textLength="99" x="333.5" y="662.417">SessionQueue</text><rect fill="#FF6347" height="30.2969" rx="3.5" ry="3.5" style="stroke:#454645;stroke-width:1.5;" width="68" x="515" y="50"/><text fill="#FFFFFF" font-family="sans-serif" font-size="14" lengthAdjust="spacing" textLength="54" x="522" y="69.9951">Session</text><rect fill="#FF6347" height="30.2969" rx="3.5" ry="3.5" style="stroke:#454645;stroke-width:1.5;" width="68" x="515" y="644.4219"/><text fill="#FFFFFF" font-family="sans-serif" font-size="14" lengthAdjust="spacing" textLength="54" x="522" y="664.417">Session</text><path d="M711,55 L813,55 C818,55 818,68.1484 818,68.1484 C818,68.1484 818,81.2969 813,81.2969 L711,81.2969 C706,81.2969 706,68.1484 706,68.1484 C706,68.1484 706,55 711,55 " fill="#FF6347" style="stroke:#454645;stroke-width:1.5;"/><path d="M813,55 C808,55 808,68.1484 808,68.1484 C808,81.2969 813,81.2969 813,81.2969 " fill="none" style="stroke:#454645;stroke-width:1.5;"/><text fill="#FFFFFF" font-family="sans-serif" font-size="14" lengthAdjust="spacing" textLength="92" x="711" y="72.9951">ServerQueue</text><path d="M711,644.4219 L813,644.4219 C818,644.4219 818,657.5703 818,657.5703 C818,657.5703 818,670.7188 813,670.7188 L711,670.7188 C706,670.7188 706,657.5703 706,657.5703 C706,657.5703 706,644.4219 711,644.4219 " fill="#FF6347" style="stroke:#454645;stroke-width:1.5;"/><path d="M813,644.4219 C808,644.4219 808,657.5703 808,657.5703 C808,670.7188 813,670.7188 813,670.7188 " fill="none" style="stroke:#454645;stroke-width:1.5;"/><text fill="#FFFFFF" font-family="sans-serif" font-size="14" lengthAdjust="spacing" textLength="92" x="711" y="662.417">ServerQueue</text><rect fill="#FF6347" height="30.2969" rx="3.5" ry="3.5" style="stroke:#454645;stroke-width:1.5;" width="61" x="949.5" y="50"/><text fill="#FFFFFF" font-family="sans-serif" font-size="14" lengthAdjust="spacing" textLength="47" x="956.5" y="69.9951">Server</text><rect fill="#FF6347" height="30.2969" rx="3.5" ry="3.5" style="stroke:#454645;stroke-width:1.5;" width="61" x="949.5" y="644.4219"/><text fill="#FFFFFF" font-family="sans-serif" font-size="14" lengthAdjust="spacing" textLength="47" x="956.5" y="664.417">Server</text><text fill="#454645" font-family="sans-serif" font-size="14" lengthAdjust="spacing" textLength="68" x="1117" y="77.9951">ServerDB</text><path d="M1136,29 C1136,19 1154,19 1154,19 C1154,19 1172,19 1172,29 L1172,55 C1172,65 1154,65 1154,65 C1154,65 1136,65 1136,55 L1136,29 " fill="#00FFFF" style="stroke:#454645;stroke-width:1.5;"/><path d="M1136,29 C1136,39 1154,39 1154,39 C1154,39 1172,39 1172,29 " fill="none" style="stroke:#454645;stroke-width:1.5;"/><text fill="#454645" font-family="sans-serif" font-size="14" lengthAdjust="spacing" textLength="68" x="1117" y="657.417">ServerDB</text><path d="M1136,670.7188 C1136,660.7188 1154,660.7188 1154,660.7188 C1154,660.7188 1172,660.7188 1172,670.7188 L1172,696.7188 C1172,706.7188 1154,706.7188 1154,706.7188 C1154,706.7188 1136,706.7188 1136,696.7188 L1136,670.7188 " fill="#00FFFF" style="stroke:#454645;stroke-width:1.5;"/><path d="M1136,670.7188 C1136,680.7188 1154,680.7188 1154,680.7188 C1154,680.7188 1172,680.7188 1172,670.7188 " fill="none" style="stroke:#454645;stroke-width:1.5;"/><polygon fill="#454645" points="376,108.4297,386,112.4297,376,116.4297,380,112.4297" style="stroke:#454645;stroke-width:1.0;"/><line style="stroke:#454645;stroke-width:1.0;" x1="232" x2="382" y1="112.4297" y2="112.4297"/><text fill="#000000" font-family="sans-serif" font-size="13" font-weight="bold" lengthAdjust="spacing" textLength="9" x="239" y="107.3638">1</text><text fill="#000000" font-family="sans-serif" font-size="13" lengthAdjust="spacing" textLength="119" x="252" y="107.3638">msgsnd(loadData)</text><polygon fill="#454645" points="537,137.5625,547,141.5625,537,145.5625,541,141.5625" style="stroke:#454645;stroke-width:1.0;"/><line style="stroke:#454645;stroke-width:1.0;" x1="388" x2="543" y1="141.5625" y2="141.5625"/><text fill="#000000" font-family="sans-serif" font-size="13" font-weight="bold" lengthAdjust="spacing" textLength="9" x="395" y="136.4966">2</text><text fill="#000000" font-family="sans-serif" font-size="13" lengthAdjust="spacing" textLength="124" x="408" y="136.4966">msgrecv(loadData)</text><polygon fill="#454645" points="750,166.6953,760,170.6953,750,174.6953,754,170.6953" style="stroke:#454645;stroke-width:1.0;"/><line style="stroke:#454645;stroke-width:1.0;" x1="549" x2="756" y1="170.6953" y2="170.6953"/><text fill="#000000" font-family="sans-serif" font-size="13" font-weight="bold" lengthAdjust="spacing" textLength="8" x="556" y="165.6294">3</text><text fill="#000000" font-family="sans-serif" font-size="13" lengthAdjust="spacing" textLength="176" x="568" y="165.6294">msgsnd(loadData, ClientID)</text><polygon fill="#454645" points="968,195.8281,978,199.8281,968,203.8281,972,199.8281" style="stroke:#454645;stroke-width:1.0;"/><line style="stroke:#454645;stroke-width:1.0;" x1="762" x2="974" y1="199.8281" y2="199.8281"/><text fill="#000000" font-family="sans-serif" font-size="13" font-weight="bold" lengthAdjust="spacing" textLength="9" x="769" y="194.7622">4</text><text fill="#000000" font-family="sans-serif" font-size="13" lengthAdjust="spacing" textLength="181" x="782" y="194.7622">msgrecv(loadData, ClientID)</text><polygon fill="#454645" points="991,224.9609,981,228.9609,991,232.9609,987,228.9609" style="stroke:#454645;stroke-width:1.0;"/><polygon fill="#454645" points="1142,224.9609,1152,228.9609,1142,232.9609,1146,228.9609" style="stroke:#454645;stroke-width:1.0;"/><line style="stroke:#454645;stroke-width:1.0;" x1="985" x2="1148" y1="228.9609" y2="228.9609"/><text fill="#000000" font-family="sans-serif" font-size="13" font-weight="bold" lengthAdjust="spacing" textLength="9" x="997" y="223.895">5</text><text fill="#000000" font-family="sans-serif" font-size="13" lengthAdjust="spacing" textLength="117" x="1010" y="223.895">loadData(ClientID)</text><line style="stroke:#454645;stroke-width:1.0;" x1="980" x2="1022" y1="258.0938" y2="258.0938"/><line style="stroke:#454645;stroke-width:1.0;" x1="1022" x2="1022" y1="258.0938" y2="271.0938"/><line style="stroke:#454645;stroke-width:1.0;" x1="981" x2="1022" y1="271.0938" y2="271.0938"/><polygon fill="#454645" points="991,267.0938,981,271.0938,991,275.0938,987,271.0938" style="stroke:#454645;stroke-width:1.0;"/><text fill="#000000" font-family="sans-serif" font-size="13" font-weight="bold" lengthAdjust="spacing" textLength="9" x="987" y="253.0278">6</text><text fill="#000000" font-family="sans-serif" font-size="13" lengthAdjust="spacing" textLength="107" x="1000" y="253.0278">verifyData(data)</text><line style="stroke:#454645;stroke-width:1.0;" x1="980" x2="1022" y1="300.2266" y2="300.2266"/><line style="stroke:#454645;stroke-width:1.0;" x1="1022" x2="1022" y1="300.2266" y2="313.2266"/><line style="stroke:#454645;stroke-width:1.0;" x1="981" x2="1022" y1="313.2266" y2="313.2266"/><polygon fill="#454645" points="991,309.2266,981,313.2266,991,317.2266,987,313.2266" style="stroke:#454645;stroke-width:1.0;"/><text fill="#000000" font-family="sans-serif" font-size="13" font-weight="bold" lengthAdjust="spacing" textLength="9" x="987" y="295.1606">7</text><text fill="#000000" font-family="sans-serif" font-size="13" lengthAdjust="spacing" textLength="146" x="1000" y="295.1606">checkUserStatus(data)</text><line style="stroke:#454645;stroke-width:1.0;" x1="980" x2="1022" y1="342.3594" y2="342.3594"/><line style="stroke:#454645;stroke-width:1.0;" x1="1022" x2="1022" y1="342.3594" y2="355.3594"/><line style="stroke:#454645;stroke-width:1.0;" x1="981" x2="1022" y1="355.3594" y2="355.3594"/><polygon fill="#454645" points="991,351.3594,981,355.3594,991,359.3594,987,355.3594" style="stroke:#454645;stroke-width:1.0;"/><text fill="#000000" font-family="sans-serif" font-size="13" font-weight="bold" lengthAdjust="spacing" textLength="9" x="987" y="337.2935">8</text><text fill="#000000" font-family="sans-serif" font-size="13" lengthAdjust="spacing" textLength="147" x="1000" y="337.2935">status(ClientID, Online)</text><line style="stroke:#454645;stroke-width:1.0;" x1="980" x2="1022" y1="384.4922" y2="384.4922"/><line style="stroke:#454645;stroke-width:1.0;" x1="1022" x2="1022" y1="384.4922" y2="397.4922"/><line style="stroke:#454645;stroke-width:1.0;" x1="981" x2="1022" y1="397.4922" y2="397.4922"/><polygon fill="#454645" points="991,393.4922,981,397.4922,991,401.4922,987,397.4922" style="stroke:#454645;stroke-width:1.0;"/><text fill="#000000" font-family="sans-serif" font-size="13" font-weight="bold" lengthAdjust="spacing" textLength="9" x="987" y="379.4263">9</text><text fill="#000000" font-family="sans-serif" font-size="13" lengthAdjust="spacing" textLength="107" x="1000" y="379.4263">propagateStatus</text><polygon fill="#454645" points="399,422.625,389,426.625,399,430.625,395,426.625" style="stroke:#454645;stroke-width:1.0;"/><line style="stroke:#454645;stroke-width:1.0;" x1="393" x2="979" y1="426.625" y2="426.625"/><text fill="#000000" font-family="sans-serif" font-size="13" font-weight="bold" lengthAdjust="spacing" textLength="19" x="405" y="421.5591">10</text><text fill="#000000" font-family="sans-serif" font-size="13" lengthAdjust="spacing" textLength="90" x="428" y="421.5591">msgsnd(data)</text><polygon fill="#454645" points="537,451.7578,547,455.7578,537,459.7578,541,455.7578" style="stroke:#454645;stroke-width:1.0;"/><line style="stroke:#454645;stroke-width:1.0;" x1="388" x2="543" y1="455.7578" y2="455.7578"/><text fill="#000000" font-family="sans-serif" font-size="13" font-weight="bold" lengthAdjust="spacing" textLength="18" x="395" y="450.6919">11</text><text fill="#000000" font-family="sans-serif" font-size="13" lengthAdjust="spacing" textLength="95" x="417" y="450.6919">msgrecv(data)</text><line style="stroke:#454645;stroke-width:1.0;" x1="549" x2="591" y1="484.8906" y2="484.8906"/><line style="stroke:#454645;stroke-width:1.0;" x1="591" x2="591" y1="484.8906" y2="497.8906"/><line style="stroke:#454645;stroke-width:1.0;" x1="550" x2="591" y1="497.8906" y2="497.8906"/><polygon fill="#454645" points="560,493.8906,550,497.8906,560,501.8906,556,497.8906" style="stroke:#454645;stroke-width:1.0;"/><text fill="#000000" font-family="sans-serif" font-size="13" font-weight="bold" lengthAdjust="spacing" textLength="18" x="556" y="479.8247">12</text><text fill="#000000" font-family="sans-serif" font-size="13" lengthAdjust="spacing" textLength="177" x="578" y="479.8247">change msg access rights()</text><polygon fill="#454645" points="399,523.0234,389,527.0234,399,531.0234,395,527.0234" style="stroke:#454645;stroke-width:1.0;"/><line style="stroke:#454645;stroke-width:1.0;" x1="393" x2="548" y1="527.0234" y2="527.0234"/><text fill="#000000" font-family="sans-serif" font-size="13" font-weight="bold" lengthAdjust="spacing" textLength="17" x="405" y="521.9575">13</text><text fill="#000000" font-family="sans-serif" font-size="13" lengthAdjust="spacing" textLength="90" x="426" y="521.9575">msgsnd(data)</text><polygon fill="#454645" points="243,552.1563,233,556.1563,243,560.1563,239,556.1563" style="stroke:#454645;stroke-width:1.0;"/><line style="stroke:#454645;stroke-width:1.0;" x1="237" x2="387" y1="556.1563" y2="556.1563"/><text fill="#000000" font-family="sans-serif" font-size="13" font-weight="bold" lengthAdjust="spacing" textLength="18" x="249" y="551.0903">14</text><text fill="#000000" font-family="sans-serif" font-size="13" lengthAdjust="spacing" textLength="95" x="271" y="551.0903">msgrecv(data)</text><line style="stroke:#454645;stroke-width:1.0;" x1="232" x2="274" y1="585.2891" y2="585.2891"/><line style="stroke:#454645;stroke-width:1.0;" x1="274" x2="274" y1="585.2891" y2="598.2891"/><line style="stroke:#454645;stroke-width:1.0;" x1="233" x2="274" y1="598.2891" y2="598.2891"/><polygon fill="#454645" points="243,594.2891,233,598.2891,243,602.2891,239,598.2891" style="stroke:#454645;stroke-width:1.0;"/><text fill="#000000" font-family="sans-serif" font-size="13" font-weight="bold" lengthAdjust="spacing" textLength="18" x="239" y="580.2231">15</text><text fill="#000000" font-family="sans-serif" font-size="13" lengthAdjust="spacing" textLength="97" x="261" y="580.2231">loadData(data)</text><polygon fill="#454645" points="96,623.4219,86,627.4219,96,631.4219,92,627.4219" style="stroke:#454645;stroke-width:1.0;"/><polygon fill="#454645" points="220,623.4219,230,627.4219,220,631.4219,224,627.4219" style="stroke:#454645;stroke-width:1.0;"/><line style="stroke:#454645;stroke-width:1.0;" x1="90" x2="226" y1="627.4219" y2="627.4219"/><text fill="#000000" font-family="sans-serif" font-size="13" font-weight="bold" lengthAdjust="spacing" textLength="18" x="102" y="622.356">16</text><text fill="#000000" font-family="sans-serif" font-size="13" lengthAdjust="spacing" textLength="101" x="124" y="622.356">saveData(data)</text><!--SRC=[ZPB1RiCW38RlF8LtwwIkkLVL3bqkFKrJjGTmY9kW1SZ0PDhRZvGcMPPCwWM1_Vd_3UQ1Qz84dIeS6eQBinfgvjRliypXrwvIN8SYU7BI6YR3EsbrrZOH3hgPDXezaykkQbvWO6k2BiW9WPAjWwCj03syHo5H8cE1dk2bKL4nFueM7Ikfshw551IVWGB1cRnNrhprXnarP4RETUIMM8fFZkaS7OL8Fl3qF3E1FMXVULDk6ejb7kiUnIm_yGbr9Bibcx2nfwNgzdRFKzxNJE1OjwA-h873oEV7M36GcmNuMpUkwl9zvSfRqmj6rYG_-ccT6Jdu_q6VyeFX5bvDemojigspBLR8b4J5Z5cRGNdd-vVBjnyGMQEfg2S1fOnXSAggsM_M-BliRn_dh_lqdqPW7CUCE8p8TMOUEvgW7m00]--></g></svg>