<?xml version="1.0" encoding="UTF-8" standalone="no"?><svg xmlns="http://www.w3.org/2000/svg" xmlns:xlink="http://www.w3.org/1999/xlink" contentStyleType="text/css" height="641px" preserveAspectRatio="none" style="width:1192px;height:641px;background:#FFFFFF;" version="1.1" viewBox="0 0 1192 641" width="1192px" zoomAndPan="magnify"><defs/><g><line style="stroke:#696969;stroke-width:0.5;stroke-dasharray:5.0,5.0;" x1="22" x2="22" y1="81.2969" y2="561.1563"/><line style="stroke:#696969;stroke-width:0.5;stroke-dasharray:5.0,5.0;" x1="85" x2="85" y1="81.2969" y2="561.1563"/><line style="stroke:#696969;stroke-width:0.5;stroke-dasharray:5.0,5.0;" x1="231.5" x2="231.5" y1="81.2969" y2="561.1563"/><line style="stroke:#696969;stroke-width:0.5;stroke-dasharray:5.0,5.0;" x1="387.5" x2="387.5" y1="81.2969" y2="561.1563"/><line style="stroke:#696969;stroke-width:0.5;stroke-dasharray:5.0,5.0;" x1="549" x2="549" y1="81.2969" y2="561.1563"/><line style="stroke:#696969;stroke-width:0.5;stroke-dasharray:5.0,5.0;" x1="763" x2="763" y1="81.2969" y2="561.1563"/><line style="stroke:#696969;stroke-width:0.5;stroke-dasharray:5.0,5.0;" x1="980.5" x2="980.5" y1="81.2969" y2="561.1563"/><line style="stroke:#696969;stroke-width:0.5;stroke-dasharray:5.0,5.0;" x1="1154" x2="1154" y1="81.2969" y2="561.1563"/><text fill="#454645" font-family="sans-serif" font-size="14" lengthAdjust="spacing" textLength="29" x="5" y="77.9951">Bob</text><ellipse cx="22.5" cy="13.5" fill="#454645" rx="8" ry="8" style="stroke:#454645;stroke-width:0.5;"/><path d="M22.5,21.5 L22.5,48.5 M9.5,29.5 L35.5,29.5 M22.5,48.5 L9.5,63.5 M22.5,48.5 L35.5,63.5 " fill="none" style="stroke:#454645;stroke-width:0.5;"/><text fill="#454645" font-family="sans-serif" font-size="14" lengthAdjust="spacing" textLength="29" x="5" y="573.1514">Bob</text><ellipse cx="22.5" cy="584.9531" fill="#454645" rx="8" ry="8" style="stroke:#454645;stroke-width:0.5;"/><path d="M22.5,592.9531 L22.5,619.9531 M9.5,600.9531 L35.5,600.9531 M22.5,619.9531 L9.5,634.9531 M22.5,619.9531 L35.5,634.9531 " fill="none" style="stroke:#454645;stroke-width:0.5;"/><text fill="#454645" font-family="sans-serif" font-size="14" lengthAdjust="spacing" textLength="64" x="50" y="77.9951">ClientDB</text><path d="M67,29 C67,19 85,19 85,19 C85,19 103,19 103,29 L103,55 C103,65 85,65 85,65 C85,65 67,65 67,55 L67,29 " fill="#00FFFF" style="stroke:#454645;stroke-width:1.5;"/><path d="M67,29 C67,39 85,39 85,39 C85,39 103,39 103,29 " fill="none" style="stroke:#454645;stroke-width:1.5;"/><text fill="#454645" font-family="sans-serif" font-size="14" lengthAdjust="spacing" textLength="64" x="50" y="573.1514">ClientDB</text><path d="M67,586.4531 C67,576.4531 85,576.4531 85,576.4531 C85,576.4531 103,576.4531 103,586.4531 L103,612.4531 C103,622.4531 85,622.4531 85,622.4531 C85,622.4531 67,622.4531 67,612.4531 L67,586.4531 " fill="#00FFFF" style="stroke:#454645;stroke-width:1.5;"/><path d="M67,586.4531 C67,596.4531 85,596.4531 85,596.4531 C85,596.4531 103,596.4531 103,586.4531 " fill="none" style="stroke:#454645;stroke-width:1.5;"/><rect fill="#FF6347" height="30.2969" rx="3.5" ry="3.5" style="stroke:#454645;stroke-width:1.5;" width="57" x="203.5" y="50"/><text fill="#FFFFFF" font-family="sans-serif" font-size="14" lengthAdjust="spacing" textLength="43" x="210.5" y="69.9951">Client</text><rect fill="#FF6347" height="30.2969" rx="3.5" ry="3.5" style="stroke:#454645;stroke-width:1.5;" width="57" x="203.5" y="560.1563"/><text fill="#FFFFFF" font-family="sans-serif" font-size="14" lengthAdjust="spacing" textLength="43" x="210.5" y="580.1514">Client</text><path d="M333.5,55 L442.5,55 C447.5,55 447.5,68.1484 447.5,68.1484 C447.5,68.1484 447.5,81.2969 442.5,81.2969 L333.5,81.2969 C328.5,81.2969 328.5,68.1484 328.5,68.1484 C328.5,68.1484 328.5,55 333.5,55 " fill="#FF6347" style="stroke:#454645;stroke-width:1.5;"/><path d="M442.5,55 C437.5,55 437.5,68.1484 437.5,68.1484 C437.5,81.2969 442.5,81.2969 442.5,81.2969 " fill="none" style="stroke:#454645;stroke-width:1.5;"/><text fill="#FFFFFF" font-family="sans-serif" font-size="14" lengthAdjust="spacing" textLength="99" x="333.5" y="72.9951">SessionQueue</text><path d="M333.5,560.1563 L442.5,560.1563 C447.5,560.1563 447.5,573.3047 447.5,573.3047 C447.5,573.3047 447.5,586.4531 442.5,586.4531 L333.5,586.4531 C328.5,586.4531 328.5,573.3047 328.5,573.3047 C328.5,573.3047 328.5,560.1563 333.5,560.1563 " fill="#FF6347" style="stroke:#454645;stroke-width:1.5;"/><path d="M442.5,560.1563 C437.5,560.1563 437.5,573.3047 437.5,573.3047 C437.5,586.4531 442.5,586.4531 442.5,586.4531 " fill="none" style="stroke:#454645;stroke-width:1.5;"/><text fill="#FFFFFF" font-family="sans-serif" font-size="14" lengthAdjust="spacing" textLength="99" x="333.5" y="578.1514">SessionQueue</text><rect fill="#FF6347" height="30.2969" rx="3.5" ry="3.5" style="stroke:#454645;stroke-width:1.5;" width="68" x="515" y="50"/><text fill="#FFFFFF" font-family="sans-serif" font-size="14" lengthAdjust="spacing" textLength="54" x="522" y="69.9951">Session</text><rect fill="#FF6347" height="30.2969" rx="3.5" ry="3.5" style="stroke:#454645;stroke-width:1.5;" width="68" x="515" y="560.1563"/><text fill="#FFFFFF" font-family="sans-serif" font-size="14" lengthAdjust="spacing" textLength="54" x="522" y="580.1514">Session</text><path d="M712,55 L814,55 C819,55 819,68.1484 819,68.1484 C819,68.1484 819,81.2969 814,81.2969 L712,81.2969 C707,81.2969 707,68.1484 707,68.1484 C707,68.1484 707,55 712,55 " fill="#FF6347" style="stroke:#454645;stroke-width:1.5;"/><path d="M814,55 C809,55 809,68.1484 809,68.1484 C809,81.2969 814,81.2969 814,81.2969 " fill="none" style="stroke:#454645;stroke-width:1.5;"/><text fill="#FFFFFF" font-family="sans-serif" font-size="14" lengthAdjust="spacing" textLength="92" x="712" y="72.9951">ServerQueue</text><path d="M712,560.1563 L814,560.1563 C819,560.1563 819,573.3047 819,573.3047 C819,573.3047 819,586.4531 814,586.4531 L712,586.4531 C707,586.4531 707,573.3047 707,573.3047 C707,573.3047 707,560.1563 712,560.1563 " fill="#FF6347" style="stroke:#454645;stroke-width:1.5;"/><path d="M814,560.1563 C809,560.1563 809,573.3047 809,573.3047 C809,586.4531 814,586.4531 814,586.4531 " fill="none" style="stroke:#454645;stroke-width:1.5;"/><text fill="#FFFFFF" font-family="sans-serif" font-size="14" lengthAdjust="spacing" textLength="92" x="712" y="578.1514">ServerQueue</text><rect fill="#FF6347" height="30.2969" rx="3.5" ry="3.5" style="stroke:#454645;stroke-width:1.5;" width="61" x="950.5" y="50"/><text fill="#FFFFFF" font-family="sans-serif" font-size="14" lengthAdjust="spacing" textLength="47" x="957.5" y="69.9951">Server</text><rect fill="#FF6347" height="30.2969" rx="3.5" ry="3.5" style="stroke:#454645;stroke-width:1.5;" width="61" x="950.5" y="560.1563"/><text fill="#FFFFFF" font-family="sans-serif" font-size="14" lengthAdjust="spacing" textLength="47" x="957.5" y="580.1514">Server</text><text fill="#454645" font-family="sans-serif" font-size="14" lengthAdjust="spacing" textLength="68" x="1117" y="77.9951">ServerDB</text><path d="M1136,29 C1136,19 1154,19 1154,19 C1154,19 1172,19 1172,29 L1172,55 C1172,65 1154,65 1154,65 C1154,65 1136,65 1136,55 L1136,29 " fill="#00FFFF" style="stroke:#454645;stroke-width:1.5;"/><path d="M1136,29 C1136,39 1154,39 1154,39 C1154,39 1172,39 1172,29 " fill="none" style="stroke:#454645;stroke-width:1.5;"/><text fill="#454645" font-family="sans-serif" font-size="14" lengthAdjust="spacing" textLength="68" x="1117" y="573.1514">ServerDB</text><path d="M1136,586.4531 C1136,576.4531 1154,576.4531 1154,576.4531 C1154,576.4531 1172,576.4531 1172,586.4531 L1172,612.4531 C1172,622.4531 1154,622.4531 1154,622.4531 C1154,622.4531 1136,622.4531 1136,612.4531 L1136,586.4531 " fill="#00FFFF" style="stroke:#454645;stroke-width:1.5;"/><path d="M1136,586.4531 C1136,596.4531 1154,596.4531 1154,596.4531 C1154,596.4531 1172,596.4531 1172,586.4531 " fill="none" style="stroke:#454645;stroke-width:1.5;"/><polygon fill="#454645" points="376,108.4297,386,112.4297,376,116.4297,380,112.4297" style="stroke:#454645;stroke-width:1.0;"/><line style="stroke:#454645;stroke-width:1.0;" x1="232" x2="382" y1="112.4297" y2="112.4297"/><text fill="#000000" font-family="sans-serif" font-size="13" font-weight="bold" lengthAdjust="spacing" textLength="9" x="239" y="107.3638">1</text><text fill="#000000" font-family="sans-serif" font-size="13" lengthAdjust="spacing" textLength="119" x="252" y="107.3638">msgsnd(loadData)</text><polygon fill="#454645" points="537,137.5625,547,141.5625,537,145.5625,541,141.5625" style="stroke:#454645;stroke-width:1.0;"/><line style="stroke:#454645;stroke-width:1.0;" x1="388" x2="543" y1="141.5625" y2="141.5625"/><text fill="#000000" font-family="sans-serif" font-size="13" font-weight="bold" lengthAdjust="spacing" textLength="9" x="395" y="136.4966">2</text><text fill="#000000" font-family="sans-serif" font-size="13" lengthAdjust="spacing" textLength="124" x="408" y="136.4966">msgrecv(loadData)</text><polygon fill="#454645" points="751,166.6953,761,170.6953,751,174.6953,755,170.6953" style="stroke:#454645;stroke-width:1.0;"/><line style="stroke:#454645;stroke-width:1.0;" x1="549" x2="757" y1="170.6953" y2="170.6953"/><text fill="#000000" font-family="sans-serif" font-size="13" font-weight="bold" lengthAdjust="spacing" textLength="8" x="556" y="165.6294">3</text><text fill="#000000" font-family="sans-serif" font-size="13" lengthAdjust="spacing" textLength="176" x="568" y="165.6294">msgsnd(loadData, ClientID)</text><polygon fill="#454645" points="969,195.8281,979,199.8281,969,203.8281,973,199.8281" style="stroke:#454645;stroke-width:1.0;"/><line style="stroke:#454645;stroke-width:1.0;" x1="763" x2="975" y1="199.8281" y2="199.8281"/><text fill="#000000" font-family="sans-serif" font-size="13" font-weight="bold" lengthAdjust="spacing" textLength="9" x="770" y="194.7622">4</text><text fill="#000000" font-family="sans-serif" font-size="13" lengthAdjust="spacing" textLength="181" x="783" y="194.7622">msgrecv(loadData, ClientID)</text><polygon fill="#454645" points="992,224.9609,982,228.9609,992,232.9609,988,228.9609" style="stroke:#454645;stroke-width:1.0;"/><polygon fill="#454645" points="1142,224.9609,1152,228.9609,1142,232.9609,1146,228.9609" style="stroke:#454645;stroke-width:1.0;"/><line style="stroke:#454645;stroke-width:1.0;" x1="986" x2="1148" y1="228.9609" y2="228.9609"/><text fill="#000000" font-family="sans-serif" font-size="13" font-weight="bold" lengthAdjust="spacing" textLength="9" x="998" y="223.895">5</text><text fill="#000000" font-family="sans-serif" font-size="13" lengthAdjust="spacing" textLength="117" x="1011" y="223.895">loadData(ClientID)</text><line style="stroke:#454645;stroke-width:1.0;" x1="981" x2="1023" y1="258.0938" y2="258.0938"/><line style="stroke:#454645;stroke-width:1.0;" x1="1023" x2="1023" y1="258.0938" y2="271.0938"/><line style="stroke:#454645;stroke-width:1.0;" x1="982" x2="1023" y1="271.0938" y2="271.0938"/><polygon fill="#454645" points="992,267.0938,982,271.0938,992,275.0938,988,271.0938" style="stroke:#454645;stroke-width:1.0;"/><text fill="#000000" font-family="sans-serif" font-size="13" font-weight="bold" lengthAdjust="spacing" textLength="9" x="988" y="253.0278">6</text><text fill="#000000" font-family="sans-serif" font-size="13" lengthAdjust="spacing" textLength="107" x="1001" y="253.0278">verifyData(data)</text><line style="stroke:#454645;stroke-width:1.0;" x1="981" x2="1023" y1="300.2266" y2="300.2266"/><line style="stroke:#454645;stroke-width:1.0;" x1="1023" x2="1023" y1="300.2266" y2="313.2266"/><line style="stroke:#454645;stroke-width:1.0;" x1="982" x2="1023" y1="313.2266" y2="313.2266"/><polygon fill="#454645" points="992,309.2266,982,313.2266,992,317.2266,988,313.2266" style="stroke:#454645;stroke-width:1.0;"/><text fill="#000000" font-family="sans-serif" font-size="13" font-weight="bold" lengthAdjust="spacing" textLength="9" x="988" y="295.1606">7</text><text fill="#000000" font-family="sans-serif" font-size="13" lengthAdjust="spacing" textLength="146" x="1001" y="295.1606">checkUserStatus(data)</text><polygon fill="#454645" points="399,338.3594,389,342.3594,399,346.3594,395,342.3594" style="stroke:#454645;stroke-width:1.0;"/><line style="stroke:#454645;stroke-width:1.0;" x1="393" x2="980" y1="342.3594" y2="342.3594"/><text fill="#000000" font-family="sans-serif" font-size="13" font-weight="bold" lengthAdjust="spacing" textLength="9" x="405" y="337.2935">8</text><text fill="#000000" font-family="sans-serif" font-size="13" lengthAdjust="spacing" textLength="90" x="418" y="337.2935">msgsnd(data)</text><polygon fill="#454645" points="537,367.4922,547,371.4922,537,375.4922,541,371.4922" style="stroke:#454645;stroke-width:1.0;"/><line style="stroke:#454645;stroke-width:1.0;" x1="388" x2="543" y1="371.4922" y2="371.4922"/><text fill="#000000" font-family="sans-serif" font-size="13" font-weight="bold" lengthAdjust="spacing" textLength="9" x="395" y="366.4263">9</text><text fill="#000000" font-family="sans-serif" font-size="13" lengthAdjust="spacing" textLength="95" x="408" y="366.4263">msgrecv(data)</text><line style="stroke:#454645;stroke-width:1.0;" x1="549" x2="591" y1="400.625" y2="400.625"/><line style="stroke:#454645;stroke-width:1.0;" x1="591" x2="591" y1="400.625" y2="413.625"/><line style="stroke:#454645;stroke-width:1.0;" x1="550" x2="591" y1="413.625" y2="413.625"/><polygon fill="#454645" points="560,409.625,550,413.625,560,417.625,556,413.625" style="stroke:#454645;stroke-width:1.0;"/><text fill="#000000" font-family="sans-serif" font-size="13" font-weight="bold" lengthAdjust="spacing" textLength="19" x="556" y="395.5591">10</text><text fill="#000000" font-family="sans-serif" font-size="13" lengthAdjust="spacing" textLength="177" x="579" y="395.5591">change msg access rights()</text><polygon fill="#454645" points="399,438.7578,389,442.7578,399,446.7578,395,442.7578" style="stroke:#454645;stroke-width:1.0;"/><line style="stroke:#454645;stroke-width:1.0;" x1="393" x2="548" y1="442.7578" y2="442.7578"/><text fill="#000000" font-family="sans-serif" font-size="13" font-weight="bold" lengthAdjust="spacing" textLength="18" x="405" y="437.6919">11</text><text fill="#000000" font-family="sans-serif" font-size="13" lengthAdjust="spacing" textLength="90" x="427" y="437.6919">msgsnd(data)</text><polygon fill="#454645" points="243,467.8906,233,471.8906,243,475.8906,239,471.8906" style="stroke:#454645;stroke-width:1.0;"/><line style="stroke:#454645;stroke-width:1.0;" x1="237" x2="387" y1="471.8906" y2="471.8906"/><text fill="#000000" font-family="sans-serif" font-size="13" font-weight="bold" lengthAdjust="spacing" textLength="18" x="249" y="466.8247">12</text><text fill="#000000" font-family="sans-serif" font-size="13" lengthAdjust="spacing" textLength="95" x="271" y="466.8247">msgrecv(data)</text><line style="stroke:#454645;stroke-width:1.0;" x1="232" x2="274" y1="501.0234" y2="501.0234"/><line style="stroke:#454645;stroke-width:1.0;" x1="274" x2="274" y1="501.0234" y2="514.0234"/><line style="stroke:#454645;stroke-width:1.0;" x1="233" x2="274" y1="514.0234" y2="514.0234"/><polygon fill="#454645" points="243,510.0234,233,514.0234,243,518.0234,239,514.0234" style="stroke:#454645;stroke-width:1.0;"/><text fill="#000000" font-family="sans-serif" font-size="13" font-weight="bold" lengthAdjust="spacing" textLength="17" x="239" y="495.9575">13</text><text fill="#000000" font-family="sans-serif" font-size="13" lengthAdjust="spacing" textLength="97" x="260" y="495.9575">loadData(data)</text><polygon fill="#454645" points="96,539.1563,86,543.1563,96,547.1563,92,543.1563" style="stroke:#454645;stroke-width:1.0;"/><polygon fill="#454645" points="220,539.1563,230,543.1563,220,547.1563,224,543.1563" style="stroke:#454645;stroke-width:1.0;"/><line style="stroke:#454645;stroke-width:1.0;" x1="90" x2="226" y1="543.1563" y2="543.1563"/><text fill="#000000" font-family="sans-serif" font-size="13" font-weight="bold" lengthAdjust="spacing" textLength="18" x="102" y="538.0903">14</text><text fill="#000000" font-family="sans-serif" font-size="13" lengthAdjust="spacing" textLength="101" x="124" y="538.0903">saveData(data)</text><!--SRC=[ZTB1ReCm303GUxx2kp5fA_Ugsg7ZikDKxGDCS24QILZYCEtl5meDO-cX5qISPpiuF717cc1KjKF3S7PMGySy-7rPElpUjOgxK0TFJbh3P7WdhIw7FkAW-_L5esTovQMQ5nZOcg1hSaAWPElWQ6j03n-na6YGiKPFyDghMB4wYW4TAwc6wGXpK7m52WGdybvPypujDkgwavmRoULiZgyTvtNiACJS1vvVDarW3zgttZH5Rx6fOjwZsEolVgQEv9ZRcQKpvLMVbkzygwQS5QQy6zNp73WaNnrZnbKM6VnRDpxL-UVYckNGcP4ToS_fjawC7Fm2D_BMq9ex1zRamxeIsQ5fQPA0KiOmEDLsx8jR_gxsoqt_xxx-00ca-Mt48P7Ba3sEjA9V]--></g></svg>