<?xml version="1.0" encoding="UTF-8" standalone="no"?><svg xmlns="http://www.w3.org/2000/svg" xmlns:xlink="http://www.w3.org/1999/xlink" contentStyleType="text/css" height="182px" preserveAspectRatio="none" style="width:672px;height:182px;background:#FFFFFF;" version="1.1" viewBox="0 0 672 182" width="672px" zoomAndPan="magnify"><defs/><g><line style="stroke:#696969;stroke-width:0.5;stroke-dasharray:5.0,5.0;" x1="22" x2="22" y1="81.2969" y2="101.2969"/><line style="stroke:#696969;stroke-width:0.5;stroke-dasharray:5.0,5.0;" x1="85" x2="85" y1="81.2969" y2="101.2969"/><line style="stroke:#696969;stroke-width:0.5;stroke-dasharray:5.0,5.0;" x1="158" x2="158" y1="81.2969" y2="101.2969"/><line style="stroke:#696969;stroke-width:0.5;stroke-dasharray:5.0,5.0;" x1="256" x2="256" y1="81.2969" y2="101.2969"/><line style="stroke:#696969;stroke-width:0.5;stroke-dasharray:5.0,5.0;" x1="360" x2="360" y1="81.2969" y2="101.2969"/><line style="stroke:#696969;stroke-width:0.5;stroke-dasharray:5.0,5.0;" x1="460" x2="460" y1="81.2969" y2="101.2969"/><line style="stroke:#696969;stroke-width:0.5;stroke-dasharray:5.0,5.0;" x1="556" x2="556" y1="81.2969" y2="101.2969"/><line style="stroke:#696969;stroke-width:0.5;stroke-dasharray:5.0,5.0;" x1="634" x2="634" y1="81.2969" y2="101.2969"/><text fill="#454645" font-family="sans-serif" font-size="14" lengthAdjust="spacing" textLength="29" x="5" y="77.9951">Bob</text><ellipse cx="22.5" cy="13.5" fill="#454645" rx="8" ry="8" style="stroke:#454645;stroke-width:0.5;"/><path d="M22.5,21.5 L22.5,48.5 M9.5,29.5 L35.5,29.5 M22.5,48.5 L9.5,63.5 M22.5,48.5 L35.5,63.5 " fill="none" style="stroke:#454645;stroke-width:0.5;"/><text fill="#454645" font-family="sans-serif" font-size="14" lengthAdjust="spacing" textLength="29" x="5" y="113.292">Bob</text><ellipse cx="22.5" cy="125.0938" fill="#454645" rx="8" ry="8" style="stroke:#454645;stroke-width:0.5;"/><path d="M22.5,133.0938 L22.5,160.0938 M9.5,141.0938 L35.5,141.0938 M22.5,160.0938 L9.5,175.0938 M22.5,160.0938 L35.5,175.0938 " fill="none" style="stroke:#454645;stroke-width:0.5;"/><text fill="#454645" font-family="sans-serif" font-size="14" lengthAdjust="spacing" textLength="64" x="50" y="77.9951">ClientDB</text><path d="M67,29 C67,19 85,19 85,19 C85,19 103,19 103,29 L103,55 C103,65 85,65 85,65 C85,65 67,65 67,55 L67,29 " fill="#00FFFF" style="stroke:#454645;stroke-width:1.5;"/><path d="M67,29 C67,39 85,39 85,39 C85,39 103,39 103,29 " fill="none" style="stroke:#454645;stroke-width:1.5;"/><text fill="#454645" font-family="sans-serif" font-size="14" lengthAdjust="spacing" textLength="64" x="50" y="113.292">ClientDB</text><path d="M67,126.5938 C67,116.5938 85,116.5938 85,116.5938 C85,116.5938 103,116.5938 103,126.5938 L103,152.5938 C103,162.5938 85,162.5938 85,162.5938 C85,162.5938 67,162.5938 67,152.5938 L67,126.5938 " fill="#00FFFF" style="stroke:#454645;stroke-width:1.5;"/><path d="M67,126.5938 C67,136.5938 85,136.5938 85,136.5938 C85,136.5938 103,136.5938 103,126.5938 " fill="none" style="stroke:#454645;stroke-width:1.5;"/><rect fill="#FF6347" height="30.2969" rx="3.5" ry="3.5" style="stroke:#454645;stroke-width:1.5;" width="57" x="130" y="50"/><text fill="#FFFFFF" font-family="sans-serif" font-size="14" lengthAdjust="spacing" textLength="43" x="137" y="69.9951">Client</text><rect fill="#FF6347" height="30.2969" rx="3.5" ry="3.5" style="stroke:#454645;stroke-width:1.5;" width="57" x="130" y="100.2969"/><text fill="#FFFFFF" font-family="sans-serif" font-size="14" lengthAdjust="spacing" textLength="43" x="137" y="120.292">Client</text><path d="M202,55 L311,55 C316,55 316,68.1484 316,68.1484 C316,68.1484 316,81.2969 311,81.2969 L202,81.2969 C197,81.2969 197,68.1484 197,68.1484 C197,68.1484 197,55 202,55 " fill="#FF6347" style="stroke:#454645;stroke-width:1.5;"/><path d="M311,55 C306,55 306,68.1484 306,68.1484 C306,81.2969 311,81.2969 311,81.2969 " fill="none" style="stroke:#454645;stroke-width:1.5;"/><text fill="#FFFFFF" font-family="sans-serif" font-size="14" lengthAdjust="spacing" textLength="99" x="202" y="72.9951">SessionQueue</text><path d="M202,100.2969 L311,100.2969 C316,100.2969 316,113.4453 316,113.4453 C316,113.4453 316,126.5938 311,126.5938 L202,126.5938 C197,126.5938 197,113.4453 197,113.4453 C197,113.4453 197,100.2969 202,100.2969 " fill="#FF6347" style="stroke:#454645;stroke-width:1.5;"/><path d="M311,100.2969 C306,100.2969 306,113.4453 306,113.4453 C306,126.5938 311,126.5938 311,126.5938 " fill="none" style="stroke:#454645;stroke-width:1.5;"/><text fill="#FFFFFF" font-family="sans-serif" font-size="14" lengthAdjust="spacing" textLength="99" x="202" y="118.292">SessionQueue</text><rect fill="#FF6347" height="30.2969" rx="3.5" ry="3.5" style="stroke:#454645;stroke-width:1.5;" width="68" x="326" y="50"/><text fill="#FFFFFF" font-family="sans-serif" font-size="14" lengthAdjust="spacing" textLength="54" x="333" y="69.9951">Session</text><rect fill="#FF6347" height="30.2969" rx="3.5" ry="3.5" style="stroke:#454645;stroke-width:1.5;" width="68" x="326" y="100.2969"/><text fill="#FFFFFF" font-family="sans-serif" font-size="14" lengthAdjust="spacing" textLength="54" x="333" y="120.292">Session</text><path d="M409,55 L511,55 C516,55 516,68.1484 516,68.1484 C516,68.1484 516,81.2969 511,81.2969 L409,81.2969 C404,81.2969 404,68.1484 404,68.1484 C404,68.1484 404,55 409,55 " fill="#FF6347" style="stroke:#454645;stroke-width:1.5;"/><path d="M511,55 C506,55 506,68.1484 506,68.1484 C506,81.2969 511,81.2969 511,81.2969 " fill="none" style="stroke:#454645;stroke-width:1.5;"/><text fill="#FFFFFF" font-family="sans-serif" font-size="14" lengthAdjust="spacing" textLength="92" x="409" y="72.9951">ServerQueue</text><path d="M409,100.2969 L511,100.2969 C516,100.2969 516,113.4453 516,113.4453 C516,113.4453 516,126.5938 511,126.5938 L409,126.5938 C404,126.5938 404,113.4453 404,113.4453 C404,113.4453 404,100.2969 409,100.2969 " fill="#FF6347" style="stroke:#454645;stroke-width:1.5;"/><path d="M511,100.2969 C506,100.2969 506,113.4453 506,113.4453 C506,126.5938 511,126.5938 511,126.5938 " fill="none" style="stroke:#454645;stroke-width:1.5;"/><text fill="#FFFFFF" font-family="sans-serif" font-size="14" lengthAdjust="spacing" textLength="92" x="409" y="118.292">ServerQueue</text><rect fill="#FF6347" height="30.2969" rx="3.5" ry="3.5" style="stroke:#454645;stroke-width:1.5;" width="61" x="526" y="50"/><text fill="#FFFFFF" font-family="sans-serif" font-size="14" lengthAdjust="spacing" textLength="47" x="533" y="69.9951">Server</text><rect fill="#FF6347" height="30.2969" rx="3.5" ry="3.5" style="stroke:#454645;stroke-width:1.5;" width="61" x="526" y="100.2969"/><text fill="#FFFFFF" font-family="sans-serif" font-size="14" lengthAdjust="spacing" textLength="47" x="533" y="120.292">Server</text><text fill="#454645" font-family="sans-serif" font-size="14" lengthAdjust="spacing" textLength="68" x="597" y="77.9951">ServerDB</text><path d="M616,29 C616,19 634,19 634,19 C634,19 652,19 652,29 L652,55 C652,65 634,65 634,65 C634,65 616,65 616,55 L616,29 " fill="#00FFFF" style="stroke:#454645;stroke-width:1.5;"/><path d="M616,29 C616,39 634,39 634,39 C634,39 652,39 652,29 " fill="none" style="stroke:#454645;stroke-width:1.5;"/><text fill="#454645" font-family="sans-serif" font-size="14" lengthAdjust="spacing" textLength="68" x="597" y="113.292">ServerDB</text><path d="M616,126.5938 C616,116.5938 634,116.5938 634,116.5938 C634,116.5938 652,116.5938 652,126.5938 L652,152.5938 C652,162.5938 634,162.5938 634,162.5938 C634,162.5938 616,162.5938 616,152.5938 L616,126.5938 " fill="#00FFFF" style="stroke:#454645;stroke-width:1.5;"/><path d="M616,126.5938 C616,136.5938 634,136.5938 634,136.5938 C634,136.5938 652,136.5938 652,126.5938 " fill="none" style="stroke:#454645;stroke-width:1.5;"/><!--SRC=[POv93i8m34NtEOMvGBDdMNe1X3Y04moDr0nuADUdfGA4sFb_FprxfoDbWZa5ng9mvPfXL6sozvxnqTsIZXPCY6CjIaMxMBDlqm9Rdhv3Hb5Y_xA9GzDQB0TYvp1gPUXh01GuBo9tGSM0Gd2Oqc8SUjUGDSNKrXUsqjsDZE148gcMunf-gFVcm_5C_8zj_VVYbeV-2G00]--></g></svg>