<?xml version="1.0" encoding="UTF-8" standalone="no"?><svg xmlns="http://www.w3.org/2000/svg" xmlns:xlink="http://www.w3.org/1999/xlink" contentStyleType="text/css" height="1148px" preserveAspectRatio="none" style="width:1532px;height:1148px;background:#FFFFFF;" version="1.1" viewBox="0 0 1532 1148" width="1532px" zoomAndPan="magnify"><defs/><g><rect fill="none" height="806.6641" rx="3.5" ry="3.5" style="stroke:#696969;stroke-width:1.0;" width="1489" x="10" y="243.9609"/><rect fill="none" height="203.6016" rx="3.5" ry="3.5" style="stroke:#696969;stroke-width:1.0;" width="513" x="239.5" y="840.0234"/><line style="stroke:#696969;stroke-width:0.5;stroke-dasharray:5.0,5.0;" x1="54" x2="54" y1="81.2969" y2="1067.625"/><line style="stroke:#696969;stroke-width:0.5;stroke-dasharray:5.0,5.0;" x1="266.5" x2="266.5" y1="81.2969" y2="1067.625"/><line style="stroke:#696969;stroke-width:0.5;stroke-dasharray:5.0,5.0;" x1="329.5" x2="329.5" y1="81.2969" y2="1067.625"/><line style="stroke:#696969;stroke-width:0.5;stroke-dasharray:5.0,5.0;" x1="561" x2="561" y1="81.2969" y2="1067.625"/><line style="stroke:#696969;stroke-width:0.5;stroke-dasharray:5.0,5.0;" x1="922" x2="922" y1="81.2969" y2="1067.625"/><line style="stroke:#696969;stroke-width:0.5;stroke-dasharray:5.0,5.0;" x1="1048" x2="1048" y1="81.2969" y2="1067.625"/><line style="stroke:#696969;stroke-width:0.5;stroke-dasharray:5.0,5.0;" x1="1256.5" x2="1256.5" y1="81.2969" y2="1067.625"/><line style="stroke:#696969;stroke-width:0.5;stroke-dasharray:5.0,5.0;" x1="1494" x2="1494" y1="81.2969" y2="1067.625"/><rect fill="#FF6347" height="30.2969" rx="3.5" ry="3.5" style="stroke:#454645;stroke-width:1.5;" width="68" x="20" y="50"/><text fill="#FFFFFF" font-family="sans-serif" font-size="14" lengthAdjust="spacing" textLength="54" x="27" y="69.9951">Session</text><rect fill="#FF6347" height="30.2969" rx="3.5" ry="3.5" style="stroke:#454645;stroke-width:1.5;" width="68" x="20" y="1066.625"/><text fill="#FFFFFF" font-family="sans-serif" font-size="14" lengthAdjust="spacing" textLength="54" x="27" y="1086.6201">Session</text><text fill="#454645" font-family="sans-serif" font-size="14" lengthAdjust="spacing" textLength="29" x="249.5" y="77.9951">Bob</text><ellipse cx="267" cy="13.5" fill="#454645" rx="8" ry="8" style="stroke:#454645;stroke-width:0.5;"/><path d="M267,21.5 L267,48.5 M254,29.5 L280,29.5 M267,48.5 L254,63.5 M267,48.5 L280,63.5 " fill="none" style="stroke:#454645;stroke-width:0.5;"/><text fill="#454645" font-family="sans-serif" font-size="14" lengthAdjust="spacing" textLength="29" x="249.5" y="1079.6201">Bob</text><ellipse cx="267" cy="1091.4219" fill="#454645" rx="8" ry="8" style="stroke:#454645;stroke-width:0.5;"/><path d="M267,1099.4219 L267,1126.4219 M254,1107.4219 L280,1107.4219 M267,1126.4219 L254,1141.4219 M267,1126.4219 L280,1141.4219 " fill="none" style="stroke:#454645;stroke-width:0.5;"/><text fill="#454645" font-family="sans-serif" font-size="14" lengthAdjust="spacing" textLength="64" x="294.5" y="77.9951">ClientDB</text><path d="M311.5,29 C311.5,19 329.5,19 329.5,19 C329.5,19 347.5,19 347.5,29 L347.5,55 C347.5,65 329.5,65 329.5,65 C329.5,65 311.5,65 311.5,55 L311.5,29 " fill="#00FFFF" style="stroke:#454645;stroke-width:1.5;"/><path d="M311.5,29 C311.5,39 329.5,39 329.5,39 C329.5,39 347.5,39 347.5,29 " fill="none" style="stroke:#454645;stroke-width:1.5;"/><text fill="#454645" font-family="sans-serif" font-size="14" lengthAdjust="spacing" textLength="64" x="294.5" y="1079.6201">ClientDB</text><path d="M311.5,1092.9219 C311.5,1082.9219 329.5,1082.9219 329.5,1082.9219 C329.5,1082.9219 347.5,1082.9219 347.5,1092.9219 L347.5,1118.9219 C347.5,1128.9219 329.5,1128.9219 329.5,1128.9219 C329.5,1128.9219 311.5,1128.9219 311.5,1118.9219 L311.5,1092.9219 " fill="#00FFFF" style="stroke:#454645;stroke-width:1.5;"/><path d="M311.5,1092.9219 C311.5,1102.9219 329.5,1102.9219 329.5,1102.9219 C329.5,1102.9219 347.5,1102.9219 347.5,1092.9219 " fill="none" style="stroke:#454645;stroke-width:1.5;"/><rect fill="#FF6347" height="30.2969" rx="3.5" ry="3.5" style="stroke:#454645;stroke-width:1.5;" width="57" x="533" y="50"/><text fill="#FFFFFF" font-family="sans-serif" font-size="14" lengthAdjust="spacing" textLength="43" x="540" y="69.9951">Client</text><rect fill="#FF6347" height="30.2969" rx="3.5" ry="3.5" style="stroke:#454645;stroke-width:1.5;" width="57" x="533" y="1066.625"/><text fill="#FFFFFF" font-family="sans-serif" font-size="14" lengthAdjust="spacing" textLength="43" x="540" y="1086.6201">Client</text><path d="M868,55 L977,55 C982,55 982,68.1484 982,68.1484 C982,68.1484 982,81.2969 977,81.2969 L868,81.2969 C863,81.2969 863,68.1484 863,68.1484 C863,68.1484 863,55 868,55 " fill="#FF6347" style="stroke:#454645;stroke-width:1.5;"/><path d="M977,55 C972,55 972,68.1484 972,68.1484 C972,81.2969 977,81.2969 977,81.2969 " fill="none" style="stroke:#454645;stroke-width:1.5;"/><text fill="#FFFFFF" font-family="sans-serif" font-size="14" lengthAdjust="spacing" textLength="99" x="868" y="72.9951">SessionQueue</text><path d="M868,1066.625 L977,1066.625 C982,1066.625 982,1079.7734 982,1079.7734 C982,1079.7734 982,1092.9219 977,1092.9219 L868,1092.9219 C863,1092.9219 863,1079.7734 863,1079.7734 C863,1079.7734 863,1066.625 868,1066.625 " fill="#FF6347" style="stroke:#454645;stroke-width:1.5;"/><path d="M977,1066.625 C972,1066.625 972,1079.7734 972,1079.7734 C972,1092.9219 977,1092.9219 977,1092.9219 " fill="none" style="stroke:#454645;stroke-width:1.5;"/><text fill="#FFFFFF" font-family="sans-serif" font-size="14" lengthAdjust="spacing" textLength="99" x="868" y="1084.6201">SessionQueue</text><path d="M997,55 L1099,55 C1104,55 1104,68.1484 1104,68.1484 C1104,68.1484 1104,81.2969 1099,81.2969 L997,81.2969 C992,81.2969 992,68.1484 992,68.1484 C992,68.1484 992,55 997,55 " fill="#FF6347" style="stroke:#454645;stroke-width:1.5;"/><path d="M1099,55 C1094,55 1094,68.1484 1094,68.1484 C1094,81.2969 1099,81.2969 1099,81.2969 " fill="none" style="stroke:#454645;stroke-width:1.5;"/><text fill="#FFFFFF" font-family="sans-serif" font-size="14" lengthAdjust="spacing" textLength="92" x="997" y="72.9951">ServerQueue</text><path d="M997,1066.625 L1099,1066.625 C1104,1066.625 1104,1079.7734 1104,1079.7734 C1104,1079.7734 1104,1092.9219 1099,1092.9219 L997,1092.9219 C992,1092.9219 992,1079.7734 992,1079.7734 C992,1079.7734 992,1066.625 997,1066.625 " fill="#FF6347" style="stroke:#454645;stroke-width:1.5;"/><path d="M1099,1066.625 C1094,1066.625 1094,1079.7734 1094,1079.7734 C1094,1092.9219 1099,1092.9219 1099,1092.9219 " fill="none" style="stroke:#454645;stroke-width:1.5;"/><text fill="#FFFFFF" font-family="sans-serif" font-size="14" lengthAdjust="spacing" textLength="92" x="997" y="1084.6201">ServerQueue</text><rect fill="#FF6347" height="30.2969" rx="3.5" ry="3.5" style="stroke:#454645;stroke-width:1.5;" width="61" x="1226.5" y="50"/><text fill="#FFFFFF" font-family="sans-serif" font-size="14" lengthAdjust="spacing" textLength="47" x="1233.5" y="69.9951">Server</text><rect fill="#FF6347" height="30.2969" rx="3.5" ry="3.5" style="stroke:#454645;stroke-width:1.5;" width="61" x="1226.5" y="1066.625"/><text fill="#FFFFFF" font-family="sans-serif" font-size="14" lengthAdjust="spacing" textLength="47" x="1233.5" y="1086.6201">Server</text><text fill="#454645" font-family="sans-serif" font-size="14" lengthAdjust="spacing" textLength="68" x="1457" y="77.9951">ServerDB</text><path d="M1476,29 C1476,19 1494,19 1494,19 C1494,19 1512,19 1512,29 L1512,55 C1512,65 1494,65 1494,65 C1494,65 1476,65 1476,55 L1476,29 " fill="#00FFFF" style="stroke:#454645;stroke-width:1.5;"/><path d="M1476,29 C1476,39 1494,39 1494,39 C1494,39 1512,39 1512,29 " fill="none" style="stroke:#454645;stroke-width:1.5;"/><text fill="#454645" font-family="sans-serif" font-size="14" lengthAdjust="spacing" textLength="68" x="1457" y="1079.6201">ServerDB</text><path d="M1476,1092.9219 C1476,1082.9219 1494,1082.9219 1494,1082.9219 C1494,1082.9219 1512,1082.9219 1512,1092.9219 L1512,1118.9219 C1512,1128.9219 1494,1128.9219 1494,1128.9219 C1494,1128.9219 1476,1128.9219 1476,1118.9219 L1476,1092.9219 " fill="#00FFFF" style="stroke:#454645;stroke-width:1.5;"/><path d="M1476,1092.9219 C1476,1102.9219 1494,1102.9219 1494,1102.9219 C1494,1102.9219 1512,1102.9219 1512,1092.9219 " fill="none" style="stroke:#454645;stroke-width:1.5;"/><polygon fill="#454645" points="910.5,108.4297,920.5,112.4297,910.5,116.4297,914.5,112.4297" style="stroke:#454645;stroke-width:1.0;"/><line style="stroke:#454645;stroke-width:1.0;stroke-dasharray:2.0,2.0;" x1="561.5" x2="916.5" y1="112.4297" y2="112.4297"/><text fill="#000000" font-family="sans-serif" font-size="13" font-weight="bold" lengthAdjust="spacing" textLength="9" x="568.5" y="107.3638">1</text><text fill="#000000" font-family="sans-serif" font-size="13" lengthAdjust="spacing" textLength="175" x="581.5" y="107.3638">msgsnd({login,password})</text><polygon fill="#454645" points="65,137.5625,55,141.5625,65,145.5625,61,141.5625" style="stroke:#454645;stroke-width:1.0;"/><line style="stroke:#454645;stroke-width:1.0;stroke-dasharray:2.0,2.0;" x1="59" x2="921.5" y1="141.5625" y2="141.5625"/><text fill="#000000" font-family="sans-serif" font-size="13" font-weight="bold" lengthAdjust="spacing" textLength="9" x="71" y="136.4966">2</text><text fill="#000000" font-family="sans-serif" font-size="13" lengthAdjust="spacing" textLength="172" x="84" y="136.4966">msgrcv({login,password})</text><polygon fill="#454645" points="1036,166.6953,1046,170.6953,1036,174.6953,1040,170.6953" style="stroke:#454645;stroke-width:1.0;"/><line style="stroke:#454645;stroke-width:1.0;stroke-dasharray:2.0,2.0;" x1="54" x2="1042" y1="170.6953" y2="170.6953"/><text fill="#000000" font-family="sans-serif" font-size="13" font-weight="bold" lengthAdjust="spacing" textLength="8" x="61" y="165.6294">3</text><text fill="#000000" font-family="sans-serif" font-size="13" lengthAdjust="spacing" textLength="175" x="73" y="165.6294">msgsnd({login,password})</text><polygon fill="#454645" points="1245,195.8281,1255,199.8281,1245,203.8281,1249,199.8281" style="stroke:#454645;stroke-width:1.0;"/><line style="stroke:#454645;stroke-width:1.0;stroke-dasharray:2.0,2.0;" x1="1048" x2="1251" y1="199.8281" y2="199.8281"/><text fill="#000000" font-family="sans-serif" font-size="13" font-weight="bold" lengthAdjust="spacing" textLength="9" x="1055" y="194.7622">4</text><text fill="#000000" font-family="sans-serif" font-size="13" lengthAdjust="spacing" textLength="172" x="1068" y="194.7622">msgrcv({login,password})</text><polygon fill="#454645" points="1482,224.9609,1492,228.9609,1482,232.9609,1486,228.9609" style="stroke:#454645;stroke-width:1.0;"/><line style="stroke:#454645;stroke-width:1.0;" x1="1257" x2="1488" y1="228.9609" y2="228.9609"/><text fill="#000000" font-family="sans-serif" font-size="13" font-weight="bold" lengthAdjust="spacing" textLength="9" x="1264" y="223.895">5</text><text fill="#000000" font-family="sans-serif" font-size="13" lengthAdjust="spacing" textLength="198" x="1277" y="223.895">check_login({login,password})</text><path d="M13.5,243.9609 L76,243.9609 L76,251.0938 L66,261.0938 L10,261.0938 L10,247.4609 A3.5,3.5 0 0 1 13.5,243.9609 " fill="#EEEEEE" style="stroke:#696969;stroke-width:1.5;"/><rect fill="none" height="806.6641" rx="3.5" ry="3.5" style="stroke:#696969;stroke-width:1.0;" width="1489" x="10" y="243.9609"/><text fill="#454645" font-family="sans-serif" font-size="13" font-weight="bold" lengthAdjust="spacing" textLength="21" x="25" y="257.0278">alt</text><text fill="#696969" font-family="sans-serif" font-size="11" font-weight="bold" lengthAdjust="spacing" textLength="92" x="91" y="256.1714">[Failure login]</text><line style="stroke:#454645;stroke-width:1.0;" x1="1257" x2="1299" y1="282.2266" y2="282.2266"/><line style="stroke:#454645;stroke-width:1.0;" x1="1299" x2="1299" y1="282.2266" y2="295.2266"/><line style="stroke:#454645;stroke-width:1.0;" x1="1258" x2="1299" y1="295.2266" y2="295.2266"/><polygon fill="#454645" points="1268,291.2266,1258,295.2266,1268,299.2266,1264,295.2266" style="stroke:#454645;stroke-width:1.0;"/><text fill="#000000" font-family="sans-serif" font-size="13" font-weight="bold" lengthAdjust="spacing" textLength="9" x="1264" y="277.1606">6</text><text fill="#000000" font-family="sans-serif" font-size="13" lengthAdjust="spacing" textLength="157" x="1277" y="277.1606">set_status(login,'offline')</text><polygon fill="#454645" points="933.5,320.3594,923.5,324.3594,933.5,328.3594,929.5,324.3594" style="stroke:#454645;stroke-width:1.0;"/><line style="stroke:#454645;stroke-width:1.0;" x1="927.5" x2="1256" y1="324.3594" y2="324.3594"/><text fill="#000000" font-family="sans-serif" font-size="13" font-weight="bold" lengthAdjust="spacing" textLength="9" x="939.5" y="319.2935">7</text><text fill="#000000" font-family="sans-serif" font-size="13" lengthAdjust="spacing" textLength="147" x="952.5" y="319.2935">msgsnd(fail, message)</text><polygon fill="#454645" points="65,349.4922,55,353.4922,65,357.4922,61,353.4922" style="stroke:#454645;stroke-width:1.0;"/><line style="stroke:#454645;stroke-width:1.0;stroke-dasharray:2.0,2.0;" x1="59" x2="921.5" y1="353.4922" y2="353.4922"/><text fill="#000000" font-family="sans-serif" font-size="13" font-weight="bold" lengthAdjust="spacing" textLength="9" x="71" y="348.4263">8</text><text fill="#000000" font-family="sans-serif" font-size="13" lengthAdjust="spacing" textLength="144" x="84" y="348.4263">msgrcv(fail, message)</text><line style="stroke:#454645;stroke-width:1.0;" x1="54" x2="96" y1="382.625" y2="382.625"/><line style="stroke:#454645;stroke-width:1.0;" x1="96" x2="96" y1="382.625" y2="395.625"/><line style="stroke:#454645;stroke-width:1.0;" x1="55" x2="96" y1="395.625" y2="395.625"/><polygon fill="#454645" points="65,391.625,55,395.625,65,399.625,61,395.625" style="stroke:#454645;stroke-width:1.0;"/><text fill="#000000" font-family="sans-serif" font-size="13" font-weight="bold" lengthAdjust="spacing" textLength="9" x="61" y="377.5591">9</text><text fill="#000000" font-family="sans-serif" font-size="13" lengthAdjust="spacing" textLength="177" x="74" y="377.5591">change msg access rights()</text><polygon fill="#454645" points="910.5,420.7578,920.5,424.7578,910.5,428.7578,914.5,424.7578" style="stroke:#454645;stroke-width:1.0;"/><line style="stroke:#454645;stroke-width:1.0;" x1="54" x2="916.5" y1="424.7578" y2="424.7578"/><text fill="#000000" font-family="sans-serif" font-size="13" font-weight="bold" lengthAdjust="spacing" textLength="19" x="61" y="419.6919">10</text><text fill="#000000" font-family="sans-serif" font-size="13" lengthAdjust="spacing" textLength="147" x="84" y="419.6919">msgsnd(fail, message)</text><polygon fill="#454645" points="572.5,449.8906,562.5,453.8906,572.5,457.8906,568.5,453.8906" style="stroke:#454645;stroke-width:1.0;"/><line style="stroke:#454645;stroke-width:1.0;stroke-dasharray:2.0,2.0;" x1="566.5" x2="921.5" y1="453.8906" y2="453.8906"/><text fill="#000000" font-family="sans-serif" font-size="13" font-weight="bold" lengthAdjust="spacing" textLength="18" x="578.5" y="448.8247">11</text><text fill="#000000" font-family="sans-serif" font-size="13" lengthAdjust="spacing" textLength="144" x="600.5" y="448.8247">msgrcv(fail, message)</text><polygon fill="#454645" points="278,479.0234,268,483.0234,278,487.0234,274,483.0234" style="stroke:#454645;stroke-width:1.0;"/><line style="stroke:#454645;stroke-width:1.0;" x1="272" x2="560.5" y1="483.0234" y2="483.0234"/><text fill="#000000" font-family="sans-serif" font-size="13" font-weight="bold" lengthAdjust="spacing" textLength="18" x="284" y="477.9575">12</text><text fill="#000000" font-family="sans-serif" font-size="13" lengthAdjust="spacing" textLength="169" x="306" y="477.9575">show_message(message)</text><line style="stroke:#696969;stroke-width:1.0;stroke-dasharray:2.0,2.0;" x1="10" x2="1499" y1="492.0234" y2="492.0234"/><text fill="#696969" font-family="sans-serif" font-size="11" font-weight="bold" lengthAdjust="spacing" textLength="115" x="15" y="502.2339">[Sucessfull login]</text><line style="stroke:#454645;stroke-width:1.0;" x1="1257" x2="1299" y1="526.9609" y2="526.9609"/><line style="stroke:#454645;stroke-width:1.0;" x1="1299" x2="1299" y1="526.9609" y2="539.9609"/><line style="stroke:#454645;stroke-width:1.0;" x1="1258" x2="1299" y1="539.9609" y2="539.9609"/><polygon fill="#454645" points="1268,535.9609,1258,539.9609,1268,543.9609,1264,539.9609" style="stroke:#454645;stroke-width:1.0;"/><text fill="#000000" font-family="sans-serif" font-size="13" font-weight="bold" lengthAdjust="spacing" textLength="17" x="1264" y="521.895">13</text><text fill="#000000" font-family="sans-serif" font-size="13" lengthAdjust="spacing" textLength="173" x="1285" y="521.895">connect(login,session_key)</text><line style="stroke:#454645;stroke-width:1.0;" x1="1257" x2="1299" y1="569.0938" y2="569.0938"/><line style="stroke:#454645;stroke-width:1.0;" x1="1299" x2="1299" y1="569.0938" y2="582.0938"/><line style="stroke:#454645;stroke-width:1.0;" x1="1258" x2="1299" y1="582.0938" y2="582.0938"/><polygon fill="#454645" points="1268,578.0938,1258,582.0938,1268,586.0938,1264,582.0938" style="stroke:#454645;stroke-width:1.0;"/><text fill="#000000" font-family="sans-serif" font-size="13" font-weight="bold" lengthAdjust="spacing" textLength="18" x="1264" y="564.0278">14</text><text fill="#000000" font-family="sans-serif" font-size="13" lengthAdjust="spacing" textLength="155" x="1286" y="564.0278">set_status(login,'online')</text><line style="stroke:#454645;stroke-width:1.0;" x1="1257" x2="1299" y1="611.2266" y2="611.2266"/><line style="stroke:#454645;stroke-width:1.0;" x1="1299" x2="1299" y1="611.2266" y2="624.2266"/><line style="stroke:#454645;stroke-width:1.0;" x1="1258" x2="1299" y1="624.2266" y2="624.2266"/><polygon fill="#454645" points="1268,620.2266,1258,624.2266,1268,628.2266,1264,624.2266" style="stroke:#454645;stroke-width:1.0;"/><text fill="#000000" font-family="sans-serif" font-size="13" font-weight="bold" lengthAdjust="spacing" textLength="18" x="1264" y="606.1606">15</text><text fill="#000000" font-family="sans-serif" font-size="13" lengthAdjust="spacing" textLength="201" x="1286" y="606.1606">propagate_status(login,'online')</text><polygon fill="#454645" points="933.5,649.3594,923.5,653.3594,933.5,657.3594,929.5,653.3594" style="stroke:#454645;stroke-width:1.0;"/><line style="stroke:#454645;stroke-width:1.0;stroke-dasharray:2.0,2.0;" x1="927.5" x2="1256" y1="653.3594" y2="653.3594"/><text fill="#000000" font-family="sans-serif" font-size="13" font-weight="bold" lengthAdjust="spacing" textLength="18" x="939.5" y="648.2935">16</text><text fill="#000000" font-family="sans-serif" font-size="13" lengthAdjust="spacing" textLength="262" x="961.5" y="648.2935">msgsnd({login,password}, decrypt_key)</text><polygon fill="#454645" points="65,678.4922,55,682.4922,65,686.4922,61,682.4922" style="stroke:#454645;stroke-width:1.0;"/><line style="stroke:#454645;stroke-width:1.0;stroke-dasharray:2.0,2.0;" x1="59" x2="921.5" y1="682.4922" y2="682.4922"/><text fill="#000000" font-family="sans-serif" font-size="13" font-weight="bold" lengthAdjust="spacing" textLength="18" x="71" y="677.4263">17</text><text fill="#000000" font-family="sans-serif" font-size="13" lengthAdjust="spacing" textLength="259" x="93" y="677.4263">msgrcv({login,password}, decrypt_key)</text><line style="stroke:#454645;stroke-width:1.0;" x1="54" x2="96" y1="711.625" y2="711.625"/><line style="stroke:#454645;stroke-width:1.0;" x1="96" x2="96" y1="711.625" y2="724.625"/><line style="stroke:#454645;stroke-width:1.0;" x1="55" x2="96" y1="724.625" y2="724.625"/><polygon fill="#454645" points="65,720.625,55,724.625,65,728.625,61,724.625" style="stroke:#454645;stroke-width:1.0;"/><text fill="#000000" font-family="sans-serif" font-size="13" font-weight="bold" lengthAdjust="spacing" textLength="18" x="61" y="706.5591">18</text><text fill="#000000" font-family="sans-serif" font-size="13" lengthAdjust="spacing" textLength="177" x="83" y="706.5591">change msg access rights()</text><polygon fill="#454645" points="910.5,749.7578,920.5,753.7578,910.5,757.7578,914.5,753.7578" style="stroke:#454645;stroke-width:1.0;"/><line style="stroke:#454645;stroke-width:1.0;stroke-dasharray:2.0,2.0;" x1="54" x2="916.5" y1="753.7578" y2="753.7578"/><text fill="#000000" font-family="sans-serif" font-size="13" font-weight="bold" lengthAdjust="spacing" textLength="18" x="61" y="748.6919">19</text><text fill="#000000" font-family="sans-serif" font-size="13" lengthAdjust="spacing" textLength="262" x="83" y="748.6919">msgsnd({login,password}, decrypt_key)</text><polygon fill="#454645" points="572.5,778.8906,562.5,782.8906,572.5,786.8906,568.5,782.8906" style="stroke:#454645;stroke-width:1.0;"/><line style="stroke:#454645;stroke-width:1.0;stroke-dasharray:2.0,2.0;" x1="566.5" x2="921.5" y1="782.8906" y2="782.8906"/><text fill="#000000" font-family="sans-serif" font-size="13" font-weight="bold" lengthAdjust="spacing" textLength="19" x="578.5" y="777.8247">20</text><text fill="#000000" font-family="sans-serif" font-size="13" lengthAdjust="spacing" textLength="259" x="601.5" y="777.8247">msgrcv({login,password}, decrypt_key)</text><line style="stroke:#454645;stroke-width:1.0;" x1="561.5" x2="603.5" y1="812.0234" y2="812.0234"/><line style="stroke:#454645;stroke-width:1.0;" x1="603.5" x2="603.5" y1="812.0234" y2="825.0234"/><line style="stroke:#454645;stroke-width:1.0;" x1="562.5" x2="603.5" y1="825.0234" y2="825.0234"/><polygon fill="#454645" points="572.5,821.0234,562.5,825.0234,572.5,829.0234,568.5,825.0234" style="stroke:#454645;stroke-width:1.0;"/><text fill="#000000" font-family="sans-serif" font-size="13" font-weight="bold" lengthAdjust="spacing" textLength="18" x="568.5" y="806.9575">21</text><text fill="#000000" font-family="sans-serif" font-size="13" lengthAdjust="spacing" textLength="325" x="590.5" y="806.9575">check_credentials({login,password}, decrypt_key)</text><path d="M243,840.0234 L305.5,840.0234 L305.5,847.1563 L295.5,857.1563 L239.5,857.1563 L239.5,843.5234 A3.5,3.5 0 0 1 243,840.0234 " fill="#EEEEEE" style="stroke:#696969;stroke-width:1.5;"/><rect fill="none" height="203.6016" rx="3.5" ry="3.5" style="stroke:#696969;stroke-width:1.0;" width="513" x="239.5" y="840.0234"/><text fill="#454645" font-family="sans-serif" font-size="13" font-weight="bold" lengthAdjust="spacing" textLength="21" x="254.5" y="853.0903">alt</text><text fill="#696969" font-family="sans-serif" font-size="11" font-weight="bold" lengthAdjust="spacing" textLength="134" x="320.5" y="852.2339">[Failure credentials]</text><polygon fill="#454645" points="278,874.2891,268,878.2891,278,882.2891,274,878.2891" style="stroke:#454645;stroke-width:1.0;"/><line style="stroke:#454645;stroke-width:1.0;" x1="272" x2="560.5" y1="878.2891" y2="878.2891"/><text fill="#000000" font-family="sans-serif" font-size="13" font-weight="bold" lengthAdjust="spacing" textLength="18" x="284" y="873.2231">22</text><text fill="#000000" font-family="sans-serif" font-size="13" lengthAdjust="spacing" textLength="196" x="306" y="873.2231">show_message(internal_error)</text><line style="stroke:#696969;stroke-width:1.0;stroke-dasharray:2.0,2.0;" x1="239.5" x2="752.5" y1="887.2891" y2="887.2891"/><text fill="#696969" font-family="sans-serif" font-size="11" font-weight="bold" lengthAdjust="spacing" textLength="157" x="244.5" y="897.4995">[Sucessfull credentials]</text><line style="stroke:#454645;stroke-width:1.0;" x1="561.5" x2="603.5" y1="922.2266" y2="922.2266"/><line style="stroke:#454645;stroke-width:1.0;" x1="603.5" x2="603.5" y1="922.2266" y2="935.2266"/><line style="stroke:#454645;stroke-width:1.0;" x1="562.5" x2="603.5" y1="935.2266" y2="935.2266"/><polygon fill="#454645" points="572.5,931.2266,562.5,935.2266,572.5,939.2266,568.5,935.2266" style="stroke:#454645;stroke-width:1.0;"/><text fill="#000000" font-family="sans-serif" font-size="13" font-weight="bold" lengthAdjust="spacing" textLength="17" x="568.5" y="917.1606">23</text><text fill="#000000" font-family="sans-serif" font-size="13" lengthAdjust="spacing" textLength="151" x="589.5" y="917.1606">change_access_rights()</text><polygon fill="#454645" points="549.5,960.3594,559.5,964.3594,549.5,968.3594,553.5,964.3594" style="stroke:#454645;stroke-width:1.0;"/><line style="stroke:#454645;stroke-width:1.0;" x1="329.5" x2="555.5" y1="964.3594" y2="964.3594"/><text fill="#000000" font-family="sans-serif" font-size="13" font-weight="bold" lengthAdjust="spacing" textLength="18" x="336.5" y="959.2935">24</text><text fill="#000000" font-family="sans-serif" font-size="13" lengthAdjust="spacing" textLength="186" x="358.5" y="959.2935">load_data(login,decrypt_key)</text><line style="stroke:#454645;stroke-width:1.0;" x1="561.5" x2="603.5" y1="993.4922" y2="993.4922"/><line style="stroke:#454645;stroke-width:1.0;" x1="603.5" x2="603.5" y1="993.4922" y2="1006.4922"/><line style="stroke:#454645;stroke-width:1.0;" x1="562.5" x2="603.5" y1="1006.4922" y2="1006.4922"/><polygon fill="#454645" points="572.5,1002.4922,562.5,1006.4922,572.5,1010.4922,568.5,1006.4922" style="stroke:#454645;stroke-width:1.0;"/><text fill="#000000" font-family="sans-serif" font-size="13" font-weight="bold" lengthAdjust="spacing" textLength="18" x="568.5" y="988.4263">25</text><text fill="#000000" font-family="sans-serif" font-size="13" lengthAdjust="spacing" textLength="75" x="590.5" y="988.4263">start_chat()</text><polygon fill="#454645" points="278,1031.625,268,1035.625,278,1039.625,274,1035.625" style="stroke:#454645;stroke-width:1.0;"/><line style="stroke:#454645;stroke-width:1.0;" x1="272" x2="560.5" y1="1035.625" y2="1035.625"/><text fill="#000000" font-family="sans-serif" font-size="13" font-weight="bold" lengthAdjust="spacing" textLength="18" x="284" y="1030.5591">26</text><text fill="#000000" font-family="sans-serif" font-size="13" lengthAdjust="spacing" textLength="79" x="306" y="1030.5591">show_chat()</text><!--SRC=[hLNBRjim4BppAxOdsu0JzvKUZ2A7jEYzA7eMQ6eb4P58TRbAO1JzzwuaMe_4SPoq1ykKE3FxcANqXWki4ExiZhHZoCXNK33NORlPaBw_p2qNpQu9ICOxHiUNnbURkXHmKvNZejA1aJQTMb1A6_O4Dtu7Ei1FOOEdLAxlLAfPxtH0-59QaVjwqoA6TOzwFw9-8DqXzQXXtQC-l5Mr9hR6rctgSNi47iIkrAy6cuFKzsuzWFhRYFmu84EmtasWa_iU-saMkyz_hEIGeJIYOU-QQeUab8gR5nVNSyajL24FBbt-BdrktRhM8ToBn9-Lck4cn9v3vku8Hot0Pe1ItPuBwtAm0VmjY3SEJA5TBaKP8pf0DYyuW7Of19GBU_blstA86qEEdJgPwWWRQQSIZOW1AzPk9KCqjqc7FK8vKLfeUzjLqAM-Rf6PjkMmcu9rcLUwPFWcpnj2wFGLm30zqxm3SX9OSnEMVHuBdsMbTRXOFQ8SSxCDlWOv3q7dUA0yP-SHqYAQLYDLjeE7gHZCP29MrEOcBrTFS5wHT9pZKpaVHlswF_tIpCBV9n6od9T7oBIFLc3P7lgcJJnholAqGV9AScWukXDzJsvnltg1fUu9HoEZ9b_hN3EUmplxOAyXHKFxcgVPllIaFn3fc_dwasywo_vzilvh4nwEsXaQu-WDvFwTOWXJkRUw3EVeJDyJ4sgtz_o8M_bQajDbWaIULWDhDktjWuSJVphKfAJMZQHt8favCM5ylXY_hLi9gjEa_RJ68NvKyXEnPFA94ud8ozKpvKz0CbPAVdy1]--></g></svg>