<?xml version="1.0" encoding="UTF-8" standalone="no"?><svg xmlns="http://www.w3.org/2000/svg" xmlns:xlink="http://www.w3.org/1999/xlink" contentStyleType="text/css" height="2054px" preserveAspectRatio="none" style="width:1992px;height:2054px;background:#FFFFFF;" version="1.1" viewBox="0 0 1992 2054" width="1992px" zoomAndPan="magnify"><defs/><g><rect fill="#FFFFFF" height="1678.3203" style="stroke:#696969;stroke-width:1.0;" width="10" x="352" y="286.2891"/><rect fill="#FFFFFF" height="781.0938" style="stroke:#696969;stroke-width:1.0;" width="10" x="722" y="327.5859"/><rect fill="#FFFFFF" height="1235.6563" style="stroke:#696969;stroke-width:1.0;" width="10" x="845.5" y="728.9531"/><rect fill="#FFFFFF" height="1199.3594" style="stroke:#696969;stroke-width:1.0;" width="10" x="1162.5" y="765.25"/><rect fill="#FFFFFF" height="1757.75" style="stroke:#696969;stroke-width:1.0;" width="10" x="1392.5" y="206.8594"/><rect fill="#FFFFFF" height="1799.0469" style="stroke:#696969;stroke-width:1.0;" width="10" x="1674.5" y="165.5625"/><rect fill="none" height="225.5391" rx="3.5" ry="3.5" style="stroke:#696969;stroke-width:1.0;" width="1453.5" x="20" y="368.8828"/><rect fill="none" height="46.2656" rx="3.5" ry="3.5" style="stroke:#696969;stroke-width:1.0;" width="1145" x="318.5" y="393.0156"/><rect fill="none" height="90.2031" rx="3.5" ry="3.5" style="stroke:#696969;stroke-width:1.0;" width="1433.5" x="30" y="453.2813"/><rect fill="none" height="211.2578" rx="3.5" ry="3.5" style="stroke:#696969;stroke-width:1.0;" width="1057" x="663" y="651.5547"/><rect fill="none" height="1021.5313" rx="3.5" ry="3.5" style="stroke:#696969;stroke-width:1.0;" width="1965.5" x="10" y="935.0781"/><rect fill="none" height="46.2656" rx="3.5" ry="3.5" style="stroke:#696969;stroke-width:1.0;" width="601.5" x="318.5" y="959.2109"/><rect fill="none" height="46.2656" rx="3.5" ry="3.5" style="stroke:#696969;stroke-width:1.0;" width="365.5" x="30" y="1019.4766"/><rect fill="none" height="680.2656" rx="3.5" ry="3.5" style="stroke:#696969;stroke-width:1.0;" width="1877.5" x="20" y="1269.3438"/><rect fill="none" height="203.6016" rx="3.5" ry="3.5" style="stroke:#696969;stroke-width:1.0;" width="525" x="30" y="1739.0078"/><line style="stroke:#696969;stroke-width:0.5;stroke-dasharray:5.0,5.0;" x1="57" x2="57" y1="81.2969" y2="1973.6094"/><line style="stroke:#696969;stroke-width:0.5;stroke-dasharray:5.0,5.0;" x1="120" x2="120" y1="81.2969" y2="1973.6094"/><line style="stroke:#696969;stroke-width:0.5;stroke-dasharray:5.0,5.0;" x1="356.5" x2="356.5" y1="285.8047" y2="1973.6094"/><line style="stroke:#696969;stroke-width:0.5;stroke-dasharray:5.0,5.0;" x1="727" x2="727" y1="324.6016" y2="1973.6094"/><line style="stroke:#696969;stroke-width:0.5;stroke-dasharray:5.0,5.0;" x1="850" x2="850" y1="725.9688" y2="1973.6094"/><line style="stroke:#696969;stroke-width:0.5;stroke-dasharray:5.0,5.0;" x1="1167.5" x2="1167.5" y1="764.7656" y2="1973.6094"/><line style="stroke:#696969;stroke-width:0.5;stroke-dasharray:5.0,5.0;" x1="1397.5" x2="1397.5" y1="203.875" y2="1973.6094"/><line style="stroke:#696969;stroke-width:0.5;stroke-dasharray:5.0,5.0;" x1="1679" x2="1679" y1="165.0781" y2="1973.6094"/><line style="stroke:#696969;stroke-width:0.5;stroke-dasharray:5.0,5.0;" x1="1928.5" x2="1928.5" y1="81.2969" y2="1973.6094"/><text fill="#454645" font-family="sans-serif" font-size="14" lengthAdjust="spacing" textLength="29" x="40" y="77.9951">Bob</text><ellipse cx="57.5" cy="13.5" fill="#454645" rx="8" ry="8" style="stroke:#454645;stroke-width:0.5;"/><path d="M57.5,21.5 L57.5,48.5 M44.5,29.5 L70.5,29.5 M57.5,48.5 L44.5,63.5 M57.5,48.5 L70.5,63.5 " fill="none" style="stroke:#454645;stroke-width:0.5;"/><text fill="#454645" font-family="sans-serif" font-size="14" lengthAdjust="spacing" textLength="29" x="40" y="1985.6045">Bob</text><ellipse cx="57.5" cy="1997.4063" fill="#454645" rx="8" ry="8" style="stroke:#454645;stroke-width:0.5;"/><path d="M57.5,2005.4063 L57.5,2032.4063 M44.5,2013.4063 L70.5,2013.4063 M57.5,2032.4063 L44.5,2047.4063 M57.5,2032.4063 L70.5,2047.4063 " fill="none" style="stroke:#454645;stroke-width:0.5;"/><text fill="#454645" font-family="sans-serif" font-size="14" lengthAdjust="spacing" textLength="64" x="85" y="77.9951">ClientDB</text><path d="M102,29 C102,19 120,19 120,19 C120,19 138,19 138,29 L138,55 C138,65 120,65 120,65 C120,65 102,65 102,55 L102,29 " fill="#00FFFF" style="stroke:#454645;stroke-width:1.5;"/><path d="M102,29 C102,39 120,39 120,39 C120,39 138,39 138,29 " fill="none" style="stroke:#454645;stroke-width:1.5;"/><text fill="#454645" font-family="sans-serif" font-size="14" lengthAdjust="spacing" textLength="64" x="85" y="1985.6045">ClientDB</text><path d="M102,1998.9063 C102,1988.9063 120,1988.9063 120,1988.9063 C120,1988.9063 138,1988.9063 138,1998.9063 L138,2024.9063 C138,2034.9063 120,2034.9063 120,2034.9063 C120,2034.9063 102,2034.9063 102,2024.9063 L102,1998.9063 " fill="#00FFFF" style="stroke:#454645;stroke-width:1.5;"/><path d="M102,1998.9063 C102,2008.9063 120,2008.9063 120,2008.9063 C120,2008.9063 138,2008.9063 138,1998.9063 " fill="none" style="stroke:#454645;stroke-width:1.5;"/><rect fill="#FF6347" height="30.2969" rx="3.5" ry="3.5" style="stroke:#454645;stroke-width:1.5;" width="57" x="328.5" y="1972.6094"/><text fill="#FFFFFF" font-family="sans-serif" font-size="14" lengthAdjust="spacing" textLength="43" x="335.5" y="1992.6045">Client</text><path d="M678,1972.6094 L776,1972.6094 C781,1972.6094 781,1985.7578 781,1985.7578 C781,1985.7578 781,1998.9063 776,1998.9063 L678,1998.9063 C673,1998.9063 673,1985.7578 673,1985.7578 C673,1985.7578 673,1972.6094 678,1972.6094 " fill="#FF6347" style="stroke:#454645;stroke-width:1.5;"/><path d="M776,1972.6094 C771,1972.6094 771,1985.7578 771,1985.7578 C771,1998.9063 776,1998.9063 776,1998.9063 " fill="none" style="stroke:#454645;stroke-width:1.5;"/><text fill="#FFFFFF" font-family="sans-serif" font-size="14" lengthAdjust="spacing" textLength="88" x="678" y="1990.6045">ClientQueue</text><path d="M796,1972.6094 L905,1972.6094 C910,1972.6094 910,1985.7578 910,1985.7578 C910,1985.7578 910,1998.9063 905,1998.9063 L796,1998.9063 C791,1998.9063 791,1985.7578 791,1985.7578 C791,1985.7578 791,1972.6094 796,1972.6094 " fill="#FF6347" style="stroke:#454645;stroke-width:1.5;"/><path d="M905,1972.6094 C900,1972.6094 900,1985.7578 900,1985.7578 C900,1998.9063 905,1998.9063 905,1998.9063 " fill="none" style="stroke:#454645;stroke-width:1.5;"/><text fill="#FFFFFF" font-family="sans-serif" font-size="14" lengthAdjust="spacing" textLength="99" x="796" y="1990.6045">SessionQueue</text><rect fill="#FF6347" height="30.2969" rx="3.5" ry="3.5" style="stroke:#454645;stroke-width:1.5;" width="68" x="1133.5" y="1972.6094"/><text fill="#FFFFFF" font-family="sans-serif" font-size="14" lengthAdjust="spacing" textLength="54" x="1140.5" y="1992.6045">Session</text><path d="M1346.5,1972.6094 L1448.5,1972.6094 C1453.5,1972.6094 1453.5,1985.7578 1453.5,1985.7578 C1453.5,1985.7578 1453.5,1998.9063 1448.5,1998.9063 L1346.5,1998.9063 C1341.5,1998.9063 1341.5,1985.7578 1341.5,1985.7578 C1341.5,1985.7578 1341.5,1972.6094 1346.5,1972.6094 " fill="#FF6347" style="stroke:#454645;stroke-width:1.5;"/><path d="M1448.5,1972.6094 C1443.5,1972.6094 1443.5,1985.7578 1443.5,1985.7578 C1443.5,1998.9063 1448.5,1998.9063 1448.5,1998.9063 " fill="none" style="stroke:#454645;stroke-width:1.5;"/><text fill="#FFFFFF" font-family="sans-serif" font-size="14" lengthAdjust="spacing" textLength="92" x="1346.5" y="1990.6045">ServerQueue</text><rect fill="#FF6347" height="30.2969" rx="3.5" ry="3.5" style="stroke:#454645;stroke-width:1.5;" width="61" x="1649" y="1972.6094"/><text fill="#FFFFFF" font-family="sans-serif" font-size="14" lengthAdjust="spacing" textLength="47" x="1656" y="1992.6045">Server</text><text fill="#454645" font-family="sans-serif" font-size="14" lengthAdjust="spacing" textLength="68" x="1891.5" y="77.9951">ServerDB</text><path d="M1910.5,29 C1910.5,19 1928.5,19 1928.5,19 C1928.5,19 1946.5,19 1946.5,29 L1946.5,55 C1946.5,65 1928.5,65 1928.5,65 C1928.5,65 1910.5,65 1910.5,55 L1910.5,29 " fill="#00FFFF" style="stroke:#454645;stroke-width:1.5;"/><path d="M1910.5,29 C1910.5,39 1928.5,39 1928.5,39 C1928.5,39 1946.5,39 1946.5,29 " fill="none" style="stroke:#454645;stroke-width:1.5;"/><text fill="#454645" font-family="sans-serif" font-size="14" lengthAdjust="spacing" textLength="68" x="1891.5" y="1985.6045">ServerDB</text><path d="M1910.5,1998.9063 C1910.5,1988.9063 1928.5,1988.9063 1928.5,1988.9063 C1928.5,1988.9063 1946.5,1988.9063 1946.5,1998.9063 L1946.5,2024.9063 C1946.5,2034.9063 1928.5,2034.9063 1928.5,2034.9063 C1928.5,2034.9063 1910.5,2034.9063 1910.5,2024.9063 L1910.5,1998.9063 " fill="#00FFFF" style="stroke:#454645;stroke-width:1.5;"/><path d="M1910.5,1998.9063 C1910.5,2008.9063 1928.5,2008.9063 1928.5,2008.9063 C1928.5,2008.9063 1946.5,2008.9063 1946.5,1998.9063 " fill="none" style="stroke:#454645;stroke-width:1.5;"/><rect fill="#FFFFFF" height="1678.3203" style="stroke:#696969;stroke-width:1.0;" width="10" x="352" y="286.2891"/><rect fill="#FFFFFF" height="781.0938" style="stroke:#696969;stroke-width:1.0;" width="10" x="722" y="327.5859"/><rect fill="#FFFFFF" height="1235.6563" style="stroke:#696969;stroke-width:1.0;" width="10" x="845.5" y="728.9531"/><rect fill="#FFFFFF" height="1199.3594" style="stroke:#696969;stroke-width:1.0;" width="10" x="1162.5" y="765.25"/><rect fill="#FFFFFF" height="1757.75" style="stroke:#696969;stroke-width:1.0;" width="10" x="1392.5" y="206.8594"/><rect fill="#FFFFFF" height="1799.0469" style="stroke:#696969;stroke-width:1.0;" width="10" x="1674.5" y="165.5625"/><rect fill="#EEEEEE" height="3" rx="3.5" ry="3.5" style="stroke:#EEEEEE;stroke-width:1.0;" width="1985.5" x="0" y="111.8633"/><line style="stroke:#454645;stroke-width:0.5;" x1="0" x2="1985.5" y1="111.8633" y2="111.8633"/><line style="stroke:#454645;stroke-width:0.5;" x1="0" x2="1985.5" y1="114.8633" y2="114.8633"/><rect fill="#EEEEEE" height="23.1328" rx="3.5" ry="3.5" style="stroke:#454645;stroke-width:1.0;" width="168" x="908.75" y="101.2969"/><text fill="#454645" font-family="sans-serif" font-size="13" font-weight="bold" lengthAdjust="spacing" textLength="149" x="914.75" y="117.3638">Server Initialization</text><ellipse cx="1709.5" cy="154.8125" fill="none" rx="4" ry="4" style="stroke:#454645;stroke-width:1.5;"/><polygon fill="#454645" points="1726.5,151.5625,1716.5,155.5625,1726.5,159.5625,1722.5,155.5625" style="stroke:#454645;stroke-width:1.0;"/><polygon fill="#454645" points="1916.5,151.5625,1926.5,155.5625,1916.5,159.5625,1920.5,155.5625" style="stroke:#454645;stroke-width:1.0;"/><line style="stroke:#454645;stroke-width:1.0;" x1="1724.5" x2="1922.5" y1="155.5625" y2="155.5625"/><text fill="#000000" font-family="sans-serif" font-size="13" font-weight="bold" lengthAdjust="spacing" textLength="9" x="1727" y="150.4966">1</text><text fill="#000000" font-family="sans-serif" font-size="13" lengthAdjust="spacing" textLength="60" x="1740" y="150.4966">load_db()</text><rect fill="#FF6347" height="30.2969" rx="3.5" ry="3.5" style="stroke:#454645;stroke-width:1.5;" width="61" x="1649" y="134.4297"/><text fill="#FFFFFF" font-family="sans-serif" font-size="14" lengthAdjust="spacing" textLength="47" x="1656" y="154.4248">Server</text><ellipse cx="1453" cy="196.1094" fill="none" rx="4" ry="4" style="stroke:#454645;stroke-width:1.5;"/><polygon fill="#454645" points="1470,192.8594,1460,196.8594,1470,200.8594,1466,196.8594" style="stroke:#454645;stroke-width:1.0;"/><line style="stroke:#454645;stroke-width:1.0;" x1="1468" x2="1673.5" y1="196.8594" y2="196.8594"/><text fill="#000000" font-family="sans-serif" font-size="13" font-weight="bold" lengthAdjust="spacing" textLength="9" x="1470.5" y="191.7935">2</text><text fill="#000000" font-family="sans-serif" font-size="13" lengthAdjust="spacing" textLength="184" x="1483.5" y="191.7935">msgget('server', IPC_CREAT)</text><path d="M1346.5,175.7266 L1448.5,175.7266 C1453.5,175.7266 1453.5,188.875 1453.5,188.875 C1453.5,188.875 1453.5,202.0234 1448.5,202.0234 L1346.5,202.0234 C1341.5,202.0234 1341.5,188.875 1341.5,188.875 C1341.5,188.875 1341.5,175.7266 1346.5,175.7266 " fill="#FF6347" style="stroke:#454645;stroke-width:1.5;"/><path d="M1448.5,175.7266 C1443.5,175.7266 1443.5,188.875 1443.5,188.875 C1443.5,202.0234 1448.5,202.0234 1448.5,202.0234 " fill="none" style="stroke:#454645;stroke-width:1.5;"/><text fill="#FFFFFF" font-family="sans-serif" font-size="14" lengthAdjust="spacing" textLength="92" x="1346.5" y="193.7217">ServerQueue</text><rect fill="#EEEEEE" height="3" rx="3.5" ry="3.5" style="stroke:#EEEEEE;stroke-width:1.0;" width="1985.5" x="0" y="232.5898"/><line style="stroke:#454645;stroke-width:0.5;" x1="0" x2="1985.5" y1="232.5898" y2="232.5898"/><line style="stroke:#454645;stroke-width:0.5;" x1="0" x2="1985.5" y1="235.5898" y2="235.5898"/><rect fill="#EEEEEE" height="23.1328" rx="3.5" ry="3.5" style="stroke:#454645;stroke-width:1.0;" width="163" x="911.25" y="222.0234"/><text fill="#454645" font-family="sans-serif" font-size="13" font-weight="bold" lengthAdjust="spacing" textLength="144" x="917.25" y="238.0903">Client Initialization</text><polygon fill="#454645" points="316.5,272.2891,326.5,276.2891,316.5,280.2891,320.5,276.2891" style="stroke:#454645;stroke-width:1.0;"/><line style="stroke:#454645;stroke-width:1.0;" x1="57.5" x2="322.5" y1="276.2891" y2="276.2891"/><text fill="#000000" font-family="sans-serif" font-size="13" font-weight="bold" lengthAdjust="spacing" textLength="8" x="64.5" y="271.2231">3</text><text fill="#000000" font-family="sans-serif" font-size="13" lengthAdjust="spacing" textLength="136" x="76.5" y="271.2231">login(login,password)</text><rect fill="#FF6347" height="30.2969" rx="3.5" ry="3.5" style="stroke:#454645;stroke-width:1.5;" width="57" x="328.5" y="255.1563"/><text fill="#FFFFFF" font-family="sans-serif" font-size="14" lengthAdjust="spacing" textLength="43" x="335.5" y="275.1514">Client</text><polygon fill="#454645" points="661,313.5859,671,317.5859,661,321.5859,665,317.5859" style="stroke:#454645;stroke-width:1.0;"/><line style="stroke:#454645;stroke-width:1.0;" x1="362" x2="667" y1="317.5859" y2="317.5859"/><text fill="#000000" font-family="sans-serif" font-size="13" font-weight="bold" lengthAdjust="spacing" textLength="9" x="369" y="312.52">4</text><text fill="#000000" font-family="sans-serif" font-size="13" lengthAdjust="spacing" textLength="201" x="382" y="312.52">msgget(client_key, IPC_CREAT)</text><path d="M678,296.4531 L776,296.4531 C781,296.4531 781,309.6016 781,309.6016 C781,309.6016 781,322.75 776,322.75 L678,322.75 C673,322.75 673,309.6016 673,309.6016 C673,309.6016 673,296.4531 678,296.4531 " fill="#FF6347" style="stroke:#454645;stroke-width:1.5;"/><path d="M776,296.4531 C771,296.4531 771,309.6016 771,309.6016 C771,322.75 776,322.75 776,322.75 " fill="none" style="stroke:#454645;stroke-width:1.5;"/><text fill="#FFFFFF" font-family="sans-serif" font-size="14" lengthAdjust="spacing" textLength="88" x="678" y="314.4482">ClientQueue</text><polygon fill="#454645" points="1380.5,349.8828,1390.5,353.8828,1380.5,357.8828,1384.5,353.8828" style="stroke:#454645;stroke-width:1.0;"/><line style="stroke:#454645;stroke-width:1.0;" x1="362" x2="1386.5" y1="353.8828" y2="353.8828"/><text fill="#000000" font-family="sans-serif" font-size="13" font-weight="bold" lengthAdjust="spacing" textLength="9" x="369" y="348.8169">5</text><text fill="#000000" font-family="sans-serif" font-size="13" lengthAdjust="spacing" textLength="106" x="382" y="348.8169">msgget('server')</text><path d="M23.5,368.8828 L86,368.8828 L86,376.0156 L76,386.0156 L20,386.0156 L20,372.3828 A3.5,3.5 0 0 1 23.5,368.8828 " fill="#EEEEEE" style="stroke:#696969;stroke-width:1.5;"/><rect fill="none" height="225.5391" rx="3.5" ry="3.5" style="stroke:#696969;stroke-width:1.0;" width="1453.5" x="20" y="368.8828"/><text fill="#454645" font-family="sans-serif" font-size="13" font-weight="bold" lengthAdjust="spacing" textLength="21" x="35" y="381.9497">alt</text><text fill="#696969" font-family="sans-serif" font-size="11" font-weight="bold" lengthAdjust="spacing" textLength="200" x="101" y="381.0933">[Failure connection to server]</text><path d="M322,393.0156 L396.5,393.0156 L396.5,400.1484 L386.5,410.1484 L318.5,410.1484 L318.5,396.5156 A3.5,3.5 0 0 1 322,393.0156 " fill="#EEEEEE" style="stroke:#696969;stroke-width:1.5;"/><rect fill="none" height="46.2656" rx="3.5" ry="3.5" style="stroke:#696969;stroke-width:1.0;" width="1145" x="318.5" y="393.0156"/><text fill="#454645" font-family="sans-serif" font-size="13" font-weight="bold" lengthAdjust="spacing" textLength="33" x="333.5" y="406.0825">loop</text><text fill="#696969" font-family="sans-serif" font-size="11" font-weight="bold" lengthAdjust="spacing" textLength="69" x="411.5" y="405.2261">[10 times]</text><polygon fill="#454645" points="1380.5,427.2813,1390.5,431.2813,1380.5,435.2813,1384.5,431.2813" style="stroke:#454645;stroke-width:1.0;"/><line style="stroke:#454645;stroke-width:1.0;" x1="362" x2="1386.5" y1="431.2813" y2="431.2813"/><text fill="#000000" font-family="sans-serif" font-size="13" font-weight="bold" lengthAdjust="spacing" textLength="9" x="369" y="426.2153">6</text><text fill="#000000" font-family="sans-serif" font-size="13" lengthAdjust="spacing" textLength="106" x="382" y="426.2153">msgget('server')</text><path d="M33.5,453.2813 L96,453.2813 L96,460.4141 L86,470.4141 L30,470.4141 L30,456.7813 A3.5,3.5 0 0 1 33.5,453.2813 " fill="#EEEEEE" style="stroke:#696969;stroke-width:1.5;"/><rect fill="none" height="90.2031" rx="3.5" ry="3.5" style="stroke:#696969;stroke-width:1.0;" width="1433.5" x="30" y="453.2813"/><text fill="#454645" font-family="sans-serif" font-size="13" font-weight="bold" lengthAdjust="spacing" textLength="21" x="45" y="466.3481">alt</text><text fill="#696969" font-family="sans-serif" font-size="11" font-weight="bold" lengthAdjust="spacing" textLength="55" x="111" y="465.4917">[Failure]</text><polygon fill="#454645" points="68.5,487.5469,58.5,491.5469,68.5,495.5469,64.5,491.5469" style="stroke:#454645;stroke-width:1.0;"/><line style="stroke:#454645;stroke-width:1.0;" x1="62.5" x2="351" y1="491.5469" y2="491.5469"/><text fill="#000000" font-family="sans-serif" font-size="13" font-weight="bold" lengthAdjust="spacing" textLength="9" x="74.5" y="486.481">7</text><text fill="#000000" font-family="sans-serif" font-size="13" lengthAdjust="spacing" textLength="166" x="87.5" y="486.481">"Server is not responding"</text><line style="stroke:#696969;stroke-width:1.0;stroke-dasharray:2.0,2.0;" x1="30" x2="1463.5" y1="500.5469" y2="500.5469"/><text fill="#696969" font-family="sans-serif" font-size="11" font-weight="bold" lengthAdjust="spacing" textLength="223" x="35" y="510.7573">[Sucessfull connection to server]</text><polygon fill="#454645" points="1380.5,531.4844,1390.5,535.4844,1380.5,539.4844,1384.5,535.4844" style="stroke:#454645;stroke-width:1.0;"/><line style="stroke:#454645;stroke-width:1.0;stroke-dasharray:2.0,2.0;" x1="362" x2="1386.5" y1="535.4844" y2="535.4844"/><text fill="#000000" font-family="sans-serif" font-size="13" font-weight="bold" lengthAdjust="spacing" textLength="9" x="369" y="530.4185">8</text><text fill="#000000" font-family="sans-serif" font-size="13" lengthAdjust="spacing" textLength="125" x="382" y="530.4185">msgsnd(client_key)</text><line style="stroke:#696969;stroke-width:1.0;stroke-dasharray:2.0,2.0;" x1="20" x2="1473.5" y1="551.4844" y2="551.4844"/><text fill="#696969" font-family="sans-serif" font-size="11" font-weight="bold" lengthAdjust="spacing" textLength="223" x="25" y="561.6948">[Sucessfull connection to server]</text><polygon fill="#454645" points="1380.5,582.4219,1390.5,586.4219,1380.5,590.4219,1384.5,586.4219" style="stroke:#454645;stroke-width:1.0;"/><line style="stroke:#454645;stroke-width:1.0;stroke-dasharray:2.0,2.0;" x1="362" x2="1386.5" y1="586.4219" y2="586.4219"/><text fill="#000000" font-family="sans-serif" font-size="13" font-weight="bold" lengthAdjust="spacing" textLength="9" x="369" y="581.356">9</text><text fill="#000000" font-family="sans-serif" font-size="13" lengthAdjust="spacing" textLength="125" x="382" y="581.356">msgsnd(client_key)</text><rect fill="#EEEEEE" height="3" rx="3.5" ry="3.5" style="stroke:#EEEEEE;stroke-width:1.0;" width="1985.5" x="0" y="621.9883"/><line style="stroke:#454645;stroke-width:0.5;" x1="0" x2="1985.5" y1="621.9883" y2="621.9883"/><line style="stroke:#454645;stroke-width:0.5;" x1="0" x2="1985.5" y1="624.9883" y2="624.9883"/><rect fill="#EEEEEE" height="23.1328" rx="3.5" ry="3.5" style="stroke:#454645;stroke-width:1.0;" width="130" x="927.75" y="611.4219"/><text fill="#454645" font-family="sans-serif" font-size="13" font-weight="bold" lengthAdjust="spacing" textLength="111" x="933.75" y="627.4888">Server Session</text><path d="M666.5,651.5547 L821,651.5547 L821,658.6875 L811,668.6875 L663,668.6875 L663,655.0547 A3.5,3.5 0 0 1 666.5,651.5547 " fill="#EEEEEE" style="stroke:#696969;stroke-width:1.5;"/><rect fill="none" height="211.2578" rx="3.5" ry="3.5" style="stroke:#696969;stroke-width:1.0;" width="1057" x="663" y="651.5547"/><text fill="#454645" font-family="sans-serif" font-size="13" font-weight="bold" lengthAdjust="spacing" textLength="113" x="678" y="664.6216">Create session</text><polygon fill="#454645" points="1662.5,685.8203,1672.5,689.8203,1662.5,693.8203,1666.5,689.8203" style="stroke:#454645;stroke-width:1.0;"/><line style="stroke:#454645;stroke-width:1.0;stroke-dasharray:2.0,2.0;" x1="1402.5" x2="1668.5" y1="689.8203" y2="689.8203"/><text fill="#000000" font-family="sans-serif" font-size="13" font-weight="bold" lengthAdjust="spacing" textLength="19" x="1409.5" y="684.7544">10</text><text fill="#000000" font-family="sans-serif" font-size="13" lengthAdjust="spacing" textLength="122" x="1432.5" y="684.7544">msgrcv(client_key)</text><polygon fill="#454645" points="921,714.9531,911,718.9531,921,722.9531,917,718.9531" style="stroke:#454645;stroke-width:1.0;"/><line style="stroke:#454645;stroke-width:1.0;" x1="915" x2="1673.5" y1="718.9531" y2="718.9531"/><text fill="#000000" font-family="sans-serif" font-size="13" font-weight="bold" lengthAdjust="spacing" textLength="18" x="927" y="713.8872">11</text><text fill="#000000" font-family="sans-serif" font-size="13" lengthAdjust="spacing" textLength="215" x="949" y="713.8872">msgget(session_key, IPC_CREAT)</text><path d="M796,697.8203 L905,697.8203 C910,697.8203 910,710.9688 910,710.9688 C910,710.9688 910,724.1172 905,724.1172 L796,724.1172 C791,724.1172 791,710.9688 791,710.9688 C791,710.9688 791,697.8203 796,697.8203 " fill="#FF6347" style="stroke:#454645;stroke-width:1.5;"/><path d="M905,697.8203 C900,697.8203 900,710.9688 900,710.9688 C900,724.1172 905,724.1172 905,724.1172 " fill="none" style="stroke:#454645;stroke-width:1.5;"/><text fill="#FFFFFF" font-family="sans-serif" font-size="14" lengthAdjust="spacing" textLength="99" x="796" y="715.8154">SessionQueue</text><polygon fill="#454645" points="1212.5,751.25,1202.5,755.25,1212.5,759.25,1208.5,755.25" style="stroke:#454645;stroke-width:1.0;"/><line style="stroke:#454645;stroke-width:1.0;" x1="1206.5" x2="1673.5" y1="755.25" y2="755.25"/><text fill="#000000" font-family="sans-serif" font-size="13" font-weight="bold" lengthAdjust="spacing" textLength="18" x="1218.5" y="750.1841">12</text><text fill="#000000" font-family="sans-serif" font-size="13" lengthAdjust="spacing" textLength="35" x="1240.5" y="750.1841">fork()</text><rect fill="#FF6347" height="30.2969" rx="3.5" ry="3.5" style="stroke:#454645;stroke-width:1.5;" width="68" x="1133.5" y="734.1172"/><text fill="#FFFFFF" font-family="sans-serif" font-size="14" lengthAdjust="spacing" textLength="54" x="1140.5" y="754.1123">Session</text><polygon fill="#454645" points="866.5,792.5469,856.5,796.5469,866.5,800.5469,862.5,796.5469" style="stroke:#454645;stroke-width:1.0;"/><line style="stroke:#454645;stroke-width:1.0;" x1="860.5" x2="1161.5" y1="796.5469" y2="796.5469"/><text fill="#000000" font-family="sans-serif" font-size="13" font-weight="bold" lengthAdjust="spacing" textLength="17" x="872.5" y="791.481">13</text><text fill="#000000" font-family="sans-serif" font-size="13" lengthAdjust="spacing" textLength="137" x="893.5" y="791.481">msgget(session_key)</text><polygon fill="#454645" points="743,821.6797,733,825.6797,743,829.6797,739,825.6797" style="stroke:#454645;stroke-width:1.0;"/><line style="stroke:#454645;stroke-width:1.0;" x1="737" x2="1161.5" y1="825.6797" y2="825.6797"/><text fill="#000000" font-family="sans-serif" font-size="13" font-weight="bold" lengthAdjust="spacing" textLength="18" x="749" y="820.6138">14</text><text fill="#000000" font-family="sans-serif" font-size="13" lengthAdjust="spacing" textLength="123" x="771" y="820.6138">msgget(client_key)</text><polygon fill="#454645" points="743,850.8125,733,854.8125,743,858.8125,739,854.8125" style="stroke:#454645;stroke-width:1.0;"/><line style="stroke:#454645;stroke-width:1.0;stroke-dasharray:2.0,2.0;" x1="737" x2="1161.5" y1="854.8125" y2="854.8125"/><text fill="#000000" font-family="sans-serif" font-size="13" font-weight="bold" lengthAdjust="spacing" textLength="18" x="749" y="849.7466">15</text><text fill="#000000" font-family="sans-serif" font-size="13" lengthAdjust="spacing" textLength="139" x="771" y="849.7466">msgsnd(session_key)</text><polygon fill="#454645" points="373,886.9453,363,890.9453,373,894.9453,369,890.9453" style="stroke:#454645;stroke-width:1.0;"/><line style="stroke:#454645;stroke-width:1.0;stroke-dasharray:2.0,2.0;" x1="367" x2="721" y1="890.9453" y2="890.9453"/><text fill="#000000" font-family="sans-serif" font-size="13" font-weight="bold" lengthAdjust="spacing" textLength="18" x="379" y="885.8794">16</text><text fill="#000000" font-family="sans-serif" font-size="13" lengthAdjust="spacing" textLength="136" x="401" y="885.8794">msgrcv(session_key)</text><polygon fill="#454645" points="833.5,916.0781,843.5,920.0781,833.5,924.0781,837.5,920.0781" style="stroke:#454645;stroke-width:1.0;"/><line style="stroke:#454645;stroke-width:1.0;" x1="362" x2="839.5" y1="920.0781" y2="920.0781"/><text fill="#000000" font-family="sans-serif" font-size="13" font-weight="bold" lengthAdjust="spacing" textLength="18" x="369" y="915.0122">17</text><text fill="#000000" font-family="sans-serif" font-size="13" lengthAdjust="spacing" textLength="137" x="391" y="915.0122">msgget(session_key)</text><path d="M13.5,935.0781 L76,935.0781 L76,942.2109 L66,952.2109 L10,952.2109 L10,938.5781 A3.5,3.5 0 0 1 13.5,935.0781 " fill="#EEEEEE" style="stroke:#696969;stroke-width:1.5;"/><rect fill="none" height="1021.5313" rx="3.5" ry="3.5" style="stroke:#696969;stroke-width:1.0;" width="1965.5" x="10" y="935.0781"/><text fill="#454645" font-family="sans-serif" font-size="13" font-weight="bold" lengthAdjust="spacing" textLength="21" x="25" y="948.145">alt</text><text fill="#696969" font-family="sans-serif" font-size="11" font-weight="bold" lengthAdjust="spacing" textLength="208" x="91" y="947.2886">[Failure connection to session]</text><path d="M322,959.2109 L396.5,959.2109 L396.5,966.3438 L386.5,976.3438 L318.5,976.3438 L318.5,962.7109 A3.5,3.5 0 0 1 322,959.2109 " fill="#EEEEEE" style="stroke:#696969;stroke-width:1.5;"/><rect fill="none" height="46.2656" rx="3.5" ry="3.5" style="stroke:#696969;stroke-width:1.0;" width="601.5" x="318.5" y="959.2109"/><text fill="#454645" font-family="sans-serif" font-size="13" font-weight="bold" lengthAdjust="spacing" textLength="33" x="333.5" y="972.2778">loop</text><text fill="#696969" font-family="sans-serif" font-size="11" font-weight="bold" lengthAdjust="spacing" textLength="69" x="411.5" y="971.4214">[10 times]</text><polygon fill="#454645" points="833.5,993.4766,843.5,997.4766,833.5,1001.4766,837.5,997.4766" style="stroke:#454645;stroke-width:1.0;"/><line style="stroke:#454645;stroke-width:1.0;" x1="362" x2="839.5" y1="997.4766" y2="997.4766"/><text fill="#000000" font-family="sans-serif" font-size="13" font-weight="bold" lengthAdjust="spacing" textLength="18" x="369" y="992.4106">18</text><text fill="#000000" font-family="sans-serif" font-size="13" lengthAdjust="spacing" textLength="137" x="391" y="992.4106">msgget(session_key)</text><path d="M33.5,1019.4766 L96,1019.4766 L96,1026.6094 L86,1036.6094 L30,1036.6094 L30,1022.9766 A3.5,3.5 0 0 1 33.5,1019.4766 " fill="#EEEEEE" style="stroke:#696969;stroke-width:1.5;"/><rect fill="none" height="46.2656" rx="3.5" ry="3.5" style="stroke:#696969;stroke-width:1.0;" width="365.5" x="30" y="1019.4766"/><text fill="#454645" font-family="sans-serif" font-size="13" font-weight="bold" lengthAdjust="spacing" textLength="21" x="45" y="1032.5435">alt</text><text fill="#696969" font-family="sans-serif" font-size="11" font-weight="bold" lengthAdjust="spacing" textLength="55" x="111" y="1031.687">[Failure]</text><polygon fill="#454645" points="68.5,1053.7422,58.5,1057.7422,68.5,1061.7422,64.5,1057.7422" style="stroke:#454645;stroke-width:1.0;"/><line style="stroke:#454645;stroke-width:1.0;" x1="62.5" x2="351" y1="1057.7422" y2="1057.7422"/><text fill="#000000" font-family="sans-serif" font-size="13" font-weight="bold" lengthAdjust="spacing" textLength="18" x="74.5" y="1052.6763">19</text><text fill="#000000" font-family="sans-serif" font-size="13" lengthAdjust="spacing" textLength="166" x="96.5" y="1052.6763">"Server is not responding"</text><line style="stroke:#696969;stroke-width:1.0;stroke-dasharray:2.0,2.0;" x1="10" x2="1975.5" y1="1073.7422" y2="1073.7422"/><text fill="#696969" font-family="sans-serif" font-size="11" font-weight="bold" lengthAdjust="spacing" textLength="231" x="15" y="1083.9526">[Sucessfull connection to session]</text><polygon fill="#454645" points="715,1104.6797,725,1108.6797,715,1112.6797,719,1108.6797" style="stroke:#454645;stroke-width:1.0;"/><line style="stroke:#454645;stroke-width:1.0;" x1="362" x2="721" y1="1108.6797" y2="1108.6797"/><text fill="#000000" font-family="sans-serif" font-size="13" font-weight="bold" lengthAdjust="spacing" textLength="19" x="369" y="1103.6138">20</text><text fill="#000000" font-family="sans-serif" font-size="13" lengthAdjust="spacing" textLength="184" x="392" y="1103.6138">msgctl(client_key, IPC_RMID)</text><line style="stroke:#696969;stroke-width:2.0;" x1="718" x2="736" y1="1099.6797" y2="1117.6797"/><line style="stroke:#696969;stroke-width:2.0;" x1="718" x2="736" y1="1117.6797" y2="1099.6797"/><polygon fill="#454645" points="833.5,1133.8125,843.5,1137.8125,833.5,1141.8125,837.5,1137.8125" style="stroke:#454645;stroke-width:1.0;"/><line style="stroke:#454645;stroke-width:1.0;stroke-dasharray:2.0,2.0;" x1="362" x2="839.5" y1="1137.8125" y2="1137.8125"/><text fill="#000000" font-family="sans-serif" font-size="13" font-weight="bold" lengthAdjust="spacing" textLength="18" x="369" y="1132.7466">21</text><text fill="#000000" font-family="sans-serif" font-size="13" lengthAdjust="spacing" textLength="175" x="391" y="1132.7466">msgsnd({login,password})</text><polygon fill="#454645" points="1150.5,1162.9453,1160.5,1166.9453,1150.5,1170.9453,1154.5,1166.9453" style="stroke:#454645;stroke-width:1.0;"/><line style="stroke:#454645;stroke-width:1.0;stroke-dasharray:2.0,2.0;" x1="855.5" x2="1156.5" y1="1166.9453" y2="1166.9453"/><text fill="#000000" font-family="sans-serif" font-size="13" font-weight="bold" lengthAdjust="spacing" textLength="18" x="862.5" y="1161.8794">22</text><text fill="#000000" font-family="sans-serif" font-size="13" lengthAdjust="spacing" textLength="172" x="884.5" y="1161.8794">msgrcv({login,password})</text><polygon fill="#454645" points="1380.5,1192.0781,1390.5,1196.0781,1380.5,1200.0781,1384.5,1196.0781" style="stroke:#454645;stroke-width:1.0;"/><line style="stroke:#454645;stroke-width:1.0;stroke-dasharray:2.0,2.0;" x1="1172.5" x2="1386.5" y1="1196.0781" y2="1196.0781"/><text fill="#000000" font-family="sans-serif" font-size="13" font-weight="bold" lengthAdjust="spacing" textLength="17" x="1179.5" y="1191.0122">23</text><text fill="#000000" font-family="sans-serif" font-size="13" lengthAdjust="spacing" textLength="175" x="1200.5" y="1191.0122">msgsnd({login,password})</text><polygon fill="#454645" points="1662.5,1221.2109,1672.5,1225.2109,1662.5,1229.2109,1666.5,1225.2109" style="stroke:#454645;stroke-width:1.0;"/><line style="stroke:#454645;stroke-width:1.0;stroke-dasharray:2.0,2.0;" x1="1402.5" x2="1668.5" y1="1225.2109" y2="1225.2109"/><text fill="#000000" font-family="sans-serif" font-size="13" font-weight="bold" lengthAdjust="spacing" textLength="18" x="1409.5" y="1220.145">24</text><text fill="#000000" font-family="sans-serif" font-size="13" lengthAdjust="spacing" textLength="172" x="1431.5" y="1220.145">msgrcv({login,password})</text><polygon fill="#454645" points="1916.5,1250.3438,1926.5,1254.3438,1916.5,1258.3438,1920.5,1254.3438" style="stroke:#454645;stroke-width:1.0;"/><line style="stroke:#454645;stroke-width:1.0;" x1="1684.5" x2="1922.5" y1="1254.3438" y2="1254.3438"/><text fill="#000000" font-family="sans-serif" font-size="13" font-weight="bold" lengthAdjust="spacing" textLength="18" x="1691.5" y="1249.2778">25</text><text fill="#000000" font-family="sans-serif" font-size="13" lengthAdjust="spacing" textLength="198" x="1713.5" y="1249.2778">check_login({login,password})</text><path d="M23.5,1269.3438 L86,1269.3438 L86,1276.4766 L76,1286.4766 L20,1286.4766 L20,1272.8438 A3.5,3.5 0 0 1 23.5,1269.3438 " fill="#EEEEEE" style="stroke:#696969;stroke-width:1.5;"/><rect fill="none" height="680.2656" rx="3.5" ry="3.5" style="stroke:#696969;stroke-width:1.0;" width="1877.5" x="20" y="1269.3438"/><text fill="#454645" font-family="sans-serif" font-size="13" font-weight="bold" lengthAdjust="spacing" textLength="21" x="35" y="1282.4106">alt</text><text fill="#696969" font-family="sans-serif" font-size="11" font-weight="bold" lengthAdjust="spacing" textLength="92" x="101" y="1281.5542">[Failure login]</text><line style="stroke:#454645;stroke-width:1.0;" x1="1684.5" x2="1726.5" y1="1307.6094" y2="1307.6094"/><line style="stroke:#454645;stroke-width:1.0;" x1="1726.5" x2="1726.5" y1="1307.6094" y2="1320.6094"/><line style="stroke:#454645;stroke-width:1.0;" x1="1685.5" x2="1726.5" y1="1320.6094" y2="1320.6094"/><polygon fill="#454645" points="1695.5,1316.6094,1685.5,1320.6094,1695.5,1324.6094,1691.5,1320.6094" style="stroke:#454645;stroke-width:1.0;"/><text fill="#000000" font-family="sans-serif" font-size="13" font-weight="bold" lengthAdjust="spacing" textLength="18" x="1691.5" y="1302.5435">26</text><text fill="#000000" font-family="sans-serif" font-size="13" lengthAdjust="spacing" textLength="157" x="1713.5" y="1302.5435">set_status(login,'offline')</text><polygon fill="#454645" points="866.5,1345.7422,856.5,1349.7422,866.5,1353.7422,862.5,1349.7422" style="stroke:#454645;stroke-width:1.0;"/><line style="stroke:#454645;stroke-width:1.0;" x1="860.5" x2="1673.5" y1="1349.7422" y2="1349.7422"/><text fill="#000000" font-family="sans-serif" font-size="13" font-weight="bold" lengthAdjust="spacing" textLength="18" x="872.5" y="1344.6763">27</text><text fill="#000000" font-family="sans-serif" font-size="13" lengthAdjust="spacing" textLength="147" x="894.5" y="1344.6763">msgsnd(fail, message)</text><polygon fill="#454645" points="1150.5,1374.875,1160.5,1378.875,1150.5,1382.875,1154.5,1378.875" style="stroke:#454645;stroke-width:1.0;"/><line style="stroke:#454645;stroke-width:1.0;stroke-dasharray:2.0,2.0;" x1="855.5" x2="1156.5" y1="1378.875" y2="1378.875"/><text fill="#000000" font-family="sans-serif" font-size="13" font-weight="bold" lengthAdjust="spacing" textLength="18" x="862.5" y="1373.8091">28</text><text fill="#000000" font-family="sans-serif" font-size="13" lengthAdjust="spacing" textLength="144" x="884.5" y="1373.8091">msgrcv(fail, message)</text><polygon fill="#454645" points="866.5,1404.0078,856.5,1408.0078,866.5,1412.0078,862.5,1408.0078" style="stroke:#454645;stroke-width:1.0;"/><line style="stroke:#454645;stroke-width:1.0;" x1="860.5" x2="1161.5" y1="1408.0078" y2="1408.0078"/><text fill="#000000" font-family="sans-serif" font-size="13" font-weight="bold" lengthAdjust="spacing" textLength="18" x="872.5" y="1402.9419">29</text><text fill="#000000" font-family="sans-serif" font-size="13" lengthAdjust="spacing" textLength="147" x="894.5" y="1402.9419">msgsnd(fail, message)</text><polygon fill="#454645" points="373,1433.1406,363,1437.1406,373,1441.1406,369,1437.1406" style="stroke:#454645;stroke-width:1.0;"/><line style="stroke:#454645;stroke-width:1.0;stroke-dasharray:2.0,2.0;" x1="367" x2="844.5" y1="1437.1406" y2="1437.1406"/><text fill="#000000" font-family="sans-serif" font-size="13" font-weight="bold" lengthAdjust="spacing" textLength="18" x="379" y="1432.0747">30</text><text fill="#000000" font-family="sans-serif" font-size="13" lengthAdjust="spacing" textLength="144" x="401" y="1432.0747">msgrcv(fail, message)</text><polygon fill="#454645" points="68.5,1462.2734,58.5,1466.2734,68.5,1470.2734,64.5,1466.2734" style="stroke:#454645;stroke-width:1.0;"/><line style="stroke:#454645;stroke-width:1.0;" x1="62.5" x2="351" y1="1466.2734" y2="1466.2734"/><text fill="#000000" font-family="sans-serif" font-size="13" font-weight="bold" lengthAdjust="spacing" textLength="17" x="74.5" y="1461.2075">31</text><text fill="#000000" font-family="sans-serif" font-size="13" lengthAdjust="spacing" textLength="169" x="95.5" y="1461.2075">show_message(message)</text><line style="stroke:#696969;stroke-width:1.0;stroke-dasharray:2.0,2.0;" x1="20" x2="1897.5" y1="1475.2734" y2="1475.2734"/><text fill="#696969" font-family="sans-serif" font-size="11" font-weight="bold" lengthAdjust="spacing" textLength="115" x="25" y="1485.4839">[Sucessfull login]</text><line style="stroke:#454645;stroke-width:1.0;" x1="1684.5" x2="1726.5" y1="1510.2109" y2="1510.2109"/><line style="stroke:#454645;stroke-width:1.0;" x1="1726.5" x2="1726.5" y1="1510.2109" y2="1523.2109"/><line style="stroke:#454645;stroke-width:1.0;" x1="1685.5" x2="1726.5" y1="1523.2109" y2="1523.2109"/><polygon fill="#454645" points="1695.5,1519.2109,1685.5,1523.2109,1695.5,1527.2109,1691.5,1523.2109" style="stroke:#454645;stroke-width:1.0;"/><text fill="#000000" font-family="sans-serif" font-size="13" font-weight="bold" lengthAdjust="spacing" textLength="17" x="1691.5" y="1505.145">32</text><text fill="#000000" font-family="sans-serif" font-size="13" lengthAdjust="spacing" textLength="173" x="1712.5" y="1505.145">connect(login,session_key)</text><line style="stroke:#454645;stroke-width:1.0;" x1="1684.5" x2="1726.5" y1="1552.3438" y2="1552.3438"/><line style="stroke:#454645;stroke-width:1.0;" x1="1726.5" x2="1726.5" y1="1552.3438" y2="1565.3438"/><line style="stroke:#454645;stroke-width:1.0;" x1="1685.5" x2="1726.5" y1="1565.3438" y2="1565.3438"/><polygon fill="#454645" points="1695.5,1561.3438,1685.5,1565.3438,1695.5,1569.3438,1691.5,1565.3438" style="stroke:#454645;stroke-width:1.0;"/><text fill="#000000" font-family="sans-serif" font-size="13" font-weight="bold" lengthAdjust="spacing" textLength="16" x="1691.5" y="1547.2778">33</text><text fill="#000000" font-family="sans-serif" font-size="13" lengthAdjust="spacing" textLength="155" x="1711.5" y="1547.2778">set_status(login,'online')</text><polygon fill="#454645" points="866.5,1590.4766,856.5,1594.4766,866.5,1598.4766,862.5,1594.4766" style="stroke:#454645;stroke-width:1.0;"/><line style="stroke:#454645;stroke-width:1.0;stroke-dasharray:2.0,2.0;" x1="860.5" x2="1673.5" y1="1594.4766" y2="1594.4766"/><text fill="#000000" font-family="sans-serif" font-size="13" font-weight="bold" lengthAdjust="spacing" textLength="17" x="872.5" y="1589.4106">34</text><text fill="#000000" font-family="sans-serif" font-size="13" lengthAdjust="spacing" textLength="262" x="893.5" y="1589.4106">msgsnd({login,password}, decrypt_key)</text><polygon fill="#454645" points="1150.5,1619.6094,1160.5,1623.6094,1150.5,1627.6094,1154.5,1623.6094" style="stroke:#454645;stroke-width:1.0;"/><line style="stroke:#454645;stroke-width:1.0;stroke-dasharray:2.0,2.0;" x1="855.5" x2="1156.5" y1="1623.6094" y2="1623.6094"/><text fill="#000000" font-family="sans-serif" font-size="13" font-weight="bold" lengthAdjust="spacing" textLength="17" x="862.5" y="1618.5435">35</text><text fill="#000000" font-family="sans-serif" font-size="13" lengthAdjust="spacing" textLength="259" x="883.5" y="1618.5435">msgrcv({login,password}, decrypt_key)</text><polygon fill="#454645" points="866.5,1648.7422,856.5,1652.7422,866.5,1656.7422,862.5,1652.7422" style="stroke:#454645;stroke-width:1.0;"/><line style="stroke:#454645;stroke-width:1.0;stroke-dasharray:2.0,2.0;" x1="860.5" x2="1161.5" y1="1652.7422" y2="1652.7422"/><text fill="#000000" font-family="sans-serif" font-size="13" font-weight="bold" lengthAdjust="spacing" textLength="17" x="872.5" y="1647.6763">36</text><text fill="#000000" font-family="sans-serif" font-size="13" lengthAdjust="spacing" textLength="262" x="893.5" y="1647.6763">msgsnd({login,password}, decrypt_key)</text><polygon fill="#454645" points="373,1677.875,363,1681.875,373,1685.875,369,1681.875" style="stroke:#454645;stroke-width:1.0;"/><line style="stroke:#454645;stroke-width:1.0;stroke-dasharray:2.0,2.0;" x1="367" x2="844.5" y1="1681.875" y2="1681.875"/><text fill="#000000" font-family="sans-serif" font-size="13" font-weight="bold" lengthAdjust="spacing" textLength="17" x="379" y="1676.8091">37</text><text fill="#000000" font-family="sans-serif" font-size="13" lengthAdjust="spacing" textLength="259" x="400" y="1676.8091">msgrcv({login,password}, decrypt_key)</text><line style="stroke:#454645;stroke-width:1.0;" x1="362" x2="404" y1="1711.0078" y2="1711.0078"/><line style="stroke:#454645;stroke-width:1.0;" x1="404" x2="404" y1="1711.0078" y2="1724.0078"/><line style="stroke:#454645;stroke-width:1.0;" x1="363" x2="404" y1="1724.0078" y2="1724.0078"/><polygon fill="#454645" points="373,1720.0078,363,1724.0078,373,1728.0078,369,1724.0078" style="stroke:#454645;stroke-width:1.0;"/><text fill="#000000" font-family="sans-serif" font-size="13" font-weight="bold" lengthAdjust="spacing" textLength="17" x="369" y="1705.9419">38</text><text fill="#000000" font-family="sans-serif" font-size="13" lengthAdjust="spacing" textLength="325" x="390" y="1705.9419">check_credentials({login,password}, decrypt_key)</text><path d="M33.5,1739.0078 L96,1739.0078 L96,1746.1406 L86,1756.1406 L30,1756.1406 L30,1742.5078 A3.5,3.5 0 0 1 33.5,1739.0078 " fill="#EEEEEE" style="stroke:#696969;stroke-width:1.5;"/><rect fill="none" height="203.6016" rx="3.5" ry="3.5" style="stroke:#696969;stroke-width:1.0;" width="525" x="30" y="1739.0078"/><text fill="#454645" font-family="sans-serif" font-size="13" font-weight="bold" lengthAdjust="spacing" textLength="21" x="45" y="1752.0747">alt</text><text fill="#696969" font-family="sans-serif" font-size="11" font-weight="bold" lengthAdjust="spacing" textLength="134" x="111" y="1751.2183">[Failure credentials]</text><polygon fill="#454645" points="68.5,1773.2734,58.5,1777.2734,68.5,1781.2734,64.5,1777.2734" style="stroke:#454645;stroke-width:1.0;"/><line style="stroke:#454645;stroke-width:1.0;" x1="62.5" x2="351" y1="1777.2734" y2="1777.2734"/><text fill="#000000" font-family="sans-serif" font-size="13" font-weight="bold" lengthAdjust="spacing" textLength="17" x="74.5" y="1772.2075">39</text><text fill="#000000" font-family="sans-serif" font-size="13" lengthAdjust="spacing" textLength="196" x="95.5" y="1772.2075">show_message(internal_error)</text><line style="stroke:#696969;stroke-width:1.0;stroke-dasharray:2.0,2.0;" x1="30" x2="555" y1="1786.2734" y2="1786.2734"/><text fill="#696969" font-family="sans-serif" font-size="11" font-weight="bold" lengthAdjust="spacing" textLength="157" x="35" y="1796.4839">[Sucessfull credentials]</text><line style="stroke:#454645;stroke-width:1.0;" x1="362" x2="404" y1="1821.2109" y2="1821.2109"/><line style="stroke:#454645;stroke-width:1.0;" x1="404" x2="404" y1="1821.2109" y2="1834.2109"/><line style="stroke:#454645;stroke-width:1.0;" x1="363" x2="404" y1="1834.2109" y2="1834.2109"/><polygon fill="#454645" points="373,1830.2109,363,1834.2109,373,1838.2109,369,1834.2109" style="stroke:#454645;stroke-width:1.0;"/><text fill="#000000" font-family="sans-serif" font-size="13" font-weight="bold" lengthAdjust="spacing" textLength="19" x="369" y="1816.145">40</text><text fill="#000000" font-family="sans-serif" font-size="13" lengthAdjust="spacing" textLength="151" x="392" y="1816.145">change_access_rights()</text><polygon fill="#454645" points="340,1859.3438,350,1863.3438,340,1867.3438,344,1863.3438" style="stroke:#454645;stroke-width:1.0;"/><line style="stroke:#454645;stroke-width:1.0;" x1="120" x2="346" y1="1863.3438" y2="1863.3438"/><text fill="#000000" font-family="sans-serif" font-size="13" font-weight="bold" lengthAdjust="spacing" textLength="18" x="127" y="1858.2778">41</text><text fill="#000000" font-family="sans-serif" font-size="13" lengthAdjust="spacing" textLength="186" x="149" y="1858.2778">load_data(login,decrypt_key)</text><line style="stroke:#454645;stroke-width:1.0;" x1="362" x2="404" y1="1892.4766" y2="1892.4766"/><line style="stroke:#454645;stroke-width:1.0;" x1="404" x2="404" y1="1892.4766" y2="1905.4766"/><line style="stroke:#454645;stroke-width:1.0;" x1="363" x2="404" y1="1905.4766" y2="1905.4766"/><polygon fill="#454645" points="373,1901.4766,363,1905.4766,373,1909.4766,369,1905.4766" style="stroke:#454645;stroke-width:1.0;"/><text fill="#000000" font-family="sans-serif" font-size="13" font-weight="bold" lengthAdjust="spacing" textLength="18" x="369" y="1887.4106">42</text><text fill="#000000" font-family="sans-serif" font-size="13" lengthAdjust="spacing" textLength="75" x="391" y="1887.4106">start_chat()</text><polygon fill="#454645" points="68.5,1930.6094,58.5,1934.6094,68.5,1938.6094,64.5,1934.6094" style="stroke:#454645;stroke-width:1.0;"/><line style="stroke:#454645;stroke-width:1.0;" x1="62.5" x2="351" y1="1934.6094" y2="1934.6094"/><text fill="#000000" font-family="sans-serif" font-size="13" font-weight="bold" lengthAdjust="spacing" textLength="17" x="74.5" y="1929.5435">43</text><text fill="#000000" font-family="sans-serif" font-size="13" lengthAdjust="spacing" textLength="79" x="95.5" y="1929.5435">show_chat()</text><!--SRC=[jLTBZzCw5DxdLnpOj9Kwp0nmDnM310D8iq3YkOxSn4sjIUrWEnqAuhzp_4ZiFDg6UozTjAbzllFupiFE8xsbEmfxjfQ4QzX8iOEjrfLQNLvAyl2aO7fRhsj5PIQufbm_oSJkiYfHkDwLuM57bARoqcfJIK8oBIIy5ciW2huY6eJCyViwoOacQw8et9OCrRrvRIJQPoVrD4Xzfd9FfPDgdvtKiokqKsl1wzsQoYIvkV4ISCUPPgHaFuXcWiFDJJ9hjbXdAyaa9RgnqbZ_9sajlRXuAPhT5PI2v6c-dYzCV6mVa8sURpMjcxMFzjchVEvLGj3dzbUmKqL1zNocxEfi2NSVRjFRJszVVHcOiH0Rg2DiD52_DHwet_G49ZOp5o-RPHDXmVZSVYyhejG3IaPkEBbkj6ujZlPvulMrcdknPdOnlQU7yMWZKAJg96s8BZMy8woi9GMiLKupouaMu4GIm4yfH0NNLw2PALFmdyasZ33bkVsDx8qeiioku75JTWguq22fgWJF6IyUjvWP_SuqaAfosajJz7L6bThKPNayajZScEEAvn7FmVN91lv4kL4SD-1drDxlF4apolPKWGC20e7m75mnAJHjCKaXHLt1hIknPj4u57iHl78EoMm_YBRNarPHfocl8hKk-P5Ccttlmg1QRGs4_WpGs7X3XBTuFMuHZMs4l9-FA_KO9pd5pKKVSQO9U_9Z09FmZWMJyNRMjAdr8crkbIPIXsMp9EbEH5NmBMhoaDfs7ldKTap7tNgMYLDJ8R1xVYnCelmlZuO9tHj2EZ62CrqEHl2dztTlN10vLLgAGsS89yE9q2V4LCZFxi7ngrDOSUCsLU_JEyHPu0pO1YXoTD1RvCKm9Uu1hnWSiYtX1SLMCKo0PCKMoynM7BBK6sHnOOzEicDkdnutfr3XAC4xn0gzfTbzwixMSTY9K9NXF2HtQIGtM5pjRevd_KRq2yyTvMqfzVr2hnJLAJQehfK_y6TYioaPf_wWEpSS3NN6aILWqoXIq1XsBkMdWV_TO7-27C4Dkb9jnKFgnUO3yPcaMXuYQllzU9Pqtx2UyS44cPugVYHJavjpYPsUoKEb-zR_j5jxYW9P_xvxtNGQLiN_7bo_J2RgwG_NjiVnsC_nFrwyrLHTdHCgmDlzysNAyCLCSbAcL4eX5ntae697BvbdpKPXcjIbBdMfIzryCOPwSH5UwvfN9tohymKyIiKHc_OMaQ9bFLzCeAKds1pAzlZa-My0]--></g></svg>