<?xml version="1.0" encoding="UTF-8" standalone="no"?><svg xmlns="http://www.w3.org/2000/svg" xmlns:xlink="http://www.w3.org/1999/xlink" contentStyleType="text/css" height="2138px" preserveAspectRatio="none" style="width:1993px;height:2138px;background:#FFFFFF;" version="1.1" viewBox="0 0 1993 2138" width="1993px" zoomAndPan="magnify"><defs/><g><rect fill="#FFFFFF" height="1762.5859" style="stroke:#696969;stroke-width:1.0;" width="10" x="351" y="286.2891"/><rect fill="#FFFFFF" height="781.0938" style="stroke:#696969;stroke-width:1.0;" width="10" x="723" y="327.5859"/><rect fill="#FFFFFF" height="1319.9219" style="stroke:#696969;stroke-width:1.0;" width="10" x="846.5" y="728.9531"/><rect fill="#FFFFFF" height="1283.625" style="stroke:#696969;stroke-width:1.0;" width="10" x="1163.5" y="765.25"/><rect fill="#FFFFFF" height="1842.0156" style="stroke:#696969;stroke-width:1.0;" width="10" x="1393.5" y="206.8594"/><rect fill="#FFFFFF" height="1883.3125" style="stroke:#696969;stroke-width:1.0;" width="10" x="1675.5" y="165.5625"/><rect fill="none" height="225.5391" rx="3.5" ry="3.5" style="stroke:#696969;stroke-width:1.0;" width="1454.5" x="20" y="368.8828"/><rect fill="none" height="46.2656" rx="3.5" ry="3.5" style="stroke:#696969;stroke-width:1.0;" width="1147" x="317.5" y="393.0156"/><rect fill="none" height="90.2031" rx="3.5" ry="3.5" style="stroke:#696969;stroke-width:1.0;" width="1434.5" x="30" y="453.2813"/><rect fill="none" height="211.2578" rx="3.5" ry="3.5" style="stroke:#696969;stroke-width:1.0;" width="1057" x="664" y="651.5547"/><rect fill="none" height="1105.7969" rx="3.5" ry="3.5" style="stroke:#696969;stroke-width:1.0;" width="1966.5" x="10" y="935.0781"/><rect fill="none" height="46.2656" rx="3.5" ry="3.5" style="stroke:#696969;stroke-width:1.0;" width="603.5" x="317.5" y="959.2109"/><rect fill="none" height="46.2656" rx="3.5" ry="3.5" style="stroke:#696969;stroke-width:1.0;" width="364.5" x="30" y="1019.4766"/><rect fill="none" height="764.5313" rx="3.5" ry="3.5" style="stroke:#696969;stroke-width:1.0;" width="1877.5" x="20" y="1269.3438"/><rect fill="none" height="203.6016" rx="3.5" ry="3.5" style="stroke:#696969;stroke-width:1.0;" width="523" x="30" y="1823.2734"/><line style="stroke:#696969;stroke-width:0.5;stroke-dasharray:5.0,5.0;" x1="57" x2="57" y1="81.2969" y2="2057.875"/><line style="stroke:#696969;stroke-width:0.5;stroke-dasharray:5.0,5.0;" x1="120" x2="120" y1="81.2969" y2="2057.875"/><line style="stroke:#696969;stroke-width:0.5;stroke-dasharray:5.0,5.0;" x1="355.5" x2="355.5" y1="285.8047" y2="2057.875"/><line style="stroke:#696969;stroke-width:0.5;stroke-dasharray:5.0,5.0;" x1="728" x2="728" y1="324.6016" y2="2057.875"/><line style="stroke:#696969;stroke-width:0.5;stroke-dasharray:5.0,5.0;" x1="851" x2="851" y1="725.9688" y2="2057.875"/><line style="stroke:#696969;stroke-width:0.5;stroke-dasharray:5.0,5.0;" x1="1168.5" x2="1168.5" y1="764.7656" y2="2057.875"/><line style="stroke:#696969;stroke-width:0.5;stroke-dasharray:5.0,5.0;" x1="1398.5" x2="1398.5" y1="203.875" y2="2057.875"/><line style="stroke:#696969;stroke-width:0.5;stroke-dasharray:5.0,5.0;" x1="1680" x2="1680" y1="165.0781" y2="2057.875"/><line style="stroke:#696969;stroke-width:0.5;stroke-dasharray:5.0,5.0;" x1="1929.5" x2="1929.5" y1="81.2969" y2="2057.875"/><text fill="#454645" font-family="sans-serif" font-size="14" lengthAdjust="spacing" textLength="29" x="40" y="77.9951">Bob</text><ellipse cx="57.5" cy="13.5" fill="#454645" rx="8" ry="8" style="stroke:#454645;stroke-width:0.5;"/><path d="M57.5,21.5 L57.5,48.5 M44.5,29.5 L70.5,29.5 M57.5,48.5 L44.5,63.5 M57.5,48.5 L70.5,63.5 " fill="none" style="stroke:#454645;stroke-width:0.5;"/><text fill="#454645" font-family="sans-serif" font-size="14" lengthAdjust="spacing" textLength="29" x="40" y="2069.8701">Bob</text><ellipse cx="57.5" cy="2081.6719" fill="#454645" rx="8" ry="8" style="stroke:#454645;stroke-width:0.5;"/><path d="M57.5,2089.6719 L57.5,2116.6719 M44.5,2097.6719 L70.5,2097.6719 M57.5,2116.6719 L44.5,2131.6719 M57.5,2116.6719 L70.5,2131.6719 " fill="none" style="stroke:#454645;stroke-width:0.5;"/><text fill="#454645" font-family="sans-serif" font-size="14" lengthAdjust="spacing" textLength="64" x="85" y="77.9951">ClientDB</text><path d="M102,29 C102,19 120,19 120,19 C120,19 138,19 138,29 L138,55 C138,65 120,65 120,65 C120,65 102,65 102,55 L102,29 " fill="#00FFFF" style="stroke:#454645;stroke-width:1.5;"/><path d="M102,29 C102,39 120,39 120,39 C120,39 138,39 138,29 " fill="none" style="stroke:#454645;stroke-width:1.5;"/><text fill="#454645" font-family="sans-serif" font-size="14" lengthAdjust="spacing" textLength="64" x="85" y="2069.8701">ClientDB</text><path d="M102,2083.1719 C102,2073.1719 120,2073.1719 120,2073.1719 C120,2073.1719 138,2073.1719 138,2083.1719 L138,2109.1719 C138,2119.1719 120,2119.1719 120,2119.1719 C120,2119.1719 102,2119.1719 102,2109.1719 L102,2083.1719 " fill="#00FFFF" style="stroke:#454645;stroke-width:1.5;"/><path d="M102,2083.1719 C102,2093.1719 120,2093.1719 120,2093.1719 C120,2093.1719 138,2093.1719 138,2083.1719 " fill="none" style="stroke:#454645;stroke-width:1.5;"/><rect fill="#FF6347" height="30.2969" rx="3.5" ry="3.5" style="stroke:#454645;stroke-width:1.5;" width="57" x="327.5" y="2056.875"/><text fill="#FFFFFF" font-family="sans-serif" font-size="14" lengthAdjust="spacing" textLength="43" x="334.5" y="2076.8701">Client</text><path d="M679,2056.875 L777,2056.875 C782,2056.875 782,2070.0234 782,2070.0234 C782,2070.0234 782,2083.1719 777,2083.1719 L679,2083.1719 C674,2083.1719 674,2070.0234 674,2070.0234 C674,2070.0234 674,2056.875 679,2056.875 " fill="#FF6347" style="stroke:#454645;stroke-width:1.5;"/><path d="M777,2056.875 C772,2056.875 772,2070.0234 772,2070.0234 C772,2083.1719 777,2083.1719 777,2083.1719 " fill="none" style="stroke:#454645;stroke-width:1.5;"/><text fill="#FFFFFF" font-family="sans-serif" font-size="14" lengthAdjust="spacing" textLength="88" x="679" y="2074.8701">ClientQueue</text><path d="M797,2056.875 L906,2056.875 C911,2056.875 911,2070.0234 911,2070.0234 C911,2070.0234 911,2083.1719 906,2083.1719 L797,2083.1719 C792,2083.1719 792,2070.0234 792,2070.0234 C792,2070.0234 792,2056.875 797,2056.875 " fill="#FF6347" style="stroke:#454645;stroke-width:1.5;"/><path d="M906,2056.875 C901,2056.875 901,2070.0234 901,2070.0234 C901,2083.1719 906,2083.1719 906,2083.1719 " fill="none" style="stroke:#454645;stroke-width:1.5;"/><text fill="#FFFFFF" font-family="sans-serif" font-size="14" lengthAdjust="spacing" textLength="99" x="797" y="2074.8701">SessionQueue</text><rect fill="#FF6347" height="30.2969" rx="3.5" ry="3.5" style="stroke:#454645;stroke-width:1.5;" width="68" x="1134.5" y="2056.875"/><text fill="#FFFFFF" font-family="sans-serif" font-size="14" lengthAdjust="spacing" textLength="54" x="1141.5" y="2076.8701">Session</text><path d="M1347.5,2056.875 L1449.5,2056.875 C1454.5,2056.875 1454.5,2070.0234 1454.5,2070.0234 C1454.5,2070.0234 1454.5,2083.1719 1449.5,2083.1719 L1347.5,2083.1719 C1342.5,2083.1719 1342.5,2070.0234 1342.5,2070.0234 C1342.5,2070.0234 1342.5,2056.875 1347.5,2056.875 " fill="#FF6347" style="stroke:#454645;stroke-width:1.5;"/><path d="M1449.5,2056.875 C1444.5,2056.875 1444.5,2070.0234 1444.5,2070.0234 C1444.5,2083.1719 1449.5,2083.1719 1449.5,2083.1719 " fill="none" style="stroke:#454645;stroke-width:1.5;"/><text fill="#FFFFFF" font-family="sans-serif" font-size="14" lengthAdjust="spacing" textLength="92" x="1347.5" y="2074.8701">ServerQueue</text><rect fill="#FF6347" height="30.2969" rx="3.5" ry="3.5" style="stroke:#454645;stroke-width:1.5;" width="61" x="1650" y="2056.875"/><text fill="#FFFFFF" font-family="sans-serif" font-size="14" lengthAdjust="spacing" textLength="47" x="1657" y="2076.8701">Server</text><text fill="#454645" font-family="sans-serif" font-size="14" lengthAdjust="spacing" textLength="68" x="1892.5" y="77.9951">ServerDB</text><path d="M1911.5,29 C1911.5,19 1929.5,19 1929.5,19 C1929.5,19 1947.5,19 1947.5,29 L1947.5,55 C1947.5,65 1929.5,65 1929.5,65 C1929.5,65 1911.5,65 1911.5,55 L1911.5,29 " fill="#00FFFF" style="stroke:#454645;stroke-width:1.5;"/><path d="M1911.5,29 C1911.5,39 1929.5,39 1929.5,39 C1929.5,39 1947.5,39 1947.5,29 " fill="none" style="stroke:#454645;stroke-width:1.5;"/><text fill="#454645" font-family="sans-serif" font-size="14" lengthAdjust="spacing" textLength="68" x="1892.5" y="2069.8701">ServerDB</text><path d="M1911.5,2083.1719 C1911.5,2073.1719 1929.5,2073.1719 1929.5,2073.1719 C1929.5,2073.1719 1947.5,2073.1719 1947.5,2083.1719 L1947.5,2109.1719 C1947.5,2119.1719 1929.5,2119.1719 1929.5,2119.1719 C1929.5,2119.1719 1911.5,2119.1719 1911.5,2109.1719 L1911.5,2083.1719 " fill="#00FFFF" style="stroke:#454645;stroke-width:1.5;"/><path d="M1911.5,2083.1719 C1911.5,2093.1719 1929.5,2093.1719 1929.5,2093.1719 C1929.5,2093.1719 1947.5,2093.1719 1947.5,2083.1719 " fill="none" style="stroke:#454645;stroke-width:1.5;"/><rect fill="#FFFFFF" height="1762.5859" style="stroke:#696969;stroke-width:1.0;" width="10" x="351" y="286.2891"/><rect fill="#FFFFFF" height="781.0938" style="stroke:#696969;stroke-width:1.0;" width="10" x="723" y="327.5859"/><rect fill="#FFFFFF" height="1319.9219" style="stroke:#696969;stroke-width:1.0;" width="10" x="846.5" y="728.9531"/><rect fill="#FFFFFF" height="1283.625" style="stroke:#696969;stroke-width:1.0;" width="10" x="1163.5" y="765.25"/><rect fill="#FFFFFF" height="1842.0156" style="stroke:#696969;stroke-width:1.0;" width="10" x="1393.5" y="206.8594"/><rect fill="#FFFFFF" height="1883.3125" style="stroke:#696969;stroke-width:1.0;" width="10" x="1675.5" y="165.5625"/><rect fill="#EEEEEE" height="3" rx="3.5" ry="3.5" style="stroke:#EEEEEE;stroke-width:1.0;" width="1986.5" x="0" y="111.8633"/><line style="stroke:#454645;stroke-width:0.5;" x1="0" x2="1986.5" y1="111.8633" y2="111.8633"/><line style="stroke:#454645;stroke-width:0.5;" x1="0" x2="1986.5" y1="114.8633" y2="114.8633"/><rect fill="#EEEEEE" height="23.1328" rx="3.5" ry="3.5" style="stroke:#454645;stroke-width:1.0;" width="168" x="909.25" y="101.2969"/><text fill="#454645" font-family="sans-serif" font-size="13" font-weight="bold" lengthAdjust="spacing" textLength="149" x="915.25" y="117.3638">Server Initialization</text><ellipse cx="1710.5" cy="154.8125" fill="none" rx="4" ry="4" style="stroke:#454645;stroke-width:1.5;"/><polygon fill="#454645" points="1727.5,151.5625,1717.5,155.5625,1727.5,159.5625,1723.5,155.5625" style="stroke:#454645;stroke-width:1.0;"/><polygon fill="#454645" points="1917.5,151.5625,1927.5,155.5625,1917.5,159.5625,1921.5,155.5625" style="stroke:#454645;stroke-width:1.0;"/><line style="stroke:#454645;stroke-width:1.0;" x1="1725.5" x2="1923.5" y1="155.5625" y2="155.5625"/><text fill="#000000" font-family="sans-serif" font-size="13" font-weight="bold" lengthAdjust="spacing" textLength="9" x="1728" y="150.4966">1</text><text fill="#000000" font-family="sans-serif" font-size="13" lengthAdjust="spacing" textLength="60" x="1741" y="150.4966">load_db()</text><rect fill="#FF6347" height="30.2969" rx="3.5" ry="3.5" style="stroke:#454645;stroke-width:1.5;" width="61" x="1650" y="134.4297"/><text fill="#FFFFFF" font-family="sans-serif" font-size="14" lengthAdjust="spacing" textLength="47" x="1657" y="154.4248">Server</text><ellipse cx="1454" cy="196.1094" fill="none" rx="4" ry="4" style="stroke:#454645;stroke-width:1.5;"/><polygon fill="#454645" points="1471,192.8594,1461,196.8594,1471,200.8594,1467,196.8594" style="stroke:#454645;stroke-width:1.0;"/><line style="stroke:#454645;stroke-width:1.0;" x1="1469" x2="1674.5" y1="196.8594" y2="196.8594"/><text fill="#000000" font-family="sans-serif" font-size="13" font-weight="bold" lengthAdjust="spacing" textLength="9" x="1471.5" y="191.7935">2</text><text fill="#000000" font-family="sans-serif" font-size="13" lengthAdjust="spacing" textLength="184" x="1484.5" y="191.7935">msgget('server', IPC_CREAT)</text><path d="M1347.5,175.7266 L1449.5,175.7266 C1454.5,175.7266 1454.5,188.875 1454.5,188.875 C1454.5,188.875 1454.5,202.0234 1449.5,202.0234 L1347.5,202.0234 C1342.5,202.0234 1342.5,188.875 1342.5,188.875 C1342.5,188.875 1342.5,175.7266 1347.5,175.7266 " fill="#FF6347" style="stroke:#454645;stroke-width:1.5;"/><path d="M1449.5,175.7266 C1444.5,175.7266 1444.5,188.875 1444.5,188.875 C1444.5,202.0234 1449.5,202.0234 1449.5,202.0234 " fill="none" style="stroke:#454645;stroke-width:1.5;"/><text fill="#FFFFFF" font-family="sans-serif" font-size="14" lengthAdjust="spacing" textLength="92" x="1347.5" y="193.7217">ServerQueue</text><rect fill="#EEEEEE" height="3" rx="3.5" ry="3.5" style="stroke:#EEEEEE;stroke-width:1.0;" width="1986.5" x="0" y="232.5898"/><line style="stroke:#454645;stroke-width:0.5;" x1="0" x2="1986.5" y1="232.5898" y2="232.5898"/><line style="stroke:#454645;stroke-width:0.5;" x1="0" x2="1986.5" y1="235.5898" y2="235.5898"/><rect fill="#EEEEEE" height="23.1328" rx="3.5" ry="3.5" style="stroke:#454645;stroke-width:1.0;" width="163" x="911.75" y="222.0234"/><text fill="#454645" font-family="sans-serif" font-size="13" font-weight="bold" lengthAdjust="spacing" textLength="144" x="917.75" y="238.0903">Client Initialization</text><polygon fill="#454645" points="315.5,272.2891,325.5,276.2891,315.5,280.2891,319.5,276.2891" style="stroke:#454645;stroke-width:1.0;"/><line style="stroke:#454645;stroke-width:1.0;" x1="57.5" x2="321.5" y1="276.2891" y2="276.2891"/><text fill="#000000" font-family="sans-serif" font-size="13" font-weight="bold" lengthAdjust="spacing" textLength="8" x="64.5" y="271.2231">3</text><text fill="#000000" font-family="sans-serif" font-size="13" lengthAdjust="spacing" textLength="136" x="76.5" y="271.2231">login(login,password)</text><rect fill="#FF6347" height="30.2969" rx="3.5" ry="3.5" style="stroke:#454645;stroke-width:1.5;" width="57" x="327.5" y="255.1563"/><text fill="#FFFFFF" font-family="sans-serif" font-size="14" lengthAdjust="spacing" textLength="43" x="334.5" y="275.1514">Client</text><polygon fill="#454645" points="662,313.5859,672,317.5859,662,321.5859,666,317.5859" style="stroke:#454645;stroke-width:1.0;"/><line style="stroke:#454645;stroke-width:1.0;" x1="361" x2="668" y1="317.5859" y2="317.5859"/><text fill="#000000" font-family="sans-serif" font-size="13" font-weight="bold" lengthAdjust="spacing" textLength="9" x="368" y="312.52">4</text><text fill="#000000" font-family="sans-serif" font-size="13" lengthAdjust="spacing" textLength="201" x="381" y="312.52">msgget(client_key, IPC_CREAT)</text><path d="M679,296.4531 L777,296.4531 C782,296.4531 782,309.6016 782,309.6016 C782,309.6016 782,322.75 777,322.75 L679,322.75 C674,322.75 674,309.6016 674,309.6016 C674,309.6016 674,296.4531 679,296.4531 " fill="#FF6347" style="stroke:#454645;stroke-width:1.5;"/><path d="M777,296.4531 C772,296.4531 772,309.6016 772,309.6016 C772,322.75 777,322.75 777,322.75 " fill="none" style="stroke:#454645;stroke-width:1.5;"/><text fill="#FFFFFF" font-family="sans-serif" font-size="14" lengthAdjust="spacing" textLength="88" x="679" y="314.4482">ClientQueue</text><polygon fill="#454645" points="1381.5,349.8828,1391.5,353.8828,1381.5,357.8828,1385.5,353.8828" style="stroke:#454645;stroke-width:1.0;"/><line style="stroke:#454645;stroke-width:1.0;" x1="361" x2="1387.5" y1="353.8828" y2="353.8828"/><text fill="#000000" font-family="sans-serif" font-size="13" font-weight="bold" lengthAdjust="spacing" textLength="9" x="368" y="348.8169">5</text><text fill="#000000" font-family="sans-serif" font-size="13" lengthAdjust="spacing" textLength="106" x="381" y="348.8169">msgget('server')</text><path d="M23.5,368.8828 L86,368.8828 L86,376.0156 L76,386.0156 L20,386.0156 L20,372.3828 A3.5,3.5 0 0 1 23.5,368.8828 " fill="#EEEEEE" style="stroke:#696969;stroke-width:1.5;"/><rect fill="none" height="225.5391" rx="3.5" ry="3.5" style="stroke:#696969;stroke-width:1.0;" width="1454.5" x="20" y="368.8828"/><text fill="#454645" font-family="sans-serif" font-size="13" font-weight="bold" lengthAdjust="spacing" textLength="21" x="35" y="381.9497">alt</text><text fill="#696969" font-family="sans-serif" font-size="11" font-weight="bold" lengthAdjust="spacing" textLength="200" x="101" y="381.0933">[Failure connection to server]</text><path d="M321,393.0156 L395.5,393.0156 L395.5,400.1484 L385.5,410.1484 L317.5,410.1484 L317.5,396.5156 A3.5,3.5 0 0 1 321,393.0156 " fill="#EEEEEE" style="stroke:#696969;stroke-width:1.5;"/><rect fill="none" height="46.2656" rx="3.5" ry="3.5" style="stroke:#696969;stroke-width:1.0;" width="1147" x="317.5" y="393.0156"/><text fill="#454645" font-family="sans-serif" font-size="13" font-weight="bold" lengthAdjust="spacing" textLength="33" x="332.5" y="406.0825">loop</text><text fill="#696969" font-family="sans-serif" font-size="11" font-weight="bold" lengthAdjust="spacing" textLength="69" x="410.5" y="405.2261">[10 times]</text><polygon fill="#454645" points="1381.5,427.2813,1391.5,431.2813,1381.5,435.2813,1385.5,431.2813" style="stroke:#454645;stroke-width:1.0;"/><line style="stroke:#454645;stroke-width:1.0;" x1="361" x2="1387.5" y1="431.2813" y2="431.2813"/><text fill="#000000" font-family="sans-serif" font-size="13" font-weight="bold" lengthAdjust="spacing" textLength="9" x="368" y="426.2153">6</text><text fill="#000000" font-family="sans-serif" font-size="13" lengthAdjust="spacing" textLength="106" x="381" y="426.2153">msgget('server')</text><path d="M33.5,453.2813 L96,453.2813 L96,460.4141 L86,470.4141 L30,470.4141 L30,456.7813 A3.5,3.5 0 0 1 33.5,453.2813 " fill="#EEEEEE" style="stroke:#696969;stroke-width:1.5;"/><rect fill="none" height="90.2031" rx="3.5" ry="3.5" style="stroke:#696969;stroke-width:1.0;" width="1434.5" x="30" y="453.2813"/><text fill="#454645" font-family="sans-serif" font-size="13" font-weight="bold" lengthAdjust="spacing" textLength="21" x="45" y="466.3481">alt</text><text fill="#696969" font-family="sans-serif" font-size="11" font-weight="bold" lengthAdjust="spacing" textLength="55" x="111" y="465.4917">[Failure]</text><polygon fill="#454645" points="68.5,487.5469,58.5,491.5469,68.5,495.5469,64.5,491.5469" style="stroke:#454645;stroke-width:1.0;"/><line style="stroke:#454645;stroke-width:1.0;" x1="62.5" x2="350" y1="491.5469" y2="491.5469"/><text fill="#000000" font-family="sans-serif" font-size="13" font-weight="bold" lengthAdjust="spacing" textLength="9" x="74.5" y="486.481">7</text><text fill="#000000" font-family="sans-serif" font-size="13" lengthAdjust="spacing" textLength="166" x="87.5" y="486.481">"Server is not responding"</text><line style="stroke:#696969;stroke-width:1.0;stroke-dasharray:2.0,2.0;" x1="30" x2="1464.5" y1="500.5469" y2="500.5469"/><text fill="#696969" font-family="sans-serif" font-size="11" font-weight="bold" lengthAdjust="spacing" textLength="223" x="35" y="510.7573">[Sucessfull connection to server]</text><polygon fill="#454645" points="1381.5,531.4844,1391.5,535.4844,1381.5,539.4844,1385.5,535.4844" style="stroke:#454645;stroke-width:1.0;"/><line style="stroke:#454645;stroke-width:1.0;stroke-dasharray:2.0,2.0;" x1="361" x2="1387.5" y1="535.4844" y2="535.4844"/><text fill="#000000" font-family="sans-serif" font-size="13" font-weight="bold" lengthAdjust="spacing" textLength="9" x="368" y="530.4185">8</text><text fill="#000000" font-family="sans-serif" font-size="13" lengthAdjust="spacing" textLength="125" x="381" y="530.4185">msgsnd(client_key)</text><line style="stroke:#696969;stroke-width:1.0;stroke-dasharray:2.0,2.0;" x1="20" x2="1474.5" y1="551.4844" y2="551.4844"/><text fill="#696969" font-family="sans-serif" font-size="11" font-weight="bold" lengthAdjust="spacing" textLength="223" x="25" y="561.6948">[Sucessfull connection to server]</text><polygon fill="#454645" points="1381.5,582.4219,1391.5,586.4219,1381.5,590.4219,1385.5,586.4219" style="stroke:#454645;stroke-width:1.0;"/><line style="stroke:#454645;stroke-width:1.0;stroke-dasharray:2.0,2.0;" x1="361" x2="1387.5" y1="586.4219" y2="586.4219"/><text fill="#000000" font-family="sans-serif" font-size="13" font-weight="bold" lengthAdjust="spacing" textLength="9" x="368" y="581.356">9</text><text fill="#000000" font-family="sans-serif" font-size="13" lengthAdjust="spacing" textLength="125" x="381" y="581.356">msgsnd(client_key)</text><rect fill="#EEEEEE" height="3" rx="3.5" ry="3.5" style="stroke:#EEEEEE;stroke-width:1.0;" width="1986.5" x="0" y="621.9883"/><line style="stroke:#454645;stroke-width:0.5;" x1="0" x2="1986.5" y1="621.9883" y2="621.9883"/><line style="stroke:#454645;stroke-width:0.5;" x1="0" x2="1986.5" y1="624.9883" y2="624.9883"/><rect fill="#EEEEEE" height="23.1328" rx="3.5" ry="3.5" style="stroke:#454645;stroke-width:1.0;" width="130" x="928.25" y="611.4219"/><text fill="#454645" font-family="sans-serif" font-size="13" font-weight="bold" lengthAdjust="spacing" textLength="111" x="934.25" y="627.4888">Server Session</text><path d="M667.5,651.5547 L822,651.5547 L822,658.6875 L812,668.6875 L664,668.6875 L664,655.0547 A3.5,3.5 0 0 1 667.5,651.5547 " fill="#EEEEEE" style="stroke:#696969;stroke-width:1.5;"/><rect fill="none" height="211.2578" rx="3.5" ry="3.5" style="stroke:#696969;stroke-width:1.0;" width="1057" x="664" y="651.5547"/><text fill="#454645" font-family="sans-serif" font-size="13" font-weight="bold" lengthAdjust="spacing" textLength="113" x="679" y="664.6216">Create session</text><polygon fill="#454645" points="1663.5,685.8203,1673.5,689.8203,1663.5,693.8203,1667.5,689.8203" style="stroke:#454645;stroke-width:1.0;"/><line style="stroke:#454645;stroke-width:1.0;stroke-dasharray:2.0,2.0;" x1="1403.5" x2="1669.5" y1="689.8203" y2="689.8203"/><text fill="#000000" font-family="sans-serif" font-size="13" font-weight="bold" lengthAdjust="spacing" textLength="19" x="1410.5" y="684.7544">10</text><text fill="#000000" font-family="sans-serif" font-size="13" lengthAdjust="spacing" textLength="122" x="1433.5" y="684.7544">msgrcv(client_key)</text><polygon fill="#454645" points="922,714.9531,912,718.9531,922,722.9531,918,718.9531" style="stroke:#454645;stroke-width:1.0;"/><line style="stroke:#454645;stroke-width:1.0;" x1="916" x2="1674.5" y1="718.9531" y2="718.9531"/><text fill="#000000" font-family="sans-serif" font-size="13" font-weight="bold" lengthAdjust="spacing" textLength="18" x="928" y="713.8872">11</text><text fill="#000000" font-family="sans-serif" font-size="13" lengthAdjust="spacing" textLength="215" x="950" y="713.8872">msgget(session_key, IPC_CREAT)</text><path d="M797,697.8203 L906,697.8203 C911,697.8203 911,710.9688 911,710.9688 C911,710.9688 911,724.1172 906,724.1172 L797,724.1172 C792,724.1172 792,710.9688 792,710.9688 C792,710.9688 792,697.8203 797,697.8203 " fill="#FF6347" style="stroke:#454645;stroke-width:1.5;"/><path d="M906,697.8203 C901,697.8203 901,710.9688 901,710.9688 C901,724.1172 906,724.1172 906,724.1172 " fill="none" style="stroke:#454645;stroke-width:1.5;"/><text fill="#FFFFFF" font-family="sans-serif" font-size="14" lengthAdjust="spacing" textLength="99" x="797" y="715.8154">SessionQueue</text><polygon fill="#454645" points="1213.5,751.25,1203.5,755.25,1213.5,759.25,1209.5,755.25" style="stroke:#454645;stroke-width:1.0;"/><line style="stroke:#454645;stroke-width:1.0;" x1="1207.5" x2="1674.5" y1="755.25" y2="755.25"/><text fill="#000000" font-family="sans-serif" font-size="13" font-weight="bold" lengthAdjust="spacing" textLength="18" x="1219.5" y="750.1841">12</text><text fill="#000000" font-family="sans-serif" font-size="13" lengthAdjust="spacing" textLength="35" x="1241.5" y="750.1841">fork()</text><rect fill="#FF6347" height="30.2969" rx="3.5" ry="3.5" style="stroke:#454645;stroke-width:1.5;" width="68" x="1134.5" y="734.1172"/><text fill="#FFFFFF" font-family="sans-serif" font-size="14" lengthAdjust="spacing" textLength="54" x="1141.5" y="754.1123">Session</text><polygon fill="#454645" points="867.5,792.5469,857.5,796.5469,867.5,800.5469,863.5,796.5469" style="stroke:#454645;stroke-width:1.0;"/><line style="stroke:#454645;stroke-width:1.0;" x1="861.5" x2="1162.5" y1="796.5469" y2="796.5469"/><text fill="#000000" font-family="sans-serif" font-size="13" font-weight="bold" lengthAdjust="spacing" textLength="17" x="873.5" y="791.481">13</text><text fill="#000000" font-family="sans-serif" font-size="13" lengthAdjust="spacing" textLength="137" x="894.5" y="791.481">msgget(session_key)</text><polygon fill="#454645" points="744,821.6797,734,825.6797,744,829.6797,740,825.6797" style="stroke:#454645;stroke-width:1.0;"/><line style="stroke:#454645;stroke-width:1.0;" x1="738" x2="1162.5" y1="825.6797" y2="825.6797"/><text fill="#000000" font-family="sans-serif" font-size="13" font-weight="bold" lengthAdjust="spacing" textLength="18" x="750" y="820.6138">14</text><text fill="#000000" font-family="sans-serif" font-size="13" lengthAdjust="spacing" textLength="123" x="772" y="820.6138">msgget(client_key)</text><polygon fill="#454645" points="744,850.8125,734,854.8125,744,858.8125,740,854.8125" style="stroke:#454645;stroke-width:1.0;"/><line style="stroke:#454645;stroke-width:1.0;stroke-dasharray:2.0,2.0;" x1="738" x2="1162.5" y1="854.8125" y2="854.8125"/><text fill="#000000" font-family="sans-serif" font-size="13" font-weight="bold" lengthAdjust="spacing" textLength="18" x="750" y="849.7466">15</text><text fill="#000000" font-family="sans-serif" font-size="13" lengthAdjust="spacing" textLength="139" x="772" y="849.7466">msgsnd(session_key)</text><polygon fill="#454645" points="372,886.9453,362,890.9453,372,894.9453,368,890.9453" style="stroke:#454645;stroke-width:1.0;"/><line style="stroke:#454645;stroke-width:1.0;stroke-dasharray:2.0,2.0;" x1="366" x2="722" y1="890.9453" y2="890.9453"/><text fill="#000000" font-family="sans-serif" font-size="13" font-weight="bold" lengthAdjust="spacing" textLength="18" x="378" y="885.8794">16</text><text fill="#000000" font-family="sans-serif" font-size="13" lengthAdjust="spacing" textLength="136" x="400" y="885.8794">msgrcv(session_key)</text><polygon fill="#454645" points="834.5,916.0781,844.5,920.0781,834.5,924.0781,838.5,920.0781" style="stroke:#454645;stroke-width:1.0;"/><line style="stroke:#454645;stroke-width:1.0;" x1="361" x2="840.5" y1="920.0781" y2="920.0781"/><text fill="#000000" font-family="sans-serif" font-size="13" font-weight="bold" lengthAdjust="spacing" textLength="18" x="368" y="915.0122">17</text><text fill="#000000" font-family="sans-serif" font-size="13" lengthAdjust="spacing" textLength="137" x="390" y="915.0122">msgget(session_key)</text><path d="M13.5,935.0781 L76,935.0781 L76,942.2109 L66,952.2109 L10,952.2109 L10,938.5781 A3.5,3.5 0 0 1 13.5,935.0781 " fill="#EEEEEE" style="stroke:#696969;stroke-width:1.5;"/><rect fill="none" height="1105.7969" rx="3.5" ry="3.5" style="stroke:#696969;stroke-width:1.0;" width="1966.5" x="10" y="935.0781"/><text fill="#454645" font-family="sans-serif" font-size="13" font-weight="bold" lengthAdjust="spacing" textLength="21" x="25" y="948.145">alt</text><text fill="#696969" font-family="sans-serif" font-size="11" font-weight="bold" lengthAdjust="spacing" textLength="208" x="91" y="947.2886">[Failure connection to session]</text><path d="M321,959.2109 L395.5,959.2109 L395.5,966.3438 L385.5,976.3438 L317.5,976.3438 L317.5,962.7109 A3.5,3.5 0 0 1 321,959.2109 " fill="#EEEEEE" style="stroke:#696969;stroke-width:1.5;"/><rect fill="none" height="46.2656" rx="3.5" ry="3.5" style="stroke:#696969;stroke-width:1.0;" width="603.5" x="317.5" y="959.2109"/><text fill="#454645" font-family="sans-serif" font-size="13" font-weight="bold" lengthAdjust="spacing" textLength="33" x="332.5" y="972.2778">loop</text><text fill="#696969" font-family="sans-serif" font-size="11" font-weight="bold" lengthAdjust="spacing" textLength="69" x="410.5" y="971.4214">[10 times]</text><polygon fill="#454645" points="834.5,993.4766,844.5,997.4766,834.5,1001.4766,838.5,997.4766" style="stroke:#454645;stroke-width:1.0;"/><line style="stroke:#454645;stroke-width:1.0;" x1="361" x2="840.5" y1="997.4766" y2="997.4766"/><text fill="#000000" font-family="sans-serif" font-size="13" font-weight="bold" lengthAdjust="spacing" textLength="18" x="368" y="992.4106">18</text><text fill="#000000" font-family="sans-serif" font-size="13" lengthAdjust="spacing" textLength="137" x="390" y="992.4106">msgget(session_key)</text><path d="M33.5,1019.4766 L96,1019.4766 L96,1026.6094 L86,1036.6094 L30,1036.6094 L30,1022.9766 A3.5,3.5 0 0 1 33.5,1019.4766 " fill="#EEEEEE" style="stroke:#696969;stroke-width:1.5;"/><rect fill="none" height="46.2656" rx="3.5" ry="3.5" style="stroke:#696969;stroke-width:1.0;" width="364.5" x="30" y="1019.4766"/><text fill="#454645" font-family="sans-serif" font-size="13" font-weight="bold" lengthAdjust="spacing" textLength="21" x="45" y="1032.5435">alt</text><text fill="#696969" font-family="sans-serif" font-size="11" font-weight="bold" lengthAdjust="spacing" textLength="55" x="111" y="1031.687">[Failure]</text><polygon fill="#454645" points="68.5,1053.7422,58.5,1057.7422,68.5,1061.7422,64.5,1057.7422" style="stroke:#454645;stroke-width:1.0;"/><line style="stroke:#454645;stroke-width:1.0;" x1="62.5" x2="350" y1="1057.7422" y2="1057.7422"/><text fill="#000000" font-family="sans-serif" font-size="13" font-weight="bold" lengthAdjust="spacing" textLength="18" x="74.5" y="1052.6763">19</text><text fill="#000000" font-family="sans-serif" font-size="13" lengthAdjust="spacing" textLength="166" x="96.5" y="1052.6763">"Server is not responding"</text><line style="stroke:#696969;stroke-width:1.0;stroke-dasharray:2.0,2.0;" x1="10" x2="1976.5" y1="1073.7422" y2="1073.7422"/><text fill="#696969" font-family="sans-serif" font-size="11" font-weight="bold" lengthAdjust="spacing" textLength="231" x="15" y="1083.9526">[Sucessfull connection to session]</text><polygon fill="#454645" points="716,1104.6797,726,1108.6797,716,1112.6797,720,1108.6797" style="stroke:#454645;stroke-width:1.0;"/><line style="stroke:#454645;stroke-width:1.0;" x1="361" x2="722" y1="1108.6797" y2="1108.6797"/><text fill="#000000" font-family="sans-serif" font-size="13" font-weight="bold" lengthAdjust="spacing" textLength="19" x="368" y="1103.6138">20</text><text fill="#000000" font-family="sans-serif" font-size="13" lengthAdjust="spacing" textLength="184" x="391" y="1103.6138">msgctl(client_key, IPC_RMID)</text><line style="stroke:#696969;stroke-width:2.0;" x1="719" x2="737" y1="1099.6797" y2="1117.6797"/><line style="stroke:#696969;stroke-width:2.0;" x1="719" x2="737" y1="1117.6797" y2="1099.6797"/><polygon fill="#454645" points="834.5,1133.8125,844.5,1137.8125,834.5,1141.8125,838.5,1137.8125" style="stroke:#454645;stroke-width:1.0;"/><line style="stroke:#454645;stroke-width:1.0;stroke-dasharray:2.0,2.0;" x1="361" x2="840.5" y1="1137.8125" y2="1137.8125"/><text fill="#000000" font-family="sans-serif" font-size="13" font-weight="bold" lengthAdjust="spacing" textLength="18" x="368" y="1132.7466">21</text><text fill="#000000" font-family="sans-serif" font-size="13" lengthAdjust="spacing" textLength="175" x="390" y="1132.7466">msgsnd({login,password})</text><polygon fill="#454645" points="1151.5,1162.9453,1161.5,1166.9453,1151.5,1170.9453,1155.5,1166.9453" style="stroke:#454645;stroke-width:1.0;"/><line style="stroke:#454645;stroke-width:1.0;stroke-dasharray:2.0,2.0;" x1="856.5" x2="1157.5" y1="1166.9453" y2="1166.9453"/><text fill="#000000" font-family="sans-serif" font-size="13" font-weight="bold" lengthAdjust="spacing" textLength="18" x="863.5" y="1161.8794">22</text><text fill="#000000" font-family="sans-serif" font-size="13" lengthAdjust="spacing" textLength="172" x="885.5" y="1161.8794">msgrcv({login,password})</text><polygon fill="#454645" points="1381.5,1192.0781,1391.5,1196.0781,1381.5,1200.0781,1385.5,1196.0781" style="stroke:#454645;stroke-width:1.0;"/><line style="stroke:#454645;stroke-width:1.0;stroke-dasharray:2.0,2.0;" x1="1173.5" x2="1387.5" y1="1196.0781" y2="1196.0781"/><text fill="#000000" font-family="sans-serif" font-size="13" font-weight="bold" lengthAdjust="spacing" textLength="17" x="1180.5" y="1191.0122">23</text><text fill="#000000" font-family="sans-serif" font-size="13" lengthAdjust="spacing" textLength="175" x="1201.5" y="1191.0122">msgsnd({login,password})</text><polygon fill="#454645" points="1663.5,1221.2109,1673.5,1225.2109,1663.5,1229.2109,1667.5,1225.2109" style="stroke:#454645;stroke-width:1.0;"/><line style="stroke:#454645;stroke-width:1.0;stroke-dasharray:2.0,2.0;" x1="1403.5" x2="1669.5" y1="1225.2109" y2="1225.2109"/><text fill="#000000" font-family="sans-serif" font-size="13" font-weight="bold" lengthAdjust="spacing" textLength="18" x="1410.5" y="1220.145">24</text><text fill="#000000" font-family="sans-serif" font-size="13" lengthAdjust="spacing" textLength="172" x="1432.5" y="1220.145">msgrcv({login,password})</text><polygon fill="#454645" points="1917.5,1250.3438,1927.5,1254.3438,1917.5,1258.3438,1921.5,1254.3438" style="stroke:#454645;stroke-width:1.0;"/><line style="stroke:#454645;stroke-width:1.0;" x1="1685.5" x2="1923.5" y1="1254.3438" y2="1254.3438"/><text fill="#000000" font-family="sans-serif" font-size="13" font-weight="bold" lengthAdjust="spacing" textLength="18" x="1692.5" y="1249.2778">25</text><text fill="#000000" font-family="sans-serif" font-size="13" lengthAdjust="spacing" textLength="198" x="1714.5" y="1249.2778">check_login({login,password})</text><path d="M23.5,1269.3438 L86,1269.3438 L86,1276.4766 L76,1286.4766 L20,1286.4766 L20,1272.8438 A3.5,3.5 0 0 1 23.5,1269.3438 " fill="#EEEEEE" style="stroke:#696969;stroke-width:1.5;"/><rect fill="none" height="764.5313" rx="3.5" ry="3.5" style="stroke:#696969;stroke-width:1.0;" width="1877.5" x="20" y="1269.3438"/><text fill="#454645" font-family="sans-serif" font-size="13" font-weight="bold" lengthAdjust="spacing" textLength="21" x="35" y="1282.4106">alt</text><text fill="#696969" font-family="sans-serif" font-size="11" font-weight="bold" lengthAdjust="spacing" textLength="92" x="101" y="1281.5542">[Failure login]</text><line style="stroke:#454645;stroke-width:1.0;" x1="1685.5" x2="1727.5" y1="1307.6094" y2="1307.6094"/><line style="stroke:#454645;stroke-width:1.0;" x1="1727.5" x2="1727.5" y1="1307.6094" y2="1320.6094"/><line style="stroke:#454645;stroke-width:1.0;" x1="1686.5" x2="1727.5" y1="1320.6094" y2="1320.6094"/><polygon fill="#454645" points="1696.5,1316.6094,1686.5,1320.6094,1696.5,1324.6094,1692.5,1320.6094" style="stroke:#454645;stroke-width:1.0;"/><text fill="#000000" font-family="sans-serif" font-size="13" font-weight="bold" lengthAdjust="spacing" textLength="18" x="1692.5" y="1302.5435">26</text><text fill="#000000" font-family="sans-serif" font-size="13" lengthAdjust="spacing" textLength="157" x="1714.5" y="1302.5435">set_status(login,'offline')</text><polygon fill="#454645" points="867.5,1345.7422,857.5,1349.7422,867.5,1353.7422,863.5,1349.7422" style="stroke:#454645;stroke-width:1.0;"/><line style="stroke:#454645;stroke-width:1.0;" x1="861.5" x2="1674.5" y1="1349.7422" y2="1349.7422"/><text fill="#000000" font-family="sans-serif" font-size="13" font-weight="bold" lengthAdjust="spacing" textLength="18" x="873.5" y="1344.6763">27</text><text fill="#000000" font-family="sans-serif" font-size="13" lengthAdjust="spacing" textLength="147" x="895.5" y="1344.6763">msgsnd(fail, message)</text><polygon fill="#454645" points="1151.5,1374.875,1161.5,1378.875,1151.5,1382.875,1155.5,1378.875" style="stroke:#454645;stroke-width:1.0;"/><line style="stroke:#454645;stroke-width:1.0;stroke-dasharray:2.0,2.0;" x1="856.5" x2="1157.5" y1="1378.875" y2="1378.875"/><text fill="#000000" font-family="sans-serif" font-size="13" font-weight="bold" lengthAdjust="spacing" textLength="18" x="863.5" y="1373.8091">28</text><text fill="#000000" font-family="sans-serif" font-size="13" lengthAdjust="spacing" textLength="144" x="885.5" y="1373.8091">msgrcv(fail, message)</text><line style="stroke:#454645;stroke-width:1.0;" x1="1173.5" x2="1215.5" y1="1408.0078" y2="1408.0078"/><line style="stroke:#454645;stroke-width:1.0;" x1="1215.5" x2="1215.5" y1="1408.0078" y2="1421.0078"/><line style="stroke:#454645;stroke-width:1.0;" x1="1174.5" x2="1215.5" y1="1421.0078" y2="1421.0078"/><polygon fill="#454645" points="1184.5,1417.0078,1174.5,1421.0078,1184.5,1425.0078,1180.5,1421.0078" style="stroke:#454645;stroke-width:1.0;"/><text fill="#000000" font-family="sans-serif" font-size="13" font-weight="bold" lengthAdjust="spacing" textLength="18" x="1180.5" y="1402.9419">29</text><text fill="#000000" font-family="sans-serif" font-size="13" lengthAdjust="spacing" textLength="177" x="1202.5" y="1402.9419">change msg access rights()</text><polygon fill="#454645" points="867.5,1446.1406,857.5,1450.1406,867.5,1454.1406,863.5,1450.1406" style="stroke:#454645;stroke-width:1.0;"/><line style="stroke:#454645;stroke-width:1.0;" x1="861.5" x2="1162.5" y1="1450.1406" y2="1450.1406"/><text fill="#000000" font-family="sans-serif" font-size="13" font-weight="bold" lengthAdjust="spacing" textLength="18" x="873.5" y="1445.0747">30</text><text fill="#000000" font-family="sans-serif" font-size="13" lengthAdjust="spacing" textLength="147" x="895.5" y="1445.0747">msgsnd(fail, message)</text><polygon fill="#454645" points="372,1475.2734,362,1479.2734,372,1483.2734,368,1479.2734" style="stroke:#454645;stroke-width:1.0;"/><line style="stroke:#454645;stroke-width:1.0;stroke-dasharray:2.0,2.0;" x1="366" x2="845.5" y1="1479.2734" y2="1479.2734"/><text fill="#000000" font-family="sans-serif" font-size="13" font-weight="bold" lengthAdjust="spacing" textLength="17" x="378" y="1474.2075">31</text><text fill="#000000" font-family="sans-serif" font-size="13" lengthAdjust="spacing" textLength="144" x="399" y="1474.2075">msgrcv(fail, message)</text><polygon fill="#454645" points="68.5,1504.4063,58.5,1508.4063,68.5,1512.4063,64.5,1508.4063" style="stroke:#454645;stroke-width:1.0;"/><line style="stroke:#454645;stroke-width:1.0;" x1="62.5" x2="350" y1="1508.4063" y2="1508.4063"/><text fill="#000000" font-family="sans-serif" font-size="13" font-weight="bold" lengthAdjust="spacing" textLength="17" x="74.5" y="1503.3403">32</text><text fill="#000000" font-family="sans-serif" font-size="13" lengthAdjust="spacing" textLength="169" x="95.5" y="1503.3403">show_message(message)</text><line style="stroke:#696969;stroke-width:1.0;stroke-dasharray:2.0,2.0;" x1="20" x2="1897.5" y1="1517.4063" y2="1517.4063"/><text fill="#696969" font-family="sans-serif" font-size="11" font-weight="bold" lengthAdjust="spacing" textLength="115" x="25" y="1527.6167">[Sucessfull login]</text><line style="stroke:#454645;stroke-width:1.0;" x1="1685.5" x2="1727.5" y1="1552.3438" y2="1552.3438"/><line style="stroke:#454645;stroke-width:1.0;" x1="1727.5" x2="1727.5" y1="1552.3438" y2="1565.3438"/><line style="stroke:#454645;stroke-width:1.0;" x1="1686.5" x2="1727.5" y1="1565.3438" y2="1565.3438"/><polygon fill="#454645" points="1696.5,1561.3438,1686.5,1565.3438,1696.5,1569.3438,1692.5,1565.3438" style="stroke:#454645;stroke-width:1.0;"/><text fill="#000000" font-family="sans-serif" font-size="13" font-weight="bold" lengthAdjust="spacing" textLength="16" x="1692.5" y="1547.2778">33</text><text fill="#000000" font-family="sans-serif" font-size="13" lengthAdjust="spacing" textLength="173" x="1712.5" y="1547.2778">connect(login,session_key)</text><line style="stroke:#454645;stroke-width:1.0;" x1="1685.5" x2="1727.5" y1="1594.4766" y2="1594.4766"/><line style="stroke:#454645;stroke-width:1.0;" x1="1727.5" x2="1727.5" y1="1594.4766" y2="1607.4766"/><line style="stroke:#454645;stroke-width:1.0;" x1="1686.5" x2="1727.5" y1="1607.4766" y2="1607.4766"/><polygon fill="#454645" points="1696.5,1603.4766,1686.5,1607.4766,1696.5,1611.4766,1692.5,1607.4766" style="stroke:#454645;stroke-width:1.0;"/><text fill="#000000" font-family="sans-serif" font-size="13" font-weight="bold" lengthAdjust="spacing" textLength="17" x="1692.5" y="1589.4106">34</text><text fill="#000000" font-family="sans-serif" font-size="13" lengthAdjust="spacing" textLength="155" x="1713.5" y="1589.4106">set_status(login,'online')</text><polygon fill="#454645" points="867.5,1632.6094,857.5,1636.6094,867.5,1640.6094,863.5,1636.6094" style="stroke:#454645;stroke-width:1.0;"/><line style="stroke:#454645;stroke-width:1.0;stroke-dasharray:2.0,2.0;" x1="861.5" x2="1674.5" y1="1636.6094" y2="1636.6094"/><text fill="#000000" font-family="sans-serif" font-size="13" font-weight="bold" lengthAdjust="spacing" textLength="17" x="873.5" y="1631.5435">35</text><text fill="#000000" font-family="sans-serif" font-size="13" lengthAdjust="spacing" textLength="262" x="894.5" y="1631.5435">msgsnd({login,password}, decrypt_key)</text><polygon fill="#454645" points="1151.5,1661.7422,1161.5,1665.7422,1151.5,1669.7422,1155.5,1665.7422" style="stroke:#454645;stroke-width:1.0;"/><line style="stroke:#454645;stroke-width:1.0;stroke-dasharray:2.0,2.0;" x1="856.5" x2="1157.5" y1="1665.7422" y2="1665.7422"/><text fill="#000000" font-family="sans-serif" font-size="13" font-weight="bold" lengthAdjust="spacing" textLength="17" x="863.5" y="1660.6763">36</text><text fill="#000000" font-family="sans-serif" font-size="13" lengthAdjust="spacing" textLength="259" x="884.5" y="1660.6763">msgrcv({login,password}, decrypt_key)</text><line style="stroke:#454645;stroke-width:1.0;" x1="1173.5" x2="1215.5" y1="1694.875" y2="1694.875"/><line style="stroke:#454645;stroke-width:1.0;" x1="1215.5" x2="1215.5" y1="1694.875" y2="1707.875"/><line style="stroke:#454645;stroke-width:1.0;" x1="1174.5" x2="1215.5" y1="1707.875" y2="1707.875"/><polygon fill="#454645" points="1184.5,1703.875,1174.5,1707.875,1184.5,1711.875,1180.5,1707.875" style="stroke:#454645;stroke-width:1.0;"/><text fill="#000000" font-family="sans-serif" font-size="13" font-weight="bold" lengthAdjust="spacing" textLength="17" x="1180.5" y="1689.8091">37</text><text fill="#000000" font-family="sans-serif" font-size="13" lengthAdjust="spacing" textLength="177" x="1201.5" y="1689.8091">change msg access rights()</text><polygon fill="#454645" points="867.5,1733.0078,857.5,1737.0078,867.5,1741.0078,863.5,1737.0078" style="stroke:#454645;stroke-width:1.0;"/><line style="stroke:#454645;stroke-width:1.0;stroke-dasharray:2.0,2.0;" x1="861.5" x2="1162.5" y1="1737.0078" y2="1737.0078"/><text fill="#000000" font-family="sans-serif" font-size="13" font-weight="bold" lengthAdjust="spacing" textLength="17" x="873.5" y="1731.9419">38</text><text fill="#000000" font-family="sans-serif" font-size="13" lengthAdjust="spacing" textLength="262" x="894.5" y="1731.9419">msgsnd({login,password}, decrypt_key)</text><polygon fill="#454645" points="372,1762.1406,362,1766.1406,372,1770.1406,368,1766.1406" style="stroke:#454645;stroke-width:1.0;"/><line style="stroke:#454645;stroke-width:1.0;stroke-dasharray:2.0,2.0;" x1="366" x2="845.5" y1="1766.1406" y2="1766.1406"/><text fill="#000000" font-family="sans-serif" font-size="13" font-weight="bold" lengthAdjust="spacing" textLength="17" x="378" y="1761.0747">39</text><text fill="#000000" font-family="sans-serif" font-size="13" lengthAdjust="spacing" textLength="259" x="399" y="1761.0747">msgrcv({login,password}, decrypt_key)</text><line style="stroke:#454645;stroke-width:1.0;" x1="361" x2="403" y1="1795.2734" y2="1795.2734"/><line style="stroke:#454645;stroke-width:1.0;" x1="403" x2="403" y1="1795.2734" y2="1808.2734"/><line style="stroke:#454645;stroke-width:1.0;" x1="362" x2="403" y1="1808.2734" y2="1808.2734"/><polygon fill="#454645" points="372,1804.2734,362,1808.2734,372,1812.2734,368,1808.2734" style="stroke:#454645;stroke-width:1.0;"/><text fill="#000000" font-family="sans-serif" font-size="13" font-weight="bold" lengthAdjust="spacing" textLength="19" x="368" y="1790.2075">40</text><text fill="#000000" font-family="sans-serif" font-size="13" lengthAdjust="spacing" textLength="325" x="391" y="1790.2075">check_credentials({login,password}, decrypt_key)</text><path d="M33.5,1823.2734 L96,1823.2734 L96,1830.4063 L86,1840.4063 L30,1840.4063 L30,1826.7734 A3.5,3.5 0 0 1 33.5,1823.2734 " fill="#EEEEEE" style="stroke:#696969;stroke-width:1.5;"/><rect fill="none" height="203.6016" rx="3.5" ry="3.5" style="stroke:#696969;stroke-width:1.0;" width="523" x="30" y="1823.2734"/><text fill="#454645" font-family="sans-serif" font-size="13" font-weight="bold" lengthAdjust="spacing" textLength="21" x="45" y="1836.3403">alt</text><text fill="#696969" font-family="sans-serif" font-size="11" font-weight="bold" lengthAdjust="spacing" textLength="134" x="111" y="1835.4839">[Failure credentials]</text><polygon fill="#454645" points="68.5,1857.5391,58.5,1861.5391,68.5,1865.5391,64.5,1861.5391" style="stroke:#454645;stroke-width:1.0;"/><line style="stroke:#454645;stroke-width:1.0;" x1="62.5" x2="350" y1="1861.5391" y2="1861.5391"/><text fill="#000000" font-family="sans-serif" font-size="13" font-weight="bold" lengthAdjust="spacing" textLength="18" x="74.5" y="1856.4731">41</text><text fill="#000000" font-family="sans-serif" font-size="13" lengthAdjust="spacing" textLength="196" x="96.5" y="1856.4731">show_message(internal_error)</text><line style="stroke:#696969;stroke-width:1.0;stroke-dasharray:2.0,2.0;" x1="30" x2="553" y1="1870.5391" y2="1870.5391"/><text fill="#696969" font-family="sans-serif" font-size="11" font-weight="bold" lengthAdjust="spacing" textLength="157" x="35" y="1880.7495">[Sucessfull credentials]</text><line style="stroke:#454645;stroke-width:1.0;" x1="361" x2="403" y1="1905.4766" y2="1905.4766"/><line style="stroke:#454645;stroke-width:1.0;" x1="403" x2="403" y1="1905.4766" y2="1918.4766"/><line style="stroke:#454645;stroke-width:1.0;" x1="362" x2="403" y1="1918.4766" y2="1918.4766"/><polygon fill="#454645" points="372,1914.4766,362,1918.4766,372,1922.4766,368,1918.4766" style="stroke:#454645;stroke-width:1.0;"/><text fill="#000000" font-family="sans-serif" font-size="13" font-weight="bold" lengthAdjust="spacing" textLength="18" x="368" y="1900.4106">42</text><text fill="#000000" font-family="sans-serif" font-size="13" lengthAdjust="spacing" textLength="151" x="390" y="1900.4106">change_access_rights()</text><polygon fill="#454645" points="339,1943.6094,349,1947.6094,339,1951.6094,343,1947.6094" style="stroke:#454645;stroke-width:1.0;"/><line style="stroke:#454645;stroke-width:1.0;" x1="120" x2="345" y1="1947.6094" y2="1947.6094"/><text fill="#000000" font-family="sans-serif" font-size="13" font-weight="bold" lengthAdjust="spacing" textLength="17" x="127" y="1942.5435">43</text><text fill="#000000" font-family="sans-serif" font-size="13" lengthAdjust="spacing" textLength="186" x="148" y="1942.5435">load_data(login,decrypt_key)</text><line style="stroke:#454645;stroke-width:1.0;" x1="361" x2="403" y1="1976.7422" y2="1976.7422"/><line style="stroke:#454645;stroke-width:1.0;" x1="403" x2="403" y1="1976.7422" y2="1989.7422"/><line style="stroke:#454645;stroke-width:1.0;" x1="362" x2="403" y1="1989.7422" y2="1989.7422"/><polygon fill="#454645" points="372,1985.7422,362,1989.7422,372,1993.7422,368,1989.7422" style="stroke:#454645;stroke-width:1.0;"/><text fill="#000000" font-family="sans-serif" font-size="13" font-weight="bold" lengthAdjust="spacing" textLength="18" x="368" y="1971.6763">44</text><text fill="#000000" font-family="sans-serif" font-size="13" lengthAdjust="spacing" textLength="75" x="390" y="1971.6763">start_chat()</text><polygon fill="#454645" points="68.5,2014.875,58.5,2018.875,68.5,2022.875,64.5,2018.875" style="stroke:#454645;stroke-width:1.0;"/><line style="stroke:#454645;stroke-width:1.0;" x1="62.5" x2="350" y1="2018.875" y2="2018.875"/><text fill="#000000" font-family="sans-serif" font-size="13" font-weight="bold" lengthAdjust="spacing" textLength="18" x="74.5" y="2013.8091">45</text><text fill="#000000" font-family="sans-serif" font-size="13" lengthAdjust="spacing" textLength="79" x="96.5" y="2013.8091">show_chat()</text><!--SRC=[jLTBZzis4BxhLqnoiGruixjDUZ6o0PfD0kmXG9EqPu6MQ9bOYLH8oXkto7_ly26HUjXMWjG7MoRdc-StG-gPtjEAme5j9U4QTb9KiDUwLflhQqcUNXHCxvjjewZC1DUKwnUPgAxh4eMRgWmF5L6QockhJIK9oRIGy5PiWIZu6z4WP8xVjqbEDDaIHU6-PAZktLiZqJqxgT-2r1Sg3rGwgUxPIRsyGJkD5hofjbGcoTsTbu07pZGZ9Vk7Q2OutDqbYtQBzRQIJ5AYMokjzT-JpjBhgpUYtTr0AKYUvjlboiJ73W7PwldQqAPT-sIVlSfNNYK4VMv_0vKg2ggN2sLN5sju-FC-lV_y_e-_HcOin0Rg4ZOPgD-Q3jHl-WGcjZ9NRzfb4s71-D9-hskYr1DAHcuukNwqRYsEzbNYzNMQ1x5cTZ5zfCVfQ2DGfEfisX1TQlX0MDb82iXLJZER4ot0YII0drA86cvlG3D3K_2VsJQCCEMv_OtiJIYocTt0yvPs2hZG8Acg1SyPBvvtc0NznZIGkdRQIqFw9gDAxPgoF1r9R6xASSNpAC_1zTa6VaIvKHmtu1VKFkmyIJFA3bI10m82WV0S79aKchQOf92YgU7UKQnTD0x5NWIld4CoEuoY7VIaLTHhofj8hIj-9DDLtximOglbGEZF08sDjudm5c-dBQAndP2Foscb7kCavxYv6Y8kDE50VWfW2jwpO2hUpPgkj5wagwtIHEgmR9OahKJ4WgzHauVITlF8bxPdEkxMYvauDnL2TY-FXLaf_vz7mupk3I6T6S6PBaSZ-FF7XtSkY9mgBSMnDuIJyKGO9iGmvD_-mV6zHwouSLlM-_AESHQu0BO3YZawwZtcnMHAF09UCJXaUy8BYgrYCW6I5NkacMKSPcamo69YJqwoKswV7pVdKE4emJl41hsbsMFgpjPfs9bGbSbvAExQIEwGNDrkZcVzJWo9vuxoZaf3lz0hHNMA3QeRvG_yXTZjIiQfF-Wk3KUJEkF86h1f52be3BjKyXF0XIziJMN5B4GDbVRdffT7hNqoB5TdS3yPn70gdS2DEbtjnLFgnPRZa2NLyXYLQzZZ5mlfXu2lucWgpIy_Fr7zsGs_nkcHoMEjXzP_T08C58La_Vn4S1Flrx7fboTbIA-PUeQ3lfitU0N9yJ- -1AYvkdgdPO1t-vVfpV0bKN9IfbHA8LSzv8ZfanVUYsQZC4srKbUfT5If2FNwAhnYjgzn-8RfYJ-PYXCsxOqcHSjwkPgHbe5WUq6mHpdF_mC0]--></g></svg>