<?xml version="1.0" encoding="UTF-8" standalone="no"?><svg xmlns="http://www.w3.org/2000/svg" xmlns:xlink="http://www.w3.org/1999/xlink" contentStyleType="text/css" height="1339px" preserveAspectRatio="none" style="width:2536px;height:1339px;background:#FFFFFF;" version="1.1" viewBox="0 0 2536 1339" width="2536px" zoomAndPan="magnify"><defs/><g><rect fill="none" height="1072.1875" rx="3.5" ry="3.5" style="stroke:#696969;stroke-width:1.0;" width="2519.5" x="10" y="169.5625"/><rect fill="none" height="695.9219" rx="3.5" ry="3.5" style="stroke:#696969;stroke-width:1.0;" width="2499.5" x="20" y="538.8281"/><line style="stroke:#696969;stroke-width:0.5;stroke-dasharray:5.0,5.0;" x1="47" x2="47" y1="81.2969" y2="1258.75"/><line style="stroke:#696969;stroke-width:0.5;stroke-dasharray:5.0,5.0;" x1="128" x2="128" y1="81.2969" y2="1258.75"/><line style="stroke:#696969;stroke-width:0.5;stroke-dasharray:5.0,5.0;" x1="342" x2="342" y1="81.2969" y2="1258.75"/><line style="stroke:#696969;stroke-width:0.5;stroke-dasharray:5.0,5.0;" x1="624" x2="624" y1="81.2969" y2="1258.75"/><line style="stroke:#696969;stroke-width:0.5;stroke-dasharray:5.0,5.0;" x1="838.5" x2="838.5" y1="81.2969" y2="1258.75"/><line style="stroke:#696969;stroke-width:0.5;stroke-dasharray:5.0,5.0;" x1="1074.5" x2="1074.5" y1="81.2969" y2="1258.75"/><line style="stroke:#696969;stroke-width:0.5;stroke-dasharray:5.0,5.0;" x1="1288" x2="1288" y1="81.2969" y2="1258.75"/><line style="stroke:#696969;stroke-width:0.5;stroke-dasharray:5.0,5.0;" x1="1492.5" x2="1492.5" y1="81.2969" y2="1258.75"/><line style="stroke:#696969;stroke-width:0.5;stroke-dasharray:5.0,5.0;" x1="1594.5" x2="1594.5" y1="81.2969" y2="1258.75"/><line style="stroke:#696969;stroke-width:0.5;stroke-dasharray:5.0,5.0;" x1="1854" x2="1854" y1="81.2969" y2="1258.75"/><line style="stroke:#696969;stroke-width:0.5;stroke-dasharray:5.0,5.0;" x1="2103" x2="2103" y1="81.2969" y2="1258.75"/><line style="stroke:#696969;stroke-width:0.5;stroke-dasharray:5.0,5.0;" x1="2402.5" x2="2402.5" y1="81.2969" y2="1258.75"/><line style="stroke:#696969;stroke-width:0.5;stroke-dasharray:5.0,5.0;" x1="2488.5" x2="2488.5" y1="81.2969" y2="1258.75"/><text fill="#454645" font-family="sans-serif" font-size="14" lengthAdjust="spacing" textLength="29" x="30" y="77.9951">Bob</text><ellipse cx="47.5" cy="13.5" fill="#454645" rx="8" ry="8" style="stroke:#454645;stroke-width:0.5;"/><path d="M47.5,21.5 L47.5,48.5 M34.5,29.5 L60.5,29.5 M47.5,48.5 L34.5,63.5 M47.5,48.5 L60.5,63.5 " fill="none" style="stroke:#454645;stroke-width:0.5;"/><text fill="#454645" font-family="sans-serif" font-size="14" lengthAdjust="spacing" textLength="29" x="30" y="1270.7451">Bob</text><ellipse cx="47.5" cy="1282.5469" fill="#454645" rx="8" ry="8" style="stroke:#454645;stroke-width:0.5;"/><path d="M47.5,1290.5469 L47.5,1317.5469 M34.5,1298.5469 L60.5,1298.5469 M47.5,1317.5469 L34.5,1332.5469 M47.5,1317.5469 L60.5,1332.5469 " fill="none" style="stroke:#454645;stroke-width:0.5;"/><text fill="#454645" font-family="sans-serif" font-size="14" lengthAdjust="spacing" textLength="100" x="75" y="77.9951">ClientDB_Bob</text><path d="M110,29 C110,19 128,19 128,19 C128,19 146,19 146,29 L146,55 C146,65 128,65 128,65 C128,65 110,65 110,55 L110,29 " fill="#00FFFF" style="stroke:#454645;stroke-width:1.5;"/><path d="M110,29 C110,39 128,39 128,39 C128,39 146,39 146,29 " fill="none" style="stroke:#454645;stroke-width:1.5;"/><text fill="#454645" font-family="sans-serif" font-size="14" lengthAdjust="spacing" textLength="100" x="75" y="1270.7451">ClientDB_Bob</text><path d="M110,1284.0469 C110,1274.0469 128,1274.0469 128,1274.0469 C128,1274.0469 146,1274.0469 146,1284.0469 L146,1310.0469 C146,1320.0469 128,1320.0469 128,1320.0469 C128,1320.0469 110,1320.0469 110,1310.0469 L110,1284.0469 " fill="#00FFFF" style="stroke:#454645;stroke-width:1.5;"/><path d="M110,1284.0469 C110,1294.0469 128,1294.0469 128,1294.0469 C128,1294.0469 146,1294.0469 146,1284.0469 " fill="none" style="stroke:#454645;stroke-width:1.5;"/><rect fill="#FF6347" height="30.2969" rx="3.5" ry="3.5" style="stroke:#454645;stroke-width:1.5;" width="93" x="296" y="50"/><text fill="#FFFFFF" font-family="sans-serif" font-size="14" lengthAdjust="spacing" textLength="79" x="303" y="69.9951">Client_Bob</text><rect fill="#FF6347" height="30.2969" rx="3.5" ry="3.5" style="stroke:#454645;stroke-width:1.5;" width="93" x="296" y="1257.75"/><text fill="#FFFFFF" font-family="sans-serif" font-size="14" lengthAdjust="spacing" textLength="79" x="303" y="1277.7451">Client_Bob</text><path d="M552,55 L697,55 C702,55 702,68.1484 702,68.1484 C702,68.1484 702,81.2969 697,81.2969 L552,81.2969 C547,81.2969 547,68.1484 547,68.1484 C547,68.1484 547,55 552,55 " fill="#FF6347" style="stroke:#454645;stroke-width:1.5;"/><path d="M697,55 C692,55 692,68.1484 692,68.1484 C692,81.2969 697,81.2969 697,81.2969 " fill="none" style="stroke:#454645;stroke-width:1.5;"/><text fill="#FFFFFF" font-family="sans-serif" font-size="14" lengthAdjust="spacing" textLength="135" x="552" y="72.9951">SessionQueue_Bob</text><path d="M552,1257.75 L697,1257.75 C702,1257.75 702,1270.8984 702,1270.8984 C702,1270.8984 702,1284.0469 697,1284.0469 L552,1284.0469 C547,1284.0469 547,1270.8984 547,1270.8984 C547,1270.8984 547,1257.75 552,1257.75 " fill="#FF6347" style="stroke:#454645;stroke-width:1.5;"/><path d="M697,1257.75 C692,1257.75 692,1270.8984 692,1270.8984 C692,1284.0469 697,1284.0469 697,1284.0469 " fill="none" style="stroke:#454645;stroke-width:1.5;"/><text fill="#FFFFFF" font-family="sans-serif" font-size="14" lengthAdjust="spacing" textLength="135" x="552" y="1275.7451">SessionQueue_Bob</text><rect fill="#FF6347" height="30.2969" rx="3.5" ry="3.5" style="stroke:#454645;stroke-width:1.5;" width="104" x="786.5" y="50"/><text fill="#FFFFFF" font-family="sans-serif" font-size="14" lengthAdjust="spacing" textLength="90" x="793.5" y="69.9951">Session_Bob</text><rect fill="#FF6347" height="30.2969" rx="3.5" ry="3.5" style="stroke:#454645;stroke-width:1.5;" width="104" x="786.5" y="1257.75"/><text fill="#FFFFFF" font-family="sans-serif" font-size="14" lengthAdjust="spacing" textLength="90" x="793.5" y="1277.7451">Session_Bob</text><path d="M1023.5,55 L1125.5,55 C1130.5,55 1130.5,68.1484 1130.5,68.1484 C1130.5,68.1484 1130.5,81.2969 1125.5,81.2969 L1023.5,81.2969 C1018.5,81.2969 1018.5,68.1484 1018.5,68.1484 C1018.5,68.1484 1018.5,55 1023.5,55 " fill="#FF6347" style="stroke:#454645;stroke-width:1.5;"/><path d="M1125.5,55 C1120.5,55 1120.5,68.1484 1120.5,68.1484 C1120.5,81.2969 1125.5,81.2969 1125.5,81.2969 " fill="none" style="stroke:#454645;stroke-width:1.5;"/><text fill="#FFFFFF" font-family="sans-serif" font-size="14" lengthAdjust="spacing" textLength="92" x="1023.5" y="72.9951">ServerQueue</text><path d="M1023.5,1257.75 L1125.5,1257.75 C1130.5,1257.75 1130.5,1270.8984 1130.5,1270.8984 C1130.5,1270.8984 1130.5,1284.0469 1125.5,1284.0469 L1023.5,1284.0469 C1018.5,1284.0469 1018.5,1270.8984 1018.5,1270.8984 C1018.5,1270.8984 1018.5,1257.75 1023.5,1257.75 " fill="#FF6347" style="stroke:#454645;stroke-width:1.5;"/><path d="M1125.5,1257.75 C1120.5,1257.75 1120.5,1270.8984 1120.5,1270.8984 C1120.5,1284.0469 1125.5,1284.0469 1125.5,1284.0469 " fill="none" style="stroke:#454645;stroke-width:1.5;"/><text fill="#FFFFFF" font-family="sans-serif" font-size="14" lengthAdjust="spacing" textLength="92" x="1023.5" y="1275.7451">ServerQueue</text><rect fill="#FF6347" height="30.2969" rx="3.5" ry="3.5" style="stroke:#454645;stroke-width:1.5;" width="61" x="1258" y="50"/><text fill="#FFFFFF" font-family="sans-serif" font-size="14" lengthAdjust="spacing" textLength="47" x="1265" y="69.9951">Server</text><rect fill="#FF6347" height="30.2969" rx="3.5" ry="3.5" style="stroke:#454645;stroke-width:1.5;" width="61" x="1258" y="1257.75"/><text fill="#FFFFFF" font-family="sans-serif" font-size="14" lengthAdjust="spacing" textLength="47" x="1265" y="1277.7451">Server</text><text fill="#454645" font-family="sans-serif" font-size="14" lengthAdjust="spacing" textLength="68" x="1455.5" y="77.9951">ServerDB</text><path d="M1474.5,29 C1474.5,19 1492.5,19 1492.5,19 C1492.5,19 1510.5,19 1510.5,29 L1510.5,55 C1510.5,65 1492.5,65 1492.5,65 C1492.5,65 1474.5,65 1474.5,55 L1474.5,29 " fill="#00FFFF" style="stroke:#454645;stroke-width:1.5;"/><path d="M1474.5,29 C1474.5,39 1492.5,39 1492.5,39 C1492.5,39 1510.5,39 1510.5,29 " fill="none" style="stroke:#454645;stroke-width:1.5;"/><text fill="#454645" font-family="sans-serif" font-size="14" lengthAdjust="spacing" textLength="68" x="1455.5" y="1270.7451">ServerDB</text><path d="M1474.5,1284.0469 C1474.5,1274.0469 1492.5,1274.0469 1492.5,1274.0469 C1492.5,1274.0469 1510.5,1274.0469 1510.5,1284.0469 L1510.5,1310.0469 C1510.5,1320.0469 1492.5,1320.0469 1492.5,1320.0469 C1492.5,1320.0469 1474.5,1320.0469 1474.5,1310.0469 L1474.5,1284.0469 " fill="#00FFFF" style="stroke:#454645;stroke-width:1.5;"/><path d="M1474.5,1284.0469 C1474.5,1294.0469 1492.5,1294.0469 1492.5,1294.0469 C1492.5,1294.0469 1510.5,1294.0469 1510.5,1284.0469 " fill="none" style="stroke:#454645;stroke-width:1.5;"/><rect fill="#FF6347" height="30.2969" rx="3.5" ry="3.5" style="stroke:#454645;stroke-width:1.5;" width="110" x="1539.5" y="50"/><text fill="#FFFFFF" font-family="sans-serif" font-size="14" lengthAdjust="spacing" textLength="96" x="1546.5" y="69.9951">Session_Alice</text><rect fill="#FF6347" height="30.2969" rx="3.5" ry="3.5" style="stroke:#454645;stroke-width:1.5;" width="110" x="1539.5" y="1257.75"/><text fill="#FFFFFF" font-family="sans-serif" font-size="14" lengthAdjust="spacing" textLength="96" x="1546.5" y="1277.7451">Session_Alice</text><path d="M1779,55 L1930,55 C1935,55 1935,68.1484 1935,68.1484 C1935,68.1484 1935,81.2969 1930,81.2969 L1779,81.2969 C1774,81.2969 1774,68.1484 1774,68.1484 C1774,68.1484 1774,55 1779,55 " fill="#FF6347" style="stroke:#454645;stroke-width:1.5;"/><path d="M1930,55 C1925,55 1925,68.1484 1925,68.1484 C1925,81.2969 1930,81.2969 1930,81.2969 " fill="none" style="stroke:#454645;stroke-width:1.5;"/><text fill="#FFFFFF" font-family="sans-serif" font-size="14" lengthAdjust="spacing" textLength="141" x="1779" y="72.9951">SessionQueue_Alice</text><path d="M1779,1257.75 L1930,1257.75 C1935,1257.75 1935,1270.8984 1935,1270.8984 C1935,1270.8984 1935,1284.0469 1930,1284.0469 L1779,1284.0469 C1774,1284.0469 1774,1270.8984 1774,1270.8984 C1774,1270.8984 1774,1257.75 1779,1257.75 " fill="#FF6347" style="stroke:#454645;stroke-width:1.5;"/><path d="M1930,1257.75 C1925,1257.75 1925,1270.8984 1925,1270.8984 C1925,1284.0469 1930,1284.0469 1930,1284.0469 " fill="none" style="stroke:#454645;stroke-width:1.5;"/><text fill="#FFFFFF" font-family="sans-serif" font-size="14" lengthAdjust="spacing" textLength="141" x="1779" y="1275.7451">SessionQueue_Alice</text><rect fill="#FF6347" height="30.2969" rx="3.5" ry="3.5" style="stroke:#454645;stroke-width:1.5;" width="99" x="2054" y="50"/><text fill="#FFFFFF" font-family="sans-serif" font-size="14" lengthAdjust="spacing" textLength="85" x="2061" y="69.9951">Client_Alice</text><rect fill="#FF6347" height="30.2969" rx="3.5" ry="3.5" style="stroke:#454645;stroke-width:1.5;" width="99" x="2054" y="1257.75"/><text fill="#FFFFFF" font-family="sans-serif" font-size="14" lengthAdjust="spacing" textLength="85" x="2061" y="1277.7451">Client_Alice</text><text fill="#454645" font-family="sans-serif" font-size="14" lengthAdjust="spacing" textLength="106" x="2346.5" y="77.9951">ClientDB_Alice</text><path d="M2384.5,29 C2384.5,19 2402.5,19 2402.5,19 C2402.5,19 2420.5,19 2420.5,29 L2420.5,55 C2420.5,65 2402.5,65 2402.5,65 C2402.5,65 2384.5,65 2384.5,55 L2384.5,29 " fill="#00FFFF" style="stroke:#454645;stroke-width:1.5;"/><path d="M2384.5,29 C2384.5,39 2402.5,39 2402.5,39 C2402.5,39 2420.5,39 2420.5,29 " fill="none" style="stroke:#454645;stroke-width:1.5;"/><text fill="#454645" font-family="sans-serif" font-size="14" lengthAdjust="spacing" textLength="106" x="2346.5" y="1270.7451">ClientDB_Alice</text><path d="M2384.5,1284.0469 C2384.5,1274.0469 2402.5,1274.0469 2402.5,1274.0469 C2402.5,1274.0469 2420.5,1274.0469 2420.5,1284.0469 L2420.5,1310.0469 C2420.5,1320.0469 2402.5,1320.0469 2402.5,1320.0469 C2402.5,1320.0469 2384.5,1320.0469 2384.5,1310.0469 L2384.5,1284.0469 " fill="#00FFFF" style="stroke:#454645;stroke-width:1.5;"/><path d="M2384.5,1284.0469 C2384.5,1294.0469 2402.5,1294.0469 2402.5,1294.0469 C2402.5,1294.0469 2420.5,1294.0469 2420.5,1284.0469 " fill="none" style="stroke:#454645;stroke-width:1.5;"/><text fill="#454645" font-family="sans-serif" font-size="14" lengthAdjust="spacing" textLength="35" x="2468.5" y="77.9951">Alice</text><ellipse cx="2489" cy="13.5" fill="#454645" rx="8" ry="8" style="stroke:#454645;stroke-width:0.5;"/><path d="M2489,21.5 L2489,48.5 M2476,29.5 L2502,29.5 M2489,48.5 L2476,63.5 M2489,48.5 L2502,63.5 " fill="none" style="stroke:#454645;stroke-width:0.5;"/><text fill="#454645" font-family="sans-serif" font-size="14" lengthAdjust="spacing" textLength="35" x="2468.5" y="1270.7451">Alice</text><ellipse cx="2489" cy="1282.5469" fill="#454645" rx="8" ry="8" style="stroke:#454645;stroke-width:0.5;"/><path d="M2489,1290.5469 L2489,1317.5469 M2476,1298.5469 L2502,1298.5469 M2489,1317.5469 L2476,1332.5469 M2489,1317.5469 L2502,1332.5469 " fill="none" style="stroke:#454645;stroke-width:0.5;"/><polygon fill="#454645" points="330.5,108.4297,340.5,112.4297,330.5,116.4297,334.5,112.4297" style="stroke:#454645;stroke-width:1.0;"/><line style="stroke:#454645;stroke-width:1.0;" x1="47.5" x2="336.5" y1="112.4297" y2="112.4297"/><text fill="#000000" font-family="sans-serif" font-size="13" font-weight="bold" lengthAdjust="spacing" textLength="9" x="54.5" y="107.3638">1</text><text fill="#000000" font-family="sans-serif" font-size="13" lengthAdjust="spacing" textLength="145" x="67.5" y="107.3638">send message to Alice</text><line style="stroke:#454645;stroke-width:1.0;" x1="342.5" x2="384.5" y1="141.5625" y2="141.5625"/><line style="stroke:#454645;stroke-width:1.0;" x1="384.5" x2="384.5" y1="141.5625" y2="154.5625"/><line style="stroke:#454645;stroke-width:1.0;" x1="343.5" x2="384.5" y1="154.5625" y2="154.5625"/><polygon fill="#454645" points="353.5,150.5625,343.5,154.5625,353.5,158.5625,349.5,154.5625" style="stroke:#454645;stroke-width:1.0;"/><text fill="#000000" font-family="sans-serif" font-size="13" font-weight="bold" lengthAdjust="spacing" textLength="9" x="349.5" y="136.4966">2</text><text fill="#000000" font-family="sans-serif" font-size="13" lengthAdjust="spacing" textLength="250" x="362.5" y="136.4966">check if Alice is online and on friend list</text><path d="M13.5,169.5625 L76,169.5625 L76,176.6953 L66,186.6953 L10,186.6953 L10,173.0625 A3.5,3.5 0 0 1 13.5,169.5625 " fill="#EEEEEE" style="stroke:#696969;stroke-width:1.5;"/><rect fill="none" height="1072.1875" rx="3.5" ry="3.5" style="stroke:#696969;stroke-width:1.0;" width="2519.5" x="10" y="169.5625"/><text fill="#454645" font-family="sans-serif" font-size="13" font-weight="bold" lengthAdjust="spacing" textLength="21" x="25" y="182.6294">alt</text><text fill="#696969" font-family="sans-serif" font-size="11" font-weight="bold" lengthAdjust="spacing" textLength="108" x="91" y="181.7729">[Alice is offline]</text><polygon fill="#454645" points="58.5,203.8281,48.5,207.8281,58.5,211.8281,54.5,207.8281" style="stroke:#454645;stroke-width:1.0;"/><line style="stroke:#454645;stroke-width:1.0;" x1="52.5" x2="341.5" y1="207.8281" y2="207.8281"/><text fill="#000000" font-family="sans-serif" font-size="13" font-weight="bold" lengthAdjust="spacing" textLength="8" x="64.5" y="202.7622">3</text><text fill="#000000" font-family="sans-serif" font-size="13" lengthAdjust="spacing" textLength="191" x="76.5" y="202.7622">notify user that Alice is offline</text><line style="stroke:#696969;stroke-width:1.0;stroke-dasharray:2.0,2.0;" x1="10" x2="2529.5" y1="216.8281" y2="216.8281"/><text fill="#696969" font-family="sans-serif" font-size="11" font-weight="bold" lengthAdjust="spacing" textLength="102" x="15" y="227.0386">[Alice is online]</text><polygon fill="#454645" points="139,247.7656,129,251.7656,139,255.7656,135,251.7656" style="stroke:#454645;stroke-width:1.0;"/><line style="stroke:#454645;stroke-width:1.0;" x1="133" x2="341.5" y1="251.7656" y2="251.7656"/><text fill="#000000" font-family="sans-serif" font-size="13" font-weight="bold" lengthAdjust="spacing" textLength="9" x="145" y="246.6997">4</text><text fill="#000000" font-family="sans-serif" font-size="13" lengthAdjust="spacing" textLength="133" x="158" y="246.6997">get Alice's public key</text><line style="stroke:#454645;stroke-width:1.0;" x1="342.5" x2="384.5" y1="280.8984" y2="280.8984"/><line style="stroke:#454645;stroke-width:1.0;" x1="384.5" x2="384.5" y1="280.8984" y2="293.8984"/><line style="stroke:#454645;stroke-width:1.0;" x1="343.5" x2="384.5" y1="293.8984" y2="293.8984"/><polygon fill="#454645" points="353.5,289.8984,343.5,293.8984,353.5,297.8984,349.5,293.8984" style="stroke:#454645;stroke-width:1.0;"/><text fill="#000000" font-family="sans-serif" font-size="13" font-weight="bold" lengthAdjust="spacing" textLength="9" x="349.5" y="275.8325">5</text><text fill="#000000" font-family="sans-serif" font-size="13" lengthAdjust="spacing" textLength="255" x="362.5" y="275.8325">encrypt message with Alice's public key</text><polygon fill="#454645" points="612.5,319.0313,622.5,323.0313,612.5,327.0313,616.5,323.0313" style="stroke:#454645;stroke-width:1.0;"/><line style="stroke:#454645;stroke-width:1.0;" x1="342.5" x2="618.5" y1="323.0313" y2="323.0313"/><text fill="#000000" font-family="sans-serif" font-size="13" font-weight="bold" lengthAdjust="spacing" textLength="9" x="349.5" y="317.9653">6</text><text fill="#000000" font-family="sans-serif" font-size="13" lengthAdjust="spacing" textLength="206" x="362.5" y="317.9653">send message to SessionQueue</text><polygon fill="#454645" points="826.5,348.1641,836.5,352.1641,826.5,356.1641,830.5,352.1641" style="stroke:#454645;stroke-width:1.0;"/><line style="stroke:#454645;stroke-width:1.0;" x1="624.5" x2="832.5" y1="352.1641" y2="352.1641"/><text fill="#000000" font-family="sans-serif" font-size="13" font-weight="bold" lengthAdjust="spacing" textLength="9" x="631.5" y="347.0981">7</text><text fill="#000000" font-family="sans-serif" font-size="13" lengthAdjust="spacing" textLength="164" x="644.5" y="347.0981">send message to Session</text><polygon fill="#454645" points="1062.5,377.2969,1072.5,381.2969,1062.5,385.2969,1066.5,381.2969" style="stroke:#454645;stroke-width:1.0;"/><line style="stroke:#454645;stroke-width:1.0;" x1="838.5" x2="1068.5" y1="381.2969" y2="381.2969"/><text fill="#000000" font-family="sans-serif" font-size="13" font-weight="bold" lengthAdjust="spacing" textLength="9" x="845.5" y="376.231">8</text><text fill="#000000" font-family="sans-serif" font-size="13" lengthAdjust="spacing" textLength="199" x="858.5" y="376.231">send message to ServerQueue</text><polygon fill="#454645" points="1276.5,406.4297,1286.5,410.4297,1276.5,414.4297,1280.5,410.4297" style="stroke:#454645;stroke-width:1.0;"/><line style="stroke:#454645;stroke-width:1.0;" x1="1074.5" x2="1282.5" y1="410.4297" y2="410.4297"/><text fill="#000000" font-family="sans-serif" font-size="13" font-weight="bold" lengthAdjust="spacing" textLength="9" x="1081.5" y="405.3638">9</text><text fill="#000000" font-family="sans-serif" font-size="13" lengthAdjust="spacing" textLength="157" x="1094.5" y="405.3638">send message to Server</text><polygon fill="#454645" points="1480.5,435.5625,1490.5,439.5625,1480.5,443.5625,1484.5,439.5625" style="stroke:#454645;stroke-width:1.0;"/><line style="stroke:#454645;stroke-width:1.0;" x1="1288.5" x2="1486.5" y1="439.5625" y2="439.5625"/><text fill="#000000" font-family="sans-serif" font-size="13" font-weight="bold" lengthAdjust="spacing" textLength="19" x="1295.5" y="434.4966">10</text><text fill="#000000" font-family="sans-serif" font-size="13" lengthAdjust="spacing" textLength="82" x="1318.5" y="434.4966">get Alice's ID</text><line style="stroke:#454645;stroke-width:1.0;" x1="1288.5" x2="1330.5" y1="468.6953" y2="468.6953"/><line style="stroke:#454645;stroke-width:1.0;" x1="1330.5" x2="1330.5" y1="468.6953" y2="481.6953"/><line style="stroke:#454645;stroke-width:1.0;" x1="1289.5" x2="1330.5" y1="481.6953" y2="481.6953"/><polygon fill="#454645" points="1299.5,477.6953,1289.5,481.6953,1299.5,485.6953,1295.5,481.6953" style="stroke:#454645;stroke-width:1.0;"/><text fill="#000000" font-family="sans-serif" font-size="13" font-weight="bold" lengthAdjust="spacing" textLength="18" x="1295.5" y="463.6294">11</text><text fill="#000000" font-family="sans-serif" font-size="13" lengthAdjust="spacing" textLength="139" x="1317.5" y="463.6294">check if Alice is online</text><line style="stroke:#454645;stroke-width:1.0;" x1="1288.5" x2="1330.5" y1="510.8281" y2="510.8281"/><line style="stroke:#454645;stroke-width:1.0;" x1="1330.5" x2="1330.5" y1="510.8281" y2="523.8281"/><line style="stroke:#454645;stroke-width:1.0;" x1="1289.5" x2="1330.5" y1="523.8281" y2="523.8281"/><polygon fill="#454645" points="1299.5,519.8281,1289.5,523.8281,1299.5,527.8281,1295.5,523.8281" style="stroke:#454645;stroke-width:1.0;"/><text fill="#000000" font-family="sans-serif" font-size="13" font-weight="bold" lengthAdjust="spacing" textLength="18" x="1295.5" y="505.7622">12</text><text fill="#000000" font-family="sans-serif" font-size="13" lengthAdjust="spacing" textLength="123" x="1317.5" y="505.7622">Find Alice's Session</text><path d="M23.5,538.8281 L86,538.8281 L86,545.9609 L76,555.9609 L20,555.9609 L20,542.3281 A3.5,3.5 0 0 1 23.5,538.8281 " fill="#EEEEEE" style="stroke:#696969;stroke-width:1.5;"/><rect fill="none" height="695.9219" rx="3.5" ry="3.5" style="stroke:#696969;stroke-width:1.0;" width="2499.5" x="20" y="538.8281"/><text fill="#454645" font-family="sans-serif" font-size="13" font-weight="bold" lengthAdjust="spacing" textLength="21" x="35" y="551.895">alt</text><text fill="#696969" font-family="sans-serif" font-size="11" font-weight="bold" lengthAdjust="spacing" textLength="245" x="101" y="551.0386">[alice is offline or no session found]</text><polygon fill="#454645" points="635.5,573.0938,625.5,577.0938,635.5,581.0938,631.5,577.0938" style="stroke:#454645;stroke-width:1.0;"/><line style="stroke:#454645;stroke-width:1.0;" x1="629.5" x2="1287.5" y1="577.0938" y2="577.0938"/><text fill="#000000" font-family="sans-serif" font-size="13" font-weight="bold" lengthAdjust="spacing" textLength="17" x="641.5" y="572.0278">13</text><text fill="#000000" font-family="sans-serif" font-size="13" lengthAdjust="spacing" textLength="249" x="662.5" y="572.0278">send Error message to SessionQueue1</text><line style="stroke:#696969;stroke-width:1.0;stroke-dasharray:2.0,2.0;" x1="20" x2="2519.5" y1="586.0938" y2="586.0938"/><polygon fill="#454645" points="1842.5,604.2266,1852.5,608.2266,1842.5,612.2266,1846.5,608.2266" style="stroke:#454645;stroke-width:1.0;"/><line style="stroke:#454645;stroke-width:1.0;" x1="1288.5" x2="1848.5" y1="608.2266" y2="608.2266"/><text fill="#000000" font-family="sans-serif" font-size="13" font-weight="bold" lengthAdjust="spacing" textLength="18" x="1295.5" y="603.1606">14</text><text fill="#000000" font-family="sans-serif" font-size="13" lengthAdjust="spacing" textLength="207" x="1317.5" y="603.1606">send message to ServerQueue2</text><polygon fill="#454645" points="1605.5,633.3594,1595.5,637.3594,1605.5,641.3594,1601.5,637.3594" style="stroke:#454645;stroke-width:1.0;"/><line style="stroke:#454645;stroke-width:1.0;" x1="1599.5" x2="1853.5" y1="637.3594" y2="637.3594"/><text fill="#000000" font-family="sans-serif" font-size="13" font-weight="bold" lengthAdjust="spacing" textLength="18" x="1611.5" y="632.2935">15</text><text fill="#000000" font-family="sans-serif" font-size="13" lengthAdjust="spacing" textLength="172" x="1633.5" y="632.2935">send message to Session2</text><line style="stroke:#454645;stroke-width:1.0;" x1="1594.5" x2="1636.5" y1="666.4922" y2="666.4922"/><line style="stroke:#454645;stroke-width:1.0;" x1="1636.5" x2="1636.5" y1="666.4922" y2="679.4922"/><line style="stroke:#454645;stroke-width:1.0;" x1="1595.5" x2="1636.5" y1="679.4922" y2="679.4922"/><polygon fill="#454645" points="1605.5,675.4922,1595.5,679.4922,1605.5,683.4922,1601.5,679.4922" style="stroke:#454645;stroke-width:1.0;"/><text fill="#000000" font-family="sans-serif" font-size="13" font-weight="bold" lengthAdjust="spacing" textLength="18" x="1601.5" y="661.4263">16</text><text fill="#000000" font-family="sans-serif" font-size="13" lengthAdjust="spacing" textLength="167" x="1623.5" y="661.4263">change msg access rights</text><polygon fill="#454645" points="1842.5,704.625,1852.5,708.625,1842.5,712.625,1846.5,708.625" style="stroke:#454645;stroke-width:1.0;"/><line style="stroke:#454645;stroke-width:1.0;" x1="1594.5" x2="1848.5" y1="708.625" y2="708.625"/><text fill="#000000" font-family="sans-serif" font-size="13" font-weight="bold" lengthAdjust="spacing" textLength="18" x="1601.5" y="703.5591">17</text><text fill="#000000" font-family="sans-serif" font-size="13" lengthAdjust="spacing" textLength="214" x="1623.5" y="703.5591">send message to SessionQueue2</text><polygon fill="#454645" points="2091.5,733.7578,2101.5,737.7578,2091.5,741.7578,2095.5,737.7578" style="stroke:#454645;stroke-width:1.0;"/><line style="stroke:#454645;stroke-width:1.0;" x1="1854.5" x2="2097.5" y1="737.7578" y2="737.7578"/><text fill="#000000" font-family="sans-serif" font-size="13" font-weight="bold" lengthAdjust="spacing" textLength="18" x="1861.5" y="732.6919">18</text><text fill="#000000" font-family="sans-serif" font-size="13" lengthAdjust="spacing" textLength="159" x="1883.5" y="732.6919">send message to Client2</text><line style="stroke:#454645;stroke-width:1.0;" x1="2103.5" x2="2145.5" y1="766.8906" y2="766.8906"/><line style="stroke:#454645;stroke-width:1.0;" x1="2145.5" x2="2145.5" y1="766.8906" y2="779.8906"/><line style="stroke:#454645;stroke-width:1.0;" x1="2104.5" x2="2145.5" y1="779.8906" y2="779.8906"/><polygon fill="#454645" points="2114.5,775.8906,2104.5,779.8906,2114.5,783.8906,2110.5,779.8906" style="stroke:#454645;stroke-width:1.0;"/><text fill="#000000" font-family="sans-serif" font-size="13" font-weight="bold" lengthAdjust="spacing" textLength="18" x="2110.5" y="761.8247">19</text><text fill="#000000" font-family="sans-serif" font-size="13" lengthAdjust="spacing" textLength="263" x="2132.5" y="761.8247">decrypt message with Alice's private key</text><polygon fill="#454645" points="2390.5,805.0234,2400.5,809.0234,2390.5,813.0234,2394.5,809.0234" style="stroke:#454645;stroke-width:1.0;"/><line style="stroke:#454645;stroke-width:1.0;" x1="2103.5" x2="2396.5" y1="809.0234" y2="809.0234"/><text fill="#000000" font-family="sans-serif" font-size="13" font-weight="bold" lengthAdjust="spacing" textLength="19" x="2110.5" y="803.9575">20</text><text fill="#000000" font-family="sans-serif" font-size="13" lengthAdjust="spacing" textLength="177" x="2133.5" y="803.9575">save message to ClientDB2</text><polygon fill="#454645" points="2477,834.1563,2487,838.1563,2477,842.1563,2481,838.1563" style="stroke:#454645;stroke-width:1.0;"/><line style="stroke:#454645;stroke-width:1.0;" x1="2103.5" x2="2483" y1="838.1563" y2="838.1563"/><text fill="#000000" font-family="sans-serif" font-size="13" font-weight="bold" lengthAdjust="spacing" textLength="18" x="2110.5" y="833.0903">21</text><text fill="#000000" font-family="sans-serif" font-size="13" lengthAdjust="spacing" textLength="251" x="2132.5" y="833.0903">notify user that message was received</text><polygon fill="#454645" points="1865.5,863.2891,1855.5,867.2891,1865.5,871.2891,1861.5,867.2891" style="stroke:#454645;stroke-width:1.0;"/><line style="stroke:#454645;stroke-width:1.0;" x1="1859.5" x2="2102.5" y1="867.2891" y2="867.2891"/><text fill="#000000" font-family="sans-serif" font-size="13" font-weight="bold" lengthAdjust="spacing" textLength="18" x="1871.5" y="862.2231">22</text><text fill="#000000" font-family="sans-serif" font-size="13" lengthAdjust="spacing" textLength="203" x="1893.5" y="862.2231">Confirm message was received</text><polygon fill="#454645" points="1605.5,892.4219,1595.5,896.4219,1605.5,900.4219,1601.5,896.4219" style="stroke:#454645;stroke-width:1.0;"/><line style="stroke:#454645;stroke-width:1.0;" x1="1599.5" x2="1853.5" y1="896.4219" y2="896.4219"/><text fill="#000000" font-family="sans-serif" font-size="13" font-weight="bold" lengthAdjust="spacing" textLength="17" x="1611.5" y="891.356">23</text><text fill="#000000" font-family="sans-serif" font-size="13" lengthAdjust="spacing" textLength="168" x="1632.5" y="891.356">confirm(received, user_id)</text><polygon fill="#454645" points="1085.5,921.5547,1075.5,925.5547,1085.5,929.5547,1081.5,925.5547" style="stroke:#454645;stroke-width:1.0;"/><line style="stroke:#454645;stroke-width:1.0;" x1="1079.5" x2="1593.5" y1="925.5547" y2="925.5547"/><text fill="#000000" font-family="sans-serif" font-size="13" font-weight="bold" lengthAdjust="spacing" textLength="18" x="1091.5" y="920.4888">24</text><text fill="#000000" font-family="sans-serif" font-size="13" lengthAdjust="spacing" textLength="168" x="1113.5" y="920.4888">confirm(received, user_id)</text><polygon fill="#454645" points="1276.5,950.6875,1286.5,954.6875,1276.5,958.6875,1280.5,954.6875" style="stroke:#454645;stroke-width:1.0;"/><line style="stroke:#454645;stroke-width:1.0;" x1="1074.5" x2="1282.5" y1="954.6875" y2="954.6875"/><text fill="#000000" font-family="sans-serif" font-size="13" font-weight="bold" lengthAdjust="spacing" textLength="18" x="1081.5" y="949.6216">25</text><text fill="#000000" font-family="sans-serif" font-size="13" lengthAdjust="spacing" textLength="168" x="1103.5" y="949.6216">confirm(received, user_id)</text><line style="stroke:#454645;stroke-width:1.0;" x1="1288.5" x2="1330.5" y1="983.8203" y2="983.8203"/><line style="stroke:#454645;stroke-width:1.0;" x1="1330.5" x2="1330.5" y1="983.8203" y2="996.8203"/><line style="stroke:#454645;stroke-width:1.0;" x1="1289.5" x2="1330.5" y1="996.8203" y2="996.8203"/><polygon fill="#454645" points="1299.5,992.8203,1289.5,996.8203,1299.5,1000.8203,1295.5,996.8203" style="stroke:#454645;stroke-width:1.0;"/><text fill="#000000" font-family="sans-serif" font-size="13" font-weight="bold" lengthAdjust="spacing" textLength="18" x="1295.5" y="978.7544">26</text><text fill="#000000" font-family="sans-serif" font-size="13" lengthAdjust="spacing" textLength="168" x="1317.5" y="978.7544">confirm(received, user_id)</text><polygon fill="#454645" points="635.5,1021.9531,625.5,1025.9531,635.5,1029.9531,631.5,1025.9531" style="stroke:#454645;stroke-width:1.0;"/><line style="stroke:#454645;stroke-width:1.0;" x1="629.5" x2="1287.5" y1="1025.9531" y2="1025.9531"/><text fill="#000000" font-family="sans-serif" font-size="13" font-weight="bold" lengthAdjust="spacing" textLength="18" x="641.5" y="1020.8872">27</text><text fill="#000000" font-family="sans-serif" font-size="13" lengthAdjust="spacing" textLength="168" x="663.5" y="1020.8872">confirm(received, user_id)</text><polygon fill="#454645" points="826.5,1051.0859,836.5,1055.0859,826.5,1059.0859,830.5,1055.0859" style="stroke:#454645;stroke-width:1.0;"/><line style="stroke:#454645;stroke-width:1.0;" x1="624.5" x2="832.5" y1="1055.0859" y2="1055.0859"/><text fill="#000000" font-family="sans-serif" font-size="13" font-weight="bold" lengthAdjust="spacing" textLength="18" x="631.5" y="1050.02">28</text><text fill="#000000" font-family="sans-serif" font-size="13" lengthAdjust="spacing" textLength="168" x="653.5" y="1050.02">confirm(received, user_id)</text><line style="stroke:#454645;stroke-width:1.0;" x1="838.5" x2="880.5" y1="1084.2188" y2="1084.2188"/><line style="stroke:#454645;stroke-width:1.0;" x1="880.5" x2="880.5" y1="1084.2188" y2="1097.2188"/><line style="stroke:#454645;stroke-width:1.0;" x1="839.5" x2="880.5" y1="1097.2188" y2="1097.2188"/><polygon fill="#454645" points="849.5,1093.2188,839.5,1097.2188,849.5,1101.2188,845.5,1097.2188" style="stroke:#454645;stroke-width:1.0;"/><text fill="#000000" font-family="sans-serif" font-size="13" font-weight="bold" lengthAdjust="spacing" textLength="18" x="845.5" y="1079.1528">29</text><text fill="#000000" font-family="sans-serif" font-size="13" lengthAdjust="spacing" textLength="167" x="867.5" y="1079.1528">change msg access rights</text><polygon fill="#454645" points="635.5,1122.3516,625.5,1126.3516,635.5,1130.3516,631.5,1126.3516" style="stroke:#454645;stroke-width:1.0;"/><line style="stroke:#454645;stroke-width:1.0;" x1="629.5" x2="837.5" y1="1126.3516" y2="1126.3516"/><text fill="#000000" font-family="sans-serif" font-size="13" font-weight="bold" lengthAdjust="spacing" textLength="18" x="641.5" y="1121.2856">30</text><text fill="#000000" font-family="sans-serif" font-size="13" lengthAdjust="spacing" textLength="168" x="663.5" y="1121.2856">confirm(received, user_id)</text><polygon fill="#454645" points="353.5,1151.4844,343.5,1155.4844,353.5,1159.4844,349.5,1155.4844" style="stroke:#454645;stroke-width:1.0;"/><line style="stroke:#454645;stroke-width:1.0;" x1="347.5" x2="623.5" y1="1155.4844" y2="1155.4844"/><text fill="#000000" font-family="sans-serif" font-size="13" font-weight="bold" lengthAdjust="spacing" textLength="17" x="359.5" y="1150.4185">31</text><text fill="#000000" font-family="sans-serif" font-size="13" lengthAdjust="spacing" textLength="168" x="380.5" y="1150.4185">confirm(received, user_id)</text><line style="stroke:#454645;stroke-width:1.0;" x1="342.5" x2="384.5" y1="1184.6172" y2="1184.6172"/><line style="stroke:#454645;stroke-width:1.0;" x1="384.5" x2="384.5" y1="1184.6172" y2="1197.6172"/><line style="stroke:#454645;stroke-width:1.0;" x1="343.5" x2="384.5" y1="1197.6172" y2="1197.6172"/><polygon fill="#454645" points="353.5,1193.6172,343.5,1197.6172,353.5,1201.6172,349.5,1197.6172" style="stroke:#454645;stroke-width:1.0;"/><text fill="#000000" font-family="sans-serif" font-size="13" font-weight="bold" lengthAdjust="spacing" textLength="17" x="349.5" y="1179.5513">32</text><text fill="#000000" font-family="sans-serif" font-size="13" lengthAdjust="spacing" textLength="168" x="370.5" y="1179.5513">confirm(received, user_id)</text><polygon fill="#454645" points="58.5,1222.75,48.5,1226.75,58.5,1230.75,54.5,1226.75" style="stroke:#454645;stroke-width:1.0;"/><line style="stroke:#454645;stroke-width:1.0;" x1="52.5" x2="341.5" y1="1226.75" y2="1226.75"/><text fill="#000000" font-family="sans-serif" font-size="13" font-weight="bold" lengthAdjust="spacing" textLength="16" x="64.5" y="1221.6841">33</text><text fill="#000000" font-family="sans-serif" font-size="13" lengthAdjust="spacing" textLength="251" x="84.5" y="1221.6841">notify user that message was received</text><!--SRC=[hPLDZzCm48Rl_XN32P3OhPfZ3qXqkqWS4UAySfn9OsrY1zlfgl-USJwTr2b1KAbIRB_FwybuF7dd2gmGBZ8rN3d8ZQwWSAwsXztEyBV7itH5apOMZT3AeNAFGbUxkYHnKvNJGyMjGxDhtIpZZTEggL8qZ34kd3Pmr2bm2p_9QSyoxdZABS9JASdpT7pfbuVndjNSE2baxQFgPkUQFVlLO8Fm0wsLMdttWq4HpisTXgM5SZ8p5pGjDyEw-IdiRdmwihZvbr8A3EoJMAnBKJkRnDvxL7RZ99A-XUHqJFgqZmi-yGcTHdi0yF1vI2CSmABAW8xDyZE2qnt3XlL9UW1He7W5cVUsqe9MfLIq0JbeHUKZlLSfhMEyT84ipxsE0Vq2uowO0oZjP7u5NsRW2Xu1iQJNNUowT1kBXnpFs9kyjr0tAJt1ArxZXDUZ4kPQkp4DRrJt6mncbHP9PRZUidDWShW3XroFZ5KQfQOQxiX9FSAhN81CwjDnaT5lfwWErYjaJVzLKXI3RVZ2ldpueWg02bffYhoLGQuRbRNYfNdaK9wD8NhbQFQjYw-nFzWbznEU17W8JIx9-ZdVm4jE55mHKTapS25e7emy5yxUu-v47NQTrR3xbXCn69hHW0xA6PJXlMjbv8Kx7EzLr8LQcT-SN_1sSz_c8c3Rwc9TPOo2-g51WVA26OivB9Ftf5KkJHKts7BaeZFuC42VsgXUPFPnvV326xu9Zb_opUY_KFFRjlrLeqrmEtv3RhmU-_yLzVJrs417lpf_nwr-BLVBaguie_zl]--></g></svg>