<?xml version="1.0" encoding="UTF-8" standalone="no"?><svg xmlns="http://www.w3.org/2000/svg" xmlns:xlink="http://www.w3.org/1999/xlink" contentStyleType="text/css" height="2197px" preserveAspectRatio="none" style="width:2343px;height:2197px;background:#FFFFFF;" version="1.1" viewBox="0 0 2343 2197" width="2343px" zoomAndPan="magnify"><defs/><g><rect fill="#FFFFFF" height="1782.5859" style="stroke:#696969;stroke-width:1.0;" width="10" x="629.5" y="325.5859"/><rect fill="#FFFFFF" height="781.0938" style="stroke:#696969;stroke-width:1.0;" width="10" x="1001.5" y="369.7188"/><rect fill="#FFFFFF" height="1337.0859" style="stroke:#696969;stroke-width:1.0;" width="10" x="1125" y="771.0859"/><rect fill="#FFFFFF" height="1300.7891" style="stroke:#696969;stroke-width:1.0;" width="10" x="1442" y="807.3828"/><rect fill="#FFFFFF" height="1901.3125" style="stroke:#696969;stroke-width:1.0;" width="10" x="1673" y="206.8594"/><rect fill="#FFFFFF" height="1942.6094" style="stroke:#696969;stroke-width:1.0;" width="10" x="1955" y="165.5625"/><rect fill="none" height="225.5391" rx="3.5" ry="3.5" style="stroke:#696969;stroke-width:1.0;" width="1734" x="20" y="411.0156"/><rect fill="none" height="46.2656" rx="3.5" ry="3.5" style="stroke:#696969;stroke-width:1.0;" width="1148" x="596" y="435.1484"/><rect fill="none" height="90.2031" rx="3.5" ry="3.5" style="stroke:#696969;stroke-width:1.0;" width="1714" x="30" y="495.4141"/><rect fill="none" height="211.2578" rx="3.5" ry="3.5" style="stroke:#696969;stroke-width:1.0;" width="1058" x="942.5" y="693.6875"/><rect fill="none" height="1122.9609" rx="3.5" ry="3.5" style="stroke:#696969;stroke-width:1.0;" width="2316" x="10" y="977.2109"/><rect fill="none" height="46.2656" rx="3.5" ry="3.5" style="stroke:#696969;stroke-width:1.0;" width="603.5" x="596" y="1001.3438"/><rect fill="none" height="46.2656" rx="3.5" ry="3.5" style="stroke:#696969;stroke-width:1.0;" width="643" x="30" y="1061.6094"/><rect fill="none" height="781.6953" rx="3.5" ry="3.5" style="stroke:#696969;stroke-width:1.0;" width="2296" x="20" y="1311.4766"/><rect fill="none" height="275.8984" rx="3.5" ry="3.5" style="stroke:#696969;stroke-width:1.0;" width="801.5" x="30" y="1810.2734"/><line style="stroke:#696969;stroke-width:0.5;stroke-dasharray:5.0,5.0;" x1="57" x2="57" y1="81.2969" y2="2117.1719"/><line style="stroke:#696969;stroke-width:0.5;stroke-dasharray:5.0,5.0;" x1="362.5" x2="362.5" y1="1959.625" y2="2117.1719"/><line style="stroke:#696969;stroke-width:0.5;stroke-dasharray:5.0,5.0;" x1="634" x2="634" y1="285.8047" y2="2117.1719"/><line style="stroke:#696969;stroke-width:0.5;stroke-dasharray:5.0,5.0;" x1="1006.5" x2="1006.5" y1="366.7344" y2="2117.1719"/><line style="stroke:#696969;stroke-width:0.5;stroke-dasharray:5.0,5.0;" x1="1129.5" x2="1129.5" y1="768.1016" y2="2117.1719"/><line style="stroke:#696969;stroke-width:0.5;stroke-dasharray:5.0,5.0;" x1="1447" x2="1447" y1="806.8984" y2="2117.1719"/><line style="stroke:#696969;stroke-width:0.5;stroke-dasharray:5.0,5.0;" x1="1678" x2="1678" y1="203.875" y2="2117.1719"/><line style="stroke:#696969;stroke-width:0.5;stroke-dasharray:5.0,5.0;" x1="1959.5" x2="1959.5" y1="165.0781" y2="2117.1719"/><line style="stroke:#696969;stroke-width:0.5;stroke-dasharray:5.0,5.0;" x1="2269" x2="2269" y1="81.2969" y2="2117.1719"/><text fill="#454645" font-family="sans-serif" font-size="14" lengthAdjust="spacing" textLength="29" x="40" y="77.9951">Bob</text><ellipse cx="57.5" cy="13.5" fill="#454645" rx="8" ry="8" style="stroke:#454645;stroke-width:0.5;"/><path d="M57.5,21.5 L57.5,48.5 M44.5,29.5 L70.5,29.5 M57.5,48.5 L44.5,63.5 M57.5,48.5 L70.5,63.5 " fill="none" style="stroke:#454645;stroke-width:0.5;"/><text fill="#454645" font-family="sans-serif" font-size="14" lengthAdjust="spacing" textLength="29" x="40" y="2129.167">Bob</text><ellipse cx="57.5" cy="2140.9688" fill="#454645" rx="8" ry="8" style="stroke:#454645;stroke-width:0.5;"/><path d="M57.5,2148.9688 L57.5,2175.9688 M44.5,2156.9688 L70.5,2156.9688 M57.5,2175.9688 L44.5,2190.9688 M57.5,2175.9688 L70.5,2190.9688 " fill="none" style="stroke:#454645;stroke-width:0.5;"/><text fill="#454645" font-family="sans-serif" font-size="14" lengthAdjust="spacing" textLength="64" x="327.5" y="2129.167">ClientDB</text><path d="M344.5,2142.4688 C344.5,2132.4688 362.5,2132.4688 362.5,2132.4688 C362.5,2132.4688 380.5,2132.4688 380.5,2142.4688 L380.5,2168.4688 C380.5,2178.4688 362.5,2178.4688 362.5,2178.4688 C362.5,2178.4688 344.5,2178.4688 344.5,2168.4688 L344.5,2142.4688 " fill="#00FFFF" style="stroke:#454645;stroke-width:1.5;"/><path d="M344.5,2142.4688 C344.5,2152.4688 362.5,2152.4688 362.5,2152.4688 C362.5,2152.4688 380.5,2152.4688 380.5,2142.4688 " fill="none" style="stroke:#454645;stroke-width:1.5;"/><rect fill="#FF6347" height="30.2969" rx="3.5" ry="3.5" style="stroke:#454645;stroke-width:1.5;" width="57" x="606" y="2116.1719"/><text fill="#FFFFFF" font-family="sans-serif" font-size="14" lengthAdjust="spacing" textLength="43" x="613" y="2136.167">Client</text><path d="M957.5,2116.1719 L1055.5,2116.1719 C1060.5,2116.1719 1060.5,2129.3203 1060.5,2129.3203 C1060.5,2129.3203 1060.5,2142.4688 1055.5,2142.4688 L957.5,2142.4688 C952.5,2142.4688 952.5,2129.3203 952.5,2129.3203 C952.5,2129.3203 952.5,2116.1719 957.5,2116.1719 " fill="#FF6347" style="stroke:#454645;stroke-width:1.5;"/><path d="M1055.5,2116.1719 C1050.5,2116.1719 1050.5,2129.3203 1050.5,2129.3203 C1050.5,2142.4688 1055.5,2142.4688 1055.5,2142.4688 " fill="none" style="stroke:#454645;stroke-width:1.5;"/><text fill="#FFFFFF" font-family="sans-serif" font-size="14" lengthAdjust="spacing" textLength="88" x="957.5" y="2134.167">ClientQueue</text><path d="M1075.5,2116.1719 L1184.5,2116.1719 C1189.5,2116.1719 1189.5,2129.3203 1189.5,2129.3203 C1189.5,2129.3203 1189.5,2142.4688 1184.5,2142.4688 L1075.5,2142.4688 C1070.5,2142.4688 1070.5,2129.3203 1070.5,2129.3203 C1070.5,2129.3203 1070.5,2116.1719 1075.5,2116.1719 " fill="#FF6347" style="stroke:#454645;stroke-width:1.5;"/><path d="M1184.5,2116.1719 C1179.5,2116.1719 1179.5,2129.3203 1179.5,2129.3203 C1179.5,2142.4688 1184.5,2142.4688 1184.5,2142.4688 " fill="none" style="stroke:#454645;stroke-width:1.5;"/><text fill="#FFFFFF" font-family="sans-serif" font-size="14" lengthAdjust="spacing" textLength="99" x="1075.5" y="2134.167">SessionQueue</text><rect fill="#FF6347" height="30.2969" rx="3.5" ry="3.5" style="stroke:#454645;stroke-width:1.5;" width="68" x="1413" y="2116.1719"/><text fill="#FFFFFF" font-family="sans-serif" font-size="14" lengthAdjust="spacing" textLength="54" x="1420" y="2136.167">Session</text><path d="M1627,2116.1719 L1729,2116.1719 C1734,2116.1719 1734,2129.3203 1734,2129.3203 C1734,2129.3203 1734,2142.4688 1729,2142.4688 L1627,2142.4688 C1622,2142.4688 1622,2129.3203 1622,2129.3203 C1622,2129.3203 1622,2116.1719 1627,2116.1719 " fill="#FF6347" style="stroke:#454645;stroke-width:1.5;"/><path d="M1729,2116.1719 C1724,2116.1719 1724,2129.3203 1724,2129.3203 C1724,2142.4688 1729,2142.4688 1729,2142.4688 " fill="none" style="stroke:#454645;stroke-width:1.5;"/><text fill="#FFFFFF" font-family="sans-serif" font-size="14" lengthAdjust="spacing" textLength="92" x="1627" y="2134.167">ServerQueue</text><rect fill="#FF6347" height="30.2969" rx="3.5" ry="3.5" style="stroke:#454645;stroke-width:1.5;" width="61" x="1929.5" y="2116.1719"/><text fill="#FFFFFF" font-family="sans-serif" font-size="14" lengthAdjust="spacing" textLength="47" x="1936.5" y="2136.167">Server</text><text fill="#454645" font-family="sans-serif" font-size="14" lengthAdjust="spacing" textLength="68" x="2232" y="77.9951">ServerDB</text><path d="M2251,29 C2251,19 2269,19 2269,19 C2269,19 2287,19 2287,29 L2287,55 C2287,65 2269,65 2269,65 C2269,65 2251,65 2251,55 L2251,29 " fill="#00FFFF" style="stroke:#454645;stroke-width:1.5;"/><path d="M2251,29 C2251,39 2269,39 2269,39 C2269,39 2287,39 2287,29 " fill="none" style="stroke:#454645;stroke-width:1.5;"/><text fill="#454645" font-family="sans-serif" font-size="14" lengthAdjust="spacing" textLength="68" x="2232" y="2129.167">ServerDB</text><path d="M2251,2142.4688 C2251,2132.4688 2269,2132.4688 2269,2132.4688 C2269,2132.4688 2287,2132.4688 2287,2142.4688 L2287,2168.4688 C2287,2178.4688 2269,2178.4688 2269,2178.4688 C2269,2178.4688 2251,2178.4688 2251,2168.4688 L2251,2142.4688 " fill="#00FFFF" style="stroke:#454645;stroke-width:1.5;"/><path d="M2251,2142.4688 C2251,2152.4688 2269,2152.4688 2269,2152.4688 C2269,2152.4688 2287,2152.4688 2287,2142.4688 " fill="none" style="stroke:#454645;stroke-width:1.5;"/><rect fill="#FFFFFF" height="1782.5859" style="stroke:#696969;stroke-width:1.0;" width="10" x="629.5" y="325.5859"/><rect fill="#FFFFFF" height="781.0938" style="stroke:#696969;stroke-width:1.0;" width="10" x="1001.5" y="369.7188"/><rect fill="#FFFFFF" height="1337.0859" style="stroke:#696969;stroke-width:1.0;" width="10" x="1125" y="771.0859"/><rect fill="#FFFFFF" height="1300.7891" style="stroke:#696969;stroke-width:1.0;" width="10" x="1442" y="807.3828"/><rect fill="#FFFFFF" height="1901.3125" style="stroke:#696969;stroke-width:1.0;" width="10" x="1673" y="206.8594"/><rect fill="#FFFFFF" height="1942.6094" style="stroke:#696969;stroke-width:1.0;" width="10" x="1955" y="165.5625"/><rect fill="#EEEEEE" height="3" rx="3.5" ry="3.5" style="stroke:#EEEEEE;stroke-width:1.0;" width="2336" x="0" y="111.8633"/><line style="stroke:#454645;stroke-width:0.5;" x1="0" x2="2336" y1="111.8633" y2="111.8633"/><line style="stroke:#454645;stroke-width:0.5;" x1="0" x2="2336" y1="114.8633" y2="114.8633"/><rect fill="#EEEEEE" height="23.1328" rx="3.5" ry="3.5" style="stroke:#454645;stroke-width:1.0;" width="168" x="1084" y="101.2969"/><text fill="#454645" font-family="sans-serif" font-size="13" font-weight="bold" lengthAdjust="spacing" textLength="149" x="1090" y="117.3638">Server Initialization</text><ellipse cx="1990" cy="154.8125" fill="none" rx="4" ry="4" style="stroke:#454645;stroke-width:1.5;"/><polygon fill="#454645" points="2007,151.5625,1997,155.5625,2007,159.5625,2003,155.5625" style="stroke:#454645;stroke-width:1.0;"/><polygon fill="#454645" points="2257,151.5625,2267,155.5625,2257,159.5625,2261,155.5625" style="stroke:#454645;stroke-width:1.0;"/><line style="stroke:#454645;stroke-width:1.0;" x1="2005" x2="2263" y1="155.5625" y2="155.5625"/><text fill="#000000" font-family="sans-serif" font-size="13" font-weight="bold" lengthAdjust="spacing" textLength="9" x="2007.5" y="150.4966">1</text><text fill="#000000" font-family="sans-serif" font-size="13" lengthAdjust="spacing" textLength="60" x="2020.5" y="150.4966">load_db()</text><rect fill="#FF6347" height="30.2969" rx="3.5" ry="3.5" style="stroke:#454645;stroke-width:1.5;" width="61" x="1929.5" y="134.4297"/><text fill="#FFFFFF" font-family="sans-serif" font-size="14" lengthAdjust="spacing" textLength="47" x="1936.5" y="154.4248">Server</text><ellipse cx="1733.5" cy="196.1094" fill="none" rx="4" ry="4" style="stroke:#454645;stroke-width:1.5;"/><polygon fill="#454645" points="1750.5,192.8594,1740.5,196.8594,1750.5,200.8594,1746.5,196.8594" style="stroke:#454645;stroke-width:1.0;"/><line style="stroke:#454645;stroke-width:1.0;" x1="1748.5" x2="1954" y1="196.8594" y2="196.8594"/><text fill="#000000" font-family="sans-serif" font-size="13" font-weight="bold" lengthAdjust="spacing" textLength="9" x="1751" y="191.7935">2</text><text fill="#000000" font-family="sans-serif" font-size="13" lengthAdjust="spacing" textLength="184" x="1764" y="191.7935">msgget('server', IPC_CREAT)</text><path d="M1627,175.7266 L1729,175.7266 C1734,175.7266 1734,188.875 1734,188.875 C1734,188.875 1734,202.0234 1729,202.0234 L1627,202.0234 C1622,202.0234 1622,188.875 1622,188.875 C1622,188.875 1622,175.7266 1627,175.7266 " fill="#FF6347" style="stroke:#454645;stroke-width:1.5;"/><path d="M1729,175.7266 C1724,175.7266 1724,188.875 1724,188.875 C1724,202.0234 1729,202.0234 1729,202.0234 " fill="none" style="stroke:#454645;stroke-width:1.5;"/><text fill="#FFFFFF" font-family="sans-serif" font-size="14" lengthAdjust="spacing" textLength="92" x="1627" y="193.7217">ServerQueue</text><rect fill="#EEEEEE" height="3" rx="3.5" ry="3.5" style="stroke:#EEEEEE;stroke-width:1.0;" width="2336" x="0" y="232.5898"/><line style="stroke:#454645;stroke-width:0.5;" x1="0" x2="2336" y1="232.5898" y2="232.5898"/><line style="stroke:#454645;stroke-width:0.5;" x1="0" x2="2336" y1="235.5898" y2="235.5898"/><rect fill="#EEEEEE" height="23.1328" rx="3.5" ry="3.5" style="stroke:#454645;stroke-width:1.0;" width="163" x="1086.5" y="222.0234"/><text fill="#454645" font-family="sans-serif" font-size="13" font-weight="bold" lengthAdjust="spacing" textLength="144" x="1092.5" y="238.0903">Client Initialization</text><polygon fill="#454645" points="594,272.2891,604,276.2891,594,280.2891,598,276.2891" style="stroke:#454645;stroke-width:1.0;"/><line style="stroke:#454645;stroke-width:1.0;" x1="57.5" x2="600" y1="276.2891" y2="276.2891"/><text fill="#000000" font-family="sans-serif" font-size="13" font-weight="bold" lengthAdjust="spacing" textLength="8" x="64.5" y="271.2231">3</text><text fill="#000000" font-family="sans-serif" font-size="13" lengthAdjust="spacing" textLength="234" x="76.5" y="271.2231">register(login,password,repassword)</text><rect fill="#FF6347" height="30.2969" rx="3.5" ry="3.5" style="stroke:#454645;stroke-width:1.5;" width="57" x="606" y="255.1563"/><text fill="#FFFFFF" font-family="sans-serif" font-size="14" lengthAdjust="spacing" textLength="43" x="613" y="275.1514">Client</text><line style="stroke:#454645;stroke-width:1.0;" x1="57.5" x2="104.5" y1="312.5859" y2="312.5859"/><line style="stroke:#454645;stroke-width:1.0;" x1="104.5" x2="104.5" y1="312.5859" y2="325.5859"/><line style="stroke:#454645;stroke-width:1.0;" x1="63.5" x2="104.5" y1="325.5859" y2="325.5859"/><polygon fill="#454645" points="73.5,321.5859,63.5,325.5859,73.5,329.5859,69.5,325.5859" style="stroke:#454645;stroke-width:1.0;"/><text fill="#000000" font-family="sans-serif" font-size="13" font-weight="bold" lengthAdjust="spacing" textLength="9" x="69.5" y="307.52">4</text><text fill="#000000" font-family="sans-serif" font-size="13" lengthAdjust="spacing" textLength="278" x="82.5" y="307.52">check_register(login,password,repassword)</text><polygon fill="#454645" points="940.5,355.7188,950.5,359.7188,940.5,363.7188,944.5,359.7188" style="stroke:#454645;stroke-width:1.0;"/><line style="stroke:#454645;stroke-width:1.0;" x1="639.5" x2="946.5" y1="359.7188" y2="359.7188"/><text fill="#000000" font-family="sans-serif" font-size="13" font-weight="bold" lengthAdjust="spacing" textLength="9" x="646.5" y="354.6528">5</text><text fill="#000000" font-family="sans-serif" font-size="13" lengthAdjust="spacing" textLength="201" x="659.5" y="354.6528">msgget(client_key, IPC_CREAT)</text><path d="M957.5,338.5859 L1055.5,338.5859 C1060.5,338.5859 1060.5,351.7344 1060.5,351.7344 C1060.5,351.7344 1060.5,364.8828 1055.5,364.8828 L957.5,364.8828 C952.5,364.8828 952.5,351.7344 952.5,351.7344 C952.5,351.7344 952.5,338.5859 957.5,338.5859 " fill="#FF6347" style="stroke:#454645;stroke-width:1.5;"/><path d="M1055.5,338.5859 C1050.5,338.5859 1050.5,351.7344 1050.5,351.7344 C1050.5,364.8828 1055.5,364.8828 1055.5,364.8828 " fill="none" style="stroke:#454645;stroke-width:1.5;"/><text fill="#FFFFFF" font-family="sans-serif" font-size="14" lengthAdjust="spacing" textLength="88" x="957.5" y="356.5811">ClientQueue</text><polygon fill="#454645" points="1661,392.0156,1671,396.0156,1661,400.0156,1665,396.0156" style="stroke:#454645;stroke-width:1.0;"/><line style="stroke:#454645;stroke-width:1.0;" x1="639.5" x2="1667" y1="396.0156" y2="396.0156"/><text fill="#000000" font-family="sans-serif" font-size="13" font-weight="bold" lengthAdjust="spacing" textLength="9" x="646.5" y="390.9497">6</text><text fill="#000000" font-family="sans-serif" font-size="13" lengthAdjust="spacing" textLength="106" x="659.5" y="390.9497">msgget('server')</text><path d="M23.5,411.0156 L86,411.0156 L86,418.1484 L76,428.1484 L20,428.1484 L20,414.5156 A3.5,3.5 0 0 1 23.5,411.0156 " fill="#EEEEEE" style="stroke:#696969;stroke-width:1.5;"/><rect fill="none" height="225.5391" rx="3.5" ry="3.5" style="stroke:#696969;stroke-width:1.0;" width="1734" x="20" y="411.0156"/><text fill="#454645" font-family="sans-serif" font-size="13" font-weight="bold" lengthAdjust="spacing" textLength="21" x="35" y="424.0825">alt</text><text fill="#696969" font-family="sans-serif" font-size="11" font-weight="bold" lengthAdjust="spacing" textLength="200" x="101" y="423.2261">[Failure connection to server]</text><path d="M599.5,435.1484 L674,435.1484 L674,442.2813 L664,452.2813 L596,452.2813 L596,438.6484 A3.5,3.5 0 0 1 599.5,435.1484 " fill="#EEEEEE" style="stroke:#696969;stroke-width:1.5;"/><rect fill="none" height="46.2656" rx="3.5" ry="3.5" style="stroke:#696969;stroke-width:1.0;" width="1148" x="596" y="435.1484"/><text fill="#454645" font-family="sans-serif" font-size="13" font-weight="bold" lengthAdjust="spacing" textLength="33" x="611" y="448.2153">loop</text><text fill="#696969" font-family="sans-serif" font-size="11" font-weight="bold" lengthAdjust="spacing" textLength="69" x="689" y="447.3589">[10 times]</text><polygon fill="#454645" points="1661,469.4141,1671,473.4141,1661,477.4141,1665,473.4141" style="stroke:#454645;stroke-width:1.0;"/><line style="stroke:#454645;stroke-width:1.0;" x1="639.5" x2="1667" y1="473.4141" y2="473.4141"/><text fill="#000000" font-family="sans-serif" font-size="13" font-weight="bold" lengthAdjust="spacing" textLength="9" x="646.5" y="468.3481">7</text><text fill="#000000" font-family="sans-serif" font-size="13" lengthAdjust="spacing" textLength="106" x="659.5" y="468.3481">msgget('server')</text><path d="M33.5,495.4141 L96,495.4141 L96,502.5469 L86,512.5469 L30,512.5469 L30,498.9141 A3.5,3.5 0 0 1 33.5,495.4141 " fill="#EEEEEE" style="stroke:#696969;stroke-width:1.5;"/><rect fill="none" height="90.2031" rx="3.5" ry="3.5" style="stroke:#696969;stroke-width:1.0;" width="1714" x="30" y="495.4141"/><text fill="#454645" font-family="sans-serif" font-size="13" font-weight="bold" lengthAdjust="spacing" textLength="21" x="45" y="508.481">alt</text><text fill="#696969" font-family="sans-serif" font-size="11" font-weight="bold" lengthAdjust="spacing" textLength="55" x="111" y="507.6245">[Failure]</text><polygon fill="#454645" points="68.5,529.6797,58.5,533.6797,68.5,537.6797,64.5,533.6797" style="stroke:#454645;stroke-width:1.0;"/><line style="stroke:#454645;stroke-width:1.0;" x1="62.5" x2="628.5" y1="533.6797" y2="533.6797"/><text fill="#000000" font-family="sans-serif" font-size="13" font-weight="bold" lengthAdjust="spacing" textLength="9" x="74.5" y="528.6138">8</text><text fill="#000000" font-family="sans-serif" font-size="13" lengthAdjust="spacing" textLength="166" x="87.5" y="528.6138">"Server is not responding"</text><line style="stroke:#696969;stroke-width:1.0;stroke-dasharray:2.0,2.0;" x1="30" x2="1744" y1="542.6797" y2="542.6797"/><text fill="#696969" font-family="sans-serif" font-size="11" font-weight="bold" lengthAdjust="spacing" textLength="223" x="35" y="552.8901">[Sucessfull connection to server]</text><polygon fill="#454645" points="1661,573.6172,1671,577.6172,1661,581.6172,1665,577.6172" style="stroke:#454645;stroke-width:1.0;"/><line style="stroke:#454645;stroke-width:1.0;stroke-dasharray:2.0,2.0;" x1="639.5" x2="1667" y1="577.6172" y2="577.6172"/><text fill="#000000" font-family="sans-serif" font-size="13" font-weight="bold" lengthAdjust="spacing" textLength="9" x="646.5" y="572.5513">9</text><text fill="#000000" font-family="sans-serif" font-size="13" lengthAdjust="spacing" textLength="125" x="659.5" y="572.5513">msgsnd(client_key)</text><line style="stroke:#696969;stroke-width:1.0;stroke-dasharray:2.0,2.0;" x1="20" x2="1754" y1="593.6172" y2="593.6172"/><text fill="#696969" font-family="sans-serif" font-size="11" font-weight="bold" lengthAdjust="spacing" textLength="223" x="25" y="603.8276">[Sucessfull connection to server]</text><polygon fill="#454645" points="1661,624.5547,1671,628.5547,1661,632.5547,1665,628.5547" style="stroke:#454645;stroke-width:1.0;"/><line style="stroke:#454645;stroke-width:1.0;stroke-dasharray:2.0,2.0;" x1="639.5" x2="1667" y1="628.5547" y2="628.5547"/><text fill="#000000" font-family="sans-serif" font-size="13" font-weight="bold" lengthAdjust="spacing" textLength="19" x="646.5" y="623.4888">10</text><text fill="#000000" font-family="sans-serif" font-size="13" lengthAdjust="spacing" textLength="125" x="669.5" y="623.4888">msgsnd(client_key)</text><rect fill="#EEEEEE" height="3" rx="3.5" ry="3.5" style="stroke:#EEEEEE;stroke-width:1.0;" width="2336" x="0" y="664.1211"/><line style="stroke:#454645;stroke-width:0.5;" x1="0" x2="2336" y1="664.1211" y2="664.1211"/><line style="stroke:#454645;stroke-width:0.5;" x1="0" x2="2336" y1="667.1211" y2="667.1211"/><rect fill="#EEEEEE" height="23.1328" rx="3.5" ry="3.5" style="stroke:#454645;stroke-width:1.0;" width="76" x="1130" y="653.5547"/><text fill="#454645" font-family="sans-serif" font-size="13" font-weight="bold" lengthAdjust="spacing" textLength="57" x="1136" y="669.6216">Session</text><path d="M946,693.6875 L1100.5,693.6875 L1100.5,700.8203 L1090.5,710.8203 L942.5,710.8203 L942.5,697.1875 A3.5,3.5 0 0 1 946,693.6875 " fill="#EEEEEE" style="stroke:#696969;stroke-width:1.5;"/><rect fill="none" height="211.2578" rx="3.5" ry="3.5" style="stroke:#696969;stroke-width:1.0;" width="1058" x="942.5" y="693.6875"/><text fill="#454645" font-family="sans-serif" font-size="13" font-weight="bold" lengthAdjust="spacing" textLength="113" x="957.5" y="706.7544">Create session</text><polygon fill="#454645" points="1943,727.9531,1953,731.9531,1943,735.9531,1947,731.9531" style="stroke:#454645;stroke-width:1.0;"/><line style="stroke:#454645;stroke-width:1.0;stroke-dasharray:2.0,2.0;" x1="1683" x2="1949" y1="731.9531" y2="731.9531"/><text fill="#000000" font-family="sans-serif" font-size="13" font-weight="bold" lengthAdjust="spacing" textLength="18" x="1690" y="726.8872">11</text><text fill="#000000" font-family="sans-serif" font-size="13" lengthAdjust="spacing" textLength="122" x="1712" y="726.8872">msgrcv(client_key)</text><polygon fill="#454645" points="1200.5,757.0859,1190.5,761.0859,1200.5,765.0859,1196.5,761.0859" style="stroke:#454645;stroke-width:1.0;"/><line style="stroke:#454645;stroke-width:1.0;" x1="1194.5" x2="1954" y1="761.0859" y2="761.0859"/><text fill="#000000" font-family="sans-serif" font-size="13" font-weight="bold" lengthAdjust="spacing" textLength="18" x="1206.5" y="756.02">12</text><text fill="#000000" font-family="sans-serif" font-size="13" lengthAdjust="spacing" textLength="215" x="1228.5" y="756.02">msgget(session_key, IPC_CREAT)</text><path d="M1075.5,739.9531 L1184.5,739.9531 C1189.5,739.9531 1189.5,753.1016 1189.5,753.1016 C1189.5,753.1016 1189.5,766.25 1184.5,766.25 L1075.5,766.25 C1070.5,766.25 1070.5,753.1016 1070.5,753.1016 C1070.5,753.1016 1070.5,739.9531 1075.5,739.9531 " fill="#FF6347" style="stroke:#454645;stroke-width:1.5;"/><path d="M1184.5,739.9531 C1179.5,739.9531 1179.5,753.1016 1179.5,753.1016 C1179.5,766.25 1184.5,766.25 1184.5,766.25 " fill="none" style="stroke:#454645;stroke-width:1.5;"/><text fill="#FFFFFF" font-family="sans-serif" font-size="14" lengthAdjust="spacing" textLength="99" x="1075.5" y="757.9482">SessionQueue</text><polygon fill="#454645" points="1492,793.3828,1482,797.3828,1492,801.3828,1488,797.3828" style="stroke:#454645;stroke-width:1.0;"/><line style="stroke:#454645;stroke-width:1.0;" x1="1486" x2="1954" y1="797.3828" y2="797.3828"/><text fill="#000000" font-family="sans-serif" font-size="13" font-weight="bold" lengthAdjust="spacing" textLength="17" x="1498" y="792.3169">13</text><text fill="#000000" font-family="sans-serif" font-size="13" lengthAdjust="spacing" textLength="35" x="1519" y="792.3169">fork()</text><rect fill="#FF6347" height="30.2969" rx="3.5" ry="3.5" style="stroke:#454645;stroke-width:1.5;" width="68" x="1413" y="776.25"/><text fill="#FFFFFF" font-family="sans-serif" font-size="14" lengthAdjust="spacing" textLength="54" x="1420" y="796.2451">Session</text><polygon fill="#454645" points="1146,834.6797,1136,838.6797,1146,842.6797,1142,838.6797" style="stroke:#454645;stroke-width:1.0;"/><line style="stroke:#454645;stroke-width:1.0;" x1="1140" x2="1441" y1="838.6797" y2="838.6797"/><text fill="#000000" font-family="sans-serif" font-size="13" font-weight="bold" lengthAdjust="spacing" textLength="18" x="1152" y="833.6138">14</text><text fill="#000000" font-family="sans-serif" font-size="13" lengthAdjust="spacing" textLength="137" x="1174" y="833.6138">msgget(session_key)</text><polygon fill="#454645" points="1022.5,863.8125,1012.5,867.8125,1022.5,871.8125,1018.5,867.8125" style="stroke:#454645;stroke-width:1.0;"/><line style="stroke:#454645;stroke-width:1.0;" x1="1016.5" x2="1441" y1="867.8125" y2="867.8125"/><text fill="#000000" font-family="sans-serif" font-size="13" font-weight="bold" lengthAdjust="spacing" textLength="18" x="1028.5" y="862.7466">15</text><text fill="#000000" font-family="sans-serif" font-size="13" lengthAdjust="spacing" textLength="123" x="1050.5" y="862.7466">msgget(client_key)</text><polygon fill="#454645" points="1022.5,892.9453,1012.5,896.9453,1022.5,900.9453,1018.5,896.9453" style="stroke:#454645;stroke-width:1.0;"/><line style="stroke:#454645;stroke-width:1.0;stroke-dasharray:2.0,2.0;" x1="1016.5" x2="1441" y1="896.9453" y2="896.9453"/><text fill="#000000" font-family="sans-serif" font-size="13" font-weight="bold" lengthAdjust="spacing" textLength="18" x="1028.5" y="891.8794">16</text><text fill="#000000" font-family="sans-serif" font-size="13" lengthAdjust="spacing" textLength="139" x="1050.5" y="891.8794">msgsnd(session_key)</text><polygon fill="#454645" points="650.5,929.0781,640.5,933.0781,650.5,937.0781,646.5,933.0781" style="stroke:#454645;stroke-width:1.0;"/><line style="stroke:#454645;stroke-width:1.0;stroke-dasharray:2.0,2.0;" x1="644.5" x2="1000.5" y1="933.0781" y2="933.0781"/><text fill="#000000" font-family="sans-serif" font-size="13" font-weight="bold" lengthAdjust="spacing" textLength="18" x="656.5" y="928.0122">17</text><text fill="#000000" font-family="sans-serif" font-size="13" lengthAdjust="spacing" textLength="136" x="678.5" y="928.0122">msgrcv(session_key)</text><polygon fill="#454645" points="1113,958.2109,1123,962.2109,1113,966.2109,1117,962.2109" style="stroke:#454645;stroke-width:1.0;"/><line style="stroke:#454645;stroke-width:1.0;" x1="639.5" x2="1119" y1="962.2109" y2="962.2109"/><text fill="#000000" font-family="sans-serif" font-size="13" font-weight="bold" lengthAdjust="spacing" textLength="18" x="646.5" y="957.145">18</text><text fill="#000000" font-family="sans-serif" font-size="13" lengthAdjust="spacing" textLength="137" x="668.5" y="957.145">msgget(session_key)</text><path d="M13.5,977.2109 L76,977.2109 L76,984.3438 L66,994.3438 L10,994.3438 L10,980.7109 A3.5,3.5 0 0 1 13.5,977.2109 " fill="#EEEEEE" style="stroke:#696969;stroke-width:1.5;"/><rect fill="none" height="1122.9609" rx="3.5" ry="3.5" style="stroke:#696969;stroke-width:1.0;" width="2316" x="10" y="977.2109"/><text fill="#454645" font-family="sans-serif" font-size="13" font-weight="bold" lengthAdjust="spacing" textLength="21" x="25" y="990.2778">alt</text><text fill="#696969" font-family="sans-serif" font-size="11" font-weight="bold" lengthAdjust="spacing" textLength="208" x="91" y="989.4214">[Failure connection to session]</text><path d="M599.5,1001.3438 L674,1001.3438 L674,1008.4766 L664,1018.4766 L596,1018.4766 L596,1004.8438 A3.5,3.5 0 0 1 599.5,1001.3438 " fill="#EEEEEE" style="stroke:#696969;stroke-width:1.5;"/><rect fill="none" height="46.2656" rx="3.5" ry="3.5" style="stroke:#696969;stroke-width:1.0;" width="603.5" x="596" y="1001.3438"/><text fill="#454645" font-family="sans-serif" font-size="13" font-weight="bold" lengthAdjust="spacing" textLength="33" x="611" y="1014.4106">loop</text><text fill="#696969" font-family="sans-serif" font-size="11" font-weight="bold" lengthAdjust="spacing" textLength="69" x="689" y="1013.5542">[10 times]</text><polygon fill="#454645" points="1113,1035.6094,1123,1039.6094,1113,1043.6094,1117,1039.6094" style="stroke:#454645;stroke-width:1.0;"/><line style="stroke:#454645;stroke-width:1.0;" x1="639.5" x2="1119" y1="1039.6094" y2="1039.6094"/><text fill="#000000" font-family="sans-serif" font-size="13" font-weight="bold" lengthAdjust="spacing" textLength="18" x="646.5" y="1034.5435">19</text><text fill="#000000" font-family="sans-serif" font-size="13" lengthAdjust="spacing" textLength="137" x="668.5" y="1034.5435">msgget(session_key)</text><path d="M33.5,1061.6094 L96,1061.6094 L96,1068.7422 L86,1078.7422 L30,1078.7422 L30,1065.1094 A3.5,3.5 0 0 1 33.5,1061.6094 " fill="#EEEEEE" style="stroke:#696969;stroke-width:1.5;"/><rect fill="none" height="46.2656" rx="3.5" ry="3.5" style="stroke:#696969;stroke-width:1.0;" width="643" x="30" y="1061.6094"/><text fill="#454645" font-family="sans-serif" font-size="13" font-weight="bold" lengthAdjust="spacing" textLength="21" x="45" y="1074.6763">alt</text><text fill="#696969" font-family="sans-serif" font-size="11" font-weight="bold" lengthAdjust="spacing" textLength="55" x="111" y="1073.8198">[Failure]</text><polygon fill="#454645" points="68.5,1095.875,58.5,1099.875,68.5,1103.875,64.5,1099.875" style="stroke:#454645;stroke-width:1.0;"/><line style="stroke:#454645;stroke-width:1.0;" x1="62.5" x2="628.5" y1="1099.875" y2="1099.875"/><text fill="#000000" font-family="sans-serif" font-size="13" font-weight="bold" lengthAdjust="spacing" textLength="19" x="74.5" y="1094.8091">20</text><text fill="#000000" font-family="sans-serif" font-size="13" lengthAdjust="spacing" textLength="166" x="97.5" y="1094.8091">"Server is not responding"</text><line style="stroke:#696969;stroke-width:1.0;stroke-dasharray:2.0,2.0;" x1="10" x2="2326" y1="1115.875" y2="1115.875"/><text fill="#696969" font-family="sans-serif" font-size="11" font-weight="bold" lengthAdjust="spacing" textLength="231" x="15" y="1126.0854">[Sucessfull connection to session]</text><polygon fill="#454645" points="994.5,1146.8125,1004.5,1150.8125,994.5,1154.8125,998.5,1150.8125" style="stroke:#454645;stroke-width:1.0;"/><line style="stroke:#454645;stroke-width:1.0;" x1="639.5" x2="1000.5" y1="1150.8125" y2="1150.8125"/><text fill="#000000" font-family="sans-serif" font-size="13" font-weight="bold" lengthAdjust="spacing" textLength="18" x="646.5" y="1145.7466">21</text><text fill="#000000" font-family="sans-serif" font-size="13" lengthAdjust="spacing" textLength="184" x="668.5" y="1145.7466">msgctl(client_key, IPC_RMID)</text><line style="stroke:#696969;stroke-width:2.0;" x1="997.5" x2="1015.5" y1="1141.8125" y2="1159.8125"/><line style="stroke:#696969;stroke-width:2.0;" x1="997.5" x2="1015.5" y1="1159.8125" y2="1141.8125"/><polygon fill="#454645" points="1113,1175.9453,1123,1179.9453,1113,1183.9453,1117,1179.9453" style="stroke:#454645;stroke-width:1.0;"/><line style="stroke:#454645;stroke-width:1.0;stroke-dasharray:2.0,2.0;" x1="639.5" x2="1119" y1="1179.9453" y2="1179.9453"/><text fill="#000000" font-family="sans-serif" font-size="13" font-weight="bold" lengthAdjust="spacing" textLength="18" x="646.5" y="1174.8794">22</text><text fill="#000000" font-family="sans-serif" font-size="13" lengthAdjust="spacing" textLength="175" x="668.5" y="1174.8794">msgsnd({login,password})</text><polygon fill="#454645" points="1430,1205.0781,1440,1209.0781,1430,1213.0781,1434,1209.0781" style="stroke:#454645;stroke-width:1.0;"/><line style="stroke:#454645;stroke-width:1.0;stroke-dasharray:2.0,2.0;" x1="1135" x2="1436" y1="1209.0781" y2="1209.0781"/><text fill="#000000" font-family="sans-serif" font-size="13" font-weight="bold" lengthAdjust="spacing" textLength="17" x="1142" y="1204.0122">23</text><text fill="#000000" font-family="sans-serif" font-size="13" lengthAdjust="spacing" textLength="172" x="1163" y="1204.0122">msgrcv({login,password})</text><polygon fill="#454645" points="1661,1234.2109,1671,1238.2109,1661,1242.2109,1665,1238.2109" style="stroke:#454645;stroke-width:1.0;"/><line style="stroke:#454645;stroke-width:1.0;stroke-dasharray:2.0,2.0;" x1="1452" x2="1667" y1="1238.2109" y2="1238.2109"/><text fill="#000000" font-family="sans-serif" font-size="13" font-weight="bold" lengthAdjust="spacing" textLength="18" x="1459" y="1233.145">24</text><text fill="#000000" font-family="sans-serif" font-size="13" lengthAdjust="spacing" textLength="175" x="1481" y="1233.145">msgsnd({login,password})</text><polygon fill="#454645" points="1943,1263.3438,1953,1267.3438,1943,1271.3438,1947,1267.3438" style="stroke:#454645;stroke-width:1.0;"/><line style="stroke:#454645;stroke-width:1.0;stroke-dasharray:2.0,2.0;" x1="1683" x2="1949" y1="1267.3438" y2="1267.3438"/><text fill="#000000" font-family="sans-serif" font-size="13" font-weight="bold" lengthAdjust="spacing" textLength="18" x="1690" y="1262.2778">25</text><text fill="#000000" font-family="sans-serif" font-size="13" lengthAdjust="spacing" textLength="172" x="1712" y="1262.2778">msgrcv({login,password})</text><polygon fill="#454645" points="1976,1292.4766,1966,1296.4766,1976,1300.4766,1972,1296.4766" style="stroke:#454645;stroke-width:1.0;"/><line style="stroke:#454645;stroke-width:1.0;" x1="1970" x2="2268" y1="1296.4766" y2="1296.4766"/><text fill="#000000" font-family="sans-serif" font-size="13" font-weight="bold" lengthAdjust="spacing" textLength="18" x="1982" y="1291.4106">26</text><text fill="#000000" font-family="sans-serif" font-size="13" lengthAdjust="spacing" textLength="154" x="2004" y="1291.4106">check_credentials(login)</text><path d="M23.5,1311.4766 L86,1311.4766 L86,1318.6094 L76,1328.6094 L20,1328.6094 L20,1314.9766 A3.5,3.5 0 0 1 23.5,1311.4766 " fill="#EEEEEE" style="stroke:#696969;stroke-width:1.5;"/><rect fill="none" height="781.6953" rx="3.5" ry="3.5" style="stroke:#696969;stroke-width:1.0;" width="2296" x="20" y="1311.4766"/><text fill="#454645" font-family="sans-serif" font-size="13" font-weight="bold" lengthAdjust="spacing" textLength="21" x="35" y="1324.5435">alt</text><text fill="#696969" font-family="sans-serif" font-size="11" font-weight="bold" lengthAdjust="spacing" textLength="84" x="101" y="1323.687">[User exists]</text><polygon fill="#454645" points="1146,1345.7422,1136,1349.7422,1146,1353.7422,1142,1349.7422" style="stroke:#454645;stroke-width:1.0;"/><line style="stroke:#454645;stroke-width:1.0;" x1="1140" x2="1954" y1="1349.7422" y2="1349.7422"/><text fill="#000000" font-family="sans-serif" font-size="13" font-weight="bold" lengthAdjust="spacing" textLength="18" x="1152" y="1344.6763">27</text><text fill="#000000" font-family="sans-serif" font-size="13" lengthAdjust="spacing" textLength="147" x="1174" y="1344.6763">msgsnd(fail, message)</text><polygon fill="#454645" points="1430,1374.875,1440,1378.875,1430,1382.875,1434,1378.875" style="stroke:#454645;stroke-width:1.0;"/><line style="stroke:#454645;stroke-width:1.0;stroke-dasharray:2.0,2.0;" x1="1135" x2="1436" y1="1378.875" y2="1378.875"/><text fill="#000000" font-family="sans-serif" font-size="13" font-weight="bold" lengthAdjust="spacing" textLength="18" x="1142" y="1373.8091">28</text><text fill="#000000" font-family="sans-serif" font-size="13" lengthAdjust="spacing" textLength="144" x="1164" y="1373.8091">msgrcv(fail, message)</text><polygon fill="#454645" points="1146,1404.0078,1136,1408.0078,1146,1412.0078,1142,1408.0078" style="stroke:#454645;stroke-width:1.0;"/><line style="stroke:#454645;stroke-width:1.0;" x1="1140" x2="1441" y1="1408.0078" y2="1408.0078"/><text fill="#000000" font-family="sans-serif" font-size="13" font-weight="bold" lengthAdjust="spacing" textLength="18" x="1152" y="1402.9419">29</text><text fill="#000000" font-family="sans-serif" font-size="13" lengthAdjust="spacing" textLength="147" x="1174" y="1402.9419">msgsnd(fail, message)</text><polygon fill="#454645" points="650.5,1433.1406,640.5,1437.1406,650.5,1441.1406,646.5,1437.1406" style="stroke:#454645;stroke-width:1.0;"/><line style="stroke:#454645;stroke-width:1.0;stroke-dasharray:2.0,2.0;" x1="644.5" x2="1124" y1="1437.1406" y2="1437.1406"/><text fill="#000000" font-family="sans-serif" font-size="13" font-weight="bold" lengthAdjust="spacing" textLength="18" x="656.5" y="1432.0747">30</text><text fill="#000000" font-family="sans-serif" font-size="13" lengthAdjust="spacing" textLength="144" x="678.5" y="1432.0747">msgrcv(fail, message)</text><polygon fill="#454645" points="68.5,1462.2734,58.5,1466.2734,68.5,1470.2734,64.5,1466.2734" style="stroke:#454645;stroke-width:1.0;"/><line style="stroke:#454645;stroke-width:1.0;" x1="62.5" x2="628.5" y1="1466.2734" y2="1466.2734"/><text fill="#000000" font-family="sans-serif" font-size="13" font-weight="bold" lengthAdjust="spacing" textLength="17" x="74.5" y="1461.2075">31</text><text fill="#000000" font-family="sans-serif" font-size="13" lengthAdjust="spacing" textLength="169" x="95.5" y="1461.2075">show_message(message)</text><line style="stroke:#696969;stroke-width:1.0;stroke-dasharray:2.0,2.0;" x1="20" x2="2316" y1="1475.2734" y2="1475.2734"/><text fill="#696969" font-family="sans-serif" font-size="11" font-weight="bold" lengthAdjust="spacing" textLength="257" x="25" y="1485.4839">[User does not exist then create user]</text><line style="stroke:#454645;stroke-width:1.0;" x1="1965" x2="2007" y1="1510.2109" y2="1510.2109"/><line style="stroke:#454645;stroke-width:1.0;" x1="2007" x2="2007" y1="1510.2109" y2="1523.2109"/><line style="stroke:#454645;stroke-width:1.0;" x1="1966" x2="2007" y1="1523.2109" y2="1523.2109"/><polygon fill="#454645" points="1976,1519.2109,1966,1523.2109,1976,1527.2109,1972,1523.2109" style="stroke:#454645;stroke-width:1.0;"/><text fill="#000000" font-family="sans-serif" font-size="13" font-weight="bold" lengthAdjust="spacing" textLength="17" x="1972" y="1505.145">32</text><text fill="#000000" font-family="sans-serif" font-size="13" lengthAdjust="spacing" textLength="98" x="1993" y="1505.145">generate_key()</text><polygon fill="#454645" points="2257,1548.3438,2267,1552.3438,2257,1556.3438,2261,1552.3438" style="stroke:#454645;stroke-width:1.0;"/><line style="stroke:#454645;stroke-width:1.0;" x1="1965" x2="2263" y1="1552.3438" y2="1552.3438"/><text fill="#000000" font-family="sans-serif" font-size="13" font-weight="bold" lengthAdjust="spacing" textLength="16" x="1972" y="1547.2778">33</text><text fill="#000000" font-family="sans-serif" font-size="13" lengthAdjust="spacing" textLength="260" x="1992" y="1547.2778">register({login,password}, decrypt_key)</text><line style="stroke:#454645;stroke-width:1.0;" x1="1965" x2="2007" y1="1581.4766" y2="1581.4766"/><line style="stroke:#454645;stroke-width:1.0;" x1="2007" x2="2007" y1="1581.4766" y2="1594.4766"/><line style="stroke:#454645;stroke-width:1.0;" x1="1966" x2="2007" y1="1594.4766" y2="1594.4766"/><polygon fill="#454645" points="1976,1590.4766,1966,1594.4766,1976,1598.4766,1972,1594.4766" style="stroke:#454645;stroke-width:1.0;"/><text fill="#000000" font-family="sans-serif" font-size="13" font-weight="bold" lengthAdjust="spacing" textLength="17" x="1972" y="1576.4106">34</text><text fill="#000000" font-family="sans-serif" font-size="13" lengthAdjust="spacing" textLength="173" x="1993" y="1576.4106">connect(login,session_key)</text><line style="stroke:#454645;stroke-width:1.0;" x1="1965" x2="2007" y1="1623.6094" y2="1623.6094"/><line style="stroke:#454645;stroke-width:1.0;" x1="2007" x2="2007" y1="1623.6094" y2="1636.6094"/><line style="stroke:#454645;stroke-width:1.0;" x1="1966" x2="2007" y1="1636.6094" y2="1636.6094"/><polygon fill="#454645" points="1976,1632.6094,1966,1636.6094,1976,1640.6094,1972,1636.6094" style="stroke:#454645;stroke-width:1.0;"/><text fill="#000000" font-family="sans-serif" font-size="13" font-weight="bold" lengthAdjust="spacing" textLength="17" x="1972" y="1618.5435">35</text><text fill="#000000" font-family="sans-serif" font-size="13" lengthAdjust="spacing" textLength="155" x="1993" y="1618.5435">set_status(login,'online')</text><polygon fill="#454645" points="1146,1661.7422,1136,1665.7422,1146,1669.7422,1142,1665.7422" style="stroke:#454645;stroke-width:1.0;"/><line style="stroke:#454645;stroke-width:1.0;stroke-dasharray:2.0,2.0;" x1="1140" x2="1954" y1="1665.7422" y2="1665.7422"/><text fill="#000000" font-family="sans-serif" font-size="13" font-weight="bold" lengthAdjust="spacing" textLength="17" x="1152" y="1660.6763">36</text><text fill="#000000" font-family="sans-serif" font-size="13" lengthAdjust="spacing" textLength="262" x="1173" y="1660.6763">msgsnd({login,password}, decrypt_key)</text><polygon fill="#454645" points="1430,1690.875,1440,1694.875,1430,1698.875,1434,1694.875" style="stroke:#454645;stroke-width:1.0;"/><line style="stroke:#454645;stroke-width:1.0;stroke-dasharray:2.0,2.0;" x1="1135" x2="1436" y1="1694.875" y2="1694.875"/><text fill="#000000" font-family="sans-serif" font-size="13" font-weight="bold" lengthAdjust="spacing" textLength="17" x="1142" y="1689.8091">37</text><text fill="#000000" font-family="sans-serif" font-size="13" lengthAdjust="spacing" textLength="259" x="1163" y="1689.8091">msgrcv({login,password}, decrypt_key)</text><polygon fill="#454645" points="1146,1720.0078,1136,1724.0078,1146,1728.0078,1142,1724.0078" style="stroke:#454645;stroke-width:1.0;"/><line style="stroke:#454645;stroke-width:1.0;stroke-dasharray:2.0,2.0;" x1="1140" x2="1441" y1="1724.0078" y2="1724.0078"/><text fill="#000000" font-family="sans-serif" font-size="13" font-weight="bold" lengthAdjust="spacing" textLength="17" x="1152" y="1718.9419">38</text><text fill="#000000" font-family="sans-serif" font-size="13" lengthAdjust="spacing" textLength="262" x="1173" y="1718.9419">msgsnd({login,password}, decrypt_key)</text><polygon fill="#454645" points="650.5,1749.1406,640.5,1753.1406,650.5,1757.1406,646.5,1753.1406" style="stroke:#454645;stroke-width:1.0;"/><line style="stroke:#454645;stroke-width:1.0;stroke-dasharray:2.0,2.0;" x1="644.5" x2="1124" y1="1753.1406" y2="1753.1406"/><text fill="#000000" font-family="sans-serif" font-size="13" font-weight="bold" lengthAdjust="spacing" textLength="17" x="656.5" y="1748.0747">39</text><text fill="#000000" font-family="sans-serif" font-size="13" lengthAdjust="spacing" textLength="259" x="677.5" y="1748.0747">msgrcv({login,password}, decrypt_key)</text><line style="stroke:#454645;stroke-width:1.0;" x1="639.5" x2="681.5" y1="1782.2734" y2="1782.2734"/><line style="stroke:#454645;stroke-width:1.0;" x1="681.5" x2="681.5" y1="1782.2734" y2="1795.2734"/><line style="stroke:#454645;stroke-width:1.0;" x1="640.5" x2="681.5" y1="1795.2734" y2="1795.2734"/><polygon fill="#454645" points="650.5,1791.2734,640.5,1795.2734,650.5,1799.2734,646.5,1795.2734" style="stroke:#454645;stroke-width:1.0;"/><text fill="#000000" font-family="sans-serif" font-size="13" font-weight="bold" lengthAdjust="spacing" textLength="19" x="646.5" y="1777.2075">40</text><text fill="#000000" font-family="sans-serif" font-size="13" lengthAdjust="spacing" textLength="325" x="669.5" y="1777.2075">check_credentials({login,password}, decrypt_key)</text><path d="M33.5,1810.2734 L96,1810.2734 L96,1817.4063 L86,1827.4063 L30,1827.4063 L30,1813.7734 A3.5,3.5 0 0 1 33.5,1810.2734 " fill="#EEEEEE" style="stroke:#696969;stroke-width:1.5;"/><rect fill="none" height="275.8984" rx="3.5" ry="3.5" style="stroke:#696969;stroke-width:1.0;" width="801.5" x="30" y="1810.2734"/><text fill="#454645" font-family="sans-serif" font-size="13" font-weight="bold" lengthAdjust="spacing" textLength="21" x="45" y="1823.3403">alt</text><text fill="#696969" font-family="sans-serif" font-size="11" font-weight="bold" lengthAdjust="spacing" textLength="134" x="111" y="1822.4839">[Failure credentials]</text><polygon fill="#454645" points="68.5,1844.5391,58.5,1848.5391,68.5,1852.5391,64.5,1848.5391" style="stroke:#454645;stroke-width:1.0;"/><line style="stroke:#454645;stroke-width:1.0;" x1="62.5" x2="628.5" y1="1848.5391" y2="1848.5391"/><text fill="#000000" font-family="sans-serif" font-size="13" font-weight="bold" lengthAdjust="spacing" textLength="18" x="74.5" y="1843.4731">41</text><text fill="#000000" font-family="sans-serif" font-size="13" lengthAdjust="spacing" textLength="196" x="96.5" y="1843.4731">show_message(internal_error)</text><line style="stroke:#696969;stroke-width:1.0;stroke-dasharray:2.0,2.0;" x1="30" x2="831.5" y1="1857.5391" y2="1857.5391"/><text fill="#696969" font-family="sans-serif" font-size="11" font-weight="bold" lengthAdjust="spacing" textLength="157" x="35" y="1867.7495">[Sucessfull credentials]</text><line style="stroke:#454645;stroke-width:1.0;" x1="639.5" x2="681.5" y1="1892.4766" y2="1892.4766"/><line style="stroke:#454645;stroke-width:1.0;" x1="681.5" x2="681.5" y1="1892.4766" y2="1905.4766"/><line style="stroke:#454645;stroke-width:1.0;" x1="640.5" x2="681.5" y1="1905.4766" y2="1905.4766"/><polygon fill="#454645" points="650.5,1901.4766,640.5,1905.4766,650.5,1909.4766,646.5,1905.4766" style="stroke:#454645;stroke-width:1.0;"/><text fill="#000000" font-family="sans-serif" font-size="13" font-weight="bold" lengthAdjust="spacing" textLength="18" x="646.5" y="1887.4106">42</text><text fill="#000000" font-family="sans-serif" font-size="13" lengthAdjust="spacing" textLength="151" x="668.5" y="1887.4106">change_access_rights()</text><polygon fill="#454645" points="408.5,1930.6094,398.5,1934.6094,408.5,1938.6094,404.5,1934.6094" style="stroke:#454645;stroke-width:1.0;"/><line style="stroke:#454645;stroke-width:1.0;" x1="402.5" x2="628.5" y1="1934.6094" y2="1934.6094"/><text fill="#000000" font-family="sans-serif" font-size="13" font-weight="bold" lengthAdjust="spacing" textLength="17" x="414.5" y="1929.5435">43</text><text fill="#000000" font-family="sans-serif" font-size="13" lengthAdjust="spacing" textLength="187" x="435.5" y="1929.5435">create_db(login,decrypt_key)</text><text fill="#454645" font-family="sans-serif" font-size="14" lengthAdjust="spacing" textLength="64" x="327.5" y="1972.4717">ClientDB</text><path d="M344.5,1923.4766 C344.5,1913.4766 362.5,1913.4766 362.5,1913.4766 C362.5,1913.4766 380.5,1913.4766 380.5,1923.4766 L380.5,1949.4766 C380.5,1959.4766 362.5,1959.4766 362.5,1959.4766 C362.5,1959.4766 344.5,1959.4766 344.5,1949.4766 L344.5,1923.4766 " fill="#00FFFF" style="stroke:#454645;stroke-width:1.5;"/><path d="M344.5,1923.4766 C344.5,1933.4766 362.5,1933.4766 362.5,1933.4766 C362.5,1933.4766 380.5,1933.4766 380.5,1923.4766 " fill="none" style="stroke:#454645;stroke-width:1.5;"/><polygon fill="#454645" points="617.5,2002.9063,627.5,2006.9063,617.5,2010.9063,621.5,2006.9063" style="stroke:#454645;stroke-width:1.0;"/><line style="stroke:#454645;stroke-width:1.0;" x1="362.5" x2="623.5" y1="2006.9063" y2="2006.9063"/><text fill="#000000" font-family="sans-serif" font-size="13" font-weight="bold" lengthAdjust="spacing" textLength="18" x="369.5" y="2001.8403">44</text><text fill="#000000" font-family="sans-serif" font-size="13" lengthAdjust="spacing" textLength="186" x="391.5" y="2001.8403">load_data(login,decrypt_key)</text><line style="stroke:#454645;stroke-width:1.0;" x1="639.5" x2="681.5" y1="2036.0391" y2="2036.0391"/><line style="stroke:#454645;stroke-width:1.0;" x1="681.5" x2="681.5" y1="2036.0391" y2="2049.0391"/><line style="stroke:#454645;stroke-width:1.0;" x1="640.5" x2="681.5" y1="2049.0391" y2="2049.0391"/><polygon fill="#454645" points="650.5,2045.0391,640.5,2049.0391,650.5,2053.0391,646.5,2049.0391" style="stroke:#454645;stroke-width:1.0;"/><text fill="#000000" font-family="sans-serif" font-size="13" font-weight="bold" lengthAdjust="spacing" textLength="18" x="646.5" y="2030.9731">45</text><text fill="#000000" font-family="sans-serif" font-size="13" lengthAdjust="spacing" textLength="75" x="668.5" y="2030.9731">start_chat()</text><polygon fill="#454645" points="68.5,2074.1719,58.5,2078.1719,68.5,2082.1719,64.5,2078.1719" style="stroke:#454645;stroke-width:1.0;"/><line style="stroke:#454645;stroke-width:1.0;" x1="62.5" x2="628.5" y1="2078.1719" y2="2078.1719"/><text fill="#000000" font-family="sans-serif" font-size="13" font-weight="bold" lengthAdjust="spacing" textLength="18" x="74.5" y="2073.106">46</text><text fill="#000000" font-family="sans-serif" font-size="13" lengthAdjust="spacing" textLength="79" x="96.5" y="2073.106">show_chat()</text><!--SRC=[jLTBRziu4BxhLqnxiGsuJT9sByQcG9jsWHmAzBLdWPR6CX6PL4dAMRVeVozVegY7PHMB-f08v7mpmszcFafFr1uF24Uw5OGfs0b-WBrIbTnSNGdo-BoWQbzlQuaYuqmXKyypVhYgIcrS7yhsuK2aGd5blSaa8PdY0jxoBH09_seqS97hlpT9JXJP4edm1SKHnRktnY8yEwkNrzf3hJYh3riKIN9xwotWdb55IKc_4qKvWzlRPD5iqSvMaWaagedY_RxuAmcH_dxscZUx6oWvoTDykroPpEcnHJP-ljLODskVxBDt-SgxXDQVsz_0GHO5gkL2sjN56ku_tgLtdz-_-Je8Oo7se7SbrIoF7jHlZH_KRte24ylvizVDyWO45jIKQ5doWh9rHQHyrCPhWStZAe3i_mraUymUqZd0S1eNhakQMuj9UvNuj4A2FSeokvW-u6cSj0WKkPfaNwDB1VyGMjO2GJSpmynIgpWuamJqh-IyWfjhKDJqCVZVx1Z665bk_qVnHXnvZfystIk1SQMh92lESigAfm6pmF-e0b9LpdjfPgVEKCfTNPRdJnA76qjSiZpYkKrzTe3VSMuS-pcMiZ-v0ZEaHvJW4A0HG5WEhekaZcanII5uNS6TwwrcqMGIXs_JSPc8x3WuPc-chQFEK5z7RbtL8vjGTf_2e4rjyTlvRg5ny8O87_5cFA8EjkFYOJdkr6ESvPmqLtt4XUdhsOy1JAKx4KofWrQ5qdgJK5kfY53jibaIUE1H5toBfhijRT0pNzfEw7XCBp8n9GSjkvVrO1RbVrWJPenjUwG9xSrKET3Upn_ktxb3v2YLuAUE-YP3AUWJOZhaH_Vo-Dbfh7XmcwxtvHtYB701T0UeEJgflUR5CCKVGBzyC7rf4LQW7XN310XQx7MRsOxJBFKKB6xiKGaxb_Qqt4oXz7j7-xRJNB5Q4dBDdxxKfRjbLw5PR4leOalLTj-KBfciTxh1rg3xLP82Ln7i4jlJmFyVi3-yPt23WP1x_fXwisN7t7QzjSevkd6nPFbUS59htbv7oVDbAv2Xq8QcvvUhivQsOE5jg5_ajHwFJ9ogI3VFXFEJwT-d1b9n1YLHfLeqLUrRPBtWhAGC5qFKx2ayc_FlZkMqep-GKR-JPlhfIz_e1CxqrRa_MdZOlzp9L7zG2KRA58NWOjL1BWGgSGARIjWOQFp5iD4nZIocJXPJ9ulBRaW_BU43pM73HzcBoH1EpQm7yntbA1pbBK9hBOpGxXjCHv-9ZezdNoTIVKYrNCseGC-mkPtjFShoNm00]--></g></svg>