<?xml version="1.0" encoding="UTF-8" standalone="no"?><svg xmlns="http://www.w3.org/2000/svg" xmlns:xlink="http://www.w3.org/1999/xlink" contentStyleType="text/css" height="1038px" preserveAspectRatio="none" style="width:1641px;height:1038px;background:#FFFFFF;" version="1.1" viewBox="0 0 1641 1038" width="1641px" zoomAndPan="magnify"><defs/><g><rect fill="none" height="783.7969" rx="3.5" ry="3.5" style="stroke:#696969;stroke-width:1.0;" width="1624" x="10" y="156.5625"/><rect fill="none" height="550.0625" rx="3.5" ry="3.5" style="stroke:#696969;stroke-width:1.0;" width="1604" x="20" y="383.2969"/><line style="stroke:#696969;stroke-width:0.5;stroke-dasharray:5.0,5.0;" x1="47" x2="47" y1="81.2969" y2="957.3594"/><line style="stroke:#696969;stroke-width:0.5;stroke-dasharray:5.0,5.0;" x1="110" x2="110" y1="81.2969" y2="957.3594"/><line style="stroke:#696969;stroke-width:0.5;stroke-dasharray:5.0,5.0;" x1="319.5" x2="319.5" y1="81.2969" y2="957.3594"/><line style="stroke:#696969;stroke-width:0.5;stroke-dasharray:5.0,5.0;" x1="578.5" x2="578.5" y1="81.2969" y2="957.3594"/><line style="stroke:#696969;stroke-width:0.5;stroke-dasharray:5.0,5.0;" x1="791" x2="791" y1="81.2969" y2="957.3594"/><line style="stroke:#696969;stroke-width:0.5;stroke-dasharray:5.0,5.0;" x1="1050" x2="1050" y1="81.2969" y2="957.3594"/><line style="stroke:#696969;stroke-width:0.5;stroke-dasharray:5.0,5.0;" x1="1308.5" x2="1308.5" y1="81.2969" y2="957.3594"/><line style="stroke:#696969;stroke-width:0.5;stroke-dasharray:5.0,5.0;" x1="1577" x2="1577" y1="81.2969" y2="957.3594"/><text fill="#454645" font-family="sans-serif" font-size="14" lengthAdjust="spacing" textLength="29" x="30" y="77.9951">Bob</text><ellipse cx="47.5" cy="13.5" fill="#454645" rx="8" ry="8" style="stroke:#454645;stroke-width:0.5;"/><path d="M47.5,21.5 L47.5,48.5 M34.5,29.5 L60.5,29.5 M47.5,48.5 L34.5,63.5 M47.5,48.5 L60.5,63.5 " fill="none" style="stroke:#454645;stroke-width:0.5;"/><text fill="#454645" font-family="sans-serif" font-size="14" lengthAdjust="spacing" textLength="29" x="30" y="969.3545">Bob</text><ellipse cx="47.5" cy="981.1563" fill="#454645" rx="8" ry="8" style="stroke:#454645;stroke-width:0.5;"/><path d="M47.5,989.1563 L47.5,1016.1563 M34.5,997.1563 L60.5,997.1563 M47.5,1016.1563 L34.5,1031.1563 M47.5,1016.1563 L60.5,1031.1563 " fill="none" style="stroke:#454645;stroke-width:0.5;"/><text fill="#454645" font-family="sans-serif" font-size="14" lengthAdjust="spacing" textLength="64" x="75" y="77.9951">ClientDB</text><path d="M92,29 C92,19 110,19 110,19 C110,19 128,19 128,29 L128,55 C128,65 110,65 110,65 C110,65 92,65 92,55 L92,29 " fill="#00FFFF" style="stroke:#454645;stroke-width:1.5;"/><path d="M92,29 C92,39 110,39 110,39 C110,39 128,39 128,29 " fill="none" style="stroke:#454645;stroke-width:1.5;"/><text fill="#454645" font-family="sans-serif" font-size="14" lengthAdjust="spacing" textLength="64" x="75" y="969.3545">ClientDB</text><path d="M92,982.6563 C92,972.6563 110,972.6563 110,972.6563 C110,972.6563 128,972.6563 128,982.6563 L128,1008.6563 C128,1018.6563 110,1018.6563 110,1018.6563 C110,1018.6563 92,1018.6563 92,1008.6563 L92,982.6563 " fill="#00FFFF" style="stroke:#454645;stroke-width:1.5;"/><path d="M92,982.6563 C92,992.6563 110,992.6563 110,992.6563 C110,992.6563 128,992.6563 128,982.6563 " fill="none" style="stroke:#454645;stroke-width:1.5;"/><rect fill="#FF6347" height="30.2969" rx="3.5" ry="3.5" style="stroke:#454645;stroke-width:1.5;" width="57" x="291.5" y="50"/><text fill="#FFFFFF" font-family="sans-serif" font-size="14" lengthAdjust="spacing" textLength="43" x="298.5" y="69.9951">Client</text><rect fill="#FF6347" height="30.2969" rx="3.5" ry="3.5" style="stroke:#454645;stroke-width:1.5;" width="57" x="291.5" y="956.3594"/><text fill="#FFFFFF" font-family="sans-serif" font-size="14" lengthAdjust="spacing" textLength="43" x="298.5" y="976.3545">Client</text><path d="M524.5,55 L633.5,55 C638.5,55 638.5,68.1484 638.5,68.1484 C638.5,68.1484 638.5,81.2969 633.5,81.2969 L524.5,81.2969 C519.5,81.2969 519.5,68.1484 519.5,68.1484 C519.5,68.1484 519.5,55 524.5,55 " fill="#FF6347" style="stroke:#454645;stroke-width:1.5;"/><path d="M633.5,55 C628.5,55 628.5,68.1484 628.5,68.1484 C628.5,81.2969 633.5,81.2969 633.5,81.2969 " fill="none" style="stroke:#454645;stroke-width:1.5;"/><text fill="#FFFFFF" font-family="sans-serif" font-size="14" lengthAdjust="spacing" textLength="99" x="524.5" y="72.9951">SessionQueue</text><path d="M524.5,956.3594 L633.5,956.3594 C638.5,956.3594 638.5,969.5078 638.5,969.5078 C638.5,969.5078 638.5,982.6563 633.5,982.6563 L524.5,982.6563 C519.5,982.6563 519.5,969.5078 519.5,969.5078 C519.5,969.5078 519.5,956.3594 524.5,956.3594 " fill="#FF6347" style="stroke:#454645;stroke-width:1.5;"/><path d="M633.5,956.3594 C628.5,956.3594 628.5,969.5078 628.5,969.5078 C628.5,982.6563 633.5,982.6563 633.5,982.6563 " fill="none" style="stroke:#454645;stroke-width:1.5;"/><text fill="#FFFFFF" font-family="sans-serif" font-size="14" lengthAdjust="spacing" textLength="99" x="524.5" y="974.3545">SessionQueue</text><rect fill="#FF6347" height="30.2969" rx="3.5" ry="3.5" style="stroke:#454645;stroke-width:1.5;" width="68" x="757" y="50"/><text fill="#FFFFFF" font-family="sans-serif" font-size="14" lengthAdjust="spacing" textLength="54" x="764" y="69.9951">Session</text><rect fill="#FF6347" height="30.2969" rx="3.5" ry="3.5" style="stroke:#454645;stroke-width:1.5;" width="68" x="757" y="956.3594"/><text fill="#FFFFFF" font-family="sans-serif" font-size="14" lengthAdjust="spacing" textLength="54" x="764" y="976.3545">Session</text><path d="M999,55 L1101,55 C1106,55 1106,68.1484 1106,68.1484 C1106,68.1484 1106,81.2969 1101,81.2969 L999,81.2969 C994,81.2969 994,68.1484 994,68.1484 C994,68.1484 994,55 999,55 " fill="#FF6347" style="stroke:#454645;stroke-width:1.5;"/><path d="M1101,55 C1096,55 1096,68.1484 1096,68.1484 C1096,81.2969 1101,81.2969 1101,81.2969 " fill="none" style="stroke:#454645;stroke-width:1.5;"/><text fill="#FFFFFF" font-family="sans-serif" font-size="14" lengthAdjust="spacing" textLength="92" x="999" y="72.9951">ServerQueue</text><path d="M999,956.3594 L1101,956.3594 C1106,956.3594 1106,969.5078 1106,969.5078 C1106,969.5078 1106,982.6563 1101,982.6563 L999,982.6563 C994,982.6563 994,969.5078 994,969.5078 C994,969.5078 994,956.3594 999,956.3594 " fill="#FF6347" style="stroke:#454645;stroke-width:1.5;"/><path d="M1101,956.3594 C1096,956.3594 1096,969.5078 1096,969.5078 C1096,982.6563 1101,982.6563 1101,982.6563 " fill="none" style="stroke:#454645;stroke-width:1.5;"/><text fill="#FFFFFF" font-family="sans-serif" font-size="14" lengthAdjust="spacing" textLength="92" x="999" y="974.3545">ServerQueue</text><rect fill="#FF6347" height="30.2969" rx="3.5" ry="3.5" style="stroke:#454645;stroke-width:1.5;" width="61" x="1278.5" y="50"/><text fill="#FFFFFF" font-family="sans-serif" font-size="14" lengthAdjust="spacing" textLength="47" x="1285.5" y="69.9951">Server</text><rect fill="#FF6347" height="30.2969" rx="3.5" ry="3.5" style="stroke:#454645;stroke-width:1.5;" width="61" x="1278.5" y="956.3594"/><text fill="#FFFFFF" font-family="sans-serif" font-size="14" lengthAdjust="spacing" textLength="47" x="1285.5" y="976.3545">Server</text><text fill="#454645" font-family="sans-serif" font-size="14" lengthAdjust="spacing" textLength="68" x="1540" y="77.9951">ServerDB</text><path d="M1559,29 C1559,19 1577,19 1577,19 C1577,19 1595,19 1595,29 L1595,55 C1595,65 1577,65 1577,65 C1577,65 1559,65 1559,55 L1559,29 " fill="#00FFFF" style="stroke:#454645;stroke-width:1.5;"/><path d="M1559,29 C1559,39 1577,39 1577,39 C1577,39 1595,39 1595,29 " fill="none" style="stroke:#454645;stroke-width:1.5;"/><text fill="#454645" font-family="sans-serif" font-size="14" lengthAdjust="spacing" textLength="68" x="1540" y="969.3545">ServerDB</text><path d="M1559,982.6563 C1559,972.6563 1577,972.6563 1577,972.6563 C1577,972.6563 1595,972.6563 1595,982.6563 L1595,1008.6563 C1595,1018.6563 1577,1018.6563 1577,1018.6563 C1577,1018.6563 1559,1018.6563 1559,1008.6563 L1559,982.6563 " fill="#00FFFF" style="stroke:#454645;stroke-width:1.5;"/><path d="M1559,982.6563 C1559,992.6563 1577,992.6563 1577,992.6563 C1577,992.6563 1595,992.6563 1595,982.6563 " fill="none" style="stroke:#454645;stroke-width:1.5;"/><polygon fill="#454645" points="308,108.4297,318,112.4297,308,116.4297,312,112.4297" style="stroke:#454645;stroke-width:1.0;"/><line style="stroke:#454645;stroke-width:1.0;" x1="47.5" x2="314" y1="112.4297" y2="112.4297"/><text fill="#000000" font-family="sans-serif" font-size="13" font-weight="bold" lengthAdjust="spacing" textLength="9" x="54.5" y="107.3638">1</text><text fill="#000000" font-family="sans-serif" font-size="13" lengthAdjust="spacing" textLength="165" x="67.5" y="107.3638">removeFriend(Username)</text><polygon fill="#454645" points="121,137.5625,111,141.5625,121,145.5625,117,141.5625" style="stroke:#454645;stroke-width:1.0;"/><line style="stroke:#454645;stroke-width:1.0;" x1="115" x2="319" y1="141.5625" y2="141.5625"/><text fill="#000000" font-family="sans-serif" font-size="13" font-weight="bold" lengthAdjust="spacing" textLength="9" x="127" y="136.4966">2</text><text fill="#000000" font-family="sans-serif" font-size="13" lengthAdjust="spacing" textLength="152" x="140" y="136.4966">checkFriend(Username)</text><path d="M13.5,156.5625 L76,156.5625 L76,163.6953 L66,173.6953 L10,173.6953 L10,160.0625 A3.5,3.5 0 0 1 13.5,156.5625 " fill="#EEEEEE" style="stroke:#696969;stroke-width:1.5;"/><rect fill="none" height="783.7969" rx="3.5" ry="3.5" style="stroke:#696969;stroke-width:1.0;" width="1624" x="10" y="156.5625"/><text fill="#454645" font-family="sans-serif" font-size="13" font-weight="bold" lengthAdjust="spacing" textLength="21" x="25" y="169.6294">alt</text><text fill="#696969" font-family="sans-serif" font-size="11" font-weight="bold" lengthAdjust="spacing" textLength="141" x="91" y="168.7729">[You are not friends]</text><polygon fill="#454645" points="58.5,190.8281,48.5,194.8281,58.5,198.8281,54.5,194.8281" style="stroke:#454645;stroke-width:1.0;"/><line style="stroke:#454645;stroke-width:1.0;" x1="52.5" x2="319" y1="194.8281" y2="194.8281"/><text fill="#000000" font-family="sans-serif" font-size="13" font-weight="bold" lengthAdjust="spacing" textLength="8" x="64.5" y="189.7622">3</text><text fill="#000000" font-family="sans-serif" font-size="13" lengthAdjust="spacing" textLength="122" x="76.5" y="189.7622">You are not friends</text><line style="stroke:#696969;stroke-width:1.0;stroke-dasharray:2.0,2.0;" x1="10" x2="1634" y1="203.8281" y2="203.8281"/><text fill="#696969" font-family="sans-serif" font-size="11" font-weight="bold" lengthAdjust="spacing" textLength="113" x="15" y="214.0386">[You are friends]</text><polygon fill="#454645" points="567,234.7656,577,238.7656,567,242.7656,571,238.7656" style="stroke:#454645;stroke-width:1.0;"/><line style="stroke:#454645;stroke-width:1.0;" x1="320" x2="573" y1="238.7656" y2="238.7656"/><text fill="#000000" font-family="sans-serif" font-size="13" font-weight="bold" lengthAdjust="spacing" textLength="9" x="327" y="233.6997">4</text><text fill="#000000" font-family="sans-serif" font-size="13" lengthAdjust="spacing" textLength="222" x="340" y="233.6997">removeFriend(Username, ClientID)</text><line style="stroke:#454645;stroke-width:1.0;" x1="791" x2="833" y1="267.8984" y2="267.8984"/><line style="stroke:#454645;stroke-width:1.0;" x1="833" x2="833" y1="267.8984" y2="280.8984"/><line style="stroke:#454645;stroke-width:1.0;" x1="792" x2="833" y1="280.8984" y2="280.8984"/><polygon fill="#454645" points="802,276.8984,792,280.8984,802,284.8984,798,280.8984" style="stroke:#454645;stroke-width:1.0;"/><text fill="#000000" font-family="sans-serif" font-size="13" font-weight="bold" lengthAdjust="spacing" textLength="9" x="798" y="262.8325">5</text><text fill="#000000" font-family="sans-serif" font-size="13" lengthAdjust="spacing" textLength="222" x="811" y="262.8325">removeFriend(Username, ClientID)</text><polygon fill="#454645" points="1038,306.0313,1048,310.0313,1038,314.0313,1042,310.0313" style="stroke:#454645;stroke-width:1.0;"/><line style="stroke:#454645;stroke-width:1.0;" x1="791" x2="1044" y1="310.0313" y2="310.0313"/><text fill="#000000" font-family="sans-serif" font-size="13" font-weight="bold" lengthAdjust="spacing" textLength="9" x="798" y="304.9653">6</text><text fill="#000000" font-family="sans-serif" font-size="13" lengthAdjust="spacing" textLength="222" x="811" y="304.9653">removeFriend(Username, ClientID)</text><polygon fill="#454645" points="1297,335.1641,1307,339.1641,1297,343.1641,1301,339.1641" style="stroke:#454645;stroke-width:1.0;"/><line style="stroke:#454645;stroke-width:1.0;" x1="1050" x2="1303" y1="339.1641" y2="339.1641"/><text fill="#000000" font-family="sans-serif" font-size="13" font-weight="bold" lengthAdjust="spacing" textLength="9" x="1057" y="334.0981">7</text><text fill="#000000" font-family="sans-serif" font-size="13" lengthAdjust="spacing" textLength="222" x="1070" y="334.0981">removeFriend(Username, ClientID)</text><polygon fill="#454645" points="1565,364.2969,1575,368.2969,1565,372.2969,1569,368.2969" style="stroke:#454645;stroke-width:1.0;"/><line style="stroke:#454645;stroke-width:1.0;" x1="1309" x2="1571" y1="368.2969" y2="368.2969"/><text fill="#000000" font-family="sans-serif" font-size="13" font-weight="bold" lengthAdjust="spacing" textLength="9" x="1316" y="363.231">8</text><text fill="#000000" font-family="sans-serif" font-size="13" lengthAdjust="spacing" textLength="209" x="1329" y="363.231">checkFriend(Username, ClientID)</text><path d="M23.5,383.2969 L86,383.2969 L86,390.4297 L76,400.4297 L20,400.4297 L20,386.7969 A3.5,3.5 0 0 1 23.5,383.2969 " fill="#EEEEEE" style="stroke:#696969;stroke-width:1.5;"/><rect fill="none" height="550.0625" rx="3.5" ry="3.5" style="stroke:#696969;stroke-width:1.0;" width="1604" x="20" y="383.2969"/><text fill="#454645" font-family="sans-serif" font-size="13" font-weight="bold" lengthAdjust="spacing" textLength="21" x="35" y="396.3638">alt</text><text fill="#696969" font-family="sans-serif" font-size="11" font-weight="bold" lengthAdjust="spacing" textLength="141" x="101" y="395.5073">[You are not friends]</text><polygon fill="#454645" points="590,417.5625,580,421.5625,590,425.5625,586,421.5625" style="stroke:#454645;stroke-width:1.0;"/><line style="stroke:#454645;stroke-width:1.0;" x1="584" x2="1308" y1="421.5625" y2="421.5625"/><text fill="#000000" font-family="sans-serif" font-size="13" font-weight="bold" lengthAdjust="spacing" textLength="9" x="596" y="416.4966">9</text><text fill="#000000" font-family="sans-serif" font-size="13" lengthAdjust="spacing" textLength="130" x="609" y="416.4966">removeFriend(Error)</text><polygon fill="#454645" points="779,446.6953,789,450.6953,779,454.6953,783,450.6953" style="stroke:#454645;stroke-width:1.0;"/><line style="stroke:#454645;stroke-width:1.0;" x1="579" x2="785" y1="450.6953" y2="450.6953"/><text fill="#000000" font-family="sans-serif" font-size="13" font-weight="bold" lengthAdjust="spacing" textLength="19" x="586" y="445.6294">10</text><text fill="#000000" font-family="sans-serif" font-size="13" lengthAdjust="spacing" textLength="130" x="609" y="445.6294">removeFriend(Error)</text><line style="stroke:#454645;stroke-width:1.0;" x1="791" x2="833" y1="479.8281" y2="479.8281"/><line style="stroke:#454645;stroke-width:1.0;" x1="833" x2="833" y1="479.8281" y2="492.8281"/><line style="stroke:#454645;stroke-width:1.0;" x1="792" x2="833" y1="492.8281" y2="492.8281"/><polygon fill="#454645" points="802,488.8281,792,492.8281,802,496.8281,798,492.8281" style="stroke:#454645;stroke-width:1.0;"/><text fill="#000000" font-family="sans-serif" font-size="13" font-weight="bold" lengthAdjust="spacing" textLength="18" x="798" y="474.7622">11</text><text fill="#000000" font-family="sans-serif" font-size="13" lengthAdjust="spacing" textLength="167" x="820" y="474.7622">change msg access rights</text><polygon fill="#454645" points="590,517.9609,580,521.9609,590,525.9609,586,521.9609" style="stroke:#454645;stroke-width:1.0;"/><line style="stroke:#454645;stroke-width:1.0;" x1="584" x2="790" y1="521.9609" y2="521.9609"/><text fill="#000000" font-family="sans-serif" font-size="13" font-weight="bold" lengthAdjust="spacing" textLength="18" x="596" y="516.895">12</text><text fill="#000000" font-family="sans-serif" font-size="13" lengthAdjust="spacing" textLength="130" x="618" y="516.895">removeFriend(Error)</text><polygon fill="#454645" points="331,547.0938,321,551.0938,331,555.0938,327,551.0938" style="stroke:#454645;stroke-width:1.0;"/><line style="stroke:#454645;stroke-width:1.0;" x1="325" x2="578" y1="551.0938" y2="551.0938"/><text fill="#000000" font-family="sans-serif" font-size="13" font-weight="bold" lengthAdjust="spacing" textLength="17" x="337" y="546.0278">13</text><text fill="#000000" font-family="sans-serif" font-size="13" lengthAdjust="spacing" textLength="130" x="358" y="546.0278">removeFriend(Error)</text><line style="stroke:#454645;stroke-width:1.0;" x1="320" x2="362" y1="580.2266" y2="580.2266"/><line style="stroke:#454645;stroke-width:1.0;" x1="362" x2="362" y1="580.2266" y2="593.2266"/><line style="stroke:#454645;stroke-width:1.0;" x1="321" x2="362" y1="593.2266" y2="593.2266"/><polygon fill="#454645" points="331,589.2266,321,593.2266,331,597.2266,327,593.2266" style="stroke:#454645;stroke-width:1.0;"/><text fill="#000000" font-family="sans-serif" font-size="13" font-weight="bold" lengthAdjust="spacing" textLength="18" x="327" y="575.1606">14</text><text fill="#000000" font-family="sans-serif" font-size="13" lengthAdjust="spacing" textLength="130" x="349" y="575.1606">removeFriend(Error)</text><polygon fill="#454645" points="58.5,618.3594,48.5,622.3594,58.5,626.3594,54.5,622.3594" style="stroke:#454645;stroke-width:1.0;"/><line style="stroke:#454645;stroke-width:1.0;" x1="52.5" x2="319" y1="622.3594" y2="622.3594"/><text fill="#000000" font-family="sans-serif" font-size="13" font-weight="bold" lengthAdjust="spacing" textLength="18" x="64.5" y="617.2935">15</text><text fill="#000000" font-family="sans-serif" font-size="13" lengthAdjust="spacing" textLength="213" x="86.5" y="617.2935">You are not friends (Server Error)</text><line style="stroke:#696969;stroke-width:1.0;stroke-dasharray:2.0,2.0;" x1="20" x2="1624" y1="631.3594" y2="631.3594"/><text fill="#696969" font-family="sans-serif" font-size="11" font-weight="bold" lengthAdjust="spacing" textLength="113" x="25" y="641.5698">[You are friends]</text><polygon fill="#454645" points="1565,662.2969,1575,666.2969,1565,670.2969,1569,666.2969" style="stroke:#454645;stroke-width:1.0;"/><line style="stroke:#454645;stroke-width:1.0;" x1="1309" x2="1571" y1="666.2969" y2="666.2969"/><text fill="#000000" font-family="sans-serif" font-size="13" font-weight="bold" lengthAdjust="spacing" textLength="18" x="1316" y="661.231">16</text><text fill="#000000" font-family="sans-serif" font-size="13" lengthAdjust="spacing" textLength="222" x="1338" y="661.231">removeFriend(Username, ClientID)</text><polygon fill="#454645" points="590,691.4297,580,695.4297,590,699.4297,586,695.4297" style="stroke:#454645;stroke-width:1.0;"/><line style="stroke:#454645;stroke-width:1.0;" x1="584" x2="1308" y1="695.4297" y2="695.4297"/><text fill="#000000" font-family="sans-serif" font-size="13" font-weight="bold" lengthAdjust="spacing" textLength="18" x="596" y="690.3638">17</text><text fill="#000000" font-family="sans-serif" font-size="13" lengthAdjust="spacing" textLength="165" x="618" y="690.3638">removeFriend(Username)</text><polygon fill="#454645" points="779,720.5625,789,724.5625,779,728.5625,783,724.5625" style="stroke:#454645;stroke-width:1.0;"/><line style="stroke:#454645;stroke-width:1.0;" x1="579" x2="785" y1="724.5625" y2="724.5625"/><text fill="#000000" font-family="sans-serif" font-size="13" font-weight="bold" lengthAdjust="spacing" textLength="18" x="586" y="719.4966">18</text><text fill="#000000" font-family="sans-serif" font-size="13" lengthAdjust="spacing" textLength="165" x="608" y="719.4966">removeFriend(Username)</text><line style="stroke:#454645;stroke-width:1.0;" x1="791" x2="833" y1="753.6953" y2="753.6953"/><line style="stroke:#454645;stroke-width:1.0;" x1="833" x2="833" y1="753.6953" y2="766.6953"/><line style="stroke:#454645;stroke-width:1.0;" x1="792" x2="833" y1="766.6953" y2="766.6953"/><polygon fill="#454645" points="802,762.6953,792,766.6953,802,770.6953,798,766.6953" style="stroke:#454645;stroke-width:1.0;"/><text fill="#000000" font-family="sans-serif" font-size="13" font-weight="bold" lengthAdjust="spacing" textLength="18" x="798" y="748.6294">19</text><text fill="#000000" font-family="sans-serif" font-size="13" lengthAdjust="spacing" textLength="167" x="820" y="748.6294">change msg access rights</text><polygon fill="#454645" points="590,791.8281,580,795.8281,590,799.8281,586,795.8281" style="stroke:#454645;stroke-width:1.0;"/><line style="stroke:#454645;stroke-width:1.0;" x1="584" x2="790" y1="795.8281" y2="795.8281"/><text fill="#000000" font-family="sans-serif" font-size="13" font-weight="bold" lengthAdjust="spacing" textLength="19" x="596" y="790.7622">20</text><text fill="#000000" font-family="sans-serif" font-size="13" lengthAdjust="spacing" textLength="165" x="619" y="790.7622">removeFriend(Username)</text><polygon fill="#454645" points="331,820.9609,321,824.9609,331,828.9609,327,824.9609" style="stroke:#454645;stroke-width:1.0;"/><line style="stroke:#454645;stroke-width:1.0;" x1="325" x2="578" y1="824.9609" y2="824.9609"/><text fill="#000000" font-family="sans-serif" font-size="13" font-weight="bold" lengthAdjust="spacing" textLength="18" x="337" y="819.895">21</text><text fill="#000000" font-family="sans-serif" font-size="13" lengthAdjust="spacing" textLength="165" x="359" y="819.895">removeFriend(Username)</text><line style="stroke:#454645;stroke-width:1.0;" x1="320" x2="362" y1="854.0938" y2="854.0938"/><line style="stroke:#454645;stroke-width:1.0;" x1="362" x2="362" y1="854.0938" y2="867.0938"/><line style="stroke:#454645;stroke-width:1.0;" x1="321" x2="362" y1="867.0938" y2="867.0938"/><polygon fill="#454645" points="331,863.0938,321,867.0938,331,871.0938,327,867.0938" style="stroke:#454645;stroke-width:1.0;"/><text fill="#000000" font-family="sans-serif" font-size="13" font-weight="bold" lengthAdjust="spacing" textLength="18" x="327" y="849.0278">22</text><text fill="#000000" font-family="sans-serif" font-size="13" lengthAdjust="spacing" textLength="165" x="349" y="849.0278">removeFriend(Username)</text><polygon fill="#454645" points="121,892.2266,111,896.2266,121,900.2266,117,896.2266" style="stroke:#454645;stroke-width:1.0;"/><line style="stroke:#454645;stroke-width:1.0;" x1="115" x2="319" y1="896.2266" y2="896.2266"/><text fill="#000000" font-family="sans-serif" font-size="13" font-weight="bold" lengthAdjust="spacing" textLength="17" x="127" y="891.1606">23</text><text fill="#000000" font-family="sans-serif" font-size="13" lengthAdjust="spacing" textLength="165" x="148" y="891.1606">removeFriend(Username)</text><polygon fill="#454645" points="58.5,921.3594,48.5,925.3594,58.5,929.3594,54.5,925.3594" style="stroke:#454645;stroke-width:1.0;"/><line style="stroke:#454645;stroke-width:1.0;" x1="52.5" x2="319" y1="925.3594" y2="925.3594"/><text fill="#000000" font-family="sans-serif" font-size="13" font-weight="bold" lengthAdjust="spacing" textLength="18" x="64.5" y="920.2935">24</text><text fill="#000000" font-family="sans-serif" font-size="13" lengthAdjust="spacing" textLength="183" x="86.5" y="920.2935">Friend removed successfully</text><!--SRC=[jPDDJyCm38Rl-HNcjacmtYV4OGmaZWXnu9YcNblH9CL9XlZtf1zhkwxPgY4gLMhYzx6jr-wDpL0YxFEOkBAm8oqXixOqwoWY_hrASvkvs1aaePL5PLT2owWilDZ9el-Gt5YagCvc66DSM4smqJ5m0-yUPmctFEO6uR78VPxjXfMSR2xoiYhSNB8lXmxX3Ot9jNgj3aUgGwJJqHxfLDRSznMRiw_8kBDQEHdxAAkwWhk7jZIiWL3gFJwJFoQBAggun2Lhuvrok_5QaQ7uF97omiA7Ti09GUdApafW6FYdJrCNNayAiV3j7WBJzD2SKDEthVvbkwpfbXdWLv6Ts_Ff2e7xkp_0NUMWxsFmt1J6YSDUFX5fMWwWWJJiupHr38YCgnH1cXIu4FuQA4ypQyvGrtGulTSZQBpSi-NX9OP5Q_203UvrSD2pLcJ-DFj_T6nolPpNWFyoqs2v2sCzvIvDzZ8HdiEPXMYKBPQ0SRKRErSKFyqcg8JvznS0]--></g></svg>