<?xml version="1.0" encoding="UTF-8" standalone="no"?><svg xmlns="http://www.w3.org/2000/svg" xmlns:xlink="http://www.w3.org/1999/xlink" contentStyleType="text/css" height="1109px" preserveAspectRatio="none" style="width:2130px;height:1109px;background:#FFFFFF;" version="1.1" viewBox="0 0 2130 1109" width="2130px" zoomAndPan="magnify"><defs/><g><rect fill="none" height="855.0625" rx="3.5" ry="3.5" style="stroke:#696969;stroke-width:1.0;" width="2113" x="10" y="156.5625"/><rect fill="none" height="592.1953" rx="3.5" ry="3.5" style="stroke:#696969;stroke-width:1.0;" width="2093" x="20" y="412.4297"/><line style="stroke:#696969;stroke-width:0.5;stroke-dasharray:5.0,5.0;" x1="47" x2="47" y1="81.2969" y2="1028.625"/><line style="stroke:#696969;stroke-width:0.5;stroke-dasharray:5.0,5.0;" x1="110" x2="110" y1="81.2969" y2="1028.625"/><line style="stroke:#696969;stroke-width:0.5;stroke-dasharray:5.0,5.0;" x1="438.5" x2="438.5" y1="81.2969" y2="1028.625"/><line style="stroke:#696969;stroke-width:0.5;stroke-dasharray:5.0,5.0;" x1="766.5" x2="766.5" y1="81.2969" y2="1028.625"/><line style="stroke:#696969;stroke-width:0.5;stroke-dasharray:5.0,5.0;" x1="1097" x2="1097" y1="81.2969" y2="1028.625"/><line style="stroke:#696969;stroke-width:0.5;stroke-dasharray:5.0,5.0;" x1="1417" x2="1417" y1="81.2969" y2="1028.625"/><line style="stroke:#696969;stroke-width:0.5;stroke-dasharray:5.0,5.0;" x1="1736.5" x2="1736.5" y1="81.2969" y2="1028.625"/><line style="stroke:#696969;stroke-width:0.5;stroke-dasharray:5.0,5.0;" x1="2066" x2="2066" y1="81.2969" y2="1028.625"/><text fill="#454645" font-family="sans-serif" font-size="14" lengthAdjust="spacing" textLength="29" x="30" y="77.9951">Bob</text><ellipse cx="47.5" cy="13.5" fill="#454645" rx="8" ry="8" style="stroke:#454645;stroke-width:0.5;"/><path d="M47.5,21.5 L47.5,48.5 M34.5,29.5 L60.5,29.5 M47.5,48.5 L34.5,63.5 M47.5,48.5 L60.5,63.5 " fill="none" style="stroke:#454645;stroke-width:0.5;"/><text fill="#454645" font-family="sans-serif" font-size="14" lengthAdjust="spacing" textLength="29" x="30" y="1040.6201">Bob</text><ellipse cx="47.5" cy="1052.4219" fill="#454645" rx="8" ry="8" style="stroke:#454645;stroke-width:0.5;"/><path d="M47.5,1060.4219 L47.5,1087.4219 M34.5,1068.4219 L60.5,1068.4219 M47.5,1087.4219 L34.5,1102.4219 M47.5,1087.4219 L60.5,1102.4219 " fill="none" style="stroke:#454645;stroke-width:0.5;"/><text fill="#454645" font-family="sans-serif" font-size="14" lengthAdjust="spacing" textLength="64" x="75" y="77.9951">ClientDB</text><path d="M92,29 C92,19 110,19 110,19 C110,19 128,19 128,29 L128,55 C128,65 110,65 110,65 C110,65 92,65 92,55 L92,29 " fill="#00FFFF" style="stroke:#454645;stroke-width:1.5;"/><path d="M92,29 C92,39 110,39 110,39 C110,39 128,39 128,29 " fill="none" style="stroke:#454645;stroke-width:1.5;"/><text fill="#454645" font-family="sans-serif" font-size="14" lengthAdjust="spacing" textLength="64" x="75" y="1040.6201">ClientDB</text><path d="M92,1053.9219 C92,1043.9219 110,1043.9219 110,1043.9219 C110,1043.9219 128,1043.9219 128,1053.9219 L128,1079.9219 C128,1089.9219 110,1089.9219 110,1089.9219 C110,1089.9219 92,1089.9219 92,1079.9219 L92,1053.9219 " fill="#00FFFF" style="stroke:#454645;stroke-width:1.5;"/><path d="M92,1053.9219 C92,1063.9219 110,1063.9219 110,1063.9219 C110,1063.9219 128,1063.9219 128,1053.9219 " fill="none" style="stroke:#454645;stroke-width:1.5;"/><rect fill="#FF6347" height="30.2969" rx="3.5" ry="3.5" style="stroke:#454645;stroke-width:1.5;" width="57" x="410.5" y="50"/><text fill="#FFFFFF" font-family="sans-serif" font-size="14" lengthAdjust="spacing" textLength="43" x="417.5" y="69.9951">Client</text><rect fill="#FF6347" height="30.2969" rx="3.5" ry="3.5" style="stroke:#454645;stroke-width:1.5;" width="57" x="410.5" y="1027.625"/><text fill="#FFFFFF" font-family="sans-serif" font-size="14" lengthAdjust="spacing" textLength="43" x="417.5" y="1047.6201">Client</text><path d="M712.5,55 L821.5,55 C826.5,55 826.5,68.1484 826.5,68.1484 C826.5,68.1484 826.5,81.2969 821.5,81.2969 L712.5,81.2969 C707.5,81.2969 707.5,68.1484 707.5,68.1484 C707.5,68.1484 707.5,55 712.5,55 " fill="#FF6347" style="stroke:#454645;stroke-width:1.5;"/><path d="M821.5,55 C816.5,55 816.5,68.1484 816.5,68.1484 C816.5,81.2969 821.5,81.2969 821.5,81.2969 " fill="none" style="stroke:#454645;stroke-width:1.5;"/><text fill="#FFFFFF" font-family="sans-serif" font-size="14" lengthAdjust="spacing" textLength="99" x="712.5" y="72.9951">SessionQueue</text><path d="M712.5,1027.625 L821.5,1027.625 C826.5,1027.625 826.5,1040.7734 826.5,1040.7734 C826.5,1040.7734 826.5,1053.9219 821.5,1053.9219 L712.5,1053.9219 C707.5,1053.9219 707.5,1040.7734 707.5,1040.7734 C707.5,1040.7734 707.5,1027.625 712.5,1027.625 " fill="#FF6347" style="stroke:#454645;stroke-width:1.5;"/><path d="M821.5,1027.625 C816.5,1027.625 816.5,1040.7734 816.5,1040.7734 C816.5,1053.9219 821.5,1053.9219 821.5,1053.9219 " fill="none" style="stroke:#454645;stroke-width:1.5;"/><text fill="#FFFFFF" font-family="sans-serif" font-size="14" lengthAdjust="spacing" textLength="99" x="712.5" y="1045.6201">SessionQueue</text><rect fill="#FF6347" height="30.2969" rx="3.5" ry="3.5" style="stroke:#454645;stroke-width:1.5;" width="68" x="1063" y="50"/><text fill="#FFFFFF" font-family="sans-serif" font-size="14" lengthAdjust="spacing" textLength="54" x="1070" y="69.9951">Session</text><rect fill="#FF6347" height="30.2969" rx="3.5" ry="3.5" style="stroke:#454645;stroke-width:1.5;" width="68" x="1063" y="1027.625"/><text fill="#FFFFFF" font-family="sans-serif" font-size="14" lengthAdjust="spacing" textLength="54" x="1070" y="1047.6201">Session</text><path d="M1366,55 L1468,55 C1473,55 1473,68.1484 1473,68.1484 C1473,68.1484 1473,81.2969 1468,81.2969 L1366,81.2969 C1361,81.2969 1361,68.1484 1361,68.1484 C1361,68.1484 1361,55 1366,55 " fill="#FF6347" style="stroke:#454645;stroke-width:1.5;"/><path d="M1468,55 C1463,55 1463,68.1484 1463,68.1484 C1463,81.2969 1468,81.2969 1468,81.2969 " fill="none" style="stroke:#454645;stroke-width:1.5;"/><text fill="#FFFFFF" font-family="sans-serif" font-size="14" lengthAdjust="spacing" textLength="92" x="1366" y="72.9951">ServerQueue</text><path d="M1366,1027.625 L1468,1027.625 C1473,1027.625 1473,1040.7734 1473,1040.7734 C1473,1040.7734 1473,1053.9219 1468,1053.9219 L1366,1053.9219 C1361,1053.9219 1361,1040.7734 1361,1040.7734 C1361,1040.7734 1361,1027.625 1366,1027.625 " fill="#FF6347" style="stroke:#454645;stroke-width:1.5;"/><path d="M1468,1027.625 C1463,1027.625 1463,1040.7734 1463,1040.7734 C1463,1053.9219 1468,1053.9219 1468,1053.9219 " fill="none" style="stroke:#454645;stroke-width:1.5;"/><text fill="#FFFFFF" font-family="sans-serif" font-size="14" lengthAdjust="spacing" textLength="92" x="1366" y="1045.6201">ServerQueue</text><rect fill="#FF6347" height="30.2969" rx="3.5" ry="3.5" style="stroke:#454645;stroke-width:1.5;" width="61" x="1706.5" y="50"/><text fill="#FFFFFF" font-family="sans-serif" font-size="14" lengthAdjust="spacing" textLength="47" x="1713.5" y="69.9951">Server</text><rect fill="#FF6347" height="30.2969" rx="3.5" ry="3.5" style="stroke:#454645;stroke-width:1.5;" width="61" x="1706.5" y="1027.625"/><text fill="#FFFFFF" font-family="sans-serif" font-size="14" lengthAdjust="spacing" textLength="47" x="1713.5" y="1047.6201">Server</text><text fill="#454645" font-family="sans-serif" font-size="14" lengthAdjust="spacing" textLength="68" x="2029" y="77.9951">ServerDB</text><path d="M2048,29 C2048,19 2066,19 2066,19 C2066,19 2084,19 2084,29 L2084,55 C2084,65 2066,65 2066,65 C2066,65 2048,65 2048,55 L2048,29 " fill="#00FFFF" style="stroke:#454645;stroke-width:1.5;"/><path d="M2048,29 C2048,39 2066,39 2066,39 C2066,39 2084,39 2084,29 " fill="none" style="stroke:#454645;stroke-width:1.5;"/><text fill="#454645" font-family="sans-serif" font-size="14" lengthAdjust="spacing" textLength="68" x="2029" y="1040.6201">ServerDB</text><path d="M2048,1053.9219 C2048,1043.9219 2066,1043.9219 2066,1043.9219 C2066,1043.9219 2084,1043.9219 2084,1053.9219 L2084,1079.9219 C2084,1089.9219 2066,1089.9219 2066,1089.9219 C2066,1089.9219 2048,1089.9219 2048,1079.9219 L2048,1053.9219 " fill="#00FFFF" style="stroke:#454645;stroke-width:1.5;"/><path d="M2048,1053.9219 C2048,1063.9219 2066,1063.9219 2066,1063.9219 C2066,1063.9219 2084,1063.9219 2084,1053.9219 " fill="none" style="stroke:#454645;stroke-width:1.5;"/><polygon fill="#454645" points="427,108.4297,437,112.4297,427,116.4297,431,112.4297" style="stroke:#454645;stroke-width:1.0;"/><line style="stroke:#454645;stroke-width:1.0;" x1="47.5" x2="433" y1="112.4297" y2="112.4297"/><text fill="#000000" font-family="sans-serif" font-size="13" font-weight="bold" lengthAdjust="spacing" textLength="9" x="54.5" y="107.3638">1</text><text fill="#000000" font-family="sans-serif" font-size="13" lengthAdjust="spacing" textLength="283" x="67.5" y="107.3638">removeFromGroup(Username, GroupName)</text><polygon fill="#454645" points="121,137.5625,111,141.5625,121,145.5625,117,141.5625" style="stroke:#454645;stroke-width:1.0;"/><line style="stroke:#454645;stroke-width:1.0;" x1="115" x2="438" y1="141.5625" y2="141.5625"/><text fill="#000000" font-family="sans-serif" font-size="13" font-weight="bold" lengthAdjust="spacing" textLength="9" x="127" y="136.4966">2</text><text fill="#000000" font-family="sans-serif" font-size="13" lengthAdjust="spacing" textLength="256" x="140" y="136.4966">checkIfInGroup(Username, GroupName)</text><path d="M13.5,156.5625 L76,156.5625 L76,163.6953 L66,173.6953 L10,173.6953 L10,160.0625 A3.5,3.5 0 0 1 13.5,156.5625 " fill="#EEEEEE" style="stroke:#696969;stroke-width:1.5;"/><rect fill="none" height="855.0625" rx="3.5" ry="3.5" style="stroke:#696969;stroke-width:1.0;" width="2113" x="10" y="156.5625"/><text fill="#454645" font-family="sans-serif" font-size="13" font-weight="bold" lengthAdjust="spacing" textLength="21" x="25" y="169.6294">alt</text><text fill="#696969" font-family="sans-serif" font-size="11" font-weight="bold" lengthAdjust="spacing" textLength="494" x="91" y="168.7729">[You are not in this group or group does not exist or user does not exist]</text><polygon fill="#454645" points="58.5,190.8281,48.5,194.8281,58.5,198.8281,54.5,194.8281" style="stroke:#454645;stroke-width:1.0;"/><line style="stroke:#454645;stroke-width:1.0;" x1="52.5" x2="438" y1="194.8281" y2="194.8281"/><text fill="#000000" font-family="sans-serif" font-size="13" font-weight="bold" lengthAdjust="spacing" textLength="8" x="64.5" y="189.7622">3</text><text fill="#000000" font-family="sans-serif" font-size="13" lengthAdjust="spacing" textLength="31" x="76.5" y="189.7622">Error</text><line style="stroke:#696969;stroke-width:1.0;stroke-dasharray:2.0,2.0;" x1="10" x2="2123" y1="203.8281" y2="203.8281"/><text fill="#696969" font-family="sans-serif" font-size="11" font-weight="bold" lengthAdjust="spacing" textLength="115" x="15" y="214.0386">[Everything is ok]</text><polygon fill="#454645" points="755,234.7656,765,238.7656,755,242.7656,759,238.7656" style="stroke:#454645;stroke-width:1.0;"/><line style="stroke:#454645;stroke-width:1.0;" x1="439" x2="761" y1="238.7656" y2="238.7656"/><text fill="#000000" font-family="sans-serif" font-size="13" font-weight="bold" lengthAdjust="spacing" textLength="9" x="446" y="233.6997">4</text><text fill="#000000" font-family="sans-serif" font-size="13" lengthAdjust="spacing" textLength="283" x="459" y="233.6997">removeFromGroup(Username, GroupName)</text><line style="stroke:#454645;stroke-width:1.0;" x1="1097" x2="1139" y1="267.8984" y2="267.8984"/><line style="stroke:#454645;stroke-width:1.0;" x1="1139" x2="1139" y1="267.8984" y2="280.8984"/><line style="stroke:#454645;stroke-width:1.0;" x1="1098" x2="1139" y1="280.8984" y2="280.8984"/><polygon fill="#454645" points="1108,276.8984,1098,280.8984,1108,284.8984,1104,280.8984" style="stroke:#454645;stroke-width:1.0;"/><text fill="#000000" font-family="sans-serif" font-size="13" font-weight="bold" lengthAdjust="spacing" textLength="9" x="1104" y="262.8325">5</text><text fill="#000000" font-family="sans-serif" font-size="13" lengthAdjust="spacing" textLength="283" x="1117" y="262.8325">removeFromGroup(Username, GroupName)</text><polygon fill="#454645" points="1405,306.0313,1415,310.0313,1405,314.0313,1409,310.0313" style="stroke:#454645;stroke-width:1.0;"/><line style="stroke:#454645;stroke-width:1.0;" x1="1097" x2="1411" y1="310.0313" y2="310.0313"/><text fill="#000000" font-family="sans-serif" font-size="13" font-weight="bold" lengthAdjust="spacing" textLength="9" x="1104" y="304.9653">6</text><text fill="#000000" font-family="sans-serif" font-size="13" lengthAdjust="spacing" textLength="283" x="1117" y="304.9653">removeFromGroup(Username, GroupName)</text><polygon fill="#454645" points="1725,335.1641,1735,339.1641,1725,343.1641,1729,339.1641" style="stroke:#454645;stroke-width:1.0;"/><line style="stroke:#454645;stroke-width:1.0;" x1="1417" x2="1731" y1="339.1641" y2="339.1641"/><text fill="#000000" font-family="sans-serif" font-size="13" font-weight="bold" lengthAdjust="spacing" textLength="9" x="1424" y="334.0981">7</text><text fill="#000000" font-family="sans-serif" font-size="13" lengthAdjust="spacing" textLength="283" x="1437" y="334.0981">removeFromGroup(Username, GroupName)</text><polygon fill="#454645" points="2054,364.2969,2064,368.2969,2054,372.2969,2058,368.2969" style="stroke:#454645;stroke-width:1.0;"/><line style="stroke:#454645;stroke-width:1.0;" x1="1737" x2="2060" y1="368.2969" y2="368.2969"/><text fill="#000000" font-family="sans-serif" font-size="13" font-weight="bold" lengthAdjust="spacing" textLength="9" x="1744" y="363.231">8</text><text fill="#000000" font-family="sans-serif" font-size="13" lengthAdjust="spacing" textLength="163" x="1757" y="363.231">checkGroup(GroupName)</text><polygon fill="#454645" points="2054,393.4297,2064,397.4297,2054,401.4297,2058,397.4297" style="stroke:#454645;stroke-width:1.0;"/><line style="stroke:#454645;stroke-width:1.0;" x1="1737" x2="2060" y1="397.4297" y2="397.4297"/><text fill="#000000" font-family="sans-serif" font-size="13" font-weight="bold" lengthAdjust="spacing" textLength="9" x="1744" y="392.3638">9</text><text fill="#000000" font-family="sans-serif" font-size="13" lengthAdjust="spacing" textLength="142" x="1757" y="392.3638">checkUser(Username)</text><path d="M23.5,412.4297 L86,412.4297 L86,419.5625 L76,429.5625 L20,429.5625 L20,415.9297 A3.5,3.5 0 0 1 23.5,412.4297 " fill="#EEEEEE" style="stroke:#696969;stroke-width:1.5;"/><rect fill="none" height="592.1953" rx="3.5" ry="3.5" style="stroke:#696969;stroke-width:1.0;" width="2093" x="20" y="412.4297"/><text fill="#454645" font-family="sans-serif" font-size="13" font-weight="bold" lengthAdjust="spacing" textLength="21" x="35" y="425.4966">alt</text><text fill="#696969" font-family="sans-serif" font-size="11" font-weight="bold" lengthAdjust="spacing" textLength="66" x="101" y="424.6401">[On Error]</text><polygon fill="#454645" points="778,446.6953,768,450.6953,778,454.6953,774,450.6953" style="stroke:#454645;stroke-width:1.0;"/><line style="stroke:#454645;stroke-width:1.0;" x1="772" x2="1736" y1="450.6953" y2="450.6953"/><text fill="#000000" font-family="sans-serif" font-size="13" font-weight="bold" lengthAdjust="spacing" textLength="19" x="784" y="445.6294">10</text><text fill="#000000" font-family="sans-serif" font-size="13" lengthAdjust="spacing" textLength="163" x="807" y="445.6294">removeFromGroup(Error)</text><polygon fill="#454645" points="1085,475.8281,1095,479.8281,1085,483.8281,1089,479.8281" style="stroke:#454645;stroke-width:1.0;"/><line style="stroke:#454645;stroke-width:1.0;" x1="767" x2="1091" y1="479.8281" y2="479.8281"/><text fill="#000000" font-family="sans-serif" font-size="13" font-weight="bold" lengthAdjust="spacing" textLength="18" x="774" y="474.7622">11</text><text fill="#000000" font-family="sans-serif" font-size="13" lengthAdjust="spacing" textLength="163" x="796" y="474.7622">removeFromGroup(Error)</text><line style="stroke:#454645;stroke-width:1.0;" x1="1097" x2="1139" y1="508.9609" y2="508.9609"/><line style="stroke:#454645;stroke-width:1.0;" x1="1139" x2="1139" y1="508.9609" y2="521.9609"/><line style="stroke:#454645;stroke-width:1.0;" x1="1098" x2="1139" y1="521.9609" y2="521.9609"/><polygon fill="#454645" points="1108,517.9609,1098,521.9609,1108,525.9609,1104,521.9609" style="stroke:#454645;stroke-width:1.0;"/><text fill="#000000" font-family="sans-serif" font-size="13" font-weight="bold" lengthAdjust="spacing" textLength="18" x="1104" y="503.895">12</text><text fill="#000000" font-family="sans-serif" font-size="13" lengthAdjust="spacing" textLength="167" x="1126" y="503.895">change msg access rights</text><polygon fill="#454645" points="778,547.0938,768,551.0938,778,555.0938,774,551.0938" style="stroke:#454645;stroke-width:1.0;"/><line style="stroke:#454645;stroke-width:1.0;" x1="772" x2="1096" y1="551.0938" y2="551.0938"/><text fill="#000000" font-family="sans-serif" font-size="13" font-weight="bold" lengthAdjust="spacing" textLength="17" x="784" y="546.0278">13</text><text fill="#000000" font-family="sans-serif" font-size="13" lengthAdjust="spacing" textLength="163" x="805" y="546.0278">removeFromGroup(Error)</text><polygon fill="#454645" points="450,576.2266,440,580.2266,450,584.2266,446,580.2266" style="stroke:#454645;stroke-width:1.0;"/><line style="stroke:#454645;stroke-width:1.0;" x1="444" x2="766" y1="580.2266" y2="580.2266"/><text fill="#000000" font-family="sans-serif" font-size="13" font-weight="bold" lengthAdjust="spacing" textLength="18" x="456" y="575.1606">14</text><text fill="#000000" font-family="sans-serif" font-size="13" lengthAdjust="spacing" textLength="163" x="478" y="575.1606">removeFromGroup(Error)</text><line style="stroke:#454645;stroke-width:1.0;" x1="439" x2="481" y1="609.3594" y2="609.3594"/><line style="stroke:#454645;stroke-width:1.0;" x1="481" x2="481" y1="609.3594" y2="622.3594"/><line style="stroke:#454645;stroke-width:1.0;" x1="440" x2="481" y1="622.3594" y2="622.3594"/><polygon fill="#454645" points="450,618.3594,440,622.3594,450,626.3594,446,622.3594" style="stroke:#454645;stroke-width:1.0;"/><text fill="#000000" font-family="sans-serif" font-size="13" font-weight="bold" lengthAdjust="spacing" textLength="18" x="446" y="604.2935">15</text><text fill="#000000" font-family="sans-serif" font-size="13" lengthAdjust="spacing" textLength="163" x="468" y="604.2935">removeFromGroup(Error)</text><polygon fill="#454645" points="58.5,647.4922,48.5,651.4922,58.5,655.4922,54.5,651.4922" style="stroke:#454645;stroke-width:1.0;"/><line style="stroke:#454645;stroke-width:1.0;" x1="52.5" x2="438" y1="651.4922" y2="651.4922"/><text fill="#000000" font-family="sans-serif" font-size="13" font-weight="bold" lengthAdjust="spacing" textLength="18" x="64.5" y="646.4263">16</text><text fill="#000000" font-family="sans-serif" font-size="13" lengthAdjust="spacing" textLength="87" x="86.5" y="646.4263">(Server Error)</text><line style="stroke:#696969;stroke-width:1.0;stroke-dasharray:2.0,2.0;" x1="20" x2="2113" y1="660.4922" y2="660.4922"/><text fill="#696969" font-family="sans-serif" font-size="11" font-weight="bold" lengthAdjust="spacing" textLength="115" x="25" y="670.7026">[Everything is ok]</text><polygon fill="#454645" points="2054,691.4297,2064,695.4297,2054,699.4297,2058,695.4297" style="stroke:#454645;stroke-width:1.0;"/><line style="stroke:#454645;stroke-width:1.0;" x1="1737" x2="2060" y1="695.4297" y2="695.4297"/><text fill="#000000" font-family="sans-serif" font-size="13" font-weight="bold" lengthAdjust="spacing" textLength="18" x="1744" y="690.3638">17</text><text fill="#000000" font-family="sans-serif" font-size="13" lengthAdjust="spacing" textLength="283" x="1766" y="690.3638">removeFromGroup(Username, GroupName)</text><line style="stroke:#454645;stroke-width:1.0;" x1="1737" x2="1779" y1="724.5625" y2="724.5625"/><line style="stroke:#454645;stroke-width:1.0;" x1="1779" x2="1779" y1="724.5625" y2="737.5625"/><line style="stroke:#454645;stroke-width:1.0;" x1="1738" x2="1779" y1="737.5625" y2="737.5625"/><polygon fill="#454645" points="1748,733.5625,1738,737.5625,1748,741.5625,1744,737.5625" style="stroke:#454645;stroke-width:1.0;"/><text fill="#000000" font-family="sans-serif" font-size="13" font-weight="bold" lengthAdjust="spacing" textLength="18" x="1744" y="719.4966">18</text><text fill="#000000" font-family="sans-serif" font-size="13" lengthAdjust="spacing" textLength="241" x="1766" y="719.4966">propagateGroupChange(GroupName)</text><polygon fill="#454645" points="778,762.6953,768,766.6953,778,770.6953,774,766.6953" style="stroke:#454645;stroke-width:1.0;"/><line style="stroke:#454645;stroke-width:1.0;" x1="772" x2="1736" y1="766.6953" y2="766.6953"/><text fill="#000000" font-family="sans-serif" font-size="13" font-weight="bold" lengthAdjust="spacing" textLength="18" x="784" y="761.6294">19</text><text fill="#000000" font-family="sans-serif" font-size="13" lengthAdjust="spacing" textLength="283" x="806" y="761.6294">removeFromGroup(Username, GroupName)</text><polygon fill="#454645" points="1085,791.8281,1095,795.8281,1085,799.8281,1089,795.8281" style="stroke:#454645;stroke-width:1.0;"/><line style="stroke:#454645;stroke-width:1.0;" x1="767" x2="1091" y1="795.8281" y2="795.8281"/><text fill="#000000" font-family="sans-serif" font-size="13" font-weight="bold" lengthAdjust="spacing" textLength="19" x="774" y="790.7622">20</text><text fill="#000000" font-family="sans-serif" font-size="13" lengthAdjust="spacing" textLength="283" x="797" y="790.7622">removeFromGroup(Username, GroupName)</text><line style="stroke:#454645;stroke-width:1.0;" x1="1097" x2="1139" y1="824.9609" y2="824.9609"/><line style="stroke:#454645;stroke-width:1.0;" x1="1139" x2="1139" y1="824.9609" y2="837.9609"/><line style="stroke:#454645;stroke-width:1.0;" x1="1098" x2="1139" y1="837.9609" y2="837.9609"/><polygon fill="#454645" points="1108,833.9609,1098,837.9609,1108,841.9609,1104,837.9609" style="stroke:#454645;stroke-width:1.0;"/><text fill="#000000" font-family="sans-serif" font-size="13" font-weight="bold" lengthAdjust="spacing" textLength="18" x="1104" y="819.895">21</text><text fill="#000000" font-family="sans-serif" font-size="13" lengthAdjust="spacing" textLength="167" x="1126" y="819.895">change msg access rights</text><polygon fill="#454645" points="778,863.0938,768,867.0938,778,871.0938,774,867.0938" style="stroke:#454645;stroke-width:1.0;"/><line style="stroke:#454645;stroke-width:1.0;" x1="772" x2="1096" y1="867.0938" y2="867.0938"/><text fill="#000000" font-family="sans-serif" font-size="13" font-weight="bold" lengthAdjust="spacing" textLength="18" x="784" y="862.0278">22</text><text fill="#000000" font-family="sans-serif" font-size="13" lengthAdjust="spacing" textLength="283" x="806" y="862.0278">removeFromGroup(Username, GroupName)</text><polygon fill="#454645" points="450,892.2266,440,896.2266,450,900.2266,446,896.2266" style="stroke:#454645;stroke-width:1.0;"/><line style="stroke:#454645;stroke-width:1.0;" x1="444" x2="766" y1="896.2266" y2="896.2266"/><text fill="#000000" font-family="sans-serif" font-size="13" font-weight="bold" lengthAdjust="spacing" textLength="17" x="456" y="891.1606">23</text><text fill="#000000" font-family="sans-serif" font-size="13" lengthAdjust="spacing" textLength="283" x="477" y="891.1606">removeFromGroup(Username, GroupName)</text><line style="stroke:#454645;stroke-width:1.0;" x1="439" x2="481" y1="925.3594" y2="925.3594"/><line style="stroke:#454645;stroke-width:1.0;" x1="481" x2="481" y1="925.3594" y2="938.3594"/><line style="stroke:#454645;stroke-width:1.0;" x1="440" x2="481" y1="938.3594" y2="938.3594"/><polygon fill="#454645" points="450,934.3594,440,938.3594,450,942.3594,446,938.3594" style="stroke:#454645;stroke-width:1.0;"/><text fill="#000000" font-family="sans-serif" font-size="13" font-weight="bold" lengthAdjust="spacing" textLength="18" x="446" y="920.2935">24</text><text fill="#000000" font-family="sans-serif" font-size="13" lengthAdjust="spacing" textLength="283" x="468" y="920.2935">removeFromGroup(Username, GroupName)</text><polygon fill="#454645" points="121,963.4922,111,967.4922,121,971.4922,117,967.4922" style="stroke:#454645;stroke-width:1.0;"/><line style="stroke:#454645;stroke-width:1.0;" x1="115" x2="438" y1="967.4922" y2="967.4922"/><text fill="#000000" font-family="sans-serif" font-size="13" font-weight="bold" lengthAdjust="spacing" textLength="18" x="127" y="962.4263">25</text><text fill="#000000" font-family="sans-serif" font-size="13" lengthAdjust="spacing" textLength="283" x="149" y="962.4263">removeFromGroup(Username, GroupName)</text><polygon fill="#454645" points="58.5,992.625,48.5,996.625,58.5,1000.625,54.5,996.625" style="stroke:#454645;stroke-width:1.0;"/><line style="stroke:#454645;stroke-width:1.0;" x1="52.5" x2="438" y1="996.625" y2="996.625"/><text fill="#000000" font-family="sans-serif" font-size="13" font-weight="bold" lengthAdjust="spacing" textLength="18" x="64.5" y="991.5591">26</text><text fill="#000000" font-family="sans-serif" font-size="13" lengthAdjust="spacing" textLength="249" x="86.5" y="991.5591">User removed successfully from group</text><!--SRC=[jLN1Rfmm4BtxAwQtZTHaxwkgXqtIA9TMLTL3ZyOx2rQmJSRZRVFtjGq5iiaIMAL827juxuqzymmVk4A3SD05ISkm9sUWOcxyPhqc-Vkgr5o58dWavIoZvIlbpBgf8pYOUXWOwHbfdTMya86T3QP04a98nOvWwmgG7dv69R6JB0lf4Qvh7ILljgAHn5hf9gsX3Oh7W07X1tgldVsU9izG_zxqE3eWlOIryI5ZEuyPHLe9N7xkqi4628qxu9TOWJjoeLabW9K6FqAUVut32z6XUzxDDZ9LXUhXVdzl9uYoPlZb0aX2i8v1M-1AUoWJ16A1si7EeS_lyO_sdEAfzaTX0V4QLf9tie5R8aS2wxZBsxZ7foXlIuWftCCHOLpKkHjF2Xrl974sk-_MCeM1rgii5nYuG_TQucnuoj2dQS6fmTzirmNehh72PCqpxMB46w4do_qwyJb7LTAM2CQN89MAOI1TLkmdM6Uky-HXEk8T7wCbZCxkgwws8znfxv_ivcphlAQmWOPS8ql9cD7NkSwhDvZddRrncpvTlelC__B8dEHlEsPIPOP_5l6NU-657_EZbTY13xc6-r3NJ-rFDN_UMvVQdOZtNm00]--></g></svg>