<?xml version="1.0" encoding="UTF-8" standalone="no"?><svg xmlns="http://www.w3.org/2000/svg" xmlns:xlink="http://www.w3.org/1999/xlink" contentStyleType="text/css" height="811px" preserveAspectRatio="none" style="width:356px;height:811px;background:#FFFFFF;" version="1.1" viewBox="0 0 356 811" width="356px" zoomAndPan="magnify"><defs/><g><rect fill="#F1F1F1" height="40.5938" rx="5" ry="5" style="stroke:#F1F1F1;stroke-width:1.5;" width="90" x="10" y="390"/><text fill="#000000" font-family="sans-serif" font-size="14" font-weight="bold" lengthAdjust="spacing" textLength="45" x="15" y="404.9951">Users</text><text fill="#000000" font-family="sans-serif" font-size="14" lengthAdjust="spacing" textLength="12" x="83" y="404.9951">   </text><line style="stroke:#000000;stroke-width:1.0;" x1="78" x2="78" y1="390" y2="410.2969"/><line style="stroke:#000000;stroke-width:1.0;" x1="10" x2="100" y1="410.2969" y2="410.2969"/><text fill="#000000" font-family="sans-serif" font-size="14" font-weight="bold" lengthAdjust="spacing" textLength="58" x="15" y="425.292">Groups</text><text fill="#000000" font-family="sans-serif" font-size="14" lengthAdjust="spacing" textLength="12" x="83" y="425.292">   </text><line style="stroke:#000000;stroke-width:1.0;" x1="78" x2="78" y1="410.2969" y2="430.5938"/><rect fill="none" height="40.5938" rx="5" ry="5" style="stroke:#000000;stroke-width:1.5;" width="90" x="10" y="390"/><rect fill="#F1F1F1" height="121.7813" rx="5" ry="5" style="stroke:#F1F1F1;stroke-width:1.5;" width="22" x="137" y="166.5"/><text fill="#000000" font-family="sans-serif" font-size="14" lengthAdjust="spacing" textLength="12" x="142" y="181.4951">   </text><line style="stroke:#000000;stroke-width:1.0;" x1="137" x2="159" y1="186.7969" y2="186.7969"/><text fill="#000000" font-family="sans-serif" font-size="14" lengthAdjust="spacing" textLength="12" x="142" y="201.792">   </text><line style="stroke:#000000;stroke-width:1.0;" x1="137" x2="159" y1="207.0938" y2="207.0938"/><text fill="#000000" font-family="sans-serif" font-size="14" lengthAdjust="spacing" textLength="12" x="142" y="222.0889">   </text><line style="stroke:#000000;stroke-width:1.0;" x1="137" x2="159" y1="227.3906" y2="227.3906"/><text fill="#000000" font-family="sans-serif" font-size="14" lengthAdjust="spacing" textLength="12" x="142" y="242.3857">   </text><line style="stroke:#000000;stroke-width:1.0;" x1="137" x2="159" y1="247.6875" y2="247.6875"/><text fill="#000000" font-family="sans-serif" font-size="14" lengthAdjust="spacing" textLength="12" x="142" y="262.6826">   </text><line style="stroke:#000000;stroke-width:1.0;" x1="137" x2="159" y1="267.9844" y2="267.9844"/><text fill="#000000" font-family="sans-serif" font-size="14" lengthAdjust="spacing" textLength="12" x="142" y="282.9795">   </text><rect fill="none" height="121.7813" rx="5" ry="5" style="stroke:#000000;stroke-width:1.5;" width="22" x="137" y="166.5"/><rect fill="#F1F1F1" height="60.8906" rx="5" ry="5" style="stroke:#F1F1F1;stroke-width:1.5;" width="111" x="215.5" y="10"/><text fill="#000000" font-family="sans-serif" font-size="14" font-weight="bold" lengthAdjust="spacing" textLength="44" x="220.5" y="24.9951">name</text><text fill="#000000" font-family="sans-serif" font-size="14" lengthAdjust="spacing" textLength="13" x="274.5" y="24.9951">id</text><line style="stroke:#000000;stroke-width:1.0;" x1="269.5" x2="269.5" y1="10" y2="30.2969"/><line style="stroke:#000000;stroke-width:1.0;" x1="215.5" x2="326.5" y1="30.2969" y2="30.2969"/><text fill="#000000" font-family="sans-serif" font-size="14" font-weight="bold" lengthAdjust="spacing" textLength="36" x="220.5" y="45.292">type</text><text fill="#000000" font-family="sans-serif" font-size="14" lengthAdjust="spacing" textLength="20" x="274.5" y="45.292">int</text><line style="stroke:#000000;stroke-width:1.0;" x1="269.5" x2="269.5" y1="30.2969" y2="50.5938"/><line style="stroke:#000000;stroke-width:1.0;" x1="215.5" x2="326.5" y1="50.5938" y2="50.5938"/><text fill="#000000" font-family="sans-serif" font-size="14" font-weight="bold" lengthAdjust="spacing" textLength="19" x="220.5" y="65.5889">pk</text><text fill="#000000" font-family="sans-serif" font-size="14" lengthAdjust="spacing" textLength="47" x="274.5" y="65.5889">☑ true</text><line style="stroke:#000000;stroke-width:1.0;" x1="269.5" x2="269.5" y1="50.5938" y2="70.8906"/><rect fill="none" height="60.8906" rx="5" ry="5" style="stroke:#000000;stroke-width:1.5;" width="111" x="215.5" y="10"/><rect fill="#F1F1F1" height="40.5938" rx="5" ry="5" style="stroke:#F1F1F1;stroke-width:1.5;" width="122" x="210" y="89"/><text fill="#000000" font-family="sans-serif" font-size="14" font-weight="bold" lengthAdjust="spacing" textLength="44" x="215" y="103.9951">name</text><text fill="#000000" font-family="sans-serif" font-size="14" lengthAdjust="spacing" textLength="40" x="269" y="103.9951">name</text><line style="stroke:#000000;stroke-width:1.0;" x1="264" x2="264" y1="89" y2="109.2969"/><line style="stroke:#000000;stroke-width:1.0;" x1="210" x2="332" y1="109.2969" y2="109.2969"/><text fill="#000000" font-family="sans-serif" font-size="14" font-weight="bold" lengthAdjust="spacing" textLength="36" x="215" y="124.292">type</text><text fill="#000000" font-family="sans-serif" font-size="14" lengthAdjust="spacing" textLength="58" x="269" y="124.292">char[20]</text><line style="stroke:#000000;stroke-width:1.0;" x1="264" x2="264" y1="109.2969" y2="129.5938"/><rect fill="none" height="40.5938" rx="5" ry="5" style="stroke:#000000;stroke-width:1.5;" width="122" x="210" y="89"/><rect fill="#F1F1F1" height="40.5938" rx="5" ry="5" style="stroke:#F1F1F1;stroke-width:1.5;" width="131" x="205.5" y="148"/><text fill="#000000" font-family="sans-serif" font-size="14" font-weight="bold" lengthAdjust="spacing" textLength="44" x="210.5" y="162.9951">name</text><text fill="#000000" font-family="sans-serif" font-size="14" lengthAdjust="spacing" textLength="67" x="264.5" y="162.9951">password</text><line style="stroke:#000000;stroke-width:1.0;" x1="259.5" x2="259.5" y1="148" y2="168.2969"/><line style="stroke:#000000;stroke-width:1.0;" x1="205.5" x2="336.5" y1="168.2969" y2="168.2969"/><text fill="#000000" font-family="sans-serif" font-size="14" font-weight="bold" lengthAdjust="spacing" textLength="36" x="210.5" y="183.292">type</text><text fill="#000000" font-family="sans-serif" font-size="14" lengthAdjust="spacing" textLength="58" x="264.5" y="183.292">char[20]</text><line style="stroke:#000000;stroke-width:1.0;" x1="259.5" x2="259.5" y1="168.2969" y2="188.5938"/><rect fill="none" height="40.5938" rx="5" ry="5" style="stroke:#000000;stroke-width:1.5;" width="131" x="205.5" y="148"/><rect fill="#F1F1F1" height="60.8906" rx="5" ry="5" style="stroke:#F1F1F1;stroke-width:1.5;" width="133" x="204.5" y="207"/><text fill="#000000" font-family="sans-serif" font-size="14" font-weight="bold" lengthAdjust="spacing" textLength="44" x="209.5" y="221.9951">name</text><text fill="#000000" font-family="sans-serif" font-size="14" lengthAdjust="spacing" textLength="49" x="263.5" y="221.9951">groups</text><line style="stroke:#000000;stroke-width:1.0;" x1="258.5" x2="258.5" y1="207" y2="227.2969"/><line style="stroke:#000000;stroke-width:1.0;" x1="204.5" x2="337.5" y1="227.2969" y2="227.2969"/><text fill="#000000" font-family="sans-serif" font-size="14" font-weight="bold" lengthAdjust="spacing" textLength="36" x="209.5" y="242.292">type</text><text fill="#000000" font-family="sans-serif" font-size="14" lengthAdjust="spacing" textLength="30" x="263.5" y="242.292">int[]</text><line style="stroke:#000000;stroke-width:1.0;" x1="258.5" x2="258.5" y1="227.2969" y2="247.5938"/><line style="stroke:#000000;stroke-width:1.0;" x1="204.5" x2="337.5" y1="247.5938" y2="247.5938"/><text fill="#000000" font-family="sans-serif" font-size="14" font-weight="bold" lengthAdjust="spacing" textLength="16" x="209.5" y="262.5889">fk</text><text fill="#000000" font-family="sans-serif" font-size="14" lengthAdjust="spacing" textLength="69" x="263.5" y="262.5889">Groups.id</text><line style="stroke:#000000;stroke-width:1.0;" x1="258.5" x2="258.5" y1="247.5938" y2="267.8906"/><rect fill="none" height="60.8906" rx="5" ry="5" style="stroke:#000000;stroke-width:1.5;" width="133" x="204.5" y="207"/><rect fill="#F1F1F1" height="60.8906" rx="5" ry="5" style="stroke:#F1F1F1;stroke-width:1.5;" width="120" x="211" y="286"/><text fill="#000000" font-family="sans-serif" font-size="14" font-weight="bold" lengthAdjust="spacing" textLength="44" x="216" y="300.9951">name</text><text fill="#000000" font-family="sans-serif" font-size="14" lengthAdjust="spacing" textLength="50" x="270" y="300.9951">friends</text><line style="stroke:#000000;stroke-width:1.0;" x1="265" x2="265" y1="286" y2="306.2969"/><line style="stroke:#000000;stroke-width:1.0;" x1="211" x2="331" y1="306.2969" y2="306.2969"/><text fill="#000000" font-family="sans-serif" font-size="14" font-weight="bold" lengthAdjust="spacing" textLength="36" x="216" y="321.292">type</text><text fill="#000000" font-family="sans-serif" font-size="14" lengthAdjust="spacing" textLength="30" x="270" y="321.292">int[]</text><line style="stroke:#000000;stroke-width:1.0;" x1="265" x2="265" y1="306.2969" y2="326.5938"/><line style="stroke:#000000;stroke-width:1.0;" x1="211" x2="331" y1="326.5938" y2="326.5938"/><text fill="#000000" font-family="sans-serif" font-size="14" font-weight="bold" lengthAdjust="spacing" textLength="16" x="216" y="341.5889">fk</text><text fill="#000000" font-family="sans-serif" font-size="14" lengthAdjust="spacing" textLength="56" x="270" y="341.5889">Users.id</text><line style="stroke:#000000;stroke-width:1.0;" x1="265" x2="265" y1="326.5938" y2="346.8906"/><rect fill="none" height="60.8906" rx="5" ry="5" style="stroke:#000000;stroke-width:1.5;" width="120" x="211" y="286"/><rect fill="#F1F1F1" height="40.5938" rx="5" ry="5" style="stroke:#F1F1F1;stroke-width:1.5;" width="135" x="203.5" y="365"/><text fill="#000000" font-family="sans-serif" font-size="14" font-weight="bold" lengthAdjust="spacing" textLength="44" x="208.5" y="379.9951">name</text><text fill="#000000" font-family="sans-serif" font-size="14" lengthAdjust="spacing" textLength="71" x="262.5" y="379.9951">publicKey</text><line style="stroke:#000000;stroke-width:1.0;" x1="257.5" x2="257.5" y1="365" y2="385.2969"/><line style="stroke:#000000;stroke-width:1.0;" x1="203.5" x2="338.5" y1="385.2969" y2="385.2969"/><text fill="#000000" font-family="sans-serif" font-size="14" font-weight="bold" lengthAdjust="spacing" textLength="36" x="208.5" y="400.292">type</text><text fill="#000000" font-family="sans-serif" font-size="14" lengthAdjust="spacing" textLength="68" x="262.5" y="400.292">char[100]</text><line style="stroke:#000000;stroke-width:1.0;" x1="257.5" x2="257.5" y1="385.2969" y2="405.5938"/><rect fill="none" height="40.5938" rx="5" ry="5" style="stroke:#000000;stroke-width:1.5;" width="135" x="203.5" y="365"/><rect fill="#F1F1F1" height="121.7813" rx="5" ry="5" style="stroke:#F1F1F1;stroke-width:1.5;" width="22" x="137" y="532.5"/><text fill="#000000" font-family="sans-serif" font-size="14" lengthAdjust="spacing" textLength="12" x="142" y="547.4951">   </text><line style="stroke:#000000;stroke-width:1.0;" x1="137" x2="159" y1="552.7969" y2="552.7969"/><text fill="#000000" font-family="sans-serif" font-size="14" lengthAdjust="spacing" textLength="12" x="142" y="567.792">   </text><line style="stroke:#000000;stroke-width:1.0;" x1="137" x2="159" y1="573.0938" y2="573.0938"/><text fill="#000000" font-family="sans-serif" font-size="14" lengthAdjust="spacing" textLength="12" x="142" y="588.0889">   </text><line style="stroke:#000000;stroke-width:1.0;" x1="137" x2="159" y1="593.3906" y2="593.3906"/><text fill="#000000" font-family="sans-serif" font-size="14" lengthAdjust="spacing" textLength="12" x="142" y="608.3857">   </text><line style="stroke:#000000;stroke-width:1.0;" x1="137" x2="159" y1="613.6875" y2="613.6875"/><text fill="#000000" font-family="sans-serif" font-size="14" lengthAdjust="spacing" textLength="12" x="142" y="628.6826">   </text><line style="stroke:#000000;stroke-width:1.0;" x1="137" x2="159" y1="633.9844" y2="633.9844"/><text fill="#000000" font-family="sans-serif" font-size="14" lengthAdjust="spacing" textLength="12" x="142" y="648.9795">   </text><rect fill="none" height="121.7813" rx="5" ry="5" style="stroke:#000000;stroke-width:1.5;" width="22" x="137" y="532.5"/><rect fill="#F1F1F1" height="60.8906" rx="5" ry="5" style="stroke:#F1F1F1;stroke-width:1.5;" width="111" x="215.5" y="424"/><text fill="#000000" font-family="sans-serif" font-size="14" font-weight="bold" lengthAdjust="spacing" textLength="44" x="220.5" y="438.9951">name</text><text fill="#000000" font-family="sans-serif" font-size="14" lengthAdjust="spacing" textLength="13" x="274.5" y="438.9951">id</text><line style="stroke:#000000;stroke-width:1.0;" x1="269.5" x2="269.5" y1="424" y2="444.2969"/><line style="stroke:#000000;stroke-width:1.0;" x1="215.5" x2="326.5" y1="444.2969" y2="444.2969"/><text fill="#000000" font-family="sans-serif" font-size="14" font-weight="bold" lengthAdjust="spacing" textLength="36" x="220.5" y="459.292">type</text><text fill="#000000" font-family="sans-serif" font-size="14" lengthAdjust="spacing" textLength="20" x="274.5" y="459.292">int</text><line style="stroke:#000000;stroke-width:1.0;" x1="269.5" x2="269.5" y1="444.2969" y2="464.5938"/><line style="stroke:#000000;stroke-width:1.0;" x1="215.5" x2="326.5" y1="464.5938" y2="464.5938"/><text fill="#000000" font-family="sans-serif" font-size="14" font-weight="bold" lengthAdjust="spacing" textLength="19" x="220.5" y="479.5889">pk</text><text fill="#000000" font-family="sans-serif" font-size="14" lengthAdjust="spacing" textLength="47" x="274.5" y="479.5889">☑ true</text><line style="stroke:#000000;stroke-width:1.0;" x1="269.5" x2="269.5" y1="464.5938" y2="484.8906"/><rect fill="none" height="60.8906" rx="5" ry="5" style="stroke:#000000;stroke-width:1.5;" width="111" x="215.5" y="424"/><rect fill="#F1F1F1" height="40.5938" rx="5" ry="5" style="stroke:#F1F1F1;stroke-width:1.5;" width="122" x="210" y="503"/><text fill="#000000" font-family="sans-serif" font-size="14" font-weight="bold" lengthAdjust="spacing" textLength="44" x="215" y="517.9951">name</text><text fill="#000000" font-family="sans-serif" font-size="14" lengthAdjust="spacing" textLength="40" x="269" y="517.9951">name</text><line style="stroke:#000000;stroke-width:1.0;" x1="264" x2="264" y1="503" y2="523.2969"/><line style="stroke:#000000;stroke-width:1.0;" x1="210" x2="332" y1="523.2969" y2="523.2969"/><text fill="#000000" font-family="sans-serif" font-size="14" font-weight="bold" lengthAdjust="spacing" textLength="36" x="215" y="538.292">type</text><text fill="#000000" font-family="sans-serif" font-size="14" lengthAdjust="spacing" textLength="58" x="269" y="538.292">char[20]</text><line style="stroke:#000000;stroke-width:1.0;" x1="264" x2="264" y1="523.2969" y2="543.5938"/><rect fill="none" height="40.5938" rx="5" ry="5" style="stroke:#000000;stroke-width:1.5;" width="122" x="210" y="503"/><rect fill="#F1F1F1" height="40.5938" rx="5" ry="5" style="stroke:#F1F1F1;stroke-width:1.5;" width="146" x="198" y="562"/><text fill="#000000" font-family="sans-serif" font-size="14" font-weight="bold" lengthAdjust="spacing" textLength="44" x="203" y="576.9951">name</text><text fill="#000000" font-family="sans-serif" font-size="14" lengthAdjust="spacing" textLength="82" x="257" y="576.9951">description</text><line style="stroke:#000000;stroke-width:1.0;" x1="252" x2="252" y1="562" y2="582.2969"/><line style="stroke:#000000;stroke-width:1.0;" x1="198" x2="344" y1="582.2969" y2="582.2969"/><text fill="#000000" font-family="sans-serif" font-size="14" font-weight="bold" lengthAdjust="spacing" textLength="36" x="203" y="597.292">type</text><text fill="#000000" font-family="sans-serif" font-size="14" lengthAdjust="spacing" textLength="67" x="257" y="597.292">char[255]</text><line style="stroke:#000000;stroke-width:1.0;" x1="252" x2="252" y1="582.2969" y2="602.5938"/><rect fill="none" height="40.5938" rx="5" ry="5" style="stroke:#000000;stroke-width:1.5;" width="146" x="198" y="562"/><rect fill="#F1F1F1" height="60.8906" rx="5" ry="5" style="stroke:#F1F1F1;stroke-width:1.5;" width="120" x="211" y="621"/><text fill="#000000" font-family="sans-serif" font-size="14" font-weight="bold" lengthAdjust="spacing" textLength="44" x="216" y="635.9951">name</text><text fill="#000000" font-family="sans-serif" font-size="14" lengthAdjust="spacing" textLength="37" x="270" y="635.9951">users</text><line style="stroke:#000000;stroke-width:1.0;" x1="265" x2="265" y1="621" y2="641.2969"/><line style="stroke:#000000;stroke-width:1.0;" x1="211" x2="331" y1="641.2969" y2="641.2969"/><text fill="#000000" font-family="sans-serif" font-size="14" font-weight="bold" lengthAdjust="spacing" textLength="36" x="216" y="656.292">type</text><text fill="#000000" font-family="sans-serif" font-size="14" lengthAdjust="spacing" textLength="30" x="270" y="656.292">int[]</text><line style="stroke:#000000;stroke-width:1.0;" x1="265" x2="265" y1="641.2969" y2="661.5938"/><line style="stroke:#000000;stroke-width:1.0;" x1="211" x2="331" y1="661.5938" y2="661.5938"/><text fill="#000000" font-family="sans-serif" font-size="14" font-weight="bold" lengthAdjust="spacing" textLength="16" x="216" y="676.5889">fk</text><text fill="#000000" font-family="sans-serif" font-size="14" lengthAdjust="spacing" textLength="56" x="270" y="676.5889">Users.id</text><line style="stroke:#000000;stroke-width:1.0;" x1="265" x2="265" y1="661.5938" y2="681.8906"/><rect fill="none" height="60.8906" rx="5" ry="5" style="stroke:#000000;stroke-width:1.5;" width="120" x="211" y="621"/><rect fill="#F1F1F1" height="40.5938" rx="5" ry="5" style="stroke:#F1F1F1;stroke-width:1.5;" width="135" x="203.5" y="700"/><text fill="#000000" font-family="sans-serif" font-size="14" font-weight="bold" lengthAdjust="spacing" textLength="44" x="208.5" y="714.9951">name</text><text fill="#000000" font-family="sans-serif" font-size="14" lengthAdjust="spacing" textLength="71" x="262.5" y="714.9951">publicKey</text><line style="stroke:#000000;stroke-width:1.0;" x1="257.5" x2="257.5" y1="700" y2="720.2969"/><line style="stroke:#000000;stroke-width:1.0;" x1="203.5" x2="338.5" y1="720.2969" y2="720.2969"/><text fill="#000000" font-family="sans-serif" font-size="14" font-weight="bold" lengthAdjust="spacing" textLength="36" x="208.5" y="735.292">type</text><text fill="#000000" font-family="sans-serif" font-size="14" lengthAdjust="spacing" textLength="68" x="262.5" y="735.292">char[100]</text><line style="stroke:#000000;stroke-width:1.0;" x1="257.5" x2="257.5" y1="720.2969" y2="740.5938"/><rect fill="none" height="40.5938" rx="5" ry="5" style="stroke:#000000;stroke-width:1.5;" width="135" x="203.5" y="700"/><rect fill="#F1F1F1" height="40.5938" rx="5" ry="5" style="stroke:#F1F1F1;stroke-width:1.5;" width="143" x="199.5" y="759"/><text fill="#000000" font-family="sans-serif" font-size="14" font-weight="bold" lengthAdjust="spacing" textLength="44" x="204.5" y="773.9951">name</text><text fill="#000000" font-family="sans-serif" font-size="14" lengthAdjust="spacing" textLength="79" x="258.5" y="773.9951">privateKey</text><line style="stroke:#000000;stroke-width:1.0;" x1="253.5" x2="253.5" y1="759" y2="779.2969"/><line style="stroke:#000000;stroke-width:1.0;" x1="199.5" x2="342.5" y1="779.2969" y2="779.2969"/><text fill="#000000" font-family="sans-serif" font-size="14" font-weight="bold" lengthAdjust="spacing" textLength="36" x="204.5" y="794.292">type</text><text fill="#000000" font-family="sans-serif" font-size="14" lengthAdjust="spacing" textLength="68" x="258.5" y="794.292">char[100]</text><line style="stroke:#000000;stroke-width:1.0;" x1="253.5" x2="253.5" y1="779.2969" y2="799.5938"/><rect fill="none" height="40.5938" rx="5" ry="5" style="stroke:#000000;stroke-width:1.5;" width="143" x="199.5" y="759"/><path d="M149,176.5 L162,176.5 C207.9844,176.5 167.8059,114.1827 198,79.5 C201.4048,75.589 205.3008,72.0032 209.4803,68.729 " fill="none" style="stroke:#000000;stroke-width:1.0;stroke-dasharray:3.0,3.0;"/><path d="M211.3105,71.2499 L211.3709,67.3563 L207.65,66.2082 L215.7824,64.1533 L211.3105,71.2499 " fill="#000000" style="stroke:#000000;stroke-width:1.0;"/><ellipse cx="149" cy="176.5" fill="#000000" rx="3" ry="3" style="stroke:#000000;stroke-width:1.0;"/><path d="M149,196.5 L162,196.5 C192.3396,196.5 174.7541,157.9967 198,138.5 C199.7528,137.0299 201.5895,135.6277 203.4915,134.2906 " fill="none" style="stroke:#000000;stroke-width:1.0;stroke-dasharray:3.0,3.0;"/><path d="M205.2107,136.967 L205.4988,133.0012 L201.7722,131.6142 L210.1825,129.9925 L205.2107,136.967 " fill="#000000" style="stroke:#000000;stroke-width:1.0;"/><ellipse cx="149" cy="196.5" fill="#000000" rx="3" ry="3" style="stroke:#000000;stroke-width:1.0;"/><path d="M149,216.5 L162,216.5 C180.0917,216.5 181.5785,205.0922 198,197.5 C201.9414,195.6777 206.0316,193.8575 210.1715,192.0673 " fill="none" style="stroke:#000000;stroke-width:1.0;stroke-dasharray:3.0,3.0;"/><path d="M211.3633,194.8659 L212.2705,191.1734 L208.9797,189.2686 L217.1682,189.0877 L211.3633,194.8659 " fill="#000000" style="stroke:#000000;stroke-width:1.0;"/><ellipse cx="149" cy="216.5" fill="#000000" rx="3" ry="3" style="stroke:#000000;stroke-width:1.0;"/><path d="M149,237.5 L162,237.5 C173.3573,237.5 185.3833,237.5 197.133,237.5 " fill="none" style="stroke:#000000;stroke-width:1.0;stroke-dasharray:3.0,3.0;"/><path d="M197.133,240.5686 L199.4344,237.5 L197.133,234.4314 L204.8045,237.5 L197.133,240.5686 " fill="#000000" style="stroke:#000000;stroke-width:1.0;"/><ellipse cx="149" cy="237.5" fill="#000000" rx="3" ry="3" style="stroke:#000000;stroke-width:1.0;"/><path d="M149,257.5 L162,257.5 C162.7656,257.5 184.4611,269.2529 208.2512,282.2675 " fill="none" style="stroke:#000000;stroke-width:1.0;stroke-dasharray:3.0,3.0;"/><path d="M206.773,284.9675 L210.2762,283.3762 L209.7294,279.5676 L215.0011,285.9631 L206.773,284.9675 " fill="#000000" style="stroke:#000000;stroke-width:1.0;"/><ellipse cx="149" cy="257.5" fill="#000000" rx="3" ry="3" style="stroke:#000000;stroke-width:1.0;"/><path d="M149,278.5 L162,278.5 C199.7778,278.5 170.6929,329.3948 198,355.5 C199.8216,357.2414 201.7585,358.8878 203.7846,360.4438 " fill="none" style="stroke:#000000;stroke-width:1.0;stroke-dasharray:3.0,3.0;"/><path d="M202.024,362.9716 L205.6804,361.7642 L205.5452,357.916 L210.1041,364.8453 L202.024,362.9716 " fill="#000000" style="stroke:#000000;stroke-width:1.0;"/><ellipse cx="149" cy="278.5" fill="#000000" rx="3" ry="3" style="stroke:#000000;stroke-width:1.0;"/><path d="M89.5,401.5 L89.5,388.5 C89.5,337.2994 116.1311,282.2251 133.6094,251.5928 " fill="none" style="stroke:#000000;stroke-width:1.0;stroke-dasharray:3.0,3.0;"/><path d="M136.2168,253.1101 L134.7474,249.6373 L131.002,250.0756 L137.4026,245.0743 L136.2168,253.1101 " fill="#000000" style="stroke:#000000;stroke-width:1.0;"/><ellipse cx="89.5" cy="401.5" fill="#000000" rx="3" ry="3" style="stroke:#000000;stroke-width:1.0;"/><path d="M149,542.5 L162,542.5 C188.6667,542.5 177.877,511.9978 198,494.5 C201.5595,491.4049 205.3975,488.4461 209.3843,485.6394 " fill="none" style="stroke:#000000;stroke-width:1.0;stroke-dasharray:3.0,3.0;"/><path d="M211.0975,488.1869 L211.2949,484.3546 L207.6712,483.092 L215.753,481.3566 L211.0975,488.1869 " fill="#000000" style="stroke:#000000;stroke-width:1.0;"/><ellipse cx="149" cy="542.5" fill="#000000" rx="3" ry="3" style="stroke:#000000;stroke-width:1.0;"/><path d="M149,562.5 L162,562.5 C167.5766,562.5 188.8584,555.1097 211.1152,546.7632 " fill="none" style="stroke:#000000;stroke-width:1.0;stroke-dasharray:3.0,3.0;"/><path d="M212.2094,549.66 L213.2878,545.9426 L210.0211,543.8665 L218.3571,544.0279 L212.2094,549.66 " fill="#000000" style="stroke:#000000;stroke-width:1.0;"/><ellipse cx="149" cy="562.5" fill="#000000" rx="3" ry="3" style="stroke:#000000;stroke-width:1.0;"/><path d="M149,582.5 L162,582.5 C171.2896,582.5 181.0267,582.5 190.694,582.5 " fill="none" style="stroke:#000000;stroke-width:1.0;stroke-dasharray:3.0,3.0;"/><path d="M190.694,585.5913 L193.0124,582.5 L190.694,579.4087 L198.4221,582.5 L190.694,585.5913 " fill="#000000" style="stroke:#000000;stroke-width:1.0;"/><ellipse cx="149" cy="582.5" fill="#000000" rx="3" ry="3" style="stroke:#000000;stroke-width:1.0;"/><path d="M149,603.5 L162,603.5 C171.5011,603.5 188.2448,609.7335 205.7771,617.7078 " fill="none" style="stroke:#000000;stroke-width:1.0;stroke-dasharray:3.0,3.0;"/><path d="M204.4743,620.5112 L207.8797,618.6849 L207.0799,614.9044 L212.7856,620.9649 L204.4743,620.5112 " fill="#000000" style="stroke:#000000;stroke-width:1.0;"/><ellipse cx="149" cy="603.5" fill="#000000" rx="3" ry="3" style="stroke:#000000;stroke-width:1.0;"/><path d="M149,623.5 L162,623.5 C196.1962,623.5 172.5681,668.6395 198,691.5 C199.4997,692.8481 201.0699,694.1374 202.6973,695.3702 " fill="none" style="stroke:#000000;stroke-width:1.0;stroke-dasharray:3.0,3.0;"/><path d="M200.9053,697.9834 L204.6572,696.7142 L204.4893,692.757 L209.2302,699.8502 L200.9053,697.9834 " fill="#000000" style="stroke:#000000;stroke-width:1.0;"/><ellipse cx="149" cy="623.5" fill="#000000" rx="3" ry="3" style="stroke:#000000;stroke-width:1.0;"/><path d="M149.5,642.5 L149.5,655.5 C149.5,702.9063 162.9803,718.5473 198,750.5 C199.4896,751.8592 201.0509,753.1583 202.6705,754.3998 " fill="none" style="stroke:#000000;stroke-width:1.0;stroke-dasharray:3.0,3.0;"/><path d="M200.8674,757.0029 L204.6229,755.7521 L204.4736,751.7966 L209.1784,758.9075 L200.8674,757.0029 " fill="#000000" style="stroke:#000000;stroke-width:1.0;"/><ellipse cx="149.5" cy="642.5" fill="#000000" rx="3" ry="3" style="stroke:#000000;stroke-width:1.0;"/><path d="M89.5,419.5 L89.5,432.5 C89.5,483.7006 116.1311,538.7749 133.6094,569.4072 " fill="none" style="stroke:#000000;stroke-width:1.0;stroke-dasharray:3.0,3.0;"/><path d="M131.002,570.9244 L134.7474,571.3627 L136.2168,567.8899 L137.4026,575.9257 L131.002,570.9244 " fill="#000000" style="stroke:#000000;stroke-width:1.0;"/><ellipse cx="89.5" cy="419.5" fill="#000000" rx="3" ry="3" style="stroke:#000000;stroke-width:1.0;"/><!--SRC=[xLTHRzem47xth_3or4ejK9hGZQUEKbfr85MbzANgWvCSu97OcNq1eOh_FZjX9Mi9WgsLDeaWGdB-_7tsdNq-pZKoXT-r55I3ce9gjyWd74CCTCfznGJIeP8n7ICckbcjAZQhZ3YEKpyr-40A186LGCRL93BWD8vM3p7J2AgQiMb2dWarbpCm_RJJf8_PgxsUNvuSmM8mRGuFdQEL5UT9RXLOD2SJOqILmejfSRI9DFjTGnkCcNgirvwSBNaIflLCgl0zk4PAfeakcUpZKx5XQAVhN6KTAiP1MoeC5GSHxYAHHMW7XIJr8nvyWtcfGqvgltaaUthAxdcFvQp-wrKHWWuKJv1BKKxdULlpfTa- -OUYjfbDyIb3s7qHBCYvMPus0H5olYOPwGaN2LCifYqMJEns4U65ZAIYdUmg0FIOXNB6nOWEMQIXq7ANzr8253qhsByg9MSvc-kv3TShj7LCRYjfwiEF54G0NJuqNm4jamn0vU365_jP0ywM-3KmWzo2EaElS9jPjzVFaVTZ7am4Q4rFID5_IsIRJxb1BSDS95yETsKkCbdhcvajYWBcZZpWYJrLbkHlOjeuTSyswQuKbl5VEvZAA-MG8VEPXXBPMkqLrGRPTHCpPo37UUcSBZsl_kVaGcBPkC_CgDlkJjHRkOi5A5M9vXkU7QVZMogcFifRjYHHClemzYY2mEPuNQhWTTo_K31RC8NtsHsROhqlnlR5sBuOsnTZvSNOhVqRD-XrgQd3jF6ZoHprMlsqKlS1sSd1G4o4d0cJ4UE4Hq2Hnt183gvkkrJBL0L0GwvHSJ-rGJWaDspAw5qgBAv9xTl1VU-GzYz_6Ucbc78bHMmEKtBpqCj1z5fYFv6OWHlkSOkZgMXiRKWVUgGDGvP6QBe6CZI5NvCExZl7dqcNYL7AHaO81Bam2HJLtBJrVm80]--></g></svg>