<?xml version="1.0" encoding="UTF-8" standalone="no"?><svg xmlns="http://www.w3.org/2000/svg" xmlns:xlink="http://www.w3.org/1999/xlink" contentStyleType="text/css" height="870px" preserveAspectRatio="none" style="width:356px;height:870px;background:#FFFFFF;" version="1.1" viewBox="0 0 356 870" width="356px" zoomAndPan="magnify"><defs/><g><rect fill="#F1F1F1" height="40.5938" rx="5" ry="5" style="stroke:#F1F1F1;stroke-width:1.5;" width="90" x="10" y="444"/><text fill="#000000" font-family="sans-serif" font-size="14" font-weight="bold" lengthAdjust="spacing" textLength="45" x="15" y="458.9951">Users</text><text fill="#000000" font-family="sans-serif" font-size="14" lengthAdjust="spacing" textLength="12" x="83" y="458.9951">   </text><line style="stroke:#000000;stroke-width:1.0;" x1="78" x2="78" y1="444" y2="464.2969"/><line style="stroke:#000000;stroke-width:1.0;" x1="10" x2="100" y1="464.2969" y2="464.2969"/><text fill="#000000" font-family="sans-serif" font-size="14" font-weight="bold" lengthAdjust="spacing" textLength="58" x="15" y="479.292">Groups</text><text fill="#000000" font-family="sans-serif" font-size="14" lengthAdjust="spacing" textLength="12" x="83" y="479.292">   </text><line style="stroke:#000000;stroke-width:1.0;" x1="78" x2="78" y1="464.2969" y2="484.5938"/><rect fill="none" height="40.5938" rx="5" ry="5" style="stroke:#000000;stroke-width:1.5;" width="90" x="10" y="444"/><rect fill="#F1F1F1" height="142.0781" rx="5" ry="5" style="stroke:#F1F1F1;stroke-width:1.5;" width="22" x="137" y="181.5"/><text fill="#000000" font-family="sans-serif" font-size="14" lengthAdjust="spacing" textLength="12" x="142" y="196.4951">   </text><line style="stroke:#000000;stroke-width:1.0;" x1="137" x2="159" y1="201.7969" y2="201.7969"/><text fill="#000000" font-family="sans-serif" font-size="14" lengthAdjust="spacing" textLength="12" x="142" y="216.792">   </text><line style="stroke:#000000;stroke-width:1.0;" x1="137" x2="159" y1="222.0938" y2="222.0938"/><text fill="#000000" font-family="sans-serif" font-size="14" lengthAdjust="spacing" textLength="12" x="142" y="237.0889">   </text><line style="stroke:#000000;stroke-width:1.0;" x1="137" x2="159" y1="242.3906" y2="242.3906"/><text fill="#000000" font-family="sans-serif" font-size="14" lengthAdjust="spacing" textLength="12" x="142" y="257.3857">   </text><line style="stroke:#000000;stroke-width:1.0;" x1="137" x2="159" y1="262.6875" y2="262.6875"/><text fill="#000000" font-family="sans-serif" font-size="14" lengthAdjust="spacing" textLength="12" x="142" y="277.6826">   </text><line style="stroke:#000000;stroke-width:1.0;" x1="137" x2="159" y1="282.9844" y2="282.9844"/><text fill="#000000" font-family="sans-serif" font-size="14" lengthAdjust="spacing" textLength="12" x="142" y="297.9795">   </text><line style="stroke:#000000;stroke-width:1.0;" x1="137" x2="159" y1="303.2813" y2="303.2813"/><text fill="#000000" font-family="sans-serif" font-size="14" lengthAdjust="spacing" textLength="12" x="142" y="318.2764">   </text><rect fill="none" height="142.0781" rx="5" ry="5" style="stroke:#000000;stroke-width:1.5;" width="22" x="137" y="181.5"/><rect fill="#F1F1F1" height="60.8906" rx="5" ry="5" style="stroke:#F1F1F1;stroke-width:1.5;" width="111" x="215.5" y="10"/><text fill="#000000" font-family="sans-serif" font-size="14" font-weight="bold" lengthAdjust="spacing" textLength="44" x="220.5" y="24.9951">name</text><text fill="#000000" font-family="sans-serif" font-size="14" lengthAdjust="spacing" textLength="13" x="274.5" y="24.9951">id</text><line style="stroke:#000000;stroke-width:1.0;" x1="269.5" x2="269.5" y1="10" y2="30.2969"/><line style="stroke:#000000;stroke-width:1.0;" x1="215.5" x2="326.5" y1="30.2969" y2="30.2969"/><text fill="#000000" font-family="sans-serif" font-size="14" font-weight="bold" lengthAdjust="spacing" textLength="36" x="220.5" y="45.292">type</text><text fill="#000000" font-family="sans-serif" font-size="14" lengthAdjust="spacing" textLength="20" x="274.5" y="45.292">int</text><line style="stroke:#000000;stroke-width:1.0;" x1="269.5" x2="269.5" y1="30.2969" y2="50.5938"/><line style="stroke:#000000;stroke-width:1.0;" x1="215.5" x2="326.5" y1="50.5938" y2="50.5938"/><text fill="#000000" font-family="sans-serif" font-size="14" font-weight="bold" lengthAdjust="spacing" textLength="19" x="220.5" y="65.5889">pk</text><text fill="#000000" font-family="sans-serif" font-size="14" lengthAdjust="spacing" textLength="47" x="274.5" y="65.5889">☑ true</text><line style="stroke:#000000;stroke-width:1.0;" x1="269.5" x2="269.5" y1="50.5938" y2="70.8906"/><rect fill="none" height="60.8906" rx="5" ry="5" style="stroke:#000000;stroke-width:1.5;" width="111" x="215.5" y="10"/><rect fill="#F1F1F1" height="40.5938" rx="5" ry="5" style="stroke:#F1F1F1;stroke-width:1.5;" width="122" x="210" y="89"/><text fill="#000000" font-family="sans-serif" font-size="14" font-weight="bold" lengthAdjust="spacing" textLength="44" x="215" y="103.9951">name</text><text fill="#000000" font-family="sans-serif" font-size="14" lengthAdjust="spacing" textLength="40" x="269" y="103.9951">name</text><line style="stroke:#000000;stroke-width:1.0;" x1="264" x2="264" y1="89" y2="109.2969"/><line style="stroke:#000000;stroke-width:1.0;" x1="210" x2="332" y1="109.2969" y2="109.2969"/><text fill="#000000" font-family="sans-serif" font-size="14" font-weight="bold" lengthAdjust="spacing" textLength="36" x="215" y="124.292">type</text><text fill="#000000" font-family="sans-serif" font-size="14" lengthAdjust="spacing" textLength="58" x="269" y="124.292">char[20]</text><line style="stroke:#000000;stroke-width:1.0;" x1="264" x2="264" y1="109.2969" y2="129.5938"/><rect fill="none" height="40.5938" rx="5" ry="5" style="stroke:#000000;stroke-width:1.5;" width="122" x="210" y="89"/><rect fill="#F1F1F1" height="40.5938" rx="5" ry="5" style="stroke:#F1F1F1;stroke-width:1.5;" width="131" x="205.5" y="148"/><text fill="#000000" font-family="sans-serif" font-size="14" font-weight="bold" lengthAdjust="spacing" textLength="44" x="210.5" y="162.9951">name</text><text fill="#000000" font-family="sans-serif" font-size="14" lengthAdjust="spacing" textLength="67" x="264.5" y="162.9951">password</text><line style="stroke:#000000;stroke-width:1.0;" x1="259.5" x2="259.5" y1="148" y2="168.2969"/><line style="stroke:#000000;stroke-width:1.0;" x1="205.5" x2="336.5" y1="168.2969" y2="168.2969"/><text fill="#000000" font-family="sans-serif" font-size="14" font-weight="bold" lengthAdjust="spacing" textLength="36" x="210.5" y="183.292">type</text><text fill="#000000" font-family="sans-serif" font-size="14" lengthAdjust="spacing" textLength="58" x="264.5" y="183.292">char[20]</text><line style="stroke:#000000;stroke-width:1.0;" x1="259.5" x2="259.5" y1="168.2969" y2="188.5938"/><rect fill="none" height="40.5938" rx="5" ry="5" style="stroke:#000000;stroke-width:1.5;" width="131" x="205.5" y="148"/><rect fill="#F1F1F1" height="40.5938" rx="5" ry="5" style="stroke:#F1F1F1;stroke-width:1.5;" width="122" x="210" y="207"/><text fill="#000000" font-family="sans-serif" font-size="14" font-weight="bold" lengthAdjust="spacing" textLength="44" x="215" y="221.9951">name</text><text fill="#000000" font-family="sans-serif" font-size="14" lengthAdjust="spacing" textLength="44" x="269" y="221.9951">status</text><line style="stroke:#000000;stroke-width:1.0;" x1="264" x2="264" y1="207" y2="227.2969"/><line style="stroke:#000000;stroke-width:1.0;" x1="210" x2="332" y1="227.2969" y2="227.2969"/><text fill="#000000" font-family="sans-serif" font-size="14" font-weight="bold" lengthAdjust="spacing" textLength="36" x="215" y="242.292">type</text><text fill="#000000" font-family="sans-serif" font-size="14" lengthAdjust="spacing" textLength="58" x="269" y="242.292">char[20]</text><line style="stroke:#000000;stroke-width:1.0;" x1="264" x2="264" y1="227.2969" y2="247.5938"/><rect fill="none" height="40.5938" rx="5" ry="5" style="stroke:#000000;stroke-width:1.5;" width="122" x="210" y="207"/><rect fill="#F1F1F1" height="60.8906" rx="5" ry="5" style="stroke:#F1F1F1;stroke-width:1.5;" width="133" x="204.5" y="266"/><text fill="#000000" font-family="sans-serif" font-size="14" font-weight="bold" lengthAdjust="spacing" textLength="44" x="209.5" y="280.9951">name</text><text fill="#000000" font-family="sans-serif" font-size="14" lengthAdjust="spacing" textLength="49" x="263.5" y="280.9951">groups</text><line style="stroke:#000000;stroke-width:1.0;" x1="258.5" x2="258.5" y1="266" y2="286.2969"/><line style="stroke:#000000;stroke-width:1.0;" x1="204.5" x2="337.5" y1="286.2969" y2="286.2969"/><text fill="#000000" font-family="sans-serif" font-size="14" font-weight="bold" lengthAdjust="spacing" textLength="36" x="209.5" y="301.292">type</text><text fill="#000000" font-family="sans-serif" font-size="14" lengthAdjust="spacing" textLength="30" x="263.5" y="301.292">int[]</text><line style="stroke:#000000;stroke-width:1.0;" x1="258.5" x2="258.5" y1="286.2969" y2="306.5938"/><line style="stroke:#000000;stroke-width:1.0;" x1="204.5" x2="337.5" y1="306.5938" y2="306.5938"/><text fill="#000000" font-family="sans-serif" font-size="14" font-weight="bold" lengthAdjust="spacing" textLength="16" x="209.5" y="321.5889">fk</text><text fill="#000000" font-family="sans-serif" font-size="14" lengthAdjust="spacing" textLength="69" x="263.5" y="321.5889">Groups.id</text><line style="stroke:#000000;stroke-width:1.0;" x1="258.5" x2="258.5" y1="306.5938" y2="326.8906"/><rect fill="none" height="60.8906" rx="5" ry="5" style="stroke:#000000;stroke-width:1.5;" width="133" x="204.5" y="266"/><rect fill="#F1F1F1" height="60.8906" rx="5" ry="5" style="stroke:#F1F1F1;stroke-width:1.5;" width="120" x="211" y="345"/><text fill="#000000" font-family="sans-serif" font-size="14" font-weight="bold" lengthAdjust="spacing" textLength="44" x="216" y="359.9951">name</text><text fill="#000000" font-family="sans-serif" font-size="14" lengthAdjust="spacing" textLength="50" x="270" y="359.9951">friends</text><line style="stroke:#000000;stroke-width:1.0;" x1="265" x2="265" y1="345" y2="365.2969"/><line style="stroke:#000000;stroke-width:1.0;" x1="211" x2="331" y1="365.2969" y2="365.2969"/><text fill="#000000" font-family="sans-serif" font-size="14" font-weight="bold" lengthAdjust="spacing" textLength="36" x="216" y="380.292">type</text><text fill="#000000" font-family="sans-serif" font-size="14" lengthAdjust="spacing" textLength="30" x="270" y="380.292">int[]</text><line style="stroke:#000000;stroke-width:1.0;" x1="265" x2="265" y1="365.2969" y2="385.5938"/><line style="stroke:#000000;stroke-width:1.0;" x1="211" x2="331" y1="385.5938" y2="385.5938"/><text fill="#000000" font-family="sans-serif" font-size="14" font-weight="bold" lengthAdjust="spacing" textLength="16" x="216" y="400.5889">fk</text><text fill="#000000" font-family="sans-serif" font-size="14" lengthAdjust="spacing" textLength="56" x="270" y="400.5889">Users.id</text><line style="stroke:#000000;stroke-width:1.0;" x1="265" x2="265" y1="385.5938" y2="405.8906"/><rect fill="none" height="60.8906" rx="5" ry="5" style="stroke:#000000;stroke-width:1.5;" width="120" x="211" y="345"/><rect fill="#F1F1F1" height="40.5938" rx="5" ry="5" style="stroke:#F1F1F1;stroke-width:1.5;" width="135" x="203.5" y="424"/><text fill="#000000" font-family="sans-serif" font-size="14" font-weight="bold" lengthAdjust="spacing" textLength="44" x="208.5" y="438.9951">name</text><text fill="#000000" font-family="sans-serif" font-size="14" lengthAdjust="spacing" textLength="71" x="262.5" y="438.9951">publicKey</text><line style="stroke:#000000;stroke-width:1.0;" x1="257.5" x2="257.5" y1="424" y2="444.2969"/><line style="stroke:#000000;stroke-width:1.0;" x1="203.5" x2="338.5" y1="444.2969" y2="444.2969"/><text fill="#000000" font-family="sans-serif" font-size="14" font-weight="bold" lengthAdjust="spacing" textLength="36" x="208.5" y="459.292">type</text><text fill="#000000" font-family="sans-serif" font-size="14" lengthAdjust="spacing" textLength="68" x="262.5" y="459.292">char[100]</text><line style="stroke:#000000;stroke-width:1.0;" x1="257.5" x2="257.5" y1="444.2969" y2="464.5938"/><rect fill="none" height="40.5938" rx="5" ry="5" style="stroke:#000000;stroke-width:1.5;" width="135" x="203.5" y="424"/><rect fill="#F1F1F1" height="121.7813" rx="5" ry="5" style="stroke:#F1F1F1;stroke-width:1.5;" width="22" x="137" y="591.5"/><text fill="#000000" font-family="sans-serif" font-size="14" lengthAdjust="spacing" textLength="12" x="142" y="606.4951">   </text><line style="stroke:#000000;stroke-width:1.0;" x1="137" x2="159" y1="611.7969" y2="611.7969"/><text fill="#000000" font-family="sans-serif" font-size="14" lengthAdjust="spacing" textLength="12" x="142" y="626.792">   </text><line style="stroke:#000000;stroke-width:1.0;" x1="137" x2="159" y1="632.0938" y2="632.0938"/><text fill="#000000" font-family="sans-serif" font-size="14" lengthAdjust="spacing" textLength="12" x="142" y="647.0889">   </text><line style="stroke:#000000;stroke-width:1.0;" x1="137" x2="159" y1="652.3906" y2="652.3906"/><text fill="#000000" font-family="sans-serif" font-size="14" lengthAdjust="spacing" textLength="12" x="142" y="667.3857">   </text><line style="stroke:#000000;stroke-width:1.0;" x1="137" x2="159" y1="672.6875" y2="672.6875"/><text fill="#000000" font-family="sans-serif" font-size="14" lengthAdjust="spacing" textLength="12" x="142" y="687.6826">   </text><line style="stroke:#000000;stroke-width:1.0;" x1="137" x2="159" y1="692.9844" y2="692.9844"/><text fill="#000000" font-family="sans-serif" font-size="14" lengthAdjust="spacing" textLength="12" x="142" y="707.9795">   </text><rect fill="none" height="121.7813" rx="5" ry="5" style="stroke:#000000;stroke-width:1.5;" width="22" x="137" y="591.5"/><rect fill="#F1F1F1" height="60.8906" rx="5" ry="5" style="stroke:#F1F1F1;stroke-width:1.5;" width="111" x="215.5" y="483"/><text fill="#000000" font-family="sans-serif" font-size="14" font-weight="bold" lengthAdjust="spacing" textLength="44" x="220.5" y="497.9951">name</text><text fill="#000000" font-family="sans-serif" font-size="14" lengthAdjust="spacing" textLength="13" x="274.5" y="497.9951">id</text><line style="stroke:#000000;stroke-width:1.0;" x1="269.5" x2="269.5" y1="483" y2="503.2969"/><line style="stroke:#000000;stroke-width:1.0;" x1="215.5" x2="326.5" y1="503.2969" y2="503.2969"/><text fill="#000000" font-family="sans-serif" font-size="14" font-weight="bold" lengthAdjust="spacing" textLength="36" x="220.5" y="518.292">type</text><text fill="#000000" font-family="sans-serif" font-size="14" lengthAdjust="spacing" textLength="20" x="274.5" y="518.292">int</text><line style="stroke:#000000;stroke-width:1.0;" x1="269.5" x2="269.5" y1="503.2969" y2="523.5938"/><line style="stroke:#000000;stroke-width:1.0;" x1="215.5" x2="326.5" y1="523.5938" y2="523.5938"/><text fill="#000000" font-family="sans-serif" font-size="14" font-weight="bold" lengthAdjust="spacing" textLength="19" x="220.5" y="538.5889">pk</text><text fill="#000000" font-family="sans-serif" font-size="14" lengthAdjust="spacing" textLength="47" x="274.5" y="538.5889">☑ true</text><line style="stroke:#000000;stroke-width:1.0;" x1="269.5" x2="269.5" y1="523.5938" y2="543.8906"/><rect fill="none" height="60.8906" rx="5" ry="5" style="stroke:#000000;stroke-width:1.5;" width="111" x="215.5" y="483"/><rect fill="#F1F1F1" height="40.5938" rx="5" ry="5" style="stroke:#F1F1F1;stroke-width:1.5;" width="122" x="210" y="562"/><text fill="#000000" font-family="sans-serif" font-size="14" font-weight="bold" lengthAdjust="spacing" textLength="44" x="215" y="576.9951">name</text><text fill="#000000" font-family="sans-serif" font-size="14" lengthAdjust="spacing" textLength="40" x="269" y="576.9951">name</text><line style="stroke:#000000;stroke-width:1.0;" x1="264" x2="264" y1="562" y2="582.2969"/><line style="stroke:#000000;stroke-width:1.0;" x1="210" x2="332" y1="582.2969" y2="582.2969"/><text fill="#000000" font-family="sans-serif" font-size="14" font-weight="bold" lengthAdjust="spacing" textLength="36" x="215" y="597.292">type</text><text fill="#000000" font-family="sans-serif" font-size="14" lengthAdjust="spacing" textLength="58" x="269" y="597.292">char[20]</text><line style="stroke:#000000;stroke-width:1.0;" x1="264" x2="264" y1="582.2969" y2="602.5938"/><rect fill="none" height="40.5938" rx="5" ry="5" style="stroke:#000000;stroke-width:1.5;" width="122" x="210" y="562"/><rect fill="#F1F1F1" height="40.5938" rx="5" ry="5" style="stroke:#F1F1F1;stroke-width:1.5;" width="146" x="198" y="621"/><text fill="#000000" font-family="sans-serif" font-size="14" font-weight="bold" lengthAdjust="spacing" textLength="44" x="203" y="635.9951">name</text><text fill="#000000" font-family="sans-serif" font-size="14" lengthAdjust="spacing" textLength="82" x="257" y="635.9951">description</text><line style="stroke:#000000;stroke-width:1.0;" x1="252" x2="252" y1="621" y2="641.2969"/><line style="stroke:#000000;stroke-width:1.0;" x1="198" x2="344" y1="641.2969" y2="641.2969"/><text fill="#000000" font-family="sans-serif" font-size="14" font-weight="bold" lengthAdjust="spacing" textLength="36" x="203" y="656.292">type</text><text fill="#000000" font-family="sans-serif" font-size="14" lengthAdjust="spacing" textLength="67" x="257" y="656.292">char[255]</text><line style="stroke:#000000;stroke-width:1.0;" x1="252" x2="252" y1="641.2969" y2="661.5938"/><rect fill="none" height="40.5938" rx="5" ry="5" style="stroke:#000000;stroke-width:1.5;" width="146" x="198" y="621"/><rect fill="#F1F1F1" height="60.8906" rx="5" ry="5" style="stroke:#F1F1F1;stroke-width:1.5;" width="120" x="211" y="680"/><text fill="#000000" font-family="sans-serif" font-size="14" font-weight="bold" lengthAdjust="spacing" textLength="44" x="216" y="694.9951">name</text><text fill="#000000" font-family="sans-serif" font-size="14" lengthAdjust="spacing" textLength="37" x="270" y="694.9951">users</text><line style="stroke:#000000;stroke-width:1.0;" x1="265" x2="265" y1="680" y2="700.2969"/><line style="stroke:#000000;stroke-width:1.0;" x1="211" x2="331" y1="700.2969" y2="700.2969"/><text fill="#000000" font-family="sans-serif" font-size="14" font-weight="bold" lengthAdjust="spacing" textLength="36" x="216" y="715.292">type</text><text fill="#000000" font-family="sans-serif" font-size="14" lengthAdjust="spacing" textLength="30" x="270" y="715.292">int[]</text><line style="stroke:#000000;stroke-width:1.0;" x1="265" x2="265" y1="700.2969" y2="720.5938"/><line style="stroke:#000000;stroke-width:1.0;" x1="211" x2="331" y1="720.5938" y2="720.5938"/><text fill="#000000" font-family="sans-serif" font-size="14" font-weight="bold" lengthAdjust="spacing" textLength="16" x="216" y="735.5889">fk</text><text fill="#000000" font-family="sans-serif" font-size="14" lengthAdjust="spacing" textLength="56" x="270" y="735.5889">Users.id</text><line style="stroke:#000000;stroke-width:1.0;" x1="265" x2="265" y1="720.5938" y2="740.8906"/><rect fill="none" height="60.8906" rx="5" ry="5" style="stroke:#000000;stroke-width:1.5;" width="120" x="211" y="680"/><rect fill="#F1F1F1" height="40.5938" rx="5" ry="5" style="stroke:#F1F1F1;stroke-width:1.5;" width="135" x="203.5" y="759"/><text fill="#000000" font-family="sans-serif" font-size="14" font-weight="bold" lengthAdjust="spacing" textLength="44" x="208.5" y="773.9951">name</text><text fill="#000000" font-family="sans-serif" font-size="14" lengthAdjust="spacing" textLength="71" x="262.5" y="773.9951">publicKey</text><line style="stroke:#000000;stroke-width:1.0;" x1="257.5" x2="257.5" y1="759" y2="779.2969"/><line style="stroke:#000000;stroke-width:1.0;" x1="203.5" x2="338.5" y1="779.2969" y2="779.2969"/><text fill="#000000" font-family="sans-serif" font-size="14" font-weight="bold" lengthAdjust="spacing" textLength="36" x="208.5" y="794.292">type</text><text fill="#000000" font-family="sans-serif" font-size="14" lengthAdjust="spacing" textLength="68" x="262.5" y="794.292">char[100]</text><line style="stroke:#000000;stroke-width:1.0;" x1="257.5" x2="257.5" y1="779.2969" y2="799.5938"/><rect fill="none" height="40.5938" rx="5" ry="5" style="stroke:#000000;stroke-width:1.5;" width="135" x="203.5" y="759"/><rect fill="#F1F1F1" height="40.5938" rx="5" ry="5" style="stroke:#F1F1F1;stroke-width:1.5;" width="143" x="199.5" y="818"/><text fill="#000000" font-family="sans-serif" font-size="14" font-weight="bold" lengthAdjust="spacing" textLength="44" x="204.5" y="832.9951">name</text><text fill="#000000" font-family="sans-serif" font-size="14" lengthAdjust="spacing" textLength="79" x="258.5" y="832.9951">privateKey</text><line style="stroke:#000000;stroke-width:1.0;" x1="253.5" x2="253.5" y1="818" y2="838.2969"/><line style="stroke:#000000;stroke-width:1.0;" x1="199.5" x2="342.5" y1="838.2969" y2="838.2969"/><text fill="#000000" font-family="sans-serif" font-size="14" font-weight="bold" lengthAdjust="spacing" textLength="36" x="204.5" y="853.292">type</text><text fill="#000000" font-family="sans-serif" font-size="14" lengthAdjust="spacing" textLength="68" x="258.5" y="853.292">char[100]</text><line style="stroke:#000000;stroke-width:1.0;" x1="253.5" x2="253.5" y1="838.2969" y2="858.5938"/><rect fill="none" height="40.5938" rx="5" ry="5" style="stroke:#000000;stroke-width:1.5;" width="143" x="199.5" y="818"/><path d="M149.5,193.5 L149.5,180.5 C149.5,130.7039 163.6052,115.5091 198,79.5 C201.5153,75.8197 205.4555,72.4086 209.6342,69.2631 " fill="none" style="stroke:#000000;stroke-width:1.0;stroke-dasharray:3.0,3.0;"/><path d="M211.4018,71.7717 L211.5156,67.9375 L207.8667,66.7546 L215.9056,64.8442 L211.4018,71.7717 " fill="#000000" style="stroke:#000000;stroke-width:1.0;"/><ellipse cx="149.5" cy="193.5" fill="#000000" rx="3" ry="3" style="stroke:#000000;stroke-width:1.0;"/><path d="M149,211.5 L162,211.5 C198.1752,211.5 171.4467,163.0676 198,138.5 C199.8409,136.7968 201.7943,135.1883 203.8344,133.6697 " fill="none" style="stroke:#000000;stroke-width:1.0;stroke-dasharray:3.0,3.0;"/><path d="M205.5507,136.2115 L205.7407,132.3825 L202.1181,131.128 L210.1888,129.379 L205.5507,136.2115 " fill="#000000" style="stroke:#000000;stroke-width:1.0;"/><ellipse cx="149" cy="211.5" fill="#000000" rx="3" ry="3" style="stroke:#000000;stroke-width:1.0;"/><path d="M149,231.5 L162,231.5 C184.0079,231.5 179.4558,209.3515 198,197.5 C200.6344,195.8164 203.3825,194.2007 206.2025,192.6545 " fill="none" style="stroke:#000000;stroke-width:1.0;stroke-dasharray:3.0,3.0;"/><path d="M207.5951,195.3308 L208.2098,191.6101 L204.81,189.9782 L212.8933,189.1732 L207.5951,195.3308 " fill="#000000" style="stroke:#000000;stroke-width:1.0;"/><ellipse cx="149" cy="231.5" fill="#000000" rx="3" ry="3" style="stroke:#000000;stroke-width:1.0;"/><path d="M149,251.5 L162,251.5 C175.4291,251.5 189.5772,249.7255 203.0604,247.1416 " fill="none" style="stroke:#000000;stroke-width:1.0;stroke-dasharray:3.0,3.0;"/><path d="M203.6655,250.107 L205.2845,246.6878 L202.4554,244.1762 L210.4739,245.6289 L203.6655,250.107 " fill="#000000" style="stroke:#000000;stroke-width:1.0;"/><ellipse cx="149" cy="251.5" fill="#000000" rx="3" ry="3" style="stroke:#000000;stroke-width:1.0;"/><path d="M149,272.5 L162,272.5 C173.4735,272.5 185.4719,273.7953 197.132,275.784 " fill="none" style="stroke:#000000;stroke-width:1.0;stroke-dasharray:3.0,3.0;"/><path d="M196.5719,278.8259 L199.4134,276.2041 L197.6922,272.7422 L204.7366,277.1844 L196.5719,278.8259 " fill="#000000" style="stroke:#000000;stroke-width:1.0;"/><ellipse cx="149" cy="272.5" fill="#000000" rx="3" ry="3" style="stroke:#000000;stroke-width:1.0;"/><path d="M149,292.5 L162,292.5 C186.9246,292.5 178.7607,319.6544 198,335.5 C200.2401,337.345 202.5777,339.1477 204.9836,340.9033 " fill="none" style="stroke:#000000;stroke-width:1.0;stroke-dasharray:3.0,3.0;"/><path d="M203.1699,343.5064 L206.9359,342.2636 L206.7972,338.3003 L211.4913,345.4375 L203.1699,343.5064 " fill="#000000" style="stroke:#000000;stroke-width:1.0;"/><ellipse cx="149" cy="292.5" fill="#000000" rx="3" ry="3" style="stroke:#000000;stroke-width:1.0;"/><path d="M149,313.5 L162,313.5 C209.6551,313.5 165.1546,379.9718 198,414.5 C199.5843,416.1655 201.2748,417.7418 203.0506,419.2334 " fill="none" style="stroke:#000000;stroke-width:1.0;stroke-dasharray:3.0,3.0;"/><path d="M201.1499,421.7677 L204.9513,420.6588 L204.9512,416.6991 L209.3863,423.985 L201.1499,421.7677 " fill="#000000" style="stroke:#000000;stroke-width:1.0;"/><ellipse cx="149" cy="313.5" fill="#000000" rx="3" ry="3" style="stroke:#000000;stroke-width:1.0;"/><path d="M89.5,455.5 L89.5,442.5 C89.5,382.5949 116.5806,316.6514 134.0481,280.3474 " fill="none" style="stroke:#000000;stroke-width:1.0;stroke-dasharray:3.0,3.0;"/><path d="M136.7901,281.6892 L135.0544,278.2909 L131.3061,279.0056 L137.4026,273.4923 L136.7901,281.6892 " fill="#000000" style="stroke:#000000;stroke-width:1.0;"/><ellipse cx="89.5" cy="455.5" fill="#000000" rx="3" ry="3" style="stroke:#000000;stroke-width:1.0;"/><path d="M149,601.5 L162,601.5 C188.6667,601.5 177.877,570.9978 198,553.5 C201.5595,550.4049 205.3975,547.4461 209.3843,544.6394 " fill="none" style="stroke:#000000;stroke-width:1.0;stroke-dasharray:3.0,3.0;"/><path d="M211.0975,547.1869 L211.2949,543.3546 L207.6712,542.092 L215.753,540.3566 L211.0975,547.1869 " fill="#000000" style="stroke:#000000;stroke-width:1.0;"/><ellipse cx="149" cy="601.5" fill="#000000" rx="3" ry="3" style="stroke:#000000;stroke-width:1.0;"/><path d="M149,621.5 L162,621.5 C167.5766,621.5 188.8584,614.1097 211.1152,605.7632 " fill="none" style="stroke:#000000;stroke-width:1.0;stroke-dasharray:3.0,3.0;"/><path d="M212.2094,608.66 L213.2878,604.9426 L210.0211,602.8665 L218.3571,603.0279 L212.2094,608.66 " fill="#000000" style="stroke:#000000;stroke-width:1.0;"/><ellipse cx="149" cy="621.5" fill="#000000" rx="3" ry="3" style="stroke:#000000;stroke-width:1.0;"/><path d="M149,641.5 L162,641.5 C171.2896,641.5 181.0267,641.5 190.694,641.5 " fill="none" style="stroke:#000000;stroke-width:1.0;stroke-dasharray:3.0,3.0;"/><path d="M190.694,644.5913 L193.0124,641.5 L190.694,638.4087 L198.4221,641.5 L190.694,644.5913 " fill="#000000" style="stroke:#000000;stroke-width:1.0;"/><ellipse cx="149" cy="641.5" fill="#000000" rx="3" ry="3" style="stroke:#000000;stroke-width:1.0;"/><path d="M149,662.5 L162,662.5 C171.5011,662.5 188.2448,668.7335 205.7771,676.7078 " fill="none" style="stroke:#000000;stroke-width:1.0;stroke-dasharray:3.0,3.0;"/><path d="M204.4743,679.5112 L207.8797,677.6849 L207.0799,673.9044 L212.7856,679.9649 L204.4743,679.5112 " fill="#000000" style="stroke:#000000;stroke-width:1.0;"/><ellipse cx="149" cy="662.5" fill="#000000" rx="3" ry="3" style="stroke:#000000;stroke-width:1.0;"/><path d="M149,682.5 L162,682.5 C196.1962,682.5 172.5681,727.6395 198,750.5 C199.4997,751.8481 201.0699,753.1374 202.6973,754.3702 " fill="none" style="stroke:#000000;stroke-width:1.0;stroke-dasharray:3.0,3.0;"/><path d="M200.9053,756.9834 L204.6572,755.7142 L204.4893,751.757 L209.2302,758.8502 L200.9053,756.9834 " fill="#000000" style="stroke:#000000;stroke-width:1.0;"/><ellipse cx="149" cy="682.5" fill="#000000" rx="3" ry="3" style="stroke:#000000;stroke-width:1.0;"/><path d="M149.5,701.5 L149.5,714.5 C149.5,761.9063 162.9803,777.5473 198,809.5 C199.4896,810.8592 201.0509,812.1583 202.6705,813.3998 " fill="none" style="stroke:#000000;stroke-width:1.0;stroke-dasharray:3.0,3.0;"/><path d="M200.8674,816.0029 L204.6229,814.7521 L204.4736,810.7966 L209.1784,817.9075 L200.8674,816.0029 " fill="#000000" style="stroke:#000000;stroke-width:1.0;"/><ellipse cx="149.5" cy="701.5" fill="#000000" rx="3" ry="3" style="stroke:#000000;stroke-width:1.0;"/><path d="M89.5,473.5 L89.5,486.5 C89.5,539.1049 116.1311,595.9534 133.6094,627.5989 " fill="none" style="stroke:#000000;stroke-width:1.0;stroke-dasharray:3.0,3.0;"/><path d="M130.9155,629.1162 L134.7474,629.6194 L136.3034,626.0817 L137.4026,634.3338 L130.9155,629.1162 " fill="#000000" style="stroke:#000000;stroke-width:1.0;"/><ellipse cx="89.5" cy="473.5" fill="#000000" rx="3" ry="3" style="stroke:#000000;stroke-width:1.0;"/><!--SRC=[xLTHRzem47xFh_1uQgKMA2LquwcZb5OjI5KfVQdwO983F18xiyyWLFM_xnnOoLg2O6kdJIA8a9m_VvzzPv-FKuDSupUZ93EW9w2R3UyJZY06DX5zpIMoWLOn6o4cfbugQJuj3WMERDyIFb0IGM8nK74fYGXiusZv47E3e4ifc_6y9u_HLUXHFrEeiuVqrLrFBqy5oMEWje882mTBAywIkLLYrfoCoOZQmelf-M0TQVgxWZOOSVrGAJyMDkH9k35JfSFtu2BtepNlmJJKoYOcnsqFZzc6WNDSuIBjK2HNRwWmq09ak8r46kij51BRZqHm3RDSXnoLV_58-lIOtkSz5hFwhzTN22RG8a6XP3wTxs_CPzCTzmz5RJsR5XEEiFqYUFPEQNcwLEPvfolIcXaBcN3DOzRWmTXj5ncUgKXfragl3C2CUAYcGWxPW4S6CYstyrvQWcOd6VjNhTLqpbRrgxMgdsbhKPRCQUh2TmioWBOOq5T2Wz8Aw3cuziLzLe3J9Nu9d90RKAVe9Muzw-RwS-JTI0HZ2SQm8o_hlmMoAIQ2K8imPyaNmrsQiqpE-cPcpra1kgC8HEBEfmNvcvZMZgidwtIN2eluhnnCyPLoo97tkO4SsNBv5TKQsLKJezDKu2ntJkU-N_bzSgamRzmdDEfcTIlgZTp50rGwH_CDpvRJwJighZ_AMwwuqIhwCFOeWi3bU9EhuBUgVw10Mz32- -oETR7UbNMxicvNrktAkhzHrjsulvQzJfjHHMV8ZvI3AkNASR7I1-H7UpqvbcegARV6YOY0eOXXtzkxk6apewmEW8N2e1PzwuAmxrtn2MUtLZfSdRctlRlEFkkU_pIoSpaHMicOZcNlwhup1x5BXTr4OGgkLGyR0gasSbKck-zuJHXm6o5r3LH89MITzUvQXv-zDfT3ouSa1D8xerICUaPjtHy0]--></g></svg>