<?xml version="1.0" encoding="UTF-8" standalone="no"?><svg xmlns="http://www.w3.org/2000/svg" xmlns:xlink="http://www.w3.org/1999/xlink" contentStyleType="text/css" height="811px" preserveAspectRatio="none" style="width:358px;height:811px;background:#FFFFFF;" version="1.1" viewBox="0 0 358 811" width="358px" zoomAndPan="magnify"><defs/><g><rect fill="#F1F1F1" height="40.5938" rx="5" ry="5" style="stroke:#F1F1F1;stroke-width:1.5;" width="90" x="10" y="444"/><text fill="#000000" font-family="sans-serif" font-size="14" font-weight="bold" lengthAdjust="spacing" textLength="45" x="15" y="458.9951">Users</text><text fill="#000000" font-family="sans-serif" font-size="14" lengthAdjust="spacing" textLength="12" x="83" y="458.9951">   </text><line style="stroke:#000000;stroke-width:1.0;" x1="78" x2="78" y1="444" y2="464.2969"/><line style="stroke:#000000;stroke-width:1.0;" x1="10" x2="100" y1="464.2969" y2="464.2969"/><text fill="#000000" font-family="sans-serif" font-size="14" font-weight="bold" lengthAdjust="spacing" textLength="58" x="15" y="479.292">Groups</text><text fill="#000000" font-family="sans-serif" font-size="14" lengthAdjust="spacing" textLength="12" x="83" y="479.292">   </text><line style="stroke:#000000;stroke-width:1.0;" x1="78" x2="78" y1="464.2969" y2="484.5938"/><rect fill="none" height="40.5938" rx="5" ry="5" style="stroke:#000000;stroke-width:1.5;" width="90" x="10" y="444"/><rect fill="#F1F1F1" height="162.375" rx="5" ry="5" style="stroke:#F1F1F1;stroke-width:1.5;" width="22" x="137" y="195.5"/><text fill="#000000" font-family="sans-serif" font-size="14" lengthAdjust="spacing" textLength="12" x="142" y="210.4951">   </text><line style="stroke:#000000;stroke-width:1.0;" x1="137" x2="159" y1="215.7969" y2="215.7969"/><text fill="#000000" font-family="sans-serif" font-size="14" lengthAdjust="spacing" textLength="12" x="142" y="230.792">   </text><line style="stroke:#000000;stroke-width:1.0;" x1="137" x2="159" y1="236.0938" y2="236.0938"/><text fill="#000000" font-family="sans-serif" font-size="14" lengthAdjust="spacing" textLength="12" x="142" y="251.0889">   </text><line style="stroke:#000000;stroke-width:1.0;" x1="137" x2="159" y1="256.3906" y2="256.3906"/><text fill="#000000" font-family="sans-serif" font-size="14" lengthAdjust="spacing" textLength="12" x="142" y="271.3857">   </text><line style="stroke:#000000;stroke-width:1.0;" x1="137" x2="159" y1="276.6875" y2="276.6875"/><text fill="#000000" font-family="sans-serif" font-size="14" lengthAdjust="spacing" textLength="12" x="142" y="291.6826">   </text><line style="stroke:#000000;stroke-width:1.0;" x1="137" x2="159" y1="296.9844" y2="296.9844"/><text fill="#000000" font-family="sans-serif" font-size="14" lengthAdjust="spacing" textLength="12" x="142" y="311.9795">   </text><line style="stroke:#000000;stroke-width:1.0;" x1="137" x2="159" y1="317.2813" y2="317.2813"/><text fill="#000000" font-family="sans-serif" font-size="14" lengthAdjust="spacing" textLength="12" x="142" y="332.2764">   </text><line style="stroke:#000000;stroke-width:1.0;" x1="137" x2="159" y1="337.5781" y2="337.5781"/><text fill="#000000" font-family="sans-serif" font-size="14" lengthAdjust="spacing" textLength="12" x="142" y="352.5732">   </text><rect fill="none" height="162.375" rx="5" ry="5" style="stroke:#000000;stroke-width:1.5;" width="22" x="137" y="195.5"/><rect fill="#F1F1F1" height="60.8906" rx="5" ry="5" style="stroke:#F1F1F1;stroke-width:1.5;" width="111" x="216.5" y="10"/><text fill="#000000" font-family="sans-serif" font-size="14" font-weight="bold" lengthAdjust="spacing" textLength="44" x="221.5" y="24.9951">name</text><text fill="#000000" font-family="sans-serif" font-size="14" lengthAdjust="spacing" textLength="13" x="275.5" y="24.9951">id</text><line style="stroke:#000000;stroke-width:1.0;" x1="270.5" x2="270.5" y1="10" y2="30.2969"/><line style="stroke:#000000;stroke-width:1.0;" x1="216.5" x2="327.5" y1="30.2969" y2="30.2969"/><text fill="#000000" font-family="sans-serif" font-size="14" font-weight="bold" lengthAdjust="spacing" textLength="36" x="221.5" y="45.292">type</text><text fill="#000000" font-family="sans-serif" font-size="14" lengthAdjust="spacing" textLength="20" x="275.5" y="45.292">int</text><line style="stroke:#000000;stroke-width:1.0;" x1="270.5" x2="270.5" y1="30.2969" y2="50.5938"/><line style="stroke:#000000;stroke-width:1.0;" x1="216.5" x2="327.5" y1="50.5938" y2="50.5938"/><text fill="#000000" font-family="sans-serif" font-size="14" font-weight="bold" lengthAdjust="spacing" textLength="19" x="221.5" y="65.5889">pk</text><text fill="#000000" font-family="sans-serif" font-size="14" lengthAdjust="spacing" textLength="47" x="275.5" y="65.5889">☑ true</text><line style="stroke:#000000;stroke-width:1.0;" x1="270.5" x2="270.5" y1="50.5938" y2="70.8906"/><rect fill="none" height="60.8906" rx="5" ry="5" style="stroke:#000000;stroke-width:1.5;" width="111" x="216.5" y="10"/><rect fill="#F1F1F1" height="40.5938" rx="5" ry="5" style="stroke:#F1F1F1;stroke-width:1.5;" width="122" x="211" y="89"/><text fill="#000000" font-family="sans-serif" font-size="14" font-weight="bold" lengthAdjust="spacing" textLength="44" x="216" y="103.9951">name</text><text fill="#000000" font-family="sans-serif" font-size="14" lengthAdjust="spacing" textLength="40" x="270" y="103.9951">name</text><line style="stroke:#000000;stroke-width:1.0;" x1="265" x2="265" y1="89" y2="109.2969"/><line style="stroke:#000000;stroke-width:1.0;" x1="211" x2="333" y1="109.2969" y2="109.2969"/><text fill="#000000" font-family="sans-serif" font-size="14" font-weight="bold" lengthAdjust="spacing" textLength="36" x="216" y="124.292">type</text><text fill="#000000" font-family="sans-serif" font-size="14" lengthAdjust="spacing" textLength="58" x="270" y="124.292">char[20]</text><line style="stroke:#000000;stroke-width:1.0;" x1="265" x2="265" y1="109.2969" y2="129.5938"/><rect fill="none" height="40.5938" rx="5" ry="5" style="stroke:#000000;stroke-width:1.5;" width="122" x="211" y="89"/><rect fill="#F1F1F1" height="40.5938" rx="5" ry="5" style="stroke:#F1F1F1;stroke-width:1.5;" width="131" x="206.5" y="148"/><text fill="#000000" font-family="sans-serif" font-size="14" font-weight="bold" lengthAdjust="spacing" textLength="44" x="211.5" y="162.9951">name</text><text fill="#000000" font-family="sans-serif" font-size="14" lengthAdjust="spacing" textLength="67" x="265.5" y="162.9951">password</text><line style="stroke:#000000;stroke-width:1.0;" x1="260.5" x2="260.5" y1="148" y2="168.2969"/><line style="stroke:#000000;stroke-width:1.0;" x1="206.5" x2="337.5" y1="168.2969" y2="168.2969"/><text fill="#000000" font-family="sans-serif" font-size="14" font-weight="bold" lengthAdjust="spacing" textLength="36" x="211.5" y="183.292">type</text><text fill="#000000" font-family="sans-serif" font-size="14" lengthAdjust="spacing" textLength="58" x="265.5" y="183.292">char[20]</text><line style="stroke:#000000;stroke-width:1.0;" x1="260.5" x2="260.5" y1="168.2969" y2="188.5938"/><rect fill="none" height="40.5938" rx="5" ry="5" style="stroke:#000000;stroke-width:1.5;" width="131" x="206.5" y="148"/><rect fill="#F1F1F1" height="40.5938" rx="5" ry="5" style="stroke:#F1F1F1;stroke-width:1.5;" width="122" x="211" y="207"/><text fill="#000000" font-family="sans-serif" font-size="14" font-weight="bold" lengthAdjust="spacing" textLength="44" x="216" y="221.9951">name</text><text fill="#000000" font-family="sans-serif" font-size="14" lengthAdjust="spacing" textLength="44" x="270" y="221.9951">status</text><line style="stroke:#000000;stroke-width:1.0;" x1="265" x2="265" y1="207" y2="227.2969"/><line style="stroke:#000000;stroke-width:1.0;" x1="211" x2="333" y1="227.2969" y2="227.2969"/><text fill="#000000" font-family="sans-serif" font-size="14" font-weight="bold" lengthAdjust="spacing" textLength="36" x="216" y="242.292">type</text><text fill="#000000" font-family="sans-serif" font-size="14" lengthAdjust="spacing" textLength="58" x="270" y="242.292">char[20]</text><line style="stroke:#000000;stroke-width:1.0;" x1="265" x2="265" y1="227.2969" y2="247.5938"/><rect fill="none" height="40.5938" rx="5" ry="5" style="stroke:#000000;stroke-width:1.5;" width="122" x="211" y="207"/><rect fill="#F1F1F1" height="40.5938" rx="5" ry="5" style="stroke:#F1F1F1;stroke-width:1.5;" width="148" x="198" y="266"/><text fill="#000000" font-family="sans-serif" font-size="14" font-weight="bold" lengthAdjust="spacing" textLength="44" x="203" y="280.9951">name</text><text fill="#000000" font-family="sans-serif" font-size="14" lengthAdjust="spacing" textLength="84" x="257" y="280.9951">last_update</text><line style="stroke:#000000;stroke-width:1.0;" x1="252" x2="252" y1="266" y2="286.2969"/><line style="stroke:#000000;stroke-width:1.0;" x1="198" x2="346" y1="286.2969" y2="286.2969"/><text fill="#000000" font-family="sans-serif" font-size="14" font-weight="bold" lengthAdjust="spacing" textLength="36" x="203" y="301.292">type</text><text fill="#000000" font-family="sans-serif" font-size="14" lengthAdjust="spacing" textLength="58" x="257" y="301.292">char[20]</text><line style="stroke:#000000;stroke-width:1.0;" x1="252" x2="252" y1="286.2969" y2="306.5938"/><rect fill="none" height="40.5938" rx="5" ry="5" style="stroke:#000000;stroke-width:1.5;" width="148" x="198" y="266"/><rect fill="#F1F1F1" height="60.8906" rx="5" ry="5" style="stroke:#F1F1F1;stroke-width:1.5;" width="133" x="205.5" y="325"/><text fill="#000000" font-family="sans-serif" font-size="14" font-weight="bold" lengthAdjust="spacing" textLength="44" x="210.5" y="339.9951">name</text><text fill="#000000" font-family="sans-serif" font-size="14" lengthAdjust="spacing" textLength="49" x="264.5" y="339.9951">groups</text><line style="stroke:#000000;stroke-width:1.0;" x1="259.5" x2="259.5" y1="325" y2="345.2969"/><line style="stroke:#000000;stroke-width:1.0;" x1="205.5" x2="338.5" y1="345.2969" y2="345.2969"/><text fill="#000000" font-family="sans-serif" font-size="14" font-weight="bold" lengthAdjust="spacing" textLength="36" x="210.5" y="360.292">type</text><text fill="#000000" font-family="sans-serif" font-size="14" lengthAdjust="spacing" textLength="30" x="264.5" y="360.292">int[]</text><line style="stroke:#000000;stroke-width:1.0;" x1="259.5" x2="259.5" y1="345.2969" y2="365.5938"/><line style="stroke:#000000;stroke-width:1.0;" x1="205.5" x2="338.5" y1="365.5938" y2="365.5938"/><text fill="#000000" font-family="sans-serif" font-size="14" font-weight="bold" lengthAdjust="spacing" textLength="16" x="210.5" y="380.5889">fk</text><text fill="#000000" font-family="sans-serif" font-size="14" lengthAdjust="spacing" textLength="69" x="264.5" y="380.5889">Groups.id</text><line style="stroke:#000000;stroke-width:1.0;" x1="259.5" x2="259.5" y1="365.5938" y2="385.8906"/><rect fill="none" height="60.8906" rx="5" ry="5" style="stroke:#000000;stroke-width:1.5;" width="133" x="205.5" y="325"/><rect fill="#F1F1F1" height="60.8906" rx="5" ry="5" style="stroke:#F1F1F1;stroke-width:1.5;" width="120" x="212" y="404"/><text fill="#000000" font-family="sans-serif" font-size="14" font-weight="bold" lengthAdjust="spacing" textLength="44" x="217" y="418.9951">name</text><text fill="#000000" font-family="sans-serif" font-size="14" lengthAdjust="spacing" textLength="50" x="271" y="418.9951">friends</text><line style="stroke:#000000;stroke-width:1.0;" x1="266" x2="266" y1="404" y2="424.2969"/><line style="stroke:#000000;stroke-width:1.0;" x1="212" x2="332" y1="424.2969" y2="424.2969"/><text fill="#000000" font-family="sans-serif" font-size="14" font-weight="bold" lengthAdjust="spacing" textLength="36" x="217" y="439.292">type</text><text fill="#000000" font-family="sans-serif" font-size="14" lengthAdjust="spacing" textLength="30" x="271" y="439.292">int[]</text><line style="stroke:#000000;stroke-width:1.0;" x1="266" x2="266" y1="424.2969" y2="444.5938"/><line style="stroke:#000000;stroke-width:1.0;" x1="212" x2="332" y1="444.5938" y2="444.5938"/><text fill="#000000" font-family="sans-serif" font-size="14" font-weight="bold" lengthAdjust="spacing" textLength="16" x="217" y="459.5889">fk</text><text fill="#000000" font-family="sans-serif" font-size="14" lengthAdjust="spacing" textLength="56" x="271" y="459.5889">Users.id</text><line style="stroke:#000000;stroke-width:1.0;" x1="266" x2="266" y1="444.5938" y2="464.8906"/><rect fill="none" height="60.8906" rx="5" ry="5" style="stroke:#000000;stroke-width:1.5;" width="120" x="212" y="404"/><rect fill="#F1F1F1" height="40.5938" rx="5" ry="5" style="stroke:#F1F1F1;stroke-width:1.5;" width="132" x="206" y="483"/><text fill="#000000" font-family="sans-serif" font-size="14" font-weight="bold" lengthAdjust="spacing" textLength="44" x="211" y="497.9951">name</text><text fill="#000000" font-family="sans-serif" font-size="14" lengthAdjust="spacing" textLength="26" x="265" y="497.9951">key</text><line style="stroke:#000000;stroke-width:1.0;" x1="260" x2="260" y1="483" y2="503.2969"/><line style="stroke:#000000;stroke-width:1.0;" x1="206" x2="338" y1="503.2969" y2="503.2969"/><text fill="#000000" font-family="sans-serif" font-size="14" font-weight="bold" lengthAdjust="spacing" textLength="36" x="211" y="518.292">type</text><text fill="#000000" font-family="sans-serif" font-size="14" lengthAdjust="spacing" textLength="68" x="265" y="518.292">char[100]</text><line style="stroke:#000000;stroke-width:1.0;" x1="260" x2="260" y1="503.2969" y2="523.5938"/><rect fill="none" height="40.5938" rx="5" ry="5" style="stroke:#000000;stroke-width:1.5;" width="132" x="206" y="483"/><rect fill="#F1F1F1" height="81.1875" rx="5" ry="5" style="stroke:#F1F1F1;stroke-width:1.5;" width="22" x="137" y="612"/><text fill="#000000" font-family="sans-serif" font-size="14" lengthAdjust="spacing" textLength="12" x="142" y="626.9951">   </text><line style="stroke:#000000;stroke-width:1.0;" x1="137" x2="159" y1="632.2969" y2="632.2969"/><text fill="#000000" font-family="sans-serif" font-size="14" lengthAdjust="spacing" textLength="12" x="142" y="647.292">   </text><line style="stroke:#000000;stroke-width:1.0;" x1="137" x2="159" y1="652.5938" y2="652.5938"/><text fill="#000000" font-family="sans-serif" font-size="14" lengthAdjust="spacing" textLength="12" x="142" y="667.5889">   </text><line style="stroke:#000000;stroke-width:1.0;" x1="137" x2="159" y1="672.8906" y2="672.8906"/><text fill="#000000" font-family="sans-serif" font-size="14" lengthAdjust="spacing" textLength="12" x="142" y="687.8857">   </text><rect fill="none" height="81.1875" rx="5" ry="5" style="stroke:#000000;stroke-width:1.5;" width="22" x="137" y="612"/><rect fill="#F1F1F1" height="60.8906" rx="5" ry="5" style="stroke:#F1F1F1;stroke-width:1.5;" width="111" x="216.5" y="542"/><text fill="#000000" font-family="sans-serif" font-size="14" font-weight="bold" lengthAdjust="spacing" textLength="44" x="221.5" y="556.9951">name</text><text fill="#000000" font-family="sans-serif" font-size="14" lengthAdjust="spacing" textLength="13" x="275.5" y="556.9951">id</text><line style="stroke:#000000;stroke-width:1.0;" x1="270.5" x2="270.5" y1="542" y2="562.2969"/><line style="stroke:#000000;stroke-width:1.0;" x1="216.5" x2="327.5" y1="562.2969" y2="562.2969"/><text fill="#000000" font-family="sans-serif" font-size="14" font-weight="bold" lengthAdjust="spacing" textLength="36" x="221.5" y="577.292">type</text><text fill="#000000" font-family="sans-serif" font-size="14" lengthAdjust="spacing" textLength="20" x="275.5" y="577.292">int</text><line style="stroke:#000000;stroke-width:1.0;" x1="270.5" x2="270.5" y1="562.2969" y2="582.5938"/><line style="stroke:#000000;stroke-width:1.0;" x1="216.5" x2="327.5" y1="582.5938" y2="582.5938"/><text fill="#000000" font-family="sans-serif" font-size="14" font-weight="bold" lengthAdjust="spacing" textLength="19" x="221.5" y="597.5889">pk</text><text fill="#000000" font-family="sans-serif" font-size="14" lengthAdjust="spacing" textLength="47" x="275.5" y="597.5889">☑ true</text><line style="stroke:#000000;stroke-width:1.0;" x1="270.5" x2="270.5" y1="582.5938" y2="602.8906"/><rect fill="none" height="60.8906" rx="5" ry="5" style="stroke:#000000;stroke-width:1.5;" width="111" x="216.5" y="542"/><rect fill="#F1F1F1" height="40.5938" rx="5" ry="5" style="stroke:#F1F1F1;stroke-width:1.5;" width="122" x="211" y="621"/><text fill="#000000" font-family="sans-serif" font-size="14" font-weight="bold" lengthAdjust="spacing" textLength="44" x="216" y="635.9951">name</text><text fill="#000000" font-family="sans-serif" font-size="14" lengthAdjust="spacing" textLength="40" x="270" y="635.9951">name</text><line style="stroke:#000000;stroke-width:1.0;" x1="265" x2="265" y1="621" y2="641.2969"/><line style="stroke:#000000;stroke-width:1.0;" x1="211" x2="333" y1="641.2969" y2="641.2969"/><text fill="#000000" font-family="sans-serif" font-size="14" font-weight="bold" lengthAdjust="spacing" textLength="36" x="216" y="656.292">type</text><text fill="#000000" font-family="sans-serif" font-size="14" lengthAdjust="spacing" textLength="58" x="270" y="656.292">char[20]</text><line style="stroke:#000000;stroke-width:1.0;" x1="265" x2="265" y1="641.2969" y2="661.5938"/><rect fill="none" height="40.5938" rx="5" ry="5" style="stroke:#000000;stroke-width:1.5;" width="122" x="211" y="621"/><rect fill="#F1F1F1" height="40.5938" rx="5" ry="5" style="stroke:#F1F1F1;stroke-width:1.5;" width="146" x="199" y="680"/><text fill="#000000" font-family="sans-serif" font-size="14" font-weight="bold" lengthAdjust="spacing" textLength="44" x="204" y="694.9951">name</text><text fill="#000000" font-family="sans-serif" font-size="14" lengthAdjust="spacing" textLength="82" x="258" y="694.9951">description</text><line style="stroke:#000000;stroke-width:1.0;" x1="253" x2="253" y1="680" y2="700.2969"/><line style="stroke:#000000;stroke-width:1.0;" x1="199" x2="345" y1="700.2969" y2="700.2969"/><text fill="#000000" font-family="sans-serif" font-size="14" font-weight="bold" lengthAdjust="spacing" textLength="36" x="204" y="715.292">type</text><text fill="#000000" font-family="sans-serif" font-size="14" lengthAdjust="spacing" textLength="67" x="258" y="715.292">char[255]</text><line style="stroke:#000000;stroke-width:1.0;" x1="253" x2="253" y1="700.2969" y2="720.5938"/><rect fill="none" height="40.5938" rx="5" ry="5" style="stroke:#000000;stroke-width:1.5;" width="146" x="199" y="680"/><rect fill="#F1F1F1" height="60.8906" rx="5" ry="5" style="stroke:#F1F1F1;stroke-width:1.5;" width="120" x="212" y="739"/><text fill="#000000" font-family="sans-serif" font-size="14" font-weight="bold" lengthAdjust="spacing" textLength="44" x="217" y="753.9951">name</text><text fill="#000000" font-family="sans-serif" font-size="14" lengthAdjust="spacing" textLength="37" x="271" y="753.9951">users</text><line style="stroke:#000000;stroke-width:1.0;" x1="266" x2="266" y1="739" y2="759.2969"/><line style="stroke:#000000;stroke-width:1.0;" x1="212" x2="332" y1="759.2969" y2="759.2969"/><text fill="#000000" font-family="sans-serif" font-size="14" font-weight="bold" lengthAdjust="spacing" textLength="36" x="217" y="774.292">type</text><text fill="#000000" font-family="sans-serif" font-size="14" lengthAdjust="spacing" textLength="30" x="271" y="774.292">int[]</text><line style="stroke:#000000;stroke-width:1.0;" x1="266" x2="266" y1="759.2969" y2="779.5938"/><line style="stroke:#000000;stroke-width:1.0;" x1="212" x2="332" y1="779.5938" y2="779.5938"/><text fill="#000000" font-family="sans-serif" font-size="14" font-weight="bold" lengthAdjust="spacing" textLength="16" x="217" y="794.5889">fk</text><text fill="#000000" font-family="sans-serif" font-size="14" lengthAdjust="spacing" textLength="56" x="271" y="794.5889">Users.id</text><line style="stroke:#000000;stroke-width:1.0;" x1="266" x2="266" y1="779.5938" y2="799.8906"/><rect fill="none" height="60.8906" rx="5" ry="5" style="stroke:#000000;stroke-width:1.5;" width="120" x="212" y="739"/><path d="M149.5,207.5 L149.5,194.5 C149.5,139.0294 160.5546,120.4246 198,79.5 C201.6873,75.4701 205.8888,71.7799 210.3723,68.4168 " fill="none" style="stroke:#000000;stroke-width:1.0;stroke-dasharray:3.0,3.0;"/><path d="M212.126,70.9235 L212.2523,67.1015 L208.6185,65.9101 L216.639,64.0325 L212.126,70.9235 " fill="#000000" style="stroke:#000000;stroke-width:1.0;"/><ellipse cx="149.5" cy="207.5" fill="#000000" rx="3" ry="3" style="stroke:#000000;stroke-width:1.0;"/><path d="M149,225.5 L162,225.5 C203.8463,225.5 168.1666,167.8442 198,138.5 C200.0782,136.4559 202.3178,134.5513 204.6778,132.7772 " fill="none" style="stroke:#000000;stroke-width:1.0;stroke-dasharray:3.0,3.0;"/><path d="M206.4369,135.377 L206.6276,131.4578 L202.9187,130.1773 L211.1774,128.3794 L206.4369,135.377 " fill="#000000" style="stroke:#000000;stroke-width:1.0;"/><ellipse cx="149" cy="225.5" fill="#000000" rx="3" ry="3" style="stroke:#000000;stroke-width:1.0;"/><path d="M149,245.5 L162,245.5 C188.6667,245.5 176.7961,213.6712 198,197.5 C200.0179,195.961 202.128,194.4931 204.3064,193.0938 " fill="none" style="stroke:#000000;stroke-width:1.0;stroke-dasharray:3.0,3.0;"/><path d="M205.9039,195.7804 L206.3213,191.8957 L202.709,190.4073 L211.0228,189.1002 L205.9039,195.7804 " fill="#000000" style="stroke:#000000;stroke-width:1.0;"/><ellipse cx="149" cy="245.5" fill="#000000" rx="3" ry="3" style="stroke:#000000;stroke-width:1.0;"/><path d="M149,265.5 L162,265.5 C167.4926,265.5 188.2182,258.5878 210.184,250.6594 " fill="none" style="stroke:#000000;stroke-width:1.0;stroke-dasharray:3.0,3.0;"/><path d="M211.2249,253.5224 L212.3313,249.8787 L209.143,247.7964 L217.3416,248.057 L211.2249,253.5224 " fill="#000000" style="stroke:#000000;stroke-width:1.0;"/><ellipse cx="149" cy="265.5" fill="#000000" rx="3" ry="3" style="stroke:#000000;stroke-width:1.0;"/><path d="M149,286.5 L162,286.5 C171.3003,286.5 181.0448,286.5 190.7243,286.5 " fill="none" style="stroke:#000000;stroke-width:1.0;stroke-dasharray:3.0,3.0;"/><path d="M190.7243,289.5956 L193.046,286.5 L190.7243,283.4044 L198.4633,286.5 L190.7243,289.5956 " fill="#000000" style="stroke:#000000;stroke-width:1.0;"/><ellipse cx="149" cy="286.5" fill="#000000" rx="3" ry="3" style="stroke:#000000;stroke-width:1.0;"/><path d="M149,306.5 L162,306.5 C171.7907,306.5 189.1595,313.1093 207.2195,321.4731 " fill="none" style="stroke:#000000;stroke-width:1.0;stroke-dasharray:3.0,3.0;"/><path d="M205.8547,324.3581 L209.3833,322.4967 L208.5844,318.5881 L214.432,324.8852 L205.8547,324.3581 " fill="#000000" style="stroke:#000000;stroke-width:1.0;"/><ellipse cx="149" cy="306.5" fill="#000000" rx="3" ry="3" style="stroke:#000000;stroke-width:1.0;"/><path d="M149,326.5 L162,326.5 C196.1962,326.5 173.959,370.181 198,394.5 C200.547,397.0764 203.2952,399.5304 206.1813,401.8615 " fill="none" style="stroke:#000000;stroke-width:1.0;stroke-dasharray:3.0,3.0;"/><path d="M204.3365,404.3004 L208.0105,403.245 L208.026,399.4225 L212.2786,406.4733 L204.3365,404.3004 " fill="#000000" style="stroke:#000000;stroke-width:1.0;"/><ellipse cx="149" cy="326.5" fill="#000000" rx="3" ry="3" style="stroke:#000000;stroke-width:1.0;"/><path d="M149.5,345.5 L149.5,358.5 C149.5,413.9706 158.5499,434.5042 198,473.5 C199.7643,475.244 201.6439,476.8911 203.6139,478.4463 " fill="none" style="stroke:#000000;stroke-width:1.0;stroke-dasharray:3.0,3.0;"/><path d="M201.856,480.9086 L205.4606,479.7647 L205.3718,475.9839 L209.7698,482.841 L201.856,480.9086 " fill="#000000" style="stroke:#000000;stroke-width:1.0;"/><ellipse cx="149.5" cy="345.5" fill="#000000" rx="3" ry="3" style="stroke:#000000;stroke-width:1.0;"/><path d="M89.5,455.5 L89.5,442.5 C89.5,389.8951 116.1311,333.0466 133.6094,301.4011 " fill="none" style="stroke:#000000;stroke-width:1.0;stroke-dasharray:3.0,3.0;"/><path d="M136.3034,302.9183 L134.7474,299.3806 L130.9155,299.8838 L137.4026,294.6662 L136.3034,302.9183 " fill="#000000" style="stroke:#000000;stroke-width:1.0;"/><ellipse cx="89.5" cy="455.5" fill="#000000" rx="3" ry="3" style="stroke:#000000;stroke-width:1.0;"/><path d="M149,621.5 L162,621.5 C172.2483,621.5 190.7998,614.2585 209.7558,605.3431 " fill="none" style="stroke:#000000;stroke-width:1.0;stroke-dasharray:3.0,3.0;"/><path d="M211.0958,608.1381 L211.852,604.3381 L208.4158,602.5481 L216.7433,601.9931 L211.0958,608.1381 " fill="#000000" style="stroke:#000000;stroke-width:1.0;"/><ellipse cx="149" cy="621.5" fill="#000000" rx="3" ry="3" style="stroke:#000000;stroke-width:1.0;"/><path d="M149,641.5 L162,641.5 C175.4736,641.5 189.8798,641.5 203.6695,641.5 " fill="none" style="stroke:#000000;stroke-width:1.0;stroke-dasharray:3.0,3.0;"/><path d="M203.6695,644.5351 L205.9458,641.5 L203.6695,638.4649 L211.2571,641.5 L203.6695,644.5351 " fill="#000000" style="stroke:#000000;stroke-width:1.0;"/><ellipse cx="149" cy="641.5" fill="#000000" rx="3" ry="3" style="stroke:#000000;stroke-width:1.0;"/><path d="M149,662.5 L162,662.5 C167.4926,662.5 188.2182,669.4122 210.184,677.3406 " fill="none" style="stroke:#000000;stroke-width:1.0;stroke-dasharray:3.0,3.0;"/><path d="M209.143,680.2036 L212.3313,678.1213 L211.2249,674.4776 L217.3416,679.943 L209.143,680.2036 " fill="#000000" style="stroke:#000000;stroke-width:1.0;"/><ellipse cx="149" cy="662.5" fill="#000000" rx="3" ry="3" style="stroke:#000000;stroke-width:1.0;"/><path d="M149,682.5 L162,682.5 C188.6667,682.5 177.7348,713.167 198,730.5 C200.47,732.6126 203.0736,734.6551 205.7682,736.6236 " fill="none" style="stroke:#000000;stroke-width:1.0;stroke-dasharray:3.0,3.0;"/><path d="M203.9856,739.1966 L207.698,737.9605 L207.5509,734.0505 L212.2008,741.0802 L203.9856,739.1966 " fill="#000000" style="stroke:#000000;stroke-width:1.0;"/><ellipse cx="149" cy="682.5" fill="#000000" rx="3" ry="3" style="stroke:#000000;stroke-width:1.0;"/><path d="M89.5,473.5 L89.5,486.5 C89.5,539.1049 116.1311,595.9534 133.6094,627.5989 " fill="none" style="stroke:#000000;stroke-width:1.0;stroke-dasharray:3.0,3.0;"/><path d="M130.9155,629.1162 L134.7474,629.6194 L136.3034,626.0817 L137.4026,634.3338 L130.9155,629.1162 " fill="#000000" style="stroke:#000000;stroke-width:1.0;"/><ellipse cx="89.5" cy="473.5" fill="#000000" rx="3" ry="3" style="stroke:#000000;stroke-width:1.0;"/><!--SRC=[xLVVJ-9047xlNx7N9qqK45kyuyb3H6CWCIA-67DPsW7sQ7Tx-mD2ZF_xpROzwIabSEB39PHGsjbllszdPZiTpfMcKlzKWXC5SWQotNA-w0d4G6PiA2dNP2H5J2PQ9wfPhKewhuoPdfYXGNmWk0QkAu68gqc4O1D7oukOAWsoch8fntbs21xk0ESfjqaUqrjxFBzUkPp6W6Ck2zsZfLKlaipATT6SJD6efO5NqylHEjBqTmLjCA7oiLvxSZVaIQXISo73NN1X-BLHks2ACDe_J19IlHCdnrAOH9LauV6fE32oUN2lqWaLpDo62YF9W8VRIAHRPmk5AInAGt5I-oiMwTLJUivcvFxyrnir11L8bcWcU3cTxs_CPz97zqFvokFyufnZxctPSPpp5IL8JHbFgAGnQT5WQlSY3oz492Jff4S1e2Oq57F6nsH48mM5aRjibkGWoLd1_brACS_OFDzhU7vXh8CLhMIe3xyCy02wR8HV3Yqi0I0pSEER_Qm0fxle6YWYDw1EqKlSUjRDzJFa_OG5KmvAaHEd6BySsMOpXgWyxqNoVBbBSv79Mjzvzb8KmBDc0KlikoGdVvVJngbtjavtgP3dV-LYAc-KiHRI8LLG8bkhlQ5Q8xlACNppCRqezUdIz-l_Jiw5Bblt6QwwxMr5lL6uQA25BD5ynxEbEqDBHULdHSis8b94dyOUHH3OCgfA5VoEzm45V0GDxERfM9VhVGksRy7sBTY-1NlRWjtQlso3NfTWzwLmgLWlwhNwQULa29fw1mC-vMBEiGx62Ok0Q1R3eNDmTTibIXWP00cPqf8DZVNpqBcXCqhk3BUu9h5t1_UzGzA__6Cabtp6fE0nlaATcuTU1YBNGlSJeLDmmpjkCOrzZEq8oKFFQSE8caZZr424sEuroU2-S_pLwL8-DdICGi2T2ooRMYvmhFyR]--></g></svg>